<svg width="32" height="32" viewBox="0 0 32 32" fill="none" xmlns="http://www.w3.org/2000/svg">
<path fill-rule="evenodd" clip-rule="evenodd" d="M16.0001 31.8333C8.53618 31.8333 4.80422 31.8333 2.48549 29.5146C0.166748 27.1958 0.166748 23.4639 0.166748 16C0.166748 8.53605 0.166748 4.8041 2.48549 2.48536C4.80422 0.166626 8.53618 0.166626 16.0001 0.166626C23.464 0.166626 27.1959 0.166626 29.5147 2.48536C31.8334 4.8041 31.8334 8.53605 31.8334 16C31.8334 23.4639 31.8334 27.1958 29.5147 29.5146C27.1959 31.8333 23.464 31.8333 16.0001 31.8333ZM16.0001 10.0625C16.6559 10.0625 17.1876 10.5941 17.1876 11.25V14.8125H20.7501C21.4059 14.8125 21.9376 15.3442 21.9376 16C21.9376 16.6558 21.4059 17.1875 20.7501 17.1875H17.1876L17.1876 20.75C17.1876 21.4058 16.6559 21.9375 16.0001 21.9375C15.3442 21.9375 14.8126 21.4058 14.8126 20.75V17.1875H11.2501C10.5942 17.1875 10.0626 16.6558 10.0626 16C10.0626 15.3442 10.5942 14.8125 11.2501 14.8125H14.8126L14.8126 11.25C14.8126 10.5941 15.3442 10.0625 16.0001 10.0625Z" fill="#4455FB"/>
</svg>
