<svg width="375" height="375" viewBox="0 0 375 375" fill="none" xmlns="http://www.w3.org/2000/svg">
<g clip-path="url(#clip0_2_9510)">
<path d="M192.418 49.3121C119.542 47.1601 56.4147 100.039 46.878 169.423C36.4508 245.285 93.843 313.542 164.462 324.475C252.301 338.073 337.499 259.406 329.849 174.065C324.086 109.767 266.499 51.4994 192.418 49.3121Z" fill="#F4F7FA"/>
<mask id="mask0_2_9510" style="mask-type:luminance" maskUnits="userSpaceOnUse" x="52" y="45" width="139" height="253">
<path d="M190.222 297.999H52.5677V45.9906H190.222L179.987 171.067L190.222 297.999Z" fill="white"/>
</mask>
<g mask="url(#mask0_2_9510)">
<path d="M195.977 295.879C198.636 296.032 204.553 294.019 205.879 292.859C214.705 285.136 232.17 271.75 233.74 259.452C234.008 257.351 225.087 253.678 224.144 251.526C219.024 247.803 217.017 246.829 213.888 240.9C204.652 223.392 237.623 199.975 207.406 183.887C185.273 172.102 163.888 176.47 173.279 140.438C182.67 104.406 166.225 32.4381 122.888 50.6584C98.0165 61.115 114.641 96.3822 98.9525 117.143C84.0455 136.87 89.903 156.519 110.565 173.922C131.228 191.327 116.992 199.045 106.387 218.461C93.6479 241.785 131.032 253.369 148.748 257.244C163.015 260.363 197.235 277.935 195.977 295.879Z" fill="#D8DEE8"/>
<mask id="mask1_2_9510" style="mask-type:luminance" maskUnits="userSpaceOnUse" x="90" y="47" width="144" height="249">
<path d="M195.977 295.879C198.636 296.032 204.553 294.019 205.879 292.859C214.705 285.136 232.17 271.75 233.74 259.452C234.008 257.351 225.087 253.678 224.144 251.526C219.024 247.803 217.017 246.829 213.888 240.9C204.652 223.392 237.623 199.975 207.406 183.887C185.273 172.102 163.888 176.47 173.279 140.438C182.67 104.406 166.225 32.4381 122.888 50.6584C98.0165 61.115 114.641 96.3822 98.9525 117.143C84.0455 136.87 89.903 156.519 110.565 173.922C131.228 191.327 116.992 199.045 106.387 218.461C93.6479 241.785 131.032 253.369 148.748 257.244C163.015 260.363 197.235 277.935 195.977 295.879Z" fill="white"/>
</mask>
<g mask="url(#mask1_2_9510)">
<path d="M219.288 277.141L219.626 276.686C149.633 224.656 118.096 136.738 135.263 41.5048L134.706 41.4037C126.57 86.5371 129.539 131.748 143.29 172.149C157.747 214.623 184.027 250.93 219.288 277.141Z" fill="#FCFDFE"/>
<path d="M99.9804 227.547C123.63 224.426 160.925 231.23 183.117 242.714L183.377 242.211C161.096 230.681 123.652 223.851 99.9056 226.985L99.9804 227.547Z" fill="#FCFDFE"/>
<path d="M141.138 164.952C127.189 145.564 103.768 136.449 86.3784 132.345L86.248 132.897C103.775 137.033 127.477 146.118 141.251 165.905C141.259 165.813 141.132 165.148 141.138 164.952Z" fill="#FCFDFE"/>
<path d="M131.447 111.308C134.572 83.8676 154.633 62.9394 166.313 52.9064L165.944 52.4768C154.368 62.4209 134.602 83.0166 131.028 110.073C130.977 110.462 131.447 111.308 131.447 111.308Z" fill="#FCFDFE"/>
</g>
</g>
<path d="M207.985 320.082C210.493 319.247 215.212 315.22 216.009 313.663C221.315 303.301 232.509 284.547 229.443 272.629C228.92 270.593 219.344 270.48 217.685 268.842C211.597 267.287 209.389 267.125 204.327 262.804C189.385 250.048 211.198 216.353 177.428 212.604C152.692 209.858 134.572 221.734 130.01 185.058C125.448 148.383 83.8716 88.0473 50.5916 120.754C31.4919 139.524 59.7655 165.948 52.9154 190.851C46.407 214.514 59.0195 230.486 84.4619 238.953C109.904 247.421 99.6075 259.763 96.9532 281.561C93.7641 307.746 132.491 304.709 150.252 301.782C164.553 299.426 202.561 303.073 207.985 320.082Z" fill="#FE8794"/>
<mask id="mask2_2_9510" style="mask-type:luminance" maskUnits="userSpaceOnUse" x="43" y="111" width="187" height="210">
<path d="M207.985 320.082C210.493 319.247 215.212 315.22 216.009 313.663C221.315 303.301 232.509 284.547 229.443 272.629C228.92 270.593 219.344 270.48 217.685 268.842C211.597 267.287 209.389 267.125 204.327 262.804C189.385 250.048 211.198 216.353 177.428 212.604C152.692 209.858 134.572 221.734 130.01 185.058C125.448 148.383 83.8716 88.0473 50.5916 120.754C31.4919 139.524 59.7655 165.948 52.9154 190.851C46.407 214.514 59.0195 230.486 84.4619 238.953C109.904 247.421 99.6075 259.763 96.9532 281.561C93.7641 307.746 132.491 304.709 150.252 301.782C164.553 299.426 202.561 303.073 207.985 320.082Z" fill="white"/>
</mask>
<g mask="url(#mask2_2_9510)">
<path d="M222.607 294.248L222.752 293.705C139.11 271.406 77.7604 201.899 58.6445 107.772L58.0936 107.883C67.1533 152.492 86.4824 193.098 113.991 225.31C142.909 259.177 180.469 283.014 222.607 294.248Z" fill="#FCFDFE"/>
<path d="M94.3787 292.293C115.043 280.736 151.935 273.324 176.616 275.771L176.671 275.212C151.893 272.754 114.854 280.198 94.1047 291.803L94.3787 292.293Z" fill="#FCFDFE"/>
<path d="M206.238 289.683L206.527 289.201C195.478 282.558 188.213 270.583 184.932 253.612C182.526 241.168 182.278 226.376 184.198 209.647L183.639 209.584C181.714 226.37 181.963 241.219 184.38 253.719C187.692 270.853 195.046 282.953 206.238 289.683Z" fill="#FCFDFE"/>
<path d="M110.263 220.587C110.263 220.587 109.666 219.639 109.153 219.315C89.2207 206.734 64.3595 206.901 46.8972 209.487L46.9801 210.043C64.7931 207.405 90.2304 207.094 110.263 220.587Z" fill="#FCFDFE"/>
<path d="M80.9414 174.268C80.9232 174.201 80.7058 173.414 80.6876 173.347C73.6091 146.96 84.3932 120.397 91.4646 106.892L90.9663 106.631C83.9929 119.949 73.5283 146.03 79.8527 172.094C79.9922 172.67 80.9414 174.268 80.9414 174.268Z" fill="#FCFDFE"/>
</g>
<path d="M144.298 242.543L142.344 238.584C143.969 237.367 145.472 236.03 146.831 234.578L150.491 237.022C151.49 237.689 152.839 237.411 153.506 236.399L157.681 230.068C158.349 229.054 158.082 227.69 157.084 227.019L153.387 224.536C154.184 222.686 154.823 220.77 155.296 218.808L159.747 219.086C160.948 219.161 161.986 218.234 162.067 217.016L162.574 209.384C162.655 208.161 161.746 207.107 160.542 207.03L156.074 206.745C155.859 204.754 155.462 202.764 154.895 200.795L158.935 198.759C160.02 198.212 160.468 196.875 159.934 195.77L156.592 188.851C156.057 187.742 154.741 187.287 153.653 187.835L149.601 189.876C148.403 188.21 147.083 186.666 145.648 185.266L148.149 181.436C148.823 180.403 148.551 179.007 147.538 178.315L141.193 173.986C140.176 173.293 138.805 173.571 138.13 174.607L135.632 178.445C133.782 177.613 131.864 176.947 129.9 176.449L130.172 171.844C130.245 170.597 129.314 169.518 128.092 169.435L120.44 168.914C119.215 168.83 118.164 169.775 118.094 171.024L117.835 175.591C115.834 175.807 113.836 176.214 111.862 176.797L109.838 172.693C109.284 171.57 107.944 171.106 106.847 171.659L99.9845 175.117C98.8868 175.67 98.4502 177.028 99.0071 178.149L101.028 182.215C99.3639 183.453 97.8305 184.819 96.4448 186.301L92.7261 183.805C91.6941 183.111 90.3134 183.391 89.6442 184.429L85.4616 190.915C84.7935 191.951 85.0896 193.349 86.1217 194.039L89.8231 196.511C89.0175 198.413 88.3828 200.383 87.9198 202.397L83.53 202.117C82.3029 202.038 81.2588 202.978 81.1981 204.214L80.8181 211.932C80.7574 213.164 81.7005 214.223 82.9245 214.3L87.2699 214.571C87.5165 216.603 87.9532 218.628 88.5647 220.63L84.6894 222.582C83.6018 223.13 83.1712 224.465 83.7291 225.563L87.2062 232.414C87.7611 233.508 89.0903 233.951 90.1749 233.404L94.0391 231.457C95.2803 233.125 96.6429 234.664 98.1196 236.053L95.7655 239.669C95.1035 240.685 95.3925 242.052 96.4104 242.72L102.764 246.896C103.778 247.562 105.136 247.281 105.799 246.268L108.17 242.638C110.034 243.441 111.961 244.081 113.931 244.545L113.686 248.886C113.617 250.094 114.539 251.13 115.744 251.2L123.269 251.636C124.471 251.706 125.503 250.785 125.574 249.579L125.832 245.225C127.806 244.989 129.776 244.572 131.722 243.979L133.672 247.901C134.209 248.981 135.515 249.416 136.59 248.874L143.317 245.485C144.392 244.94 144.832 243.624 144.298 242.543ZM141.643 200.688C147.073 211.803 142.605 225.223 131.694 230.719C120.782 236.217 107.463 231.759 101.914 220.703C96.3316 209.581 100.723 196.01 111.754 190.452C122.786 184.894 136.181 189.505 141.643 200.688Z" fill="white"/>
<path d="M287.72 243.328L283.451 234.243C287.052 231.523 290.385 228.523 293.405 225.257L301.456 230.952C303.651 232.504 306.632 231.913 308.117 229.63L317.417 215.333C318.907 213.043 318.337 209.918 316.142 208.353L308.013 202.554C309.799 198.353 311.239 193.994 312.308 189.522L322.141 190.315C324.791 190.529 327.1 188.447 327.298 185.662L328.542 168.201C328.741 165.401 326.746 162.95 324.086 162.729L314.203 161.908C313.754 157.329 312.906 152.745 311.679 148.199L320.657 143.676C323.068 142.461 324.08 139.403 322.915 136.843L315.614 120.78C314.442 118.203 311.528 117.101 309.107 118.321L300.087 122.866C297.449 118.975 294.536 115.363 291.367 112.075L296.972 103.335C298.484 100.978 297.894 97.7386 295.651 96.1002L281.588 85.8225C279.333 84.174 276.276 84.7592 274.763 87.1295L269.163 95.9051C265.052 93.9037 260.786 92.2814 256.415 91.0513L257.057 80.3977C257.231 77.5109 255.164 74.9698 252.439 74.7252L235.366 73.1868C232.63 72.9401 230.28 75.089 230.117 77.9829L229.519 88.5577C225.053 88.9742 220.593 89.8323 216.183 91.1008L211.672 81.5014C210.436 78.8714 207.444 77.7403 204.99 78.9765L189.643 86.708C187.189 87.9442 186.211 91.0756 187.459 93.6996L191.975 103.202C188.259 106 184.834 109.101 181.737 112.477L173.421 106.546C171.111 104.898 168.024 105.488 166.529 107.866L157.198 122.707C155.708 125.076 156.376 128.322 158.687 129.956L166.966 135.813C165.173 140.17 163.761 144.693 162.734 149.323L152.93 148.508C150.19 148.281 147.862 150.408 147.733 153.258L146.925 171.027C146.797 173.861 148.906 176.335 151.636 176.554L161.329 177.337C161.886 182.018 162.865 186.689 164.235 191.308L155.609 195.653C153.187 196.873 152.236 199.923 153.482 202.462L161.251 218.289C162.489 220.811 165.447 221.87 167.857 220.655L176.443 216.329C179.205 220.189 182.235 223.758 185.517 226.983L180.293 235.17C178.824 237.471 179.468 240.602 181.729 242.163L195.825 251.897C198.073 253.449 201.083 252.852 202.551 250.563L207.812 242.359C211.94 244.251 216.208 245.772 220.572 246.895L220.013 256.78C219.857 259.529 221.893 261.916 224.558 262.113L241.197 263.342C243.853 263.538 246.14 261.476 246.304 258.734L246.902 248.828C251.268 248.355 255.626 247.467 259.931 246.178L264.205 255.171C265.381 257.644 268.262 258.675 270.641 257.477L285.521 249.98C287.899 248.786 288.884 245.806 287.72 243.328ZM282.303 147.45C294.211 173.18 284.171 203.747 259.976 215.936C235.781 228.126 206.265 217.489 193.948 191.965C181.515 166.202 191.298 135.089 215.904 122.692C240.51 110.295 270.283 121.479 282.303 147.45Z" fill="url(#paint0_linear_2_9510)"/>
<path opacity="0.74" d="M291.112 141.786C277.006 109.942 240.819 95.7697 210.657 110.966C180.495 126.162 169.046 164.333 184.676 195.41C199.871 225.622 235.115 237.798 263.775 223.359C292.434 208.921 304.827 172.744 291.112 141.786ZM197.402 188.999C185.688 165.365 194.493 136.511 217.299 125.022C240.105 113.531 267.551 124.122 278.387 148.198C288.992 171.763 279.641 199.463 257.704 210.515C235.767 221.567 208.866 212.131 197.402 188.999Z" fill="white"/>
<path d="M200.182 140.278L187.845 131.506C182.214 140.18 178.816 150.246 177.939 160.693L192.502 161.895C193.307 154.138 195.932 146.692 200.182 140.278Z" fill="white"/>
<path d="M277.009 191.574L288.461 199.734C293.011 191.729 295.787 182.668 296.524 173.271L282.628 172.133C282.128 179.002 280.199 185.642 277.009 191.574Z" fill="white"/>
<path d="M244.635 121.138C251.293 122.378 257.646 125.153 263.209 129.263L271.244 116.703C263.596 110.994 254.785 107.213 245.561 105.668L244.635 121.138Z" fill="white"/>
<path d="M217.299 125.021C217.787 124.775 218.28 124.553 218.773 124.327L212.131 110.25C211.638 110.482 211.146 110.719 210.657 110.966C201.985 115.335 194.837 121.649 189.438 129.175L201.812 137.992C205.838 132.657 211.044 128.172 217.299 125.021Z" fill="white"/>
<path d="M257.704 210.514C251.688 213.545 245.322 215.027 239.016 215.129L238.159 229.441C246.793 229.462 255.534 227.511 263.775 223.36C264.24 223.125 264.7 222.885 265.156 222.64L259.086 209.773C258.628 210.024 258.173 210.278 257.704 210.514Z" fill="white"/>
<path d="M236.361 215.1C229.075 214.769 221.928 212.59 215.563 208.791L207.874 220.794C216.313 225.943 225.826 228.898 235.521 229.373L236.361 215.1Z" fill="white"/>
<path d="M275.653 193.94C272.101 199.711 267.288 204.705 261.379 208.427L267.451 221.334C275.58 216.474 282.2 209.813 287.072 202.058L275.653 193.94Z" fill="white"/>
<path d="M196.806 187.722C193.388 180.306 191.945 172.421 192.296 164.734L177.764 163.545C177.356 173.802 179.371 184.31 184.058 194.145L196.806 187.722Z" fill="white"/>
<path d="M213.27 207.322C207.136 203.149 201.851 197.388 198.057 190.243L185.323 196.659C190.368 206.176 197.42 213.824 205.589 219.327L213.27 207.322Z" fill="white"/>
<path d="M265.403 130.986C270.441 135.198 274.697 140.57 277.777 146.928L290.526 140.506C286.369 131.637 280.47 124.19 273.447 118.43L265.403 130.986Z" fill="white"/>
<path d="M221.31 123.253C228.05 120.663 235.092 119.882 241.914 120.712L242.822 105.274C233.488 104.169 223.844 105.359 214.668 109.136L221.31 123.253Z" fill="white"/>
<path d="M278.933 149.497C281.635 155.981 282.859 162.737 282.754 169.342L296.68 170.491C297 161.398 295.412 152.044 291.667 143.081L278.933 149.497Z" fill="white"/>
<path d="M265.744 209.203L262.732 207.489C262.732 207.489 262.152 205.64 262.079 192.961C262.005 180.282 276.607 168.938 281.097 168.675C285.586 168.412 280.989 188.671 280.989 188.671C279.87 188.438 278.243 188.278 276.511 188.845C272.056 190.303 270.196 195.487 268.606 199.919C267.764 202.266 266.039 204.779 265.744 209.203Z" fill="white"/>
<path d="M290.657 285.703C290.657 285.703 291.191 287.867 291.208 288.65C291.225 289.433 282.601 290.526 282.467 289.949C282.333 289.372 283.777 288.32 284.819 287.907C285.861 287.494 288.919 286.368 288.919 286.368L290.657 285.703Z" fill="url(#paint1_linear_2_9510)"/>
<path d="M288.381 283.687L288.875 286.39C288.875 286.39 289.934 286.974 290.779 286.39L290.984 283.388L288.381 283.687Z" fill="url(#paint2_linear_2_9510)"/>
<path d="M306.385 288.019C306.385 288.019 306.919 290.182 306.936 290.966C306.953 291.749 298.329 292.842 298.195 292.265C298.06 291.687 299.504 290.636 300.547 290.223C301.589 289.809 304.647 288.683 304.647 288.683L306.385 288.019Z" fill="url(#paint3_linear_2_9510)"/>
<path d="M304.109 286.003L304.603 288.706C304.603 288.706 305.661 289.29 306.506 288.706L306.712 285.703L304.109 286.003Z" fill="url(#paint4_linear_2_9510)"/>
<path d="M284.251 212.417C283.413 214.525 282.575 216.634 281.737 218.742C281.861 230.382 282.469 243.001 283.804 256.441C284.798 266.441 286.094 275.886 287.576 284.729C288.927 284.558 290.278 284.387 291.63 284.217C293.279 280.166 295.122 274.083 294.752 266.785C294.366 259.173 291.983 258.349 291.546 251.065C290.98 241.625 294.731 238.794 295.928 227.288C296.385 222.888 296.473 217.183 295.279 210.364C291.603 211.049 287.927 211.734 284.251 212.417Z" fill="url(#paint5_linear_2_9510)"/>
<path opacity="0.3" d="M295.28 210.366C293.295 210.735 291.309 211.105 289.323 211.474C286.222 218.034 285.739 224.642 286.602 227.48C287.824 231.493 290.296 232.612 290.495 236.724C290.691 240.793 288.384 242.037 287.251 246.942C286.467 250.338 286.987 253.361 288.062 259.268C290.226 271.167 293.417 274.602 291.305 278.73C290.705 279.903 289.57 281.333 287.218 282.544C287.336 283.275 287.454 284.007 287.576 284.73C288.927 284.559 290.278 284.389 291.63 284.218C293.279 280.167 295.122 274.084 294.752 266.786C294.366 259.174 291.983 258.35 291.546 251.066C290.98 241.626 294.731 238.795 295.928 227.29C296.386 222.891 296.474 217.185 295.28 210.366Z" fill="url(#paint6_linear_2_9510)"/>
<path d="M289.927 215.637C292.625 225.728 295.162 236.555 297.388 248.076C300.076 261.987 301.97 275.151 303.282 287.41C304.774 287.333 306.267 287.255 307.759 287.178C312.695 275.101 312.424 267.203 311.167 262.148C310.683 260.2 309.487 256.4 308.822 250.63C308.358 246.608 308.369 243.519 308.396 239.804C308.452 231.658 309.166 229.823 308.793 223.626C308.443 217.81 308.231 214.87 306.437 213.287C301.706 209.119 290.756 215.168 289.927 215.637Z" fill="url(#paint7_linear_2_9510)"/>
<path d="M280.764 220.91C279.148 218.657 280.757 216.231 280.805 211.713C280.86 206.594 278.834 205.904 276.223 197.636C274.487 192.137 272.819 186.858 273.79 180.445C274.255 177.371 275.045 172.157 279.082 169.346C281.165 167.896 284.159 167.784 290.063 167.621C297.363 167.419 301.014 167.318 303.839 168.528C304.252 168.705 312.859 172.529 314.012 179.796C315.187 187.192 307.162 188.841 306.876 198.852C306.748 203.346 308.162 210.128 309.079 214.528C309.959 218.752 310.418 219.816 309.679 221.175C307.899 224.452 301.614 224.062 289.044 223.284C284.113 222.978 281.97 222.592 280.764 220.91Z" fill="white"/>
<path opacity="0.3" d="M297.955 197.962C298.635 199.854 300.642 201.147 302.334 205.747C302.7 206.74 305.302 213.812 302.82 215.802C301.387 216.952 299.87 215.113 296.17 215.153C289.76 215.223 287.152 220.823 282.871 219.694C282.128 219.498 281.131 219.033 280.08 217.866C279.979 219.002 280.091 219.972 280.763 220.91C281.969 222.591 284.112 222.978 289.042 223.284C301.612 224.062 307.897 224.452 309.677 221.175C310.416 219.816 309.957 218.753 309.077 214.528C308.16 210.129 306.746 203.346 306.874 198.852C307.16 188.841 315.185 187.192 314.01 179.796C313.696 177.819 312.823 176.105 311.721 174.642C301.774 179.628 295.816 192.015 297.955 197.962Z" fill="url(#paint8_linear_2_9510)"/>
<path d="M303.875 185.068C302.444 182.258 301.988 179.721 301.802 178.33C301.426 175.519 301.313 172.148 302.163 168.002C302.431 168.071 302.814 168.173 303.27 168.309C304.294 168.615 308.317 169.875 312.865 173.135C314.661 174.423 317.825 176.787 320.57 180.592C323.23 184.278 328.176 191.531 325.202 198.367C322.743 204.02 315.658 207.494 307.632 207.015C308.888 205.372 310.142 203.728 311.398 202.085C313.214 200.02 313.48 198.396 313.447 197.378C313.308 193.01 307.431 192.048 303.875 185.068Z" fill="white"/>
<path d="M289.274 158.403C289.274 158.403 289.684 161.669 290.899 164.042C291.997 166.187 296.944 167.193 297.964 167.611C298.984 168.027 296.283 169.701 293.476 170.212C290.671 170.723 282.539 170.728 280.996 169.772C279.454 168.816 282.087 168.686 284.047 167.783C286.007 166.88 286.858 162.837 286.358 161.073C285.859 159.309 289.274 158.403 289.274 158.403Z" fill="url(#paint9_linear_2_9510)"/>
<path d="M285.814 157.559C284.218 156.223 283.997 156.07 283.795 155.581C282.987 153.616 284.33 150.728 286.327 149.883C286.431 149.839 287.772 149.288 288.345 149.843C288.832 150.314 288.231 151.067 288.622 152.02C288.988 152.911 289.786 152.916 291.352 153.998C292.642 154.888 293.443 155.442 293.687 156.293C294.187 158.046 292.238 160.8 290.324 160.883C289.635 160.912 289.42 160.576 285.814 157.559Z" fill="url(#paint10_linear_2_9510)"/>
<path d="M290.159 161.172C290.159 161.172 288.729 163.08 286.286 162.682C284.098 162.328 284.251 157.359 285.758 156.447C286.26 156.143 287.215 156.088 287.958 156.375C288.397 156.545 288.532 156.747 289.254 157.011C289.922 157.253 290.122 157.197 290.312 157.391C290.549 157.632 290.687 158.183 290.117 159.586C290.578 159.201 291.097 159.087 291.439 159.29C291.493 159.322 291.635 159.44 291.705 159.604C291.956 160.197 291.372 160.867 290.159 161.172Z" fill="url(#paint11_linear_2_9510)"/>
<path d="M302.009 224.22C302.009 224.22 280.987 225.41 280.049 220.831C279.111 216.251 280.037 214.89 280.049 211.03C280.061 207.17 272.978 193.415 273.755 187.888C274.532 182.361 273.525 181.2 278.47 182.239C283.416 183.277 297.66 181.316 299.079 183.461C300.497 185.606 305.491 194.635 307.597 196.284C307.597 196.284 309.613 215.976 310.528 218.816C311.443 221.655 308.421 225.318 302.009 224.22Z" fill="url(#paint12_linear_2_9510)"/>
<path d="M298.4 167.498C298.4 167.498 294.804 172.928 293.816 183.552C296.697 184.102 296.788 184.314 297.246 182.239C297.703 180.164 299.809 168.225 301.58 167.859C301.581 167.859 300.414 167.065 298.4 167.498Z" fill="url(#paint13_linear_2_9510)"/>
<path d="M280.79 168.287C280.79 168.287 277.218 172.928 276.23 183.553C279.111 184.103 279.202 184.315 279.66 182.24C280.118 180.165 282.223 168.226 283.994 167.86C283.995 167.859 282.805 167.853 280.79 168.287Z" fill="url(#paint14_linear_2_9510)"/>
<path d="M280.048 186.666C280.048 186.666 277.156 192.406 285.278 192.284C293.4 192.162 292.191 185.873 292.191 185.873L280.048 186.666Z" fill="url(#paint15_linear_2_9510)"/>
<path d="M214.628 193.488L229.774 182.019L227.414 163.167L202.986 154.441C201.462 153.799 202.351 150.464 203.856 149.775C211.192 146.415 219.892 146.101 227.876 149.683C242.253 156.131 248.872 173.004 242.734 187.517C236.488 202.288 219.453 209.209 204.672 202.976C196.86 199.682 190.63 194.564 187.985 187.163C187.427 185.603 189.594 182.93 191.121 183.574L214.628 193.488Z" fill="url(#paint16_linear_2_9510)"/>
<path d="M238.776 177.89L324.437 210.447C329.971 212.627 332.624 218.934 330.313 224.415C328.003 229.893 321.637 232.397 316.213 229.959L233.078 191.4L238.776 177.89Z" fill="url(#paint17_linear_2_9510)"/>
<path d="M214.098 194.984L229.243 183.515L226.883 164.663L203.375 154.751C201.851 154.108 201.821 151.96 203.325 151.271C210.66 147.911 219.36 147.597 227.344 151.179C241.721 157.627 248.34 174.5 242.203 189.013C235.956 203.784 218.921 210.705 204.141 204.472C196.328 201.178 190.709 194.868 188.064 187.468C187.506 185.907 189.063 184.426 190.589 185.07L214.098 194.984Z" fill="url(#paint18_linear_2_9510)"/>
<path d="M238.245 179.385L323.906 211.943C329.44 214.122 332.093 220.43 329.783 225.911C327.472 231.389 321.106 233.893 315.682 231.455L232.548 192.896L238.245 179.385Z" fill="url(#paint19_linear_2_9510)"/>
<path opacity="0.3" d="M237.862 187.149C236.939 189.337 237.965 191.858 240.153 192.781C242.34 193.704 244.862 192.678 245.785 190.491C246.708 188.304 245.682 185.782 243.493 184.859C241.305 183.936 238.785 184.962 237.862 187.149Z" fill="url(#paint20_linear_2_9510)"/>
<path opacity="0.3" d="M246.415 193.516L317.162 223.349C318.456 223.895 319.948 223.289 320.494 221.994C321.039 220.7 320.433 219.208 319.138 218.662L248.392 188.829L246.415 193.516Z" fill="url(#paint21_linear_2_9510)"/>
<path d="M311.805 204.834C311.805 204.834 311.287 203.463 310.313 203.226C309.339 202.988 307.413 203.283 307.413 203.283C307.31 203.537 307.212 203.899 307.371 204.189C307.654 204.707 308.468 204.482 309.429 204.808C310.988 205.335 311.635 206.979 311.877 206.659C312.063 206.414 311.805 204.834 311.805 204.834Z" fill="url(#paint22_linear_2_9510)"/>
<path d="M266.943 209.229C266.943 209.229 263.762 210.063 262.3 209.135C260.837 208.206 260.192 204.963 260.192 204.963C260.192 204.963 261.822 204.581 262.9 206.003C263.977 207.425 267.589 207.809 266.943 209.229Z" fill="url(#paint23_linear_2_9510)"/>
<path d="M142.516 104.899C142.516 128.237 123.604 148.02 99.4761 149.123C74.4168 150.268 53.3814 130.968 53.3814 105.974C53.3814 80.9808 74.4178 61.1726 99.4771 61.7133C123.604 62.2339 142.516 81.561 142.516 104.899Z" fill="url(#paint24_linear_2_9510)"/>
<path d="M145.318 104.899C145.318 128.237 126.406 148.02 102.278 149.123C77.2187 150.268 56.1833 130.968 56.1833 105.974C56.1833 80.9808 77.2187 61.1726 102.278 61.7133C126.406 62.2339 145.318 81.561 145.318 104.899Z" fill="url(#paint25_linear_2_9510)"/>
<path d="M142.655 104.93C142.655 126.92 124.815 145.525 102.101 146.518C78.563 147.547 58.8467 129.395 58.8467 105.941C58.8467 82.4869 78.563 63.8602 102.101 64.3211C124.816 64.7659 142.655 82.9407 142.655 104.93Z" fill="white"/>
<g opacity="0.3">
<path opacity="0.3" d="M82.8568 86.6553C81.375 81.8258 81.4428 74.4896 88.6688 63.652C70.028 69.0223 56.1843 85.9256 56.1843 106.146C56.1843 131.14 77.2197 150.44 102.279 149.295C111.519 148.872 119.979 145.718 126.892 140.714C126.677 134.048 125.227 126.752 121.149 120.022C109.935 101.518 87.5064 101.809 82.8568 86.6553Z" fill="url(#paint26_linear_2_9510)"/>
</g>
<path d="M128.296 112.456C126.435 110.874 118.989 109.292 118.989 109.292L112.941 115.34H93.4923C86.7301 113.324 81.3144 111.698 74.5522 109.681C74.3511 109.626 73.7861 109.506 73.3706 109.754C73.034 109.954 72.937 110.145 72.937 110.622L72.9117 125.135C72.9117 125.617 73.309 126.003 73.7911 125.99L76.8811 125.903C76.8811 125.903 77.1136 118.691 84.093 118.691C91.0725 118.691 90.7005 125.717 90.7005 125.717H111.778C111.778 125.717 111.639 118.691 118.804 118.691C125.97 118.691 126.156 125.95 126.156 125.95H128.487C129.23 125.078 131.05 122.705 131.181 119.342C131.217 118.425 131.266 116.567 130.184 114.662C130.012 114.362 129.449 113.435 128.296 112.456Z" fill="url(#paint27_linear_2_9510)"/>
<path d="M76.9953 107.936C76.9953 107.936 91.3494 101.288 100.749 101.381V112.75H93.9421L76.9953 107.936Z" fill="url(#paint28_linear_2_9510)"/>
<path d="M103.45 101.381C103.45 101.381 110.243 100.947 116.57 108.205L111.596 112.749H103.357C103.357 112.75 103.357 101.288 103.45 101.381Z" fill="url(#paint29_linear_2_9510)"/>
<path d="M84.0748 130.446C86.6103 130.446 88.6658 128.391 88.6658 125.856C88.6658 123.32 86.6103 121.265 84.0748 121.265C81.5393 121.265 79.4838 123.32 79.4838 125.856C79.4838 128.391 81.5393 130.446 84.0748 130.446Z" fill="url(#paint30_linear_2_9510)"/>
<path d="M118.803 130.446C121.339 130.446 123.394 128.391 123.394 125.856C123.394 123.32 121.339 121.265 118.803 121.265C116.268 121.265 114.212 123.32 114.212 125.856C114.212 128.391 116.268 130.446 118.803 130.446Z" fill="url(#paint31_linear_2_9510)"/>
<path d="M82.8508 77.1975H82.1341C80.2308 77.1975 78.0051 78.2285 78.0051 80.1318H81.7925C82.8669 80.1318 83.7372 81.0031 83.7372 82.0766V83.2541C83.7372 84.3185 82.874 85.1817 81.8096 85.1817H79.029C79.029 86.4249 80.5148 87.4337 81.7591 87.4337H83.0559C84.4579 87.4337 86.4441 86.4482 87.7834 85.1594H113.225C114.088 86.7615 115.249 87.9462 117.006 87.9462C117.006 87.9462 121.954 87.741 121.954 84.7228L118.734 85.0766C117.682 85.1918 116.735 84.4347 116.618 83.3835L116.438 81.7753C116.317 80.6928 117.094 79.7164 118.176 79.5921L121.169 79.2474C120.865 78.183 117.724 77.1318 115.779 77.8485L110.968 79.7255L110.977 79.7487H87.4286C86.3278 78.4559 84.7642 77.1975 82.8508 77.1975Z" fill="url(#paint32_linear_2_9510)"/>
<path d="M103.499 91.3797V91.687H91.0522L88.3292 90.94L84.3022 91.8336L84.3902 93.283L88.4758 94.0442L91.0533 93.5752H103.499V93.6186C103.499 94.0795 103.873 94.4535 104.334 94.4535H113.558C114.019 94.4535 114.393 94.0795 114.393 93.6186V91.3787C114.393 90.9178 114.019 90.5438 113.558 90.5438H104.334C103.872 90.5448 103.499 90.9188 103.499 91.3797Z" fill="url(#paint33_linear_2_9510)"/>
<path d="M70.5677 288.11L74.0812 292.636L107.243 297.182L171.882 317.176L204.664 305.704L183.23 283.661L74.1631 260.956L64.0957 272.656L70.5677 288.11Z" fill="url(#paint34_linear_2_9510)"/>
<path d="M203.366 323.318C203.186 323.397 202.823 323.537 202.823 323.537L192.39 327.963L187.036 325.784L176.969 318.503V302.683L177.472 296.084L189.204 290.802C195.083 288.209 202.986 293.215 206.855 301.984C210.721 310.751 209.249 320.725 203.366 323.318Z" fill="url(#paint35_linear_2_9510)"/>
<path d="M100.578 300.527L91.127 304.61L79.5273 296.257L78.2689 284.884L79.8649 277.103L88.031 274.309C88.2645 274.212 88.502 274.136 88.7395 274.064L88.7972 274.046L88.8012 274.05C93.6337 272.695 99.5418 276.693 102.443 283.528C105.559 290.859 105.575 298.214 100.578 300.527Z" fill="url(#paint36_linear_2_9510)"/>
<path d="M191.689 328.297C197.657 325.664 199.313 316.315 195.387 307.415C191.46 298.515 183.439 293.434 177.471 296.067C171.502 298.7 169.847 308.049 173.773 316.949C177.699 325.849 185.72 330.93 191.689 328.297Z" fill="#D8DEE8"/>
<path d="M189.754 322.604C193.441 320.978 194.464 315.202 192.039 309.705C189.614 304.207 184.659 301.069 180.972 302.696C177.285 304.322 176.262 310.097 178.687 315.595C181.112 321.092 186.067 324.231 189.754 322.604Z" fill="white"/>
<path d="M90.7461 304.789C96.0219 302.725 97.8732 294.852 94.8811 287.205C91.8889 279.558 85.1864 275.033 79.9106 277.097C74.6347 279.161 72.7835 287.034 75.7756 294.681C78.7677 302.328 85.4703 306.854 90.7461 304.789Z" fill="#D8DEE8"/>
<path d="M89.3368 299.881C92.596 298.606 93.7398 293.743 91.8915 289.019C90.0432 284.295 85.9028 281.5 82.6436 282.775C79.3844 284.05 78.2407 288.913 80.0889 293.637C81.9372 298.361 86.0777 301.156 89.3368 299.881Z" fill="white"/>
<path d="M211.217 322.564C207.82 322.68 204.713 322.744 202.339 322.778C199.809 322.814 197.603 321.051 197.102 318.57C196.358 314.888 195.246 311.983 194.301 309.918C193.384 307.922 186.912 293.817 176.52 292.975C175.067 292.857 173.309 292.784 171.748 293.82C166.269 297.452 169.601 310.414 169.601 310.414L171.845 317.066L99.0202 298.947C97.5637 298.584 96.3669 297.552 95.7958 296.163C94.5233 293.066 92.158 287.385 90.4033 283.626C87.8865 278.233 83.3915 273.019 78.8976 273.019C74.4026 273.019 73.3241 274.458 72.4256 277.514C71.527 280.571 73.8639 289.919 73.8639 292.616C73.8639 292.616 66.2234 286.773 64.3353 284.886C60.1243 280.675 60.3295 275.21 60.0202 272.122C58.8265 260.17 63.8743 250.027 67.032 246.952C71.1125 242.978 76.6355 240.815 81.4357 237.747C85.4808 234.399 91.8588 230.441 99.8268 226.733H99.8299C101.947 226.309 104.231 225.935 106.701 225.619C123.346 223.494 145.775 239.947 145.775 239.947C145.775 239.947 184.068 264.93 207.199 302.803C209.562 306.667 213.287 315.325 211.217 322.564Z" fill="url(#paint37_linear_2_9510)"/>
<path opacity="0.3" d="M101.146 280.528C97.6264 271.73 88.123 268.21 79.6759 264.689C72.9886 261.873 73.6921 250.963 68.061 246.035C68.057 246.032 68.0539 246.029 68.0499 246.027C67.7032 246.326 67.3615 246.631 67.032 246.952C63.8743 250.027 58.8265 260.169 60.0202 272.122C60.3295 275.211 60.1243 280.676 64.3353 284.886C66.2234 286.774 73.8639 292.616 73.8639 292.616C73.8639 289.92 71.527 280.571 72.4256 277.514C73.3241 274.458 74.4026 273.019 78.8976 273.019C83.3925 273.019 87.8865 278.233 90.4033 283.626C92.157 287.385 94.5233 293.066 95.7958 296.163C96.3659 297.551 97.5637 298.584 99.0202 298.947L153.677 312.546C138.958 303.268 125.855 291.522 107.13 289.68C104.314 289.327 102.554 284.048 101.146 280.528Z" fill="url(#paint38_linear_2_9510)"/>
<path d="M271.263 279.492V300.695C271.263 303.677 269.52 306.385 266.804 307.615C257.909 311.643 238.03 320.283 228.835 321.381C223.575 322.011 216.976 322.363 211.216 322.564C213.287 315.325 209.562 306.667 207.2 302.802C184.069 264.929 145.776 239.946 145.776 239.946C145.776 239.946 123.347 223.493 106.702 225.618C104.232 225.934 101.948 226.308 99.8309 226.732C113.569 220.339 132.026 214.694 151.349 214.23C168.472 213.82 176.156 216.151 188.025 220.162C195.593 222.723 203.572 227.408 214.632 233.466C223.424 238.281 232.715 245.796 244.656 251.624C244.656 251.624 264.791 262.411 268.027 268.703C271.263 274.997 271.263 279.492 271.263 279.492Z" fill="url(#paint39_linear_2_9510)"/>
<path d="M122.621 245.542L122.894 260.716C113.79 257.682 101.033 253.597 96.5165 252.464C90.285 250.907 80.814 246.592 80.814 246.592C85.1432 242.828 89.1237 240.462 91.8417 239.042C103.287 233.055 117.536 230.621 126.467 233.865C123.901 237.197 122.545 241.275 122.621 245.542Z" fill="url(#paint40_linear_2_9510)"/>
<path d="M172.143 275.116C172.143 275.116 137.388 265.767 131.035 263.491C129.798 263.048 127.975 262.419 125.789 261.682L125.498 245.488C125.429 241.625 126.745 237.947 129.219 235.028C130.593 235.658 132.495 236.57 134.631 237.721C135.613 238.252 138.468 239.771 141.79 242.039C145.817 244.786 149.14 247.709 154.767 252.462C163.278 259.654 173.942 272.72 173.942 273.557C173.94 274.397 174.541 275.116 172.143 275.116Z" fill="url(#paint41_linear_2_9510)"/>
<path opacity="0.3" d="M99.3457 235.763C96.7712 236.687 94.2443 237.784 91.8417 239.042C89.1237 240.462 85.1432 242.828 80.814 246.592C80.814 246.592 90.285 250.907 96.5165 252.464C101.033 253.597 113.79 257.682 122.894 260.716L122.689 249.337C116.418 247.585 110.23 245.345 104.554 241.129C102.471 239.641 100.691 237.797 99.3457 235.763Z" fill="url(#paint42_linear_2_9510)"/>
<path opacity="0.3" d="M145.185 256.23C138.974 253.298 132.268 251.853 125.581 250.114L125.789 261.682C127.975 262.419 129.798 263.049 131.035 263.491C135.044 264.927 150.359 269.178 161.117 272.121C157.444 265.042 151.772 259.381 145.185 256.23Z" fill="url(#paint43_linear_2_9510)"/>
<path d="M161.669 276.63C160.982 277.137 159.836 276.662 159.53 276.526L155.456 272.452L146.654 271.859C146.227 271.831 145.828 271.672 145.507 271.42C145.184 271.164 144.935 270.82 144.803 270.409C144.565 269.665 144.756 268.856 145.302 268.299C146.881 266.688 150.358 263.582 153.686 263.582C158.181 263.582 159.17 268.504 159.17 268.504C159.177 268.536 159.184 268.569 159.191 268.601C159.208 268.687 159.221 268.773 159.231 268.858C159.351 269.863 159.737 270.833 160.485 271.514C160.847 271.844 161.189 272.251 161.463 272.75C162.083 273.875 162.611 275.936 161.669 276.63Z" fill="url(#paint44_linear_2_9510)"/>
<path d="M202.665 228.5C215.304 236.169 227.942 243.837 240.581 251.506C240.581 251.506 216.713 264.317 182.194 270.91C178.012 266.72 173.478 262.415 168.579 258.057C163.63 253.654 158.778 249.615 154.085 245.917C161.078 242.123 169.556 238.16 179.447 234.735C187.895 231.81 195.742 229.842 202.665 228.5Z" fill="url(#paint45_linear_2_9510)"/>
<path opacity="0.3" d="M202.665 228.5C198.67 229.275 194.365 230.259 189.818 231.514C199.883 240.576 208.517 251.585 207.711 264.539C227.92 258.3 240.581 251.506 240.581 251.506C227.942 243.838 215.304 236.169 202.665 228.5Z" fill="url(#paint46_linear_2_9510)"/>
<path d="M190.901 283.358C193.479 282.028 201.768 278.182 211.217 280.931C216.099 282.351 225.359 286.713 226.049 293.425C226.117 294.084 226.09 294.644 226.049 295.043C226.049 295.043 205.555 297.2 201.509 295.762C197.463 294.323 190.901 284.706 190.901 283.358Z" fill="white"/>
<path d="M265.75 281.332C264.785 279.925 262.949 276.838 262.543 272.481C262.183 268.601 263.128 265.547 263.735 263.981C264.705 264.771 266.088 265.643 267.194 267.112C267.544 267.577 268.55 268.629 268.992 270.379C269.521 272.468 269.416 275.381 268.752 277.155C267.923 279.369 266.494 280.719 265.75 281.332Z" fill="white"/>
<path d="M264.791 291.318V294.881L235.847 305.704V302.144L264.791 291.318Z" fill="url(#paint47_linear_2_9510)"/>
<path d="M264.791 297.182V300.641L235.847 311.464V308.008L264.791 297.182Z" fill="url(#paint48_linear_2_9510)"/>
<path d="M126.09 301.065C125.819 301.065 125.587 300.862 125.555 300.587L122.885 277.172C122.659 275.434 122.538 273.658 122.524 271.901C122.504 269.258 122.726 266.594 123.186 263.982L123.217 263.7C123.251 263.404 123.517 263.191 123.814 263.225C124.11 263.258 124.322 263.526 124.289 263.822L124.253 264.136C123.801 266.716 123.583 269.315 123.602 271.893C123.616 273.607 123.734 275.338 123.955 277.041L126.627 300.465C126.66 300.761 126.448 301.028 126.152 301.062C126.13 301.064 126.11 301.065 126.09 301.065Z" fill="url(#paint49_linear_2_9510)"/>
</g>
<defs>
<linearGradient id="paint0_linear_2_9510" x1="328.853" y1="140.44" x2="21.7021" y2="234.199" gradientUnits="userSpaceOnUse">
<stop offset="0.00359712" stop-color="#E38DDD"/>
<stop offset="1" stop-color="#9571F6"/>
</linearGradient>
<linearGradient id="paint1_linear_2_9510" x1="279.63" y1="262.811" x2="290.821" y2="303.194" gradientUnits="userSpaceOnUse">
<stop stop-color="#311944"/>
<stop offset="1" stop-color="#893976"/>
</linearGradient>
<linearGradient id="paint2_linear_2_9510" x1="289.59" y1="291.362" x2="289.752" y2="277.739" gradientUnits="userSpaceOnUse">
<stop stop-color="#FFC444"/>
<stop offset="0.9964" stop-color="#F36F56"/>
</linearGradient>
<linearGradient id="paint3_linear_2_9510" x1="293.641" y1="258.928" x2="304.831" y2="299.312" gradientUnits="userSpaceOnUse">
<stop stop-color="#311944"/>
<stop offset="1" stop-color="#893976"/>
</linearGradient>
<linearGradient id="paint4_linear_2_9510" x1="305.343" y1="291.55" x2="305.505" y2="277.926" gradientUnits="userSpaceOnUse">
<stop stop-color="#FFC444"/>
<stop offset="0.9964" stop-color="#F36F56"/>
</linearGradient>
<linearGradient id="paint5_linear_2_9510" x1="290.203" y1="178.132" x2="285.807" y2="331.276" gradientUnits="userSpaceOnUse">
<stop offset="0.003597" stop-color="#6165D7"/>
<stop offset="1" stop-color="#AA80F9"/>
</linearGradient>
<linearGradient id="paint6_linear_2_9510" x1="281.737" y1="247.548" x2="296.242" y2="247.548" gradientUnits="userSpaceOnUse">
<stop offset="0.003597" stop-color="#6165D7"/>
<stop offset="1" stop-color="#AA80F9"/>
</linearGradient>
<linearGradient id="paint7_linear_2_9510" x1="302.991" y1="170.83" x2="298.595" y2="323.974" gradientUnits="userSpaceOnUse">
<stop offset="0.003597" stop-color="#6165D7"/>
<stop offset="1" stop-color="#AA80F9"/>
</linearGradient>
<linearGradient id="paint8_linear_2_9510" x1="334.18" y1="252.233" x2="285.038" y2="181.682" gradientUnits="userSpaceOnUse">
<stop stop-color="#AA80F9"/>
<stop offset="0.9964" stop-color="#6165D7"/>
</linearGradient>
<linearGradient id="paint9_linear_2_9510" x1="285.12" y1="174.645" x2="294.677" y2="160.586" gradientUnits="userSpaceOnUse">
<stop stop-color="#FFC444"/>
<stop offset="0.9964" stop-color="#F36F56"/>
</linearGradient>
<linearGradient id="paint10_linear_2_9510" x1="293.978" y1="169.226" x2="286.811" y2="151.021" gradientUnits="userSpaceOnUse">
<stop stop-color="#444B8C"/>
<stop offset="0.9964" stop-color="#3E4177"/>
</linearGradient>
<linearGradient id="paint11_linear_2_9510" x1="278.991" y1="163.874" x2="294.376" y2="155.494" gradientUnits="userSpaceOnUse">
<stop stop-color="#FFC444"/>
<stop offset="0.9964" stop-color="#F36F56"/>
</linearGradient>
<linearGradient id="paint12_linear_2_9510" x1="293.16" y1="170.548" x2="288.763" y2="323.691" gradientUnits="userSpaceOnUse">
<stop offset="0.003597" stop-color="#6165D7"/>
<stop offset="1" stop-color="#AA80F9"/>
</linearGradient>
<linearGradient id="paint13_linear_2_9510" x1="298.118" y1="161.091" x2="296.494" y2="217.659" gradientUnits="userSpaceOnUse">
<stop offset="0.003597" stop-color="#6165D7"/>
<stop offset="1" stop-color="#AA80F9"/>
</linearGradient>
<linearGradient id="paint14_linear_2_9510" x1="280.515" y1="161.688" x2="278.934" y2="216.779" gradientUnits="userSpaceOnUse">
<stop offset="0.003597" stop-color="#6165D7"/>
<stop offset="1" stop-color="#AA80F9"/>
</linearGradient>
<linearGradient id="paint15_linear_2_9510" x1="286.114" y1="197.668" x2="285.747" y2="180.541" gradientUnits="userSpaceOnUse">
<stop offset="0.003597" stop-color="#6165D7"/>
<stop offset="1" stop-color="#AA80F9"/>
</linearGradient>
<linearGradient id="paint16_linear_2_9510" x1="219.944" y1="158.976" x2="201.907" y2="280.314" gradientUnits="userSpaceOnUse">
<stop stop-color="#40447E"/>
<stop offset="0.9964" stop-color="#3C3B6B"/>
</linearGradient>
<linearGradient id="paint17_linear_2_9510" x1="287.644" y1="169.04" x2="269.605" y2="290.388" gradientUnits="userSpaceOnUse">
<stop stop-color="#40447E"/>
<stop offset="0.9964" stop-color="#3C3B6B"/>
</linearGradient>
<linearGradient id="paint18_linear_2_9510" x1="219.606" y1="160.501" x2="201.569" y2="281.839" gradientUnits="userSpaceOnUse">
<stop stop-color="#FF9085"/>
<stop offset="1" stop-color="#FB6FBB"/>
</linearGradient>
<linearGradient id="paint19_linear_2_9510" x1="287.113" y1="170.536" x2="269.074" y2="291.885" gradientUnits="userSpaceOnUse">
<stop stop-color="#FF9085"/>
<stop offset="1" stop-color="#FB6FBB"/>
</linearGradient>
<linearGradient id="paint20_linear_2_9510" x1="233.927" y1="210.359" x2="241.816" y2="188.843" gradientUnits="userSpaceOnUse">
<stop stop-color="#FF9085"/>
<stop offset="0.033" stop-color="#FF8F87"/>
<stop offset="1" stop-color="#FB6FBB"/>
</linearGradient>
<linearGradient id="paint21_linear_2_9510" x1="275.887" y1="228.397" x2="283.905" y2="206.531" gradientUnits="userSpaceOnUse">
<stop stop-color="#FF9085"/>
<stop offset="0.033" stop-color="#FF8F87"/>
<stop offset="1" stop-color="#FB6FBB"/>
</linearGradient>
<linearGradient id="paint22_linear_2_9510" x1="308.023" y1="204.318" x2="318.126" y2="206.464" gradientUnits="userSpaceOnUse">
<stop stop-color="#FFC444"/>
<stop offset="0.9964" stop-color="#F36F56"/>
</linearGradient>
<linearGradient id="paint23_linear_2_9510" x1="261.3" y1="206.155" x2="269.166" y2="212.455" gradientUnits="userSpaceOnUse">
<stop stop-color="#FFC444"/>
<stop offset="0.4726" stop-color="#F99C4D"/>
<stop offset="0.9964" stop-color="#F36F56"/>
</linearGradient>
<linearGradient id="paint24_linear_2_9510" x1="13.1898" y1="267.403" x2="80.4108" y2="138.9" gradientUnits="userSpaceOnUse">
<stop stop-color="#AA80F9"/>
<stop offset="0.9964" stop-color="#6165D7"/>
</linearGradient>
<linearGradient id="paint25_linear_2_9510" x1="126.411" y1="-9.35868" x2="89.8793" y2="154.002" gradientUnits="userSpaceOnUse">
<stop offset="0.00359712" stop-color="#E38DDD"/>
<stop offset="1" stop-color="#9571F6"/>
</linearGradient>
<linearGradient id="paint26_linear_2_9510" x1="56.1841" y1="106.498" x2="126.891" y2="106.498" gradientUnits="userSpaceOnUse">
<stop stop-color="#AA80F9"/>
<stop offset="0.9964" stop-color="#6165D7"/>
</linearGradient>
<linearGradient id="paint27_linear_2_9510" x1="102.053" y1="69.8491" x2="102.053" y2="260.275" gradientUnits="userSpaceOnUse">
<stop offset="0.00359712" stop-color="#E38DDD"/>
<stop offset="1" stop-color="#9571F6"/>
</linearGradient>
<linearGradient id="paint28_linear_2_9510" x1="88.8722" y1="69.849" x2="88.8722" y2="260.274" gradientUnits="userSpaceOnUse">
<stop offset="0.00359712" stop-color="#E38DDD"/>
<stop offset="1" stop-color="#9571F6"/>
</linearGradient>
<linearGradient id="paint29_linear_2_9510" x1="109.963" y1="69.8489" x2="109.963" y2="260.274" gradientUnits="userSpaceOnUse">
<stop offset="0.00359712" stop-color="#E38DDD"/>
<stop offset="1" stop-color="#9571F6"/>
</linearGradient>
<linearGradient id="paint30_linear_2_9510" x1="84.075" y1="69.8489" x2="84.075" y2="260.275" gradientUnits="userSpaceOnUse">
<stop offset="0.00359712" stop-color="#E38DDD"/>
<stop offset="1" stop-color="#9571F6"/>
</linearGradient>
<linearGradient id="paint31_linear_2_9510" x1="118.803" y1="69.8489" x2="118.803" y2="260.275" gradientUnits="userSpaceOnUse">
<stop offset="0.00359712" stop-color="#E38DDD"/>
<stop offset="1" stop-color="#9571F6"/>
</linearGradient>
<linearGradient id="paint32_linear_2_9510" x1="99.9787" y1="71.2029" x2="99.9787" y2="245.492" gradientUnits="userSpaceOnUse">
<stop offset="0.00359712" stop-color="#E38DDD"/>
<stop offset="1" stop-color="#9571F6"/>
</linearGradient>
<linearGradient id="paint33_linear_2_9510" x1="99.3475" y1="71.2029" x2="99.3475" y2="245.491" gradientUnits="userSpaceOnUse">
<stop offset="0.00359712" stop-color="#E38DDD"/>
<stop offset="1" stop-color="#9571F6"/>
</linearGradient>
<linearGradient id="paint34_linear_2_9510" x1="105.56" y1="387.17" x2="131.758" y2="298.095" gradientUnits="userSpaceOnUse">
<stop stop-color="#311944"/>
<stop offset="1" stop-color="#893976"/>
</linearGradient>
<linearGradient id="paint35_linear_2_9510" x1="176.968" y1="309.041" x2="209.001" y2="309.041" gradientUnits="userSpaceOnUse">
<stop stop-color="#444B8C"/>
<stop offset="0.9964" stop-color="#3E4177"/>
</linearGradient>
<linearGradient id="paint36_linear_2_9510" x1="78.2686" y1="289.199" x2="104.593" y2="289.199" gradientUnits="userSpaceOnUse">
<stop stop-color="#444B8C"/>
<stop offset="0.9964" stop-color="#3E4177"/>
</linearGradient>
<linearGradient id="paint37_linear_2_9510" x1="156.354" y1="241.854" x2="124.233" y2="318.801" gradientUnits="userSpaceOnUse">
<stop stop-color="#FCB148"/>
<stop offset="0.0521" stop-color="#FDBA46"/>
<stop offset="0.1424" stop-color="#FFC244"/>
<stop offset="0.3183" stop-color="#FFC444"/>
<stop offset="0.4849" stop-color="#FDB946"/>
<stop offset="0.7754" stop-color="#F99C4D"/>
<stop offset="0.8658" stop-color="#F8924F"/>
<stop offset="1" stop-color="#F8924F"/>
</linearGradient>
<linearGradient id="paint38_linear_2_9510" x1="115.461" y1="265.885" x2="98.8364" y2="305.71" gradientUnits="userSpaceOnUse">
<stop stop-color="#FCB148"/>
<stop offset="0.0521" stop-color="#FDBA46"/>
<stop offset="0.1424" stop-color="#FFC244"/>
<stop offset="0.3183" stop-color="#FFC444"/>
<stop offset="0.4849" stop-color="#FDB946"/>
<stop offset="0.7754" stop-color="#F99C4D"/>
<stop offset="0.8658" stop-color="#F8924F"/>
<stop offset="1" stop-color="#F8924F"/>
</linearGradient>
<linearGradient id="paint39_linear_2_9510" x1="263.614" y1="314.933" x2="153.157" y2="223.392" gradientUnits="userSpaceOnUse">
<stop stop-color="#FCB148"/>
<stop offset="0.0521" stop-color="#FDBA46"/>
<stop offset="0.1424" stop-color="#FFC244"/>
<stop offset="0.3183" stop-color="#FFC444"/>
<stop offset="0.4849" stop-color="#FDB946"/>
<stop offset="0.7754" stop-color="#F99C4D"/>
<stop offset="0.8658" stop-color="#F8924F"/>
<stop offset="1" stop-color="#F8924F"/>
</linearGradient>
<linearGradient id="paint40_linear_2_9510" x1="102.55" y1="268.059" x2="103.616" y2="240.877" gradientUnits="userSpaceOnUse">
<stop stop-color="#444B8C"/>
<stop offset="0.9964" stop-color="#3E4177"/>
</linearGradient>
<linearGradient id="paint41_linear_2_9510" x1="152.662" y1="274.212" x2="140.987" y2="246.617" gradientUnits="userSpaceOnUse">
<stop stop-color="#444B8C"/>
<stop offset="0.9964" stop-color="#3E4177"/>
</linearGradient>
<linearGradient id="paint42_linear_2_9510" x1="101.337" y1="266.833" x2="102.249" y2="243.586" gradientUnits="userSpaceOnUse">
<stop stop-color="#444B8C"/>
<stop offset="0.9964" stop-color="#3E4177"/>
</linearGradient>
<linearGradient id="paint43_linear_2_9510" x1="145.837" y1="272.539" x2="138.467" y2="255.12" gradientUnits="userSpaceOnUse">
<stop stop-color="#444B8C"/>
<stop offset="0.9964" stop-color="#3E4177"/>
</linearGradient>
<linearGradient id="paint44_linear_2_9510" x1="152.045" y1="283.888" x2="153.753" y2="270.045" gradientUnits="userSpaceOnUse">
<stop stop-color="#FCB148"/>
<stop offset="0.0521" stop-color="#FDBA46"/>
<stop offset="0.1424" stop-color="#FFC244"/>
<stop offset="0.3183" stop-color="#FFC444"/>
<stop offset="0.4849" stop-color="#FDB946"/>
<stop offset="0.7754" stop-color="#F99C4D"/>
<stop offset="0.8658" stop-color="#F8924F"/>
<stop offset="1" stop-color="#F8924F"/>
</linearGradient>
<linearGradient id="paint45_linear_2_9510" x1="225.629" y1="265.136" x2="187.241" y2="247.294" gradientUnits="userSpaceOnUse">
<stop stop-color="#444B8C"/>
<stop offset="0.9964" stop-color="#3E4177"/>
</linearGradient>
<linearGradient id="paint46_linear_2_9510" x1="231.423" y1="258.714" x2="205.546" y2="246.687" gradientUnits="userSpaceOnUse">
<stop stop-color="#444B8C"/>
<stop offset="0.9964" stop-color="#3E4177"/>
</linearGradient>
<linearGradient id="paint47_linear_2_9510" x1="253.45" y1="317.792" x2="250.333" y2="298.598" gradientUnits="userSpaceOnUse">
<stop stop-color="#FCB148"/>
<stop offset="0.0521" stop-color="#FDBA46"/>
<stop offset="0.1424" stop-color="#FFC244"/>
<stop offset="0.3183" stop-color="#FFC444"/>
<stop offset="0.4849" stop-color="#FDB946"/>
<stop offset="0.7754" stop-color="#F99C4D"/>
<stop offset="0.8658" stop-color="#F8924F"/>
<stop offset="1" stop-color="#F8924F"/>
</linearGradient>
<linearGradient id="paint48_linear_2_9510" x1="253.416" y1="323.397" x2="250.333" y2="304.41" gradientUnits="userSpaceOnUse">
<stop stop-color="#FCB148"/>
<stop offset="0.0521" stop-color="#FDBA46"/>
<stop offset="0.1424" stop-color="#FFC244"/>
<stop offset="0.3183" stop-color="#FFC444"/>
<stop offset="0.4849" stop-color="#FDB946"/>
<stop offset="0.7754" stop-color="#F99C4D"/>
<stop offset="0.8658" stop-color="#F8924F"/>
<stop offset="1" stop-color="#F8924F"/>
</linearGradient>
<linearGradient id="paint49_linear_2_9510" x1="119.494" y1="283.625" x2="149.578" y2="275.415" gradientUnits="userSpaceOnUse">
<stop stop-color="#FCB148"/>
<stop offset="0.0521" stop-color="#FDBA46"/>
<stop offset="0.1424" stop-color="#FFC244"/>
<stop offset="0.3183" stop-color="#FFC444"/>
<stop offset="0.4849" stop-color="#FDB946"/>
<stop offset="0.7754" stop-color="#F99C4D"/>
<stop offset="0.8658" stop-color="#F8924F"/>
<stop offset="1" stop-color="#F8924F"/>
</linearGradient>
<clipPath id="clip0_2_9510">
<rect width="375" height="375" fill="white"/>
</clipPath>
</defs>
</svg>
