<svg width="79" height="48" viewBox="0 0 79 48" fill="none" xmlns="http://www.w3.org/2000/svg">
<ellipse cx="39" cy="41.5" rx="17" ry="2.5" fill="#4455FB"/>
<path d="M35 15.5C35 14.6716 35.6716 14 36.5 14H41.5C42.3284 14 43 14.6716 43 15.5V16.5C43 17.3284 42.3284 18 41.5 18H36.5C35.6716 18 35 17.3284 35 16.5V15.5Z" fill="#4455FB"/>
<path fill-rule="evenodd" clip-rule="evenodd" d="M33.5 16.0366C32.2421 16.1072 31.448 16.3076 30.8787 16.8769C30 17.7556 30 19.1698 30 21.9983V27.9983C30 30.8267 30 32.2409 30.8787 33.1196C31.7574 33.9983 33.1716 33.9983 36 33.9983H42C44.8284 33.9983 46.2426 33.9983 47.1213 33.1196C48 32.2409 48 30.8267 48 27.9983V21.9983C48 19.1698 48 17.7556 47.1213 16.8769C46.552 16.3076 45.7579 16.1072 44.5 16.0366V16.5C44.5 18.1569 43.1569 19.5 41.5 19.5H36.5C34.8431 19.5 33.5 18.1569 33.5 16.5V16.0366ZM33.25 22.5C33.25 22.0858 33.5858 21.75 34 21.75H44C44.4142 21.75 44.75 22.0858 44.75 22.5C44.75 22.9142 44.4142 23.25 44 23.25H34C33.5858 23.25 33.25 22.9142 33.25 22.5ZM34.25 26C34.25 25.5858 34.5858 25.25 35 25.25H43C43.4142 25.25 43.75 25.5858 43.75 26C43.75 26.4142 43.4142 26.75 43 26.75H35C34.5858 26.75 34.25 26.4142 34.25 26ZM35.25 29.5C35.25 29.0858 35.5858 28.75 36 28.75H42C42.4142 28.75 42.75 29.0858 42.75 29.5C42.75 29.9142 42.4142 30.25 42 30.25H36C35.5858 30.25 35.25 29.9142 35.25 29.5Z" fill="#4455FB"/>
</svg>
