<svg width="48" height="48" viewBox="0 0 48 48" fill="none" xmlns="http://www.w3.org/2000/svg">
<path d="M20 15.5C20 14.6716 20.6716 14 21.5 14H26.5C27.3284 14 28 14.6716 28 15.5V16.5C28 17.3284 27.3284 18 26.5 18H21.5C20.6716 18 20 17.3284 20 16.5V15.5Z" fill="#D0D0D0"/>
<path fill-rule="evenodd" clip-rule="evenodd" d="M18.5 16.0366C17.2421 16.1072 16.448 16.3076 15.8787 16.8769C15 17.7556 15 19.1698 15 21.9983V27.9983C15 30.8267 15 32.2409 15.8787 33.1196C16.7574 33.9983 18.1716 33.9983 21 33.9983H27C29.8284 33.9983 31.2426 33.9983 32.1213 33.1196C33 32.2409 33 30.8267 33 27.9983V21.9983C33 19.1698 33 17.7556 32.1213 16.8769C31.552 16.3076 30.7579 16.1072 29.5 16.0366V16.5C29.5 18.1569 28.1569 19.5 26.5 19.5H21.5C19.8431 19.5 18.5 18.1569 18.5 16.5V16.0366ZM18.25 22.5C18.25 22.0858 18.5858 21.75 19 21.75H29C29.4142 21.75 29.75 22.0858 29.75 22.5C29.75 22.9142 29.4142 23.25 29 23.25H19C18.5858 23.25 18.25 22.9142 18.25 22.5ZM19.25 26C19.25 25.5858 19.5858 25.25 20 25.25H28C28.4142 25.25 28.75 25.5858 28.75 26C28.75 26.4142 28.4142 26.75 28 26.75H20C19.5858 26.75 19.25 26.4142 19.25 26ZM20.25 29.5C20.25 29.0858 20.5858 28.75 21 28.75H27C27.4142 28.75 27.75 29.0858 27.75 29.5C27.75 29.9142 27.4142 30.25 27 30.25H21C20.5858 30.25 20.25 29.9142 20.25 29.5Z" fill="#D0D0D0"/>
</svg>
