<svg width="331" height="331" viewBox="0 0 331 331" fill="none" xmlns="http://www.w3.org/2000/svg">
<path d="M0 165.5C0 256.903 74.0969 331 165.5 331C256.903 331 331 256.903 331 165.5C331 74.0969 256.903 0 165.5 0C74.0969 0 0 74.0969 0 165.5Z" fill="#EE6562"/>
<path d="M236.952 195.967C236.952 207.588 227.537 217.003 215.915 217.003C204.293 217.003 194.878 207.588 194.878 195.967C194.878 184.345 204.293 174.93 215.915 174.93C227.537 174.93 236.952 184.345 236.952 195.967Z" fill="#E64600"/>
<path d="M130.723 196.628C130.723 213.914 116.703 227.934 99.4178 227.934C82.1322 227.934 68.1125 213.914 68.1125 196.628C68.1125 179.343 82.1322 165.323 99.4178 165.323C116.703 165.323 130.723 179.343 130.723 196.628Z" fill="#C81E00"/>
<path d="M264.079 223.829C262.005 223.829 260.078 223.138 258.636 221.873C257.003 220.446 256.135 218.416 256.135 216.003V208.03H257.606V216.003C257.606 217.974 258.298 219.622 259.607 220.755C260.784 221.785 262.373 222.344 264.079 222.344C267.213 222.344 270.582 220.358 270.582 216.003V183.712H272.053V216.003C272.067 221.137 268.037 223.829 264.079 223.829Z" fill="#3C3C3C"/>
<path d="M258.357 203.778H255.4V210.295H258.357V203.778Z" fill="#464646"/>
<path d="M264.373 205.058C264.373 206.147 263.491 207.029 262.402 207.029H228.964C227.875 207.029 226.993 206.147 226.993 205.058V148.671C226.993 147.582 227.875 146.699 228.964 146.699H262.402C263.491 146.699 264.373 147.582 264.373 148.671V205.058Z" fill="#464646"/>
<path d="M237.217 181.358C238.217 181.358 239.218 181.623 240.115 182.182C242.292 183.536 243.204 186.125 242.513 188.464C242.381 188.92 242.175 189.376 241.91 189.817C241.645 190.259 241.321 190.641 240.968 190.965C239.939 191.936 238.57 192.451 237.202 192.451C236.202 192.451 235.202 192.186 234.289 191.612C232.127 190.273 231.2 187.684 231.892 185.345C232.024 184.889 232.23 184.433 232.495 183.992C232.759 183.565 233.083 183.183 233.436 182.844C234.466 181.888 235.834 181.358 237.217 181.358ZM237.217 180.387C235.555 180.387 233.98 181.005 232.774 182.138C232.348 182.535 231.98 182.977 231.671 183.477C231.362 183.977 231.127 184.507 230.965 185.066C230.126 187.875 231.288 190.906 233.789 192.451C234.819 193.083 236.011 193.436 237.217 193.436C238.879 193.436 240.453 192.818 241.66 191.686C242.086 191.288 242.454 190.847 242.763 190.332C243.072 189.832 243.307 189.302 243.469 188.743C244.293 185.934 243.131 182.903 240.645 181.358C239.6 180.726 238.423 180.387 237.217 180.387Z" fill="#3C3C3C"/>
<path d="M264.373 148.685C264.373 147.597 263.491 146.714 262.402 146.714H245.676V207.029H262.402C263.491 207.029 264.373 206.147 264.373 205.058V148.685Z" fill="#505050"/>
<path d="M260.696 155.849H230.685V165.323H260.696V155.849Z" fill="#C8C8C8"/>
<path d="M242.498 167.883H230.685V172.973H242.498V167.883Z" fill="#008CAA"/>
<path d="M260.696 167.883H248.883V172.973H260.696V167.883Z" fill="#008CAA"/>
<path d="M240.115 182.197C242.292 183.55 243.204 186.14 242.513 188.479C242.38 188.935 242.175 189.391 241.91 189.832C241.645 190.273 241.321 190.656 240.968 190.98C239.188 192.642 236.452 192.98 234.289 191.627C232.127 190.288 231.2 187.699 231.891 185.36C232.024 184.904 232.23 184.448 232.495 184.006C232.759 183.58 233.083 183.197 233.436 182.859C235.216 181.197 237.952 180.858 240.115 182.197Z" fill="#5A5A5A"/>
<path d="M258.092 190.818C256.283 192.612 253.561 192.921 251.428 191.715C251.016 191.48 250.619 191.185 250.251 190.818C249.898 190.465 249.604 190.067 249.354 189.656C248.147 187.537 248.441 184.801 250.251 183.006C252.06 181.197 254.782 180.902 256.9 182.109C257.312 182.344 257.709 182.638 258.063 183.006C258.43 183.374 258.725 183.756 258.96 184.183C260.196 186.287 259.887 189.023 258.092 190.818Z" fill="#646464"/>
<path d="M260.696 201.866C260.696 202.587 260.107 203.175 259.386 203.175C258.665 203.175 258.077 202.587 258.077 201.866C258.077 201.145 258.665 200.557 259.386 200.557C260.107 200.557 260.696 201.145 260.696 201.866Z" fill="#DC3200"/>
<path d="M256.474 201.866C256.474 202.587 255.885 203.175 255.164 203.175C254.444 203.175 253.855 202.587 253.855 201.866C253.855 201.145 254.444 200.557 255.164 200.557C255.885 200.557 256.474 201.145 256.474 201.866Z" fill="#FFDC00"/>
<path d="M230.685 203.837C230.42 203.837 230.2 203.616 230.2 203.352V197.526C230.2 197.261 230.42 197.041 230.685 197.041C230.95 197.041 231.171 197.261 231.171 197.526V203.352C231.185 203.616 230.965 203.837 230.685 203.837Z" fill="#464646"/>
<path d="M232.656 203.837C232.377 203.837 232.171 203.616 232.171 203.352V197.526C232.171 197.261 232.391 197.041 232.656 197.041C232.921 197.041 233.142 197.261 233.142 197.526V203.352C233.142 203.616 232.921 203.837 232.656 203.837Z" fill="#464646"/>
<path d="M234.628 203.837C234.363 203.837 234.142 203.616 234.142 203.352V197.526C234.142 197.261 234.363 197.041 234.628 197.041C234.892 197.041 235.113 197.261 235.113 197.526V203.352C235.113 203.616 234.892 203.837 234.628 203.837Z" fill="#464646"/>
<path d="M236.599 203.837C236.319 203.837 236.113 203.616 236.113 203.352V197.526C236.113 197.261 236.334 197.041 236.599 197.041C236.864 197.041 237.084 197.261 237.084 197.526V203.352C237.084 203.616 236.864 203.837 236.599 203.837Z" fill="#464646"/>
<path opacity="0.2" d="M239.365 155.849L230.685 164.514V159.306L234.142 155.849H239.365Z" fill="white"/>
<path d="M247.676 161.675C247.676 160.91 247.617 160.307 246.852 160.307C246.426 160.307 246.146 160.645 246.029 160.94H245.087V156.762H248.515V157.865H246.087L246.014 159.748C246.293 159.586 246.646 159.469 247.117 159.469C248.397 159.469 248.78 160.454 248.78 161.749C248.78 163.308 248.397 164.588 246.823 164.588C245.381 164.588 244.911 163.72 244.911 162.293H246.014V162.47C246.014 163.117 246.102 163.705 246.764 163.705C247.72 163.72 247.676 162.661 247.676 161.675Z" fill="#5A5A5A"/>
<path d="M250.162 160.425C249.677 160.057 249.441 159.542 249.441 158.703C249.441 157.453 250.03 156.688 251.266 156.688C252.501 156.688 253.09 157.468 253.09 158.703C253.09 159.542 252.854 160.057 252.369 160.425C252.943 160.807 253.208 161.337 253.208 162.308C253.208 163.72 252.678 164.588 251.28 164.588C249.868 164.588 249.339 163.705 249.339 162.308C249.324 161.337 249.574 160.792 250.162 160.425ZM251.266 163.69C252.016 163.69 252.089 163.043 252.089 162.308C252.089 161.631 251.942 160.984 251.266 160.984C250.574 160.984 250.427 161.631 250.427 162.308C250.427 163.043 250.515 163.69 251.266 163.69ZM251.266 157.6C250.692 157.6 250.56 158.13 250.56 158.703C250.56 159.307 250.648 159.924 251.266 159.924C251.869 159.924 251.957 159.307 251.957 158.703C251.957 158.144 251.825 157.6 251.266 157.6Z" fill="#5A5A5A"/>
<path d="M254.855 163.411V164.514H253.752V163.411H254.855Z" fill="#5A5A5A"/>
<path d="M255.502 162.528V161.293L257.444 156.762H258.827V161.484H259.68V162.528H258.827V164.514H257.724V162.528H255.502ZM257.709 158.145L256.606 161.469H257.709V158.145Z" fill="#5A5A5A"/>
<path d="M233.436 182.844L242.513 188.464C242.38 188.92 242.174 189.376 241.91 189.818C241.645 190.259 241.321 190.641 240.968 190.965L231.891 185.345C232.024 184.889 232.23 184.433 232.494 183.992C232.759 183.565 233.083 183.183 233.436 182.844Z" fill="#6E6E6E"/>
<path d="M254.193 181.358C255.179 181.358 256.194 181.623 257.091 182.182C259.269 183.536 260.181 186.125 259.489 188.464C259.357 188.92 259.151 189.376 258.886 189.817C258.621 190.259 258.298 190.641 257.945 190.965C256.915 191.936 255.547 192.451 254.164 192.451C253.164 192.451 252.163 192.186 251.251 191.612C249.089 190.273 248.162 187.684 248.853 185.345C248.986 184.889 249.192 184.433 249.456 183.992C249.721 183.565 250.045 183.183 250.398 182.844C251.442 181.888 252.811 181.358 254.193 181.358ZM254.193 180.387C252.531 180.387 250.957 181.005 249.751 182.138C249.324 182.535 248.956 182.977 248.647 183.477C248.338 183.977 248.103 184.507 247.941 185.066C247.103 187.875 248.265 190.906 250.766 192.451C251.795 193.083 252.987 193.436 254.193 193.436C255.856 193.436 257.43 192.818 258.636 191.686C259.063 191.288 259.431 190.847 259.739 190.332C260.048 189.832 260.284 189.302 260.446 188.743C261.284 185.934 260.107 182.903 257.621 181.358C256.577 180.726 255.385 180.387 254.193 180.387Z" fill="#464646"/>
<path d="M258.989 184.168L251.442 191.715C251.031 191.48 250.633 191.186 250.266 190.818C249.912 190.465 249.618 190.068 249.368 189.656L256.915 182.109C257.327 182.344 257.724 182.638 258.077 183.006C258.46 183.345 258.754 183.742 258.989 184.168Z" fill="#787878"/>
<path d="M270.996 160.506L267.893 161.475L271.493 173.004L274.596 172.034L270.996 160.506Z" fill="#464646"/>
<path d="M268.493 159.086C267.654 159.351 267.183 160.204 267.389 161.057C268.919 167.148 269.861 178.093 269.169 184.786L273.362 184.684C273.347 184.669 273.406 174.812 268.493 159.086Z" fill="#FFDC00"/>
<path d="M269.125 158.88C269.964 158.615 270.846 159.057 271.155 159.866C273.377 165.75 278.805 175.268 283.204 180.388L279.702 182.683C279.688 182.683 274.024 174.606 269.125 158.88Z" fill="#FFDC00"/>
<path d="M95.0337 184.448H48.1052V250.78H95.0337V184.448Z" fill="#323232"/>
<path d="M92.5623 186.934H50.5768V248.309H92.5623V186.934Z" fill="#E6E6E6"/>
<path d="M80.911 182.183H62.2279V189.406H80.911V182.183Z" fill="#00B4C8"/>
<path d="M62.5368 193.113V198.894H56.7554V193.113H62.5368ZM64.1992 191.465H55.1224V200.542H64.1992V191.465Z" fill="#C8C8C8"/>
<path d="M62.5368 207.427V213.208H56.7554V207.427H62.5368ZM64.1992 205.779H55.1224V214.856H64.1992V205.779Z" fill="#C8C8C8"/>
<path d="M62.5368 221.726V227.507H56.7554V221.726H62.5368ZM64.1992 220.078H55.1224V229.155H64.1992V220.078Z" fill="#C8C8C8"/>
<path d="M62.5368 236.04V241.821H56.7554V236.04H62.5368ZM64.1992 234.377H55.1224V243.454H64.1992V234.377Z" fill="#C8C8C8"/>
<path d="M88.0902 191.465H68.2155V193.907H88.0902V191.465Z" fill="#C8C8C8"/>
<path d="M88.0902 198.1H68.2155V200.542H88.0902V198.1Z" fill="#C8C8C8"/>
<path d="M88.0902 205.779H68.2155V208.221H88.0902V205.779Z" fill="#C8C8C8"/>
<path d="M88.0902 212.414H68.2155V214.856H88.0902V212.414Z" fill="#C8C8C8"/>
<path d="M88.0902 220.078H68.2155V222.52H88.0902V220.078Z" fill="#C8C8C8"/>
<path d="M88.0902 226.713H68.2155V229.155H88.0902V226.713Z" fill="#C8C8C8"/>
<path d="M88.0902 234.377H68.2155V236.819H88.0902V234.377Z" fill="#C8C8C8"/>
<path d="M88.0902 241.012H68.2155V243.454H88.0902V241.012Z" fill="#C8C8C8"/>
<path opacity="0.1" d="M95.0337 184.448H71.5695V250.78H95.0337V184.448Z" fill="white"/>
<path d="M80.911 182.183H71.5695V189.406H80.911V182.183Z" fill="#00BED2"/>
<path d="M59.2709 198.585L56.1669 192.716L57.079 192.23L59.3003 196.438L62.2278 191.215L63.1252 191.73L59.2709 198.585Z" fill="#F06400"/>
<path d="M59.2709 212.884L56.1669 207.029L57.079 206.544L59.3003 210.737L62.2278 205.529L63.1252 206.029L59.2709 212.884Z" fill="#F06400"/>
<path d="M59.2709 227.199L56.1669 221.329L57.079 220.843L59.3003 225.051L62.2278 219.828L63.1252 220.329L59.2709 227.199Z" fill="#F06400"/>
<path d="M150.833 257.445C148.067 257.445 145.434 257.562 142.654 257.562C141.006 257.562 137.49 257.695 135.975 257.136C133.489 256.312 132.871 253.031 132.179 250.678C137.078 249.604 149.362 249.28 151.098 249.927C152.951 250.619 152.613 252.325 153.172 254.12C153.731 256.621 153.319 257.445 150.833 257.445Z" fill="#005A78"/>
<path d="M92.327 234.716C88.7374 241.145 84.7802 240.012 80.205 240.012C77.7188 240.012 73.8939 240.027 73.2614 237.011C73.0701 236.187 73.0701 234.937 73.2614 234.01C73.5703 232.568 73.8939 232.759 75.4386 232.759C77.8218 232.759 80.102 232.98 82.4852 233.377C85.604 233.892 89.2229 233.789 92.327 234.716Z" fill="white"/>
<path d="M93.342 250.736C92.6506 253.09 92.0327 256.371 89.5465 257.194C88.0313 257.753 84.53 257.636 82.8677 257.636C80.102 257.636 77.4687 257.533 74.6883 257.533C72.2021 257.533 71.7902 256.709 72.3345 254.223C72.8935 252.428 72.5405 250.722 74.3941 250.03C76.1594 249.368 88.4432 249.662 93.342 250.736Z" fill="#00506E"/>
<path d="M78.3954 222.212C78.0718 222.8 77.8511 223.227 77.7776 223.462C77.5569 224.154 77.4686 224.492 77.3951 224.683C76.9979 224.58 76.5565 224.418 76.2035 224.521C75.8504 224.654 75.7916 225.007 75.3797 225.11C74.8942 225.213 74.1733 224.933 73.6879 224.874C72.6581 224.698 71.5842 224.566 70.5397 224.315C68.8773 223.933 68.3036 222.388 68.3919 220.829C68.4949 219.387 69.9807 218.902 71.1576 218.725C72.3345 218.519 73.9233 217.99 75.0266 218.652C76.6154 219.652 75.9828 222.653 78.3954 222.212Z" fill="#007896"/>
<path d="M156.82 233.76C156.747 232.303 153.349 229.199 152.378 228.228C151.73 227.611 149.494 225.683 148.729 225.198C148.273 224.918 148.185 224.918 148.082 224.639C148.009 224.448 147.92 224.095 147.685 223.403C147.611 223.168 147.391 222.741 147.067 222.153C145.125 218.637 139.447 209.869 138.976 209.383C138.417 208.824 137.181 207.721 135.416 207.412C133.665 207.103 116.041 206.191 112.731 206.191C109.421 206.191 91.7973 207.147 90.0467 207.456C88.2814 207.765 87.0457 208.869 86.4866 209.428C86.0159 209.913 80.3521 218.681 78.4102 222.212C78.0866 222.8 77.8659 223.227 77.7924 223.462C77.5717 224.153 77.4834 224.492 77.4099 224.683C77.3363 224.874 76.8803 225.183 76.7037 225.286C76.6596 225.316 76.6449 225.33 76.6449 225.33C76.1594 225.669 74.1881 226.993 73.1289 228.125C71.5254 229.817 68.7597 232.377 68.6862 233.833C68.6273 235.29 67.9948 236.32 68.1419 239.232C68.2154 240.645 68.5979 244.911 68.9804 248.971C69.3776 253.237 69.7748 257.268 69.8189 257.592C69.8925 258.21 69.6865 258.901 69.9513 259.46C70.2309 260.019 70.9223 260.152 72.0256 260.152C72.364 260.152 76.0417 260.196 81.0729 260.254C93.0919 260.402 112.79 260.652 112.79 260.652C112.79 260.652 133.106 260.357 145.066 260.181C149.803 260.107 153.246 260.063 153.555 260.063C154.658 260.063 155.349 259.931 155.629 259.372C155.894 258.828 155.702 258.121 155.761 257.504C155.805 257.077 156.512 249.78 156.982 244.381C157.203 242.013 157.35 240.012 157.394 239.129C157.512 236.231 156.879 235.201 156.82 233.76ZM150.039 232.686C151.598 232.686 151.907 232.48 152.216 233.922C152.422 234.863 152.407 236.099 152.216 236.923C151.583 239.938 147.758 239.938 145.272 239.938C140.712 239.953 136.755 241.086 133.15 234.657C136.24 233.73 139.873 233.819 142.992 233.304C145.375 232.907 147.67 232.686 150.039 232.686ZM87.3693 209.854L112.717 208.692L138.064 209.795C138.064 209.795 147.199 224.021 146.508 224.021C145.846 224.021 123 222.741 112.717 222.977C102.448 222.771 79.6018 224.095 78.9398 224.095C78.2631 224.095 87.3693 209.854 87.3693 209.854ZM73.2613 233.995C73.5703 232.553 73.8939 232.745 75.4386 232.745C77.8218 232.745 80.102 232.965 82.4852 233.363C85.604 233.877 89.2229 233.775 92.3269 234.701C88.7374 241.13 84.7801 239.997 80.205 239.997C77.7188 239.997 73.8939 240.012 73.2613 236.996C73.0701 236.172 73.0701 234.937 73.2613 233.995ZM89.5613 257.195C88.046 257.754 84.5448 257.636 82.8824 257.636C82.2645 257.636 81.6614 257.621 81.0729 257.621C79.6165 257.606 78.1601 257.562 76.689 257.533C76.027 257.533 75.3797 257.518 74.7177 257.518C72.2316 257.518 71.8196 256.694 72.364 254.208C72.923 252.413 72.5699 250.707 74.4235 250.016C75.1002 249.765 77.351 249.663 80.1461 249.692C80.4404 249.692 80.7493 249.692 81.0435 249.692C81.9703 249.707 82.956 249.736 83.9416 249.78C84.5301 249.81 85.1185 249.839 85.7069 249.868C85.9276 249.883 86.1336 249.898 86.3395 249.913C86.6632 249.927 86.9721 249.957 87.2957 249.971C87.6047 250.001 87.9283 250.03 88.2225 250.045C88.5315 250.074 88.8404 250.104 89.1346 250.133C89.576 250.177 90.0173 250.222 90.4292 250.266C90.7087 250.295 90.9882 250.324 91.2383 250.369C91.459 250.398 91.6797 250.427 91.8709 250.457C91.9739 250.472 92.0769 250.486 92.1651 250.516C92.2975 250.53 92.4152 250.56 92.5476 250.589C92.6065 250.589 92.6506 250.604 92.6947 250.604C92.783 250.619 92.8713 250.633 92.9448 250.648C93.0772 250.678 93.1949 250.707 93.3273 250.736C92.6653 253.09 92.0474 256.356 89.5613 257.195ZM124.721 256.165L100.815 256.194C100.477 256.194 97.0198 256.533 96.1224 254.046C95.2103 251.56 93.8275 247.544 93.342 245.558C92.8271 243.454 91.1353 239.85 101.286 240.071C106.523 240.189 110.319 240.174 112.746 240.144C115.188 240.174 118.969 240.174 124.206 240.056C134.357 239.821 132.665 243.425 132.165 245.529C131.679 247.515 130.296 251.546 129.399 254.032C128.516 256.503 125.059 256.165 124.721 256.165ZM150.833 257.445C148.862 257.445 146.964 257.504 145.037 257.533C144.242 257.548 143.463 257.562 142.654 257.562C141.006 257.562 137.49 257.695 135.975 257.136C133.489 256.312 132.871 253.031 132.179 250.678C132.356 250.633 132.532 250.604 132.724 250.575C132.974 250.516 133.239 250.486 133.518 250.427C133.695 250.413 133.886 250.369 134.077 250.339C134.136 250.325 134.195 250.324 134.268 250.31C134.518 250.28 134.783 250.236 135.048 250.207C135.063 250.207 135.092 250.192 135.122 250.192C135.386 250.163 135.651 250.133 135.931 250.104C136.607 250.03 137.328 249.971 138.064 249.913C138.27 249.898 138.476 249.883 138.682 249.868C139.814 249.78 140.977 249.721 142.124 249.677C142.418 249.662 142.727 249.648 143.021 249.633C143.242 249.618 143.448 249.618 143.654 249.618C143.904 249.604 144.154 249.604 144.404 249.604C144.625 249.589 144.831 249.589 145.022 249.589C147.994 249.545 150.392 249.648 151.098 249.898C152.951 250.589 152.613 252.296 153.172 254.091C153.731 256.621 153.319 257.445 150.833 257.445Z" fill="#007896"/>
<path d="M146.508 224.021C146.258 224.021 142.889 223.844 138.255 223.624C136.24 223.535 134.004 223.447 131.664 223.344C124.971 223.065 117.483 222.844 112.731 222.962C106.656 222.844 96.1225 223.256 88.4433 223.624C83.9564 223.83 80.4404 224.021 79.3224 224.065C79.1164 224.08 78.9987 224.08 78.9546 224.08C78.2632 224.08 87.3693 209.839 87.3693 209.839L93.8422 209.545L102.948 209.133L112.717 208.692L138.079 209.781C138.079 209.781 139.314 211.708 140.844 214.15C141.697 215.503 142.624 216.989 143.478 218.401C145.302 221.402 146.802 224.021 146.508 224.021Z" fill="#78DCF0"/>
<path d="M152.231 236.937C151.598 239.953 147.773 239.953 145.287 239.953C140.727 239.968 136.769 241.101 133.165 234.672C136.254 233.745 139.888 233.833 143.007 233.319C145.39 232.892 147.67 232.671 150.053 232.686C151.613 232.686 151.922 232.48 152.231 233.922C152.422 234.863 152.422 236.099 152.231 236.937Z" fill="white"/>
<path d="M132.165 245.514C131.679 247.5 130.296 251.531 129.399 254.017C128.502 256.503 125.044 256.165 124.706 256.165L100.801 256.194C100.462 256.194 97.0051 256.533 96.1077 254.047C95.1956 251.56 93.8127 247.544 93.3273 245.558C92.8124 243.455 91.1206 239.85 101.271 240.071C106.508 240.189 110.304 240.174 112.731 240.145C115.173 240.174 118.954 240.174 124.191 240.056C134.371 239.806 132.679 243.41 132.165 245.514Z" fill="#006482"/>
<path opacity="0.2" d="M152.378 228.228C151.73 227.611 149.494 225.683 148.729 225.198C148.273 224.918 148.185 224.918 148.082 224.639C148.009 224.448 147.92 224.095 147.685 223.403C147.611 223.168 147.391 222.741 147.067 222.153C145.125 218.637 139.447 209.869 138.976 209.383C138.417 208.824 137.181 207.721 135.416 207.412C133.665 207.103 116.144 206.206 112.761 206.191V208.692L138.079 209.795C138.079 209.795 147.214 224.021 146.523 224.021C145.861 224.021 123.044 222.741 112.761 222.977V260.666H112.775C112.775 260.666 133.091 260.372 145.052 260.196C149.789 260.122 153.231 260.078 153.54 260.078C154.643 260.078 155.335 259.946 155.614 259.387C155.879 258.842 155.688 258.136 155.747 257.518C155.791 257.092 156.497 249.795 156.968 244.396C157.188 242.027 157.335 240.027 157.38 239.144C157.512 236.246 156.894 235.201 156.821 233.76C156.747 232.303 153.349 229.185 152.378 228.228ZM143.007 233.318C145.39 232.892 147.67 232.671 150.053 232.686C151.613 232.686 151.922 232.48 152.231 233.922C152.437 234.863 152.422 236.099 152.231 236.923C151.598 239.938 147.773 239.938 145.287 239.938C140.727 239.953 136.769 241.086 133.165 234.657C136.254 233.745 139.888 233.833 143.007 233.318ZM150.833 257.445C148.862 257.445 146.964 257.504 145.037 257.533C144.243 257.548 143.463 257.562 142.654 257.562C141.006 257.562 137.49 257.695 135.975 257.136C133.489 256.312 132.871 253.031 132.179 250.678C132.356 250.633 132.532 250.604 132.724 250.575C132.974 250.516 133.239 250.486 133.518 250.427C133.695 250.413 133.886 250.369 134.077 250.339C134.136 250.325 134.195 250.324 134.268 250.31C134.518 250.28 134.783 250.236 135.048 250.207C135.063 250.207 135.092 250.192 135.122 250.192C135.386 250.163 135.651 250.133 135.931 250.104C136.607 250.03 137.328 249.971 138.064 249.913C138.27 249.898 138.476 249.883 138.682 249.868C139.814 249.78 140.977 249.721 142.124 249.677C142.418 249.662 142.727 249.648 143.021 249.633C143.242 249.618 143.448 249.618 143.654 249.618C143.904 249.604 144.154 249.604 144.404 249.604C144.625 249.589 144.831 249.589 145.022 249.589C147.994 249.545 150.392 249.648 151.098 249.898C152.951 250.589 152.613 252.296 153.172 254.091C153.731 256.621 153.319 257.445 150.833 257.445Z" fill="#0082A0"/>
<path d="M81.0583 260.255L81.073 266.772C81.073 267.228 80.7052 267.595 80.2492 267.595L69.819 267.61C69.363 267.61 68.9952 267.242 68.9952 266.786L68.9805 248.971C69.3777 253.237 69.7749 257.268 69.819 257.592C69.8926 258.21 69.6866 258.901 69.9514 259.46C70.2309 260.019 70.9223 260.152 72.0257 260.152C72.3493 260.152 76.0271 260.196 81.0583 260.255Z" fill="#323232"/>
<path d="M157.115 244.867L157.129 266.698C157.144 267.154 156.776 267.522 156.306 267.522L145.875 267.537C145.419 267.537 145.052 267.169 145.052 266.713V260.196C149.788 260.122 153.231 260.078 153.54 260.078C154.643 260.078 155.335 259.946 155.614 259.387C155.879 258.842 155.688 258.136 155.746 257.518C155.791 257.092 156.497 249.795 156.968 244.396C157.056 244.528 157.115 244.69 157.115 244.867Z" fill="#323232"/>
<path d="M80.1165 253.664C80.1165 255.415 78.7043 256.827 76.9537 256.827C75.203 256.827 73.7908 255.415 73.7908 253.664C73.7908 251.913 75.203 250.501 76.9537 250.501C78.7043 250.501 80.1165 251.913 80.1165 253.664Z" fill="#FFDC00"/>
<path d="M154.952 224.256C153.922 224.492 152.834 224.639 151.804 224.815C151.318 224.874 150.612 225.154 150.112 225.051C149.7 224.948 149.627 224.609 149.288 224.462C148.935 224.345 148.494 224.521 148.097 224.624C148.023 224.433 147.935 224.08 147.7 223.388C147.626 223.153 147.405 222.726 147.082 222.138C149.494 222.579 148.847 219.578 150.465 218.593C151.569 217.931 153.157 218.46 154.334 218.651C155.511 218.828 156.982 219.299 157.1 220.755C157.173 222.314 156.6 223.874 154.952 224.256Z" fill="#007896"/>
<path d="M85.5598 253.649C85.5598 254.9 84.5595 255.9 83.309 255.9C82.0733 255.9 81.0582 254.9 81.0582 253.649C81.0582 252.399 82.0586 251.398 83.309 251.398C84.5595 251.398 85.5598 252.414 85.5598 253.649Z" fill="#FFDC00"/>
<path d="M151.51 253.59C151.51 255.341 150.097 256.753 148.347 256.753C146.611 256.753 145.184 255.341 145.184 253.59C145.184 251.854 146.596 250.427 148.347 250.427C150.097 250.442 151.524 251.84 151.51 253.59Z" fill="#FFDC00"/>
<path d="M143.948 253.605C143.948 254.855 142.948 255.856 141.697 255.87C140.462 255.87 139.447 254.855 139.447 253.62C139.447 252.369 140.447 251.369 141.697 251.369C142.948 251.339 143.948 252.354 143.948 253.605Z" fill="#FFDC00"/>
<path opacity="0.45" d="M146.243 223.992C144.419 223.918 138.667 223.609 132.179 223.344C129.237 223.227 126.148 223.124 123.191 223.05C119.366 222.947 115.776 222.903 113.055 222.962C102.786 222.756 79.9253 224.08 79.278 224.08C79.2192 224.08 79.2339 223.977 79.3074 223.786C82.7057 220.991 96.3135 218.902 112.628 218.887C116.512 218.887 120.263 218.99 123.75 219.211C123.588 218.916 123.441 218.593 123.338 218.269C122.999 218.24 122.617 217.769 122.426 217.136C122.205 216.415 122.323 215.724 122.661 215.621C122.779 215.592 122.911 215.621 123.029 215.709C122.808 215.224 122.661 214.518 122.573 213.973C122.47 213.444 122.426 212.87 122.499 212.311C122.646 211.605 123.044 211.399 123.661 211.09C125.147 210.399 127.31 209.442 128.928 210.178C129.472 210.428 129.502 211.178 129.502 211.752C130.017 211.59 130.664 211.428 131.135 211.752C131.223 211.811 131.311 211.899 131.385 212.002C131.62 212.282 131.753 212.664 131.841 213.017C132.032 213.915 131.826 214.944 131.429 215.783C131.547 215.724 131.679 215.621 131.782 215.636C132.12 215.739 132.223 216.415 132.017 217.151C131.826 217.784 131.444 218.24 131.12 218.284C130.929 218.843 130.679 219.358 130.355 219.784C138.564 220.667 144.507 222.197 146.243 223.992Z" fill="#32A0B4"/>
<path opacity="0.2" d="M102.948 209.133L88.4578 223.624C83.9709 223.83 80.455 224.021 79.3369 224.065L93.8568 209.545L102.948 209.133Z" fill="white"/>
<path opacity="0.2" d="M143.463 218.416L138.24 223.624C136.225 223.535 133.989 223.447 131.65 223.344L140.815 214.15C141.683 215.503 142.624 216.989 143.463 218.416Z" fill="white"/>
<path d="M212.752 131.503C194.069 130.12 179.446 114.364 179.446 95.6074C179.446 79.0721 190.641 64.7141 206.662 60.698L207.78 65.1407C193.789 68.642 184.036 81.1758 184.036 95.6074C184.036 111.981 196.805 125.736 213.105 126.942L212.752 131.503Z" fill="#3C3C3C"/>
<path d="M215.429 61.9045C211.766 63.8757 207.324 66.9798 204.705 69.9809L206.147 63.1844L202.91 57.0498C206.25 59.227 211.369 61.0071 215.429 61.9045Z" fill="#3C3C3C"/>
<path d="M224.212 130.517L223.094 126.074C237.07 122.573 246.838 110.039 246.838 95.6076C246.838 79.1017 233.951 65.3321 217.504 64.2582L217.798 59.6978C236.643 60.9188 251.413 76.7038 251.413 95.6076C251.428 112.143 240.232 126.501 224.212 130.517Z" fill="#3C3C3C"/>
<path d="M215.429 129.311C219.093 127.339 223.55 124.235 226.154 121.234L224.712 128.016L227.949 134.151C224.624 131.988 219.49 130.208 215.429 129.311Z" fill="#3C3C3C"/>
<path d="M204.278 93.6804C202.483 96.9022 200.483 96.3432 198.203 96.3432C196.952 96.3432 195.04 96.3432 194.716 94.8426C194.613 94.4307 194.613 93.7981 194.716 93.3274C194.878 92.6065 195.025 92.7095 195.805 92.6948C196.996 92.6948 198.144 92.7978 199.335 93.0037C200.895 93.2685 202.719 93.2097 204.278 93.6804Z" fill="white"/>
<path d="M204.793 101.712C204.455 102.889 204.146 104.537 202.896 104.964C202.131 105.243 200.38 105.184 199.541 105.184C198.159 105.184 196.835 105.125 195.437 105.125C194.187 105.125 193.981 104.713 194.26 103.463C194.54 102.566 194.363 101.698 195.29 101.359C196.158 101.036 202.322 101.183 204.793 101.712Z" fill="#828282"/>
<path d="M197.291 87.3985C197.129 87.6927 197.026 87.9134 196.982 88.0311C196.864 88.3694 196.82 88.546 196.79 88.649C196.584 88.6048 196.364 88.5166 196.187 88.5754C196.011 88.649 195.981 88.8108 195.775 88.8696C195.525 88.9285 195.172 88.7813 194.922 88.7519C194.407 88.6637 193.863 88.5901 193.348 88.4725C192.509 88.2812 192.215 87.5015 192.274 86.7218C192.333 85.9863 193.068 85.7509 193.657 85.6626C194.245 85.5596 195.055 85.2948 195.599 85.6332C196.393 86.1186 196.07 87.6192 197.291 87.3985Z" fill="#D2D2D2"/>
<path d="M236.643 93.1948C236.599 92.4592 234.892 90.8998 234.407 90.4144C234.083 90.1054 232.95 89.1345 232.583 88.8845C232.362 88.7373 232.318 88.7373 232.259 88.6049C232.229 88.5167 232.171 88.3401 232.068 87.9871C232.023 87.8694 231.92 87.6487 231.759 87.3545C230.788 85.5892 227.934 81.1905 227.698 80.9404C227.419 80.6609 226.801 80.1019 225.904 79.9548C225.021 79.793 216.18 79.3369 214.517 79.3369C212.855 79.3369 204.014 79.8224 203.131 79.9695C202.248 80.1313 201.63 80.6756 201.351 80.9551C201.115 81.1905 198.276 85.6039 197.305 87.3692C197.143 87.6634 197.04 87.8841 196.996 88.0018C196.879 88.3401 196.834 88.5166 196.805 88.6196C196.761 88.7079 196.54 88.8697 196.452 88.9139C196.437 88.9286 196.423 88.9286 196.423 88.9286C196.173 89.0904 195.187 89.7671 194.657 90.3408C193.848 91.1941 192.465 92.4739 192.436 93.2095C192.406 93.945 192.098 94.46 192.156 95.9164C192.186 96.6225 192.392 98.7703 192.583 100.815C192.774 102.948 192.98 104.978 192.995 105.14C193.024 105.449 192.921 105.802 193.068 106.082C193.216 106.361 193.554 106.435 194.113 106.435C194.289 106.435 196.128 106.464 198.659 106.494C204.69 106.567 214.576 106.685 214.576 106.685C214.576 106.685 224.771 106.538 230.773 106.449C233.156 106.405 234.877 106.391 235.039 106.391C235.598 106.391 235.937 106.317 236.084 106.052C236.216 105.773 236.113 105.42 236.157 105.111C236.187 104.89 236.54 101.227 236.775 98.5202C236.878 97.3286 236.966 96.3282 236.981 95.8869C236.996 94.4452 236.687 93.9156 236.643 93.1948ZM233.245 92.6652C234.024 92.6652 234.186 92.5622 234.333 93.2831C234.436 93.7538 234.436 94.3864 234.333 94.7983C234.024 96.3136 232.097 96.3135 230.847 96.3135C228.552 96.3135 226.566 96.8873 224.756 93.6656C226.301 93.1948 228.14 93.2536 229.699 92.9888C230.905 92.7682 232.053 92.6652 233.245 92.6652ZM201.792 81.1905L214.517 80.6168L227.242 81.1758C227.242 81.1758 231.832 88.3107 231.479 88.3107C231.141 88.3107 219.681 87.6634 214.517 87.7811C209.368 87.6781 197.894 88.3401 197.57 88.3401C197.217 88.3401 201.792 81.1905 201.792 81.1905ZM194.701 93.3125C194.863 92.5916 195.01 92.6946 195.79 92.6799C196.982 92.6799 198.129 92.7829 199.321 92.9888C200.88 93.2389 202.704 93.1948 204.264 93.6508C202.469 96.8726 200.468 96.3135 198.188 96.3135C196.937 96.3135 195.025 96.3136 194.701 94.813C194.613 94.4158 194.613 93.7832 194.701 93.3125ZM202.881 104.964C202.116 105.243 200.365 105.184 199.527 105.184C199.218 105.184 198.909 105.184 198.615 105.184C197.879 105.17 197.143 105.155 196.408 105.14C196.084 105.14 195.746 105.125 195.422 105.125C194.172 105.125 193.966 104.714 194.245 103.463C194.525 102.566 194.348 101.698 195.275 101.359C195.613 101.227 196.746 101.183 198.144 101.198C198.291 101.198 198.438 101.198 198.6 101.198C199.071 101.212 199.556 101.227 200.056 101.242C200.35 101.256 200.645 101.271 200.939 101.286C201.042 101.286 201.16 101.301 201.263 101.315C201.424 101.33 201.586 101.33 201.748 101.345C201.91 101.359 202.072 101.374 202.219 101.389C202.381 101.404 202.528 101.418 202.675 101.433C202.895 101.448 203.116 101.477 203.322 101.507C203.469 101.521 203.602 101.536 203.734 101.565C203.852 101.58 203.955 101.595 204.058 101.61C204.102 101.624 204.161 101.624 204.205 101.639C204.264 101.639 204.337 101.654 204.396 101.668C204.425 101.668 204.44 101.668 204.47 101.683C204.514 101.698 204.558 101.698 204.587 101.698C204.661 101.713 204.72 101.727 204.778 101.742C204.44 102.904 204.131 104.537 202.881 104.964ZM220.534 104.449L208.53 104.464C208.353 104.464 206.617 104.64 206.176 103.39C205.72 102.139 205.029 100.124 204.778 99.1234C204.514 98.0642 203.66 96.2547 208.765 96.3724C211.399 96.4312 213.296 96.4312 214.517 96.4018C215.738 96.4165 217.636 96.4165 220.269 96.3577C225.359 96.24 224.521 98.0494 224.256 99.1087C224.006 100.109 223.315 102.124 222.873 103.375C222.447 104.611 220.711 104.449 220.534 104.449ZM233.642 105.081C232.656 105.081 231.7 105.111 230.729 105.125C230.332 105.14 229.934 105.14 229.537 105.14C228.699 105.14 226.948 105.199 226.183 104.934C224.933 104.522 224.624 102.875 224.271 101.698C224.359 101.668 224.447 101.654 224.536 101.639C224.668 101.61 224.8 101.595 224.933 101.565C225.021 101.551 225.124 101.536 225.212 101.521C225.242 101.521 225.271 101.507 225.3 101.507C225.433 101.492 225.565 101.477 225.698 101.462C225.712 101.462 225.727 101.462 225.727 101.462C225.86 101.448 225.992 101.433 226.139 101.418C226.477 101.389 226.845 101.345 227.213 101.315C227.316 101.315 227.419 101.301 227.522 101.286C228.081 101.242 228.684 101.212 229.243 101.198C229.39 101.183 229.537 101.183 229.699 101.168C229.802 101.168 229.92 101.168 230.023 101.154C230.155 101.154 230.273 101.154 230.405 101.154C230.508 101.154 230.611 101.139 230.714 101.154C232.2 101.139 233.406 101.183 233.759 101.315C234.686 101.654 234.524 102.522 234.804 103.419C235.098 104.669 234.892 105.081 233.642 105.081Z" fill="#D2D2D2"/>
<path d="M231.479 88.3105C231.347 88.3105 229.67 88.2222 227.331 88.1192C226.316 88.0751 225.198 88.031 224.021 87.9868C220.652 87.8544 216.901 87.7367 214.517 87.7956C211.472 87.7367 206.191 87.9427 202.322 88.1339C200.071 88.2369 198.306 88.3252 197.747 88.3546C197.644 88.3693 197.585 88.3693 197.555 88.3693C197.217 88.3693 201.778 81.2197 201.778 81.2197L205.029 81.0726L209.604 80.8667L214.503 80.646L227.228 81.205C227.228 81.205 227.846 82.1759 228.611 83.397C229.037 84.0737 229.508 84.824 229.935 85.5301C230.861 87.0012 231.626 88.3105 231.479 88.3105Z" fill="#787878"/>
<path d="M234.348 94.7837C234.039 96.2989 232.112 96.2989 230.861 96.2989C228.566 96.2989 226.58 96.8727 224.771 93.6509C226.316 93.1802 228.155 93.239 229.714 92.9742C230.906 92.7683 232.053 92.6506 233.245 92.6506C234.024 92.6506 234.186 92.5476 234.333 93.2684C234.436 93.7539 234.436 94.3718 234.348 94.7837Z" fill="white"/>
<path d="M233.642 105.082C232.244 105.082 230.935 105.14 229.537 105.14C228.699 105.14 226.948 105.199 226.183 104.934C224.933 104.523 224.624 102.875 224.271 101.698C226.728 101.154 232.892 100.992 233.774 101.316C234.701 101.654 234.539 102.522 234.819 103.419C235.098 104.67 234.892 105.082 233.642 105.082Z" fill="#828282"/>
<path d="M224.271 99.0942C224.021 100.095 223.329 102.11 222.888 103.36C222.447 104.611 220.711 104.449 220.534 104.449L208.53 104.464C208.353 104.464 206.618 104.64 206.176 103.39C205.72 102.139 205.029 100.124 204.779 99.1237C204.514 98.0645 203.661 96.255 208.765 96.3727C211.399 96.4315 213.296 96.4315 214.517 96.4021C215.738 96.4168 217.636 96.4168 220.269 96.358C225.374 96.2256 224.536 98.035 224.271 99.0942Z" fill="#B4B4B4"/>
<path opacity="0.2" d="M234.421 90.4144C234.098 90.1054 232.965 89.1345 232.597 88.8845C232.377 88.7373 232.332 88.7373 232.274 88.6049C232.244 88.5167 232.185 88.3401 232.082 87.9871C232.038 87.8694 231.935 87.6487 231.773 87.3545C230.803 85.5892 227.949 81.1905 227.713 80.9404C227.434 80.6609 226.816 80.1019 225.918 79.9548C225.036 79.8077 216.253 79.3369 214.547 79.3369V80.6021L227.257 81.1611C227.257 81.1611 231.847 88.296 231.494 88.296C231.156 88.296 219.71 87.6634 214.547 87.7664V106.685H214.561C214.561 106.685 224.756 106.538 230.758 106.449C233.142 106.405 234.863 106.391 235.025 106.391C235.584 106.391 235.922 106.317 236.069 106.052C236.202 105.773 236.099 105.42 236.143 105.111C236.172 104.89 236.525 101.227 236.761 98.5202C236.864 97.3286 236.952 96.3282 236.966 95.8869C237.04 94.4305 236.716 93.9156 236.687 93.1948C236.613 92.474 234.907 90.8998 234.421 90.4144ZM229.714 92.9741C230.906 92.7682 232.053 92.6505 233.245 92.6505C234.024 92.6505 234.186 92.5475 234.333 93.2683C234.436 93.7391 234.436 94.3717 234.333 94.7836C234.024 96.2988 232.097 96.2988 230.847 96.2988C228.552 96.2988 226.566 96.8726 224.756 93.6508C226.33 93.1948 228.155 93.2389 229.714 92.9741ZM233.642 105.081C232.656 105.081 231.7 105.111 230.729 105.125C230.332 105.14 229.935 105.14 229.537 105.14C228.699 105.14 226.948 105.199 226.183 104.934C224.933 104.522 224.624 102.875 224.271 101.698C224.359 101.668 224.447 101.654 224.536 101.639C224.668 101.61 224.8 101.595 224.933 101.565C225.021 101.551 225.124 101.536 225.212 101.521C225.242 101.521 225.271 101.507 225.301 101.507C225.433 101.492 225.565 101.477 225.698 101.462C225.712 101.462 225.727 101.462 225.727 101.462C225.86 101.448 225.992 101.433 226.139 101.418C226.477 101.389 226.845 101.345 227.213 101.315C227.316 101.315 227.419 101.301 227.522 101.286C228.081 101.242 228.684 101.212 229.243 101.198C229.39 101.183 229.537 101.183 229.699 101.168C229.802 101.168 229.92 101.168 230.023 101.154C230.155 101.154 230.273 101.154 230.405 101.154C230.508 101.154 230.611 101.139 230.714 101.154C232.2 101.139 233.406 101.183 233.759 101.315C234.686 101.654 234.524 102.522 234.804 103.419C235.098 104.669 234.892 105.081 233.642 105.081Z" fill="#D2D2D2"/>
<path d="M198.615 106.509V109.774C198.615 109.995 198.423 110.186 198.203 110.186H192.965C192.73 110.186 192.554 109.995 192.554 109.774V100.83C192.745 102.963 192.951 104.993 192.965 105.155C192.995 105.464 192.892 105.817 193.039 106.097C193.186 106.376 193.525 106.45 194.084 106.45C194.245 106.45 196.099 106.464 198.615 106.509Z" fill="#323232"/>
<path d="M236.79 98.7703L236.805 109.73C236.805 109.965 236.628 110.142 236.393 110.142H231.156C230.935 110.142 230.744 109.951 230.744 109.73V106.464C233.127 106.42 234.848 106.405 235.01 106.405C235.569 106.405 235.907 106.332 236.054 106.067C236.187 105.787 236.084 105.434 236.128 105.125C236.157 104.905 236.511 101.242 236.746 98.5349C236.775 98.6085 236.79 98.682 236.79 98.7703Z" fill="#323232"/>
<path d="M198.144 103.184C198.144 104.052 197.438 104.773 196.555 104.773C195.672 104.773 194.966 104.066 194.966 103.184C194.966 102.301 195.672 101.595 196.555 101.595C197.438 101.61 198.144 102.316 198.144 103.184Z" fill="#FFDC00"/>
<path d="M235.701 88.4283C235.186 88.546 234.642 88.6195 234.113 88.7078C233.877 88.7372 233.509 88.8843 233.259 88.8255C233.053 88.7666 233.009 88.6048 232.847 88.5313C232.671 88.4724 232.45 88.5607 232.244 88.6048C232.215 88.5166 232.156 88.34 232.053 87.987C232.009 87.8693 231.906 87.6486 231.744 87.3544C232.95 87.575 232.627 86.0598 233.436 85.5744C233.995 85.236 234.789 85.5008 235.378 85.6038C235.966 85.692 236.716 85.9274 236.761 86.663C236.834 87.4574 236.54 88.237 235.701 88.4283Z" fill="#D2D2D2"/>
<path d="M200.88 103.184C200.88 103.801 200.38 104.316 199.747 104.316C199.129 104.316 198.615 103.816 198.615 103.184C198.615 102.551 199.115 102.051 199.747 102.051C200.38 102.051 200.88 102.566 200.88 103.184Z" fill="#FFDC00"/>
<path d="M233.98 103.154C233.98 104.037 233.274 104.743 232.391 104.743C231.523 104.743 230.802 104.037 230.802 103.154C230.802 102.272 231.509 101.566 232.391 101.566C233.274 101.566 233.98 102.272 233.98 103.154Z" fill="#FFDC00"/>
<path d="M230.185 103.154C230.185 103.772 229.685 104.287 229.052 104.287C228.434 104.287 227.919 103.772 227.919 103.154C227.919 102.521 228.419 102.021 229.052 102.021C229.685 102.021 230.185 102.536 230.185 103.154Z" fill="#FFDC00"/>
<path opacity="0.45" d="M231.332 88.2958C230.42 88.2516 227.537 88.1045 224.271 87.9721C222.8 87.9133 221.24 87.8545 219.755 87.825C217.827 87.7809 216.033 87.7515 214.664 87.7809C209.501 87.6779 198.041 88.3399 197.703 88.3399C197.673 88.3399 197.688 88.2811 197.717 88.1928C199.424 86.7953 206.25 85.7361 214.444 85.7361C216.4 85.7361 218.283 85.7949 220.019 85.8979C219.946 85.7508 219.872 85.589 219.813 85.4271C219.652 85.4124 219.446 85.177 219.357 84.8681C219.24 84.5003 219.298 84.162 219.475 84.1031C219.534 84.0884 219.593 84.1031 219.666 84.1473C219.549 83.8972 219.49 83.5441 219.431 83.2793C219.387 83.0145 219.357 82.7203 219.401 82.4408C219.475 82.0877 219.681 81.9847 219.99 81.8229C220.725 81.4845 221.814 80.9991 222.638 81.3668C222.917 81.4992 222.917 81.867 222.932 82.1465C223.197 82.073 223.521 81.9847 223.741 82.1465C223.785 82.176 223.829 82.2201 223.874 82.2643C223.991 82.4114 224.065 82.6026 224.109 82.7644C224.197 83.2205 224.109 83.7353 223.903 84.162C223.962 84.1325 224.021 84.0884 224.08 84.0884C224.256 84.1473 224.3 84.4856 224.197 84.8534C224.109 85.1623 223.903 85.3977 223.741 85.4124C223.653 85.6919 223.521 85.942 223.359 86.1627C227.493 86.6334 230.464 87.3984 231.332 88.2958Z" fill="#646464"/>
<path opacity="0.15" d="M209.604 80.8374L202.322 88.1194C200.071 88.2224 198.306 88.3106 197.747 88.34L205.029 81.0433L209.604 80.8374Z" fill="white"/>
<path opacity="0.15" d="M229.949 85.5008L227.331 88.1193C226.316 88.0752 225.198 88.0311 224.021 87.9869L228.625 83.3677C229.052 84.0297 229.523 84.7799 229.949 85.5008Z" fill="white"/>
<path d="M240.115 105.744C240.115 110.289 236.422 113.982 231.877 113.982C227.331 113.982 223.638 110.304 223.638 105.744C223.638 101.198 227.331 97.5054 231.877 97.5054C236.422 97.5054 240.115 101.198 240.115 105.744Z" fill="#96B400"/>
<path d="M231.332 111.54L227.007 103.331L228.272 102.654L231.376 108.524L235.495 101.227L236.746 101.933L231.332 111.54Z" fill="white"/>
<path d="M73.2319 89.488C72.9377 90.0029 72.7465 90.4001 72.6729 90.6061C72.4669 91.2239 72.3934 91.5329 72.3345 91.6947C71.9815 91.6064 71.5843 91.4593 71.2753 91.5623C70.9664 91.68 70.9076 91.9889 70.5398 92.0919C70.0985 92.1802 69.4659 91.9301 69.0245 91.8713C68.0977 91.7242 67.1415 91.5917 66.2147 91.3858C64.7289 91.0474 64.214 89.6646 64.3023 88.2817C64.3905 86.9872 65.7145 86.5605 66.759 86.3987C67.8035 86.2075 69.2158 85.7514 70.2014 86.3399C71.6431 87.2078 71.0841 89.8852 73.2319 89.488Z" fill="#C81E00"/>
<path d="M143.139 99.771C143.066 98.4764 140.035 95.696 139.182 94.8428C138.608 94.2838 136.607 92.5773 135.931 92.1359C135.533 91.8859 135.445 91.8859 135.357 91.6358C135.298 91.4592 135.21 91.1503 135.004 90.5324C134.93 90.3265 134.739 89.9293 134.445 89.4144C132.709 86.2809 127.648 78.4693 127.236 78.0427C126.736 77.5425 125.633 76.5716 124.059 76.2774C122.499 76.0126 106.788 75.1887 103.831 75.1887C100.874 75.1887 85.1773 76.042 83.6032 76.3215C82.0291 76.601 80.9258 77.5867 80.4256 78.0721C79.999 78.4988 74.9531 86.3251 73.2319 89.4732C72.9376 89.9881 72.7464 90.3853 72.6728 90.5913C72.4669 91.2091 72.3933 91.5181 72.3345 91.6799C72.2609 91.8564 71.8637 92.1212 71.7166 92.2095C71.6872 92.2389 71.6578 92.2389 71.6578 92.2389C71.2164 92.5332 69.4658 93.7248 68.5243 94.7251C67.0973 96.2404 64.6259 98.5206 64.567 99.8152C64.5082 101.11 63.9639 102.037 64.0815 104.626C64.1404 105.891 64.4787 109.686 64.8318 113.32C65.1849 117.115 65.538 120.72 65.5821 120.999C65.6409 121.558 65.4644 122.176 65.6998 122.662C65.9499 123.162 66.5677 123.279 67.5387 123.279C67.8329 123.279 71.1135 123.323 75.6003 123.382C86.31 123.515 103.86 123.735 103.86 123.735C103.86 123.735 121.97 123.456 132.621 123.309C136.857 123.25 139.917 123.206 140.197 123.206C141.182 123.206 141.8 123.088 142.05 122.588C142.286 122.102 142.109 121.485 142.168 120.926C142.212 120.543 142.845 114.041 143.257 109.23C143.448 107.127 143.595 105.332 143.625 104.552C143.757 101.978 143.198 101.066 143.139 99.771ZM137.107 98.8148C138.49 98.8148 138.77 98.6383 139.049 99.9181C139.226 100.757 139.226 101.86 139.049 102.596C138.49 105.288 135.077 105.288 132.856 105.288C128.796 105.288 125.25 106.303 122.043 100.58C124.809 99.7563 128.045 99.8445 130.811 99.3738C132.944 99.006 134.989 98.8148 137.107 98.8148ZM81.2347 78.4546L103.831 77.4248L126.427 78.4105C126.427 78.4105 134.577 91.0915 133.959 91.0915C133.371 91.0915 112.996 89.9587 103.846 90.1499C94.6954 89.9734 74.3205 91.1356 73.732 91.1503C73.1142 91.1503 81.2347 78.4546 81.2347 78.4546ZM68.6567 99.9917C68.9362 98.6971 69.2157 98.8883 70.5986 98.8883C72.717 98.8883 74.7618 99.0796 76.8802 99.4474C79.6606 99.9034 82.8823 99.8151 85.648 100.639C82.441 106.362 78.9103 105.361 74.8501 105.361C72.6434 105.361 69.2304 105.361 68.6567 102.684C68.4802 101.934 68.4802 100.83 68.6567 99.9917ZM83.1766 120.675C81.8231 121.176 78.7044 121.058 77.2186 121.058C76.6743 121.058 76.1299 121.043 75.6003 121.043C74.2911 121.029 72.9965 120.984 71.6872 120.97C71.0987 120.97 70.525 120.955 69.9366 120.955C67.7152 120.955 67.3474 120.219 67.8476 117.998C68.3331 116.395 68.0388 114.879 69.6865 114.261C70.2896 114.041 72.2903 113.938 74.7912 113.967C75.056 113.953 75.3208 113.967 75.6003 113.967C76.4242 113.982 77.3068 114.011 78.1748 114.041C78.7044 114.07 79.2193 114.1 79.7489 114.114C79.9401 114.129 80.1314 114.144 80.3226 114.158C80.6168 114.173 80.8963 114.188 81.1759 114.217C81.4554 114.247 81.7349 114.261 81.9997 114.291C82.2792 114.306 82.5587 114.335 82.8235 114.364C83.2207 114.394 83.6032 114.438 83.971 114.482C84.2211 114.512 84.4711 114.541 84.6918 114.57C84.8831 114.6 85.0743 114.629 85.2508 114.644C85.3391 114.659 85.4274 114.673 85.5156 114.688C85.6333 114.703 85.751 114.717 85.854 114.747C85.8981 114.747 85.9423 114.762 85.9864 114.762C86.0599 114.776 86.1335 114.791 86.2071 114.806C86.3247 114.835 86.4277 114.85 86.5454 114.879C85.9423 117.012 85.3979 119.925 83.1766 120.675ZM114.526 119.749L93.2095 119.763C92.9006 119.763 89.826 120.072 89.0316 117.851C88.2225 115.63 86.9867 112.055 86.5601 110.275C86.1041 108.392 84.5888 105.185 93.6362 105.376C98.3143 105.479 101.683 105.479 103.86 105.435C106.038 105.464 109.406 105.464 114.085 105.346C123.132 105.126 121.631 108.348 121.175 110.231C120.734 112.011 119.513 115.585 118.719 117.807C117.91 120.043 114.835 119.749 114.526 119.749ZM137.814 120.896C136.063 120.896 134.371 120.955 132.65 120.984C131.944 120.999 131.252 121.014 130.532 121.014C129.046 121.014 125.927 121.132 124.574 120.631C122.352 119.896 121.793 116.983 121.19 114.879C121.337 114.835 121.514 114.806 121.676 114.776C121.896 114.732 122.132 114.688 122.382 114.644C122.544 114.629 122.72 114.6 122.882 114.57C122.941 114.556 122.985 114.556 123.044 114.556C123.264 114.526 123.5 114.497 123.735 114.467C123.75 114.467 123.779 114.453 123.794 114.453C124.029 114.423 124.265 114.394 124.515 114.379C125.118 114.32 125.751 114.261 126.413 114.203C126.589 114.188 126.78 114.173 126.957 114.158C127.957 114.085 129.016 114.026 130.017 113.997C130.282 113.982 130.546 113.967 130.811 113.953C131.002 113.938 131.194 113.938 131.385 113.938C131.62 113.923 131.841 113.923 132.062 113.923C132.253 113.908 132.444 113.908 132.621 113.923C135.269 113.879 137.402 113.967 138.034 114.203C139.682 114.82 139.388 116.336 139.888 117.939C140.388 120.146 140.02 120.896 137.814 120.896Z" fill="#C81E00"/>
<path d="M92.68 118.248C91.9738 118.248 90.7675 118.131 90.488 117.336C89.5759 114.821 88.4432 111.466 88.0607 109.922L87.943 109.495C87.7518 108.76 87.6046 108.186 87.8106 107.921C87.943 107.759 88.7668 106.935 92.8418 106.935C93.0772 106.935 93.3273 106.935 93.5921 106.95C96.4754 107.009 98.8586 107.038 100.771 107.038C101.992 107.038 103.022 107.024 103.86 107.024C104.537 107.038 105.39 107.038 106.391 107.038C108.391 107.038 110.951 107.009 114.099 106.935C114.379 106.935 114.644 106.921 114.894 106.921C118.939 106.921 119.763 107.744 119.896 107.906C120.101 108.171 119.969 108.76 119.778 109.48L119.675 109.907C119.292 111.466 118.174 114.806 117.262 117.321C116.983 118.116 115.747 118.234 115.041 118.234L114.526 118.219L93.1802 118.234C93.1802 118.234 92.8271 118.248 92.68 118.248Z" fill="#C81E00"/>
<path d="M75.6003 123.397L75.615 129.208C75.615 129.605 75.2767 129.943 74.8795 129.943H65.5821C65.1701 129.943 64.8465 129.605 64.8465 129.208L64.8318 113.334C65.1849 117.13 65.5379 120.734 65.5821 121.014C65.6409 121.573 65.4644 122.191 65.6997 122.676C65.9498 123.176 66.5677 123.294 67.5386 123.294C67.8329 123.294 71.1134 123.338 75.6003 123.397Z" fill="#C81E00"/>
<path d="M143.404 109.671L143.419 129.134C143.419 129.546 143.095 129.87 142.683 129.87L133.386 129.885C132.988 129.885 132.65 129.546 132.65 129.149L132.635 123.338C136.872 123.279 139.932 123.235 140.212 123.235C141.197 123.235 141.815 123.117 142.065 122.617C142.301 122.132 142.124 121.514 142.183 120.955C142.227 120.572 142.86 114.07 143.272 109.26C143.36 109.377 143.404 109.524 143.404 109.671Z" fill="#C81E00"/>
<path d="M74.7618 117.513C74.7618 119.072 73.5114 120.337 71.952 120.337C70.3926 120.337 69.1274 119.072 69.1274 117.527C69.1274 115.983 70.3779 114.703 71.952 114.703C73.5114 114.703 74.7618 115.968 74.7618 117.513Z" fill="#C81E00"/>
<path d="M141.477 91.2971C140.55 91.5178 139.594 91.6355 138.667 91.7973C138.24 91.8561 137.593 92.1062 137.166 92.0179C136.799 91.9297 136.74 91.6208 136.431 91.4884C136.107 91.3854 135.725 91.5472 135.372 91.6355C135.313 91.4589 135.225 91.15 135.019 90.5321C134.945 90.3262 134.754 89.929 134.46 89.4141C136.607 89.7966 136.034 87.1339 137.475 86.2512C138.461 85.6628 139.873 86.1335 140.918 86.3101C141.962 86.4572 143.286 86.8985 143.375 88.1931C143.463 89.5759 142.948 90.9587 141.477 91.2971Z" fill="#C81E00"/>
<path d="M79.6166 117.513C79.6166 118.616 78.7192 119.528 77.6159 119.528C76.5126 119.528 75.6005 118.631 75.6005 117.513C75.6005 116.395 76.4978 115.497 77.6012 115.497C78.7192 115.497 79.6166 116.395 79.6166 117.513Z" fill="#C81E00"/>
<path d="M138.417 117.454C138.417 119.013 137.166 120.263 135.607 120.263C134.062 120.263 132.797 119.013 132.797 117.454C132.797 115.894 134.062 114.629 135.607 114.629C137.152 114.644 138.417 115.894 138.417 117.454Z" fill="#C81E00"/>
<path d="M131.664 117.454C131.664 118.572 130.767 119.469 129.664 119.469C128.56 119.469 127.648 118.572 127.648 117.454C127.648 116.351 128.546 115.438 129.649 115.438C130.767 115.453 131.679 116.351 131.664 117.454Z" fill="#C81E00"/>
<path d="M146.214 150.524H61.4778V153.26H146.214V150.524Z" fill="#C81E00"/>
<path d="M89.1493 133.018H55.8286V129.885H85.3979L89.1493 133.018Z" fill="#C81E00"/>
<path d="M58.6385 92.5479H52.96V103.405H58.6385V92.5479Z" fill="#C81E00"/>
<path d="M58.6384 60.0361C57.0938 60.0361 55.8286 61.3013 55.8286 62.846V151.245H61.4483V62.846C61.4483 61.2866 60.1831 60.0361 58.6384 60.0361Z" fill="#C81E00"/>
<path d="M61.4484 153.363H47.8112L51.2388 148.288H61.4484V153.363Z" fill="#C81E00"/>
<path d="M118.513 133.018H151.833V129.885H122.264L118.513 133.018Z" fill="#C81E00"/>
<path d="M154.702 92.5479H149.024V103.405H154.702V92.5479Z" fill="#C81E00"/>
<path d="M149.024 60.0361C150.568 60.0361 151.833 61.3013 151.833 62.846V151.245H146.214V62.846C146.214 61.2866 147.464 60.0361 149.024 60.0361Z" fill="#C81E00"/>
<path d="M146.214 153.363H159.851L156.409 148.288H146.214V153.363Z" fill="#C81E00"/>
<path d="M213.87 183.359C213.87 184.977 212.561 186.287 210.943 186.287H109.848C108.23 186.287 106.92 184.977 106.92 183.359V117.674C106.92 116.056 108.23 114.747 109.848 114.747H210.943C212.561 114.747 213.87 116.056 213.87 117.674V183.359Z" fill="#464646"/>
<path d="M210.104 118.498H110.672V181.064H210.104V118.498Z" fill="white"/>
<path d="M210.104 118.498H110.672V122.249H210.104V118.498Z" fill="#007896"/>
<path d="M210.104 178.814H110.672V181.079H210.104V178.814Z" fill="#007896"/>
<path d="M217.68 192.848C217.68 194.187 216.592 195.275 215.253 195.275H105.523C104.184 195.275 103.095 194.187 103.095 192.848V190.421C103.095 189.082 104.184 187.993 105.523 187.993H215.253C216.592 187.993 217.68 189.082 217.68 190.421V192.848Z" fill="#464646"/>
<path d="M131.223 189.979H107.862V193.275H131.223V189.979Z" fill="#323232"/>
<path d="M213.87 191.627C213.87 192.348 213.282 192.936 212.561 192.936C211.84 192.936 211.251 192.348 211.251 191.627C211.251 190.906 211.84 190.318 212.561 190.318C213.282 190.318 213.87 190.906 213.87 191.627Z" fill="#FF6400"/>
<path d="M208.442 191.627C208.442 192.348 207.853 192.936 207.132 192.936C206.411 192.936 205.823 192.348 205.823 191.627C205.823 190.906 206.411 190.318 207.132 190.318C207.853 190.318 208.442 190.906 208.442 191.627Z" fill="#96B400"/>
<path d="M198.629 159.895L118.233 160.366L121.558 171.267H198.629V159.895Z" fill="#006E8C"/>
<path d="M113.202 167.721C113.231 167.869 113.261 168.001 113.305 168.089C113.334 168.178 113.378 168.236 113.423 168.281C113.437 168.295 113.452 168.295 113.452 168.295C113.629 168.325 113.835 168.472 114.173 168.707C114.276 168.795 114.408 168.884 114.541 168.972C114.614 169.031 114.688 169.104 114.776 169.148C114.835 169.193 114.908 169.251 114.997 169.296C115.114 169.384 115.247 169.472 115.394 169.56C115.409 169.575 115.467 169.59 115.482 169.619C115.747 169.781 116.041 169.943 116.394 170.119C116.806 170.355 117.483 170.546 118.204 170.708C118.351 170.737 118.513 170.781 118.645 170.796C118.719 170.811 118.792 170.811 118.88 170.84C119.601 170.987 120.322 171.105 120.852 171.193C121.072 171.223 121.249 171.252 121.381 171.267C121.47 171.267 121.499 171.282 121.558 171.282C121.558 171.267 121.558 171.267 121.558 171.267C121.411 170.664 121.337 170.031 121.337 169.399C121.337 164.676 125.162 160.866 129.87 160.866C134.577 160.866 138.387 164.676 138.387 169.399C138.387 170.046 138.299 170.678 138.167 171.282V171.296H181.035V171.282C180.902 170.678 180.814 170.046 180.814 169.399C180.814 164.676 184.624 160.866 189.347 160.866C194.054 160.866 197.879 164.676 197.879 169.399C197.879 170.046 197.791 170.678 197.673 171.282V171.296H201.851C202.881 171.296 202.954 171.296 203.94 171.237C204.205 171.223 204.514 171.208 204.896 171.179C205.029 171.164 205.176 171.164 205.338 171.164C205.499 171.164 205.647 171.134 205.779 171.12C206.132 171.061 206.397 170.973 206.588 170.84C206.618 170.796 206.662 170.796 206.706 170.767C206.838 170.678 206.926 170.575 206.985 170.458C207.029 170.369 207.059 170.296 207.103 170.208C207.177 169.943 207.132 169.663 207.074 169.428C207.074 169.399 207.059 169.369 207.044 169.354C207.044 169.31 207.029 169.296 207.015 169.266C207 169.207 206.971 169.148 206.956 169.104C206.897 168.972 206.838 168.884 206.838 168.884C206.838 168.884 206.823 168.869 206.809 168.839C206.809 168.839 206.809 168.84 206.809 168.825C206.794 168.795 206.75 168.737 206.735 168.663C206.706 168.589 206.662 168.531 206.618 168.428C206.588 168.325 206.559 168.251 206.529 168.178C206.5 168.045 206.485 167.942 206.485 167.824C206.485 167.162 206.47 166.559 206.47 166.03C206.456 165.853 206.456 165.677 206.456 165.5C206.441 165.427 206.441 165.382 206.441 165.324V164.971C206.441 164.823 206.426 164.691 206.426 164.559C206.412 164.426 206.397 164.264 206.397 164.132C206.382 164.014 206.382 163.867 206.382 163.735C206.367 163.617 206.367 163.485 206.353 163.367C206.353 163.264 206.338 163.132 206.323 163.043C206.294 162.867 206.294 162.705 206.264 162.543V162.528C206.161 161.675 205.985 161.131 205.72 160.631C205.705 160.557 205.661 160.498 205.602 160.425C205.573 160.351 205.514 160.292 205.485 160.234C205.352 160.013 205.205 159.822 205.043 159.601C204.955 159.469 204.852 159.336 204.749 159.189C204.602 158.998 204.47 158.807 204.293 158.571C202.528 156.056 183.536 155.644 180.682 154.437C179.225 153.834 167.942 147.832 164.485 146.758C162.69 146.214 162.19 146.081 154.187 146.126C153.79 146.126 153.393 146.126 152.996 146.14C152.701 146.14 152.392 146.155 152.113 146.155C149.156 146.243 146.405 146.508 143.86 146.891C132.944 148.465 125.898 152.039 123.765 152.834C120.999 153.878 115.703 154.055 115.541 154.423C115.512 154.481 115.467 154.629 115.394 154.835C115.276 155.202 115.114 155.747 114.938 156.365C114.894 156.497 114.85 156.659 114.805 156.791C114.747 156.982 114.688 157.188 114.644 157.38C114.614 157.468 114.6 157.571 114.57 157.674C114.497 157.968 114.408 158.248 114.364 158.512C114.349 158.571 114.335 158.63 114.32 158.704C114.291 158.895 114.246 159.071 114.232 159.233C114.217 159.277 114.202 159.321 114.202 159.38C114.188 159.527 114.188 159.645 114.188 159.748C114.188 159.954 114.158 160.116 114.129 160.248C114.114 160.278 114.099 160.337 114.07 160.366C114.07 160.366 114.07 160.366 114.07 160.381C113.982 160.557 113.864 160.704 113.732 160.881C113.732 160.91 113.702 160.91 113.687 160.954C113.643 161.028 113.584 161.101 113.526 161.204C113.496 161.234 113.496 161.263 113.467 161.307C113.423 161.41 113.364 161.513 113.305 161.646C113.29 161.675 113.29 161.719 113.276 161.763C113.231 161.881 113.187 161.999 113.158 162.146C112.849 163.352 112.922 166.456 113.202 167.721ZM165.721 155.379C164.882 155.349 164.044 155.32 163.176 155.291C161.44 155.202 159.645 155.129 157.835 155.026C157.379 155.011 156.923 154.967 156.467 154.952C155.099 154.864 153.746 154.805 152.407 154.717V154.702C152.378 152.157 152.598 149.568 152.907 147.096C156.055 147.052 161.131 146.994 162.97 147.288C163.779 147.42 168.339 149.259 172.282 151.201C172.9 151.51 173.503 151.804 174.077 152.113C174.091 152.113 174.091 152.128 174.091 152.128C174.856 152.525 175.562 152.937 176.18 153.305C176.945 153.775 177.563 154.202 177.96 154.584C178.049 154.658 178.093 154.732 178.152 154.79C178.225 154.879 178.225 154.967 178.137 155.026C178.107 155.07 178.034 155.099 177.96 155.143C177.46 155.335 176.254 155.452 174.562 155.497C173.959 155.511 173.282 155.526 172.576 155.526C170.634 155.511 168.295 155.467 165.721 155.379ZM142.109 148.332C142.286 148.273 142.462 148.229 142.654 148.185C143.33 148.009 144.066 147.861 144.801 147.744C145.861 147.553 146.935 147.391 147.905 147.302C148.994 147.185 149.95 147.126 150.612 147.126C150.907 147.126 151.407 147.111 152.054 147.111C151.76 149.45 151.554 151.878 151.554 154.305V154.673C148.67 154.496 145.89 154.32 143.433 154.128C143.198 154.099 142.948 154.099 142.698 154.07C141.977 154.025 141.285 153.967 140.638 153.908C138.446 153.731 136.651 153.599 135.445 153.466C135.195 153.452 134.989 153.422 134.798 153.408C134.695 153.393 134.607 153.378 134.518 153.378C134.357 153.363 134.209 153.349 134.106 153.334C133.93 153.319 133.827 153.305 133.783 153.29C132.782 152.937 139.285 149.141 142.109 148.332Z" fill="#0082A0"/>
<path d="M152.407 154.717C156.85 154.982 161.484 155.217 165.588 155.364C168.207 155.452 170.605 155.496 172.576 155.496C173.282 155.496 173.959 155.482 174.547 155.467C176.254 155.423 177.46 155.305 177.946 155.114C178.196 155.026 178.284 154.893 178.151 154.761C176.313 152.569 164.323 147.508 162.97 147.273C161.852 147.082 159.586 147.052 157.276 147.052C155.732 147.052 154.172 147.067 152.907 147.082C152.598 149.568 152.378 152.157 152.407 154.717Z" fill="#78DCF0"/>
<path d="M133.768 153.275C134.003 153.349 136.651 153.613 140.565 153.908C142.301 154.04 144.272 154.187 146.376 154.32C148.023 154.437 149.774 154.555 151.539 154.658C151.524 152.128 151.73 149.568 152.039 147.111C151.392 147.111 150.892 147.126 150.598 147.126C148.862 147.126 144.904 147.523 142.109 148.347C141.742 148.45 141.315 148.612 140.844 148.803C139.741 149.259 138.446 149.906 137.24 150.598C135.019 151.789 133.209 153.084 133.768 153.275Z" fill="#78DCF0"/>
<path opacity="0.2" d="M157.276 147.067L165.588 155.379C168.207 155.467 170.605 155.511 172.576 155.511C173.282 155.511 173.959 155.496 174.547 155.482C176.254 155.438 177.46 155.32 177.945 155.129C178.196 155.04 178.284 154.908 178.151 154.776C176.313 152.584 164.323 147.523 162.97 147.288C161.866 147.111 159.586 147.067 157.276 147.067Z" fill="white"/>
<path d="M171.811 152.437C171.811 153.01 171.884 153.746 171.943 154.305C172.09 155.658 173.282 154.378 173.532 154.57C173.885 154.82 172.738 155.232 172.561 155.511C173.532 155.644 175.43 155.702 176.033 155.688C177.725 155.644 177.99 155.408 177.945 155.129C176.975 154.32 175.945 153.378 174.591 152.598C174.312 152.437 174.076 152.304 173.826 152.186H173.812C173.473 152.025 173.135 151.907 172.723 151.878C172.414 151.848 171.811 151.966 171.811 152.437Z" fill="#0082A0"/>
<path d="M200.071 159.248C200.453 160.704 200.909 161.999 202.528 162.381C203.734 162.631 205.043 162.558 206.308 162.514C206.088 160.851 205.632 160.307 204.793 159.145C203.234 159.159 201.63 159.13 200.071 159.248Z" fill="#EBEBEB"/>
<path d="M113.452 168.28C113.746 168.31 114.526 168.986 114.776 169.134C116.541 170.34 117.174 170.619 121.381 171.252C121.455 171.252 121.514 171.267 121.558 171.267C120.351 166.015 124.353 160.851 129.87 160.851C135.327 160.851 139.388 165.927 138.181 171.267V171.281H181.05C181.05 171.281 180.829 170.443 180.829 169.384C180.829 164.661 184.654 160.851 189.361 160.851C194.834 160.851 198.879 165.941 197.673 171.267V171.281C204.837 171.281 207.691 171.679 207.059 169.325C207.059 169.281 206.926 168.942 206.838 168.81C206.838 168.81 206.838 168.81 206.838 168.795C206.47 168.324 206.294 163.043 206.294 162.514C202.278 162.646 200.968 162.675 200.086 159.248V159.233L115.438 154.805C114.202 158.571 114.099 160.307 114.099 160.307C114.099 160.307 114.099 160.307 114.099 160.322C114.011 160.498 113.893 160.645 113.746 160.822C113.746 160.822 113.496 161.16 113.32 161.587C113.011 162.793 112.643 168.28 113.452 168.28Z" fill="#007896"/>
<path d="M129.884 176.298C133.694 176.298 136.798 173.194 136.798 169.384C136.798 165.574 133.694 162.469 129.884 162.469C126.074 162.469 122.97 165.559 122.97 169.384C122.955 173.194 126.074 176.298 129.884 176.298Z" fill="#323232"/>
<path opacity="0.1" d="M124.485 169.384C124.485 172.37 126.898 174.783 129.884 174.783C132.871 174.783 135.283 172.37 135.283 169.384C135.283 166.397 132.871 163.985 129.884 163.985C126.898 163.985 124.485 166.412 124.485 169.384Z" fill="white"/>
<path d="M124.338 169.384C124.338 170.914 124.971 172.311 125.986 173.312L126 173.327L126.412 173.694L126.427 173.709C126.545 173.812 126.677 173.9 126.795 173.974L127.31 174.283C128.075 174.68 128.943 174.915 129.884 174.915C130.796 174.915 131.679 174.695 132.444 174.283C132.62 174.195 132.782 174.092 132.944 173.989C133.077 173.9 133.209 173.812 133.327 173.709L133.768 173.312C134.783 172.311 135.416 170.914 135.416 169.369C135.416 169.046 135.386 168.737 135.327 168.442C135.298 168.251 135.254 168.045 135.195 167.869C135.151 167.707 135.107 167.575 135.048 167.427C134.974 167.251 134.901 167.06 134.812 166.883C134.018 165.309 132.488 164.162 130.679 163.897C130.487 163.867 130.296 163.853 130.105 163.838C130.031 163.838 129.958 163.838 129.87 163.838C129.781 163.838 129.708 163.838 129.619 163.838C129.428 163.838 129.237 163.867 129.046 163.897C127.251 164.162 125.721 165.309 124.927 166.883C124.824 167.06 124.75 167.236 124.676 167.427C124.632 167.575 124.574 167.722 124.529 167.869C124.471 168.045 124.441 168.251 124.397 168.442C124.368 168.766 124.338 169.075 124.338 169.384ZM125.133 167.589L128.31 168.619L128.899 168.81L128.884 168.825C128.825 168.943 128.766 169.075 128.751 169.222C128.751 169.237 128.751 169.237 128.751 169.252L128.163 169.06L124.985 168.031C124.985 168.016 124.985 168.016 124.985 168.001C125.015 167.869 125.074 167.736 125.118 167.604C125.133 167.604 125.133 167.589 125.133 167.589ZM129.06 168.236L128.678 168.119L127.722 167.81L125.383 167.045C126.118 165.618 127.486 164.632 129.06 164.382V168.236ZM130.12 168.295H130.105C130.031 168.281 129.943 168.266 129.87 168.266C129.796 168.266 129.722 168.266 129.649 168.281H129.634V164.309C129.649 164.309 129.664 164.309 129.693 164.309C129.737 164.309 129.796 164.309 129.84 164.309H129.914C129.958 164.309 130.017 164.309 130.105 164.323H130.12V168.295ZM130.384 169.384C130.384 169.664 130.164 169.884 129.884 169.884C129.605 169.884 129.384 169.664 129.384 169.384C129.384 169.104 129.605 168.884 129.884 168.884C130.164 168.884 130.384 169.104 130.384 169.384ZM134.371 167.045L132.017 167.81L131.076 168.119L130.693 168.236V164.382C132.267 164.632 133.636 165.618 134.371 167.045ZM134.768 168.031L131.576 169.06L130.973 169.252C130.973 169.237 130.973 169.237 130.973 169.237C130.958 169.075 130.899 168.943 130.826 168.81L131.444 168.619L134.621 167.589C134.621 167.589 134.636 167.604 134.636 167.619C134.68 167.751 134.724 167.883 134.768 168.031C134.768 168.016 134.768 168.016 134.768 168.031ZM132.017 170.929L131.429 170.134L131.194 169.811L131.561 169.693L132.503 169.384L134.871 168.604C134.915 168.854 134.93 169.134 134.93 169.399C134.93 170.737 134.415 172.003 133.459 172.959L132.017 170.929ZM130.693 170.899L130.34 170.399C130.355 170.399 130.355 170.399 130.37 170.384C130.502 170.326 130.605 170.237 130.693 170.134L130.708 170.12L131.076 170.62L133.062 173.341C133.062 173.341 133.062 173.341 133.047 173.356C132.929 173.444 132.826 173.533 132.694 173.621C132.694 173.621 132.694 173.621 132.679 173.635L130.693 170.899ZM127.589 173.915L129.06 171.9L129.634 171.105L129.87 170.782L130.105 171.105L130.679 171.914L132.15 173.944C131.444 174.312 130.679 174.489 129.87 174.489C129.075 174.459 128.295 174.268 127.589 173.915ZM126.707 173.341L128.678 170.62L129.031 170.134C129.046 170.149 129.046 170.149 129.06 170.164C129.149 170.267 129.266 170.34 129.384 170.399C129.399 170.399 129.399 170.414 129.413 170.414L129.06 170.899L127.074 173.621L127.06 173.591C126.942 173.518 126.824 173.43 126.721 173.356L126.707 173.341ZM124.809 169.384C124.809 169.119 124.838 168.854 124.882 168.59L127.236 169.355L128.178 169.663L128.56 169.781L128.325 170.105L127.736 170.899L126.28 172.915C125.324 171.988 124.809 170.723 124.809 169.384Z" fill="#B4B4B4"/>
<path d="M189.347 176.298C193.157 176.298 196.261 173.194 196.261 169.384C196.261 165.574 193.157 162.469 189.347 162.469C185.536 162.469 182.432 165.559 182.432 169.384C182.432 173.194 185.536 176.298 189.347 176.298Z" fill="#323232"/>
<path opacity="0.1" d="M183.948 169.384C183.948 172.37 186.36 174.783 189.347 174.783C192.318 174.783 194.746 172.37 194.746 169.384C194.746 166.397 192.318 163.985 189.347 163.985C186.36 163.985 183.948 166.412 183.948 169.384Z" fill="white"/>
<path d="M183.815 169.384C183.815 170.914 184.448 172.311 185.463 173.312L185.478 173.327L185.89 173.694L185.904 173.709C186.022 173.812 186.154 173.9 186.272 173.974L186.787 174.283C187.552 174.68 188.42 174.915 189.347 174.915C190.273 174.915 191.141 174.695 191.906 174.283C192.083 174.195 192.259 174.092 192.421 173.989C192.554 173.9 192.671 173.812 192.804 173.709L193.23 173.312C194.26 172.311 194.893 170.914 194.893 169.369C194.893 169.046 194.863 168.737 194.805 168.442C194.775 168.251 194.731 168.045 194.672 167.869C194.628 167.707 194.584 167.575 194.525 167.427C194.451 167.251 194.378 167.06 194.29 166.883C193.495 165.309 191.98 164.162 190.171 163.897C189.979 163.867 189.788 163.853 189.582 163.838C189.509 163.838 189.435 163.838 189.347 163.838C189.258 163.838 189.185 163.838 189.097 163.838C188.905 163.838 188.714 163.867 188.523 163.897C186.713 164.162 185.198 165.309 184.404 166.883C184.315 167.06 184.227 167.236 184.168 167.427C184.124 167.575 184.065 167.722 184.021 167.869C183.962 168.045 183.918 168.251 183.889 168.442C183.83 168.766 183.815 169.075 183.815 169.384ZM184.61 167.589L187.787 168.619L188.376 168.81C188.376 168.81 188.376 168.825 188.361 168.825C188.287 168.943 188.243 169.075 188.229 169.222C188.229 169.237 188.229 169.237 188.229 169.252L187.64 169.06L184.463 168.031C184.463 168.016 184.463 168.016 184.463 168.001C184.492 167.869 184.551 167.736 184.595 167.604C184.61 167.604 184.61 167.589 184.61 167.589ZM188.523 168.236L188.14 168.119L187.184 167.81L184.845 167.045C185.581 165.618 186.949 164.632 188.523 164.382V168.236ZM189.582 168.295C189.494 168.281 189.42 168.266 189.332 168.266C189.258 168.266 189.185 168.266 189.111 168.281H189.097V164.309C189.111 164.309 189.126 164.309 189.155 164.309C189.2 164.309 189.258 164.309 189.303 164.309H189.376C189.42 164.309 189.479 164.309 189.567 164.323H189.582V168.295ZM189.847 169.384C189.847 169.664 189.626 169.884 189.347 169.884C189.067 169.884 188.847 169.664 188.847 169.384C188.847 169.104 189.067 168.884 189.347 168.884C189.626 168.884 189.847 169.104 189.847 169.384ZM193.848 167.045L191.48 167.81L190.538 168.119L190.156 168.236V164.382C191.73 164.632 193.098 165.618 193.848 167.045ZM194.231 168.031L191.038 169.06L190.435 169.252C190.435 169.237 190.435 169.237 190.435 169.237C190.421 169.075 190.362 168.943 190.288 168.81L190.906 168.619L194.084 167.589C194.084 167.589 194.098 167.604 194.098 167.619C194.157 167.751 194.201 167.883 194.231 168.031C194.231 168.016 194.231 168.016 194.231 168.031ZM191.48 170.929L190.906 170.134L190.671 169.811L191.038 169.693L191.98 169.384L194.348 168.604C194.393 168.854 194.407 169.134 194.407 169.399C194.407 170.737 193.892 172.003 192.936 172.959L191.48 170.929ZM190.156 170.899L189.803 170.399C189.817 170.399 189.832 170.399 189.832 170.384C189.95 170.326 190.068 170.237 190.156 170.134L190.171 170.12L190.538 170.62L192.524 173.341C192.524 173.341 192.524 173.341 192.51 173.356C192.392 173.444 192.289 173.533 192.157 173.621C192.157 173.621 192.157 173.621 192.142 173.635L190.156 170.899ZM187.052 173.915L188.523 171.9L189.097 171.105L189.332 170.782L189.567 171.105L190.156 171.914L191.627 173.944C190.921 174.312 190.141 174.489 189.347 174.489C188.538 174.459 187.758 174.268 187.052 173.915ZM186.169 173.341L188.14 170.62L188.493 170.134C188.508 170.149 188.508 170.149 188.523 170.164C188.611 170.267 188.729 170.34 188.847 170.399C188.861 170.399 188.861 170.414 188.876 170.414L188.538 170.899L186.552 173.621L186.537 173.606C186.419 173.533 186.301 173.444 186.199 173.371L186.169 173.341ZM184.271 169.384C184.271 169.119 184.286 168.854 184.33 168.59L186.684 169.355L187.625 169.663L188.008 169.781L187.773 170.105L187.184 170.899L185.728 172.915C184.786 171.988 184.271 170.723 184.271 169.384Z" fill="#B4B4B4"/>
<path opacity="0.2" d="M137.225 150.568L140.565 153.908C142.3 154.04 144.272 154.187 146.375 154.32L140.844 148.788C139.726 149.244 138.431 149.892 137.225 150.568Z" fill="white"/>
<path opacity="0.1" d="M143.919 146.861L168.339 171.282H181.064V171.267C180.932 170.664 180.844 170.031 180.844 169.384C180.844 164.662 184.654 160.851 189.376 160.851C194.084 160.851 197.908 164.662 197.908 169.384C197.908 170.031 197.82 170.664 197.703 171.267V171.282H201.88C202.91 171.282 202.984 171.282 203.969 171.223C204.234 171.208 204.543 171.193 204.926 171.164C205.058 171.149 205.205 171.149 205.367 171.149C205.529 171.149 205.676 171.12 205.808 171.105C206.161 171.046 206.426 170.958 206.617 170.826C206.647 170.781 206.691 170.781 206.735 170.752C206.868 170.664 206.956 170.561 207.015 170.443C207.059 170.355 207.088 170.281 207.132 170.193C207.206 169.928 207.162 169.649 207.103 169.413C207.103 169.384 207.088 169.354 207.073 169.34C207.073 169.296 207.059 169.281 207.044 169.251C207.029 169.193 207 169.134 206.985 169.09C206.926 168.957 206.868 168.869 206.868 168.869C206.868 168.869 206.853 168.854 206.838 168.825C206.838 168.825 206.838 168.825 206.838 168.81C206.823 168.781 206.779 168.722 206.765 168.648C206.735 168.575 206.691 168.516 206.647 168.413C206.617 168.31 206.588 168.236 206.559 168.163C206.529 168.03 206.514 167.927 206.514 167.81C206.514 167.148 206.5 166.545 206.5 166.015C206.485 165.838 206.485 165.662 206.485 165.485C206.47 165.412 206.47 165.368 206.47 165.309V164.956C206.47 164.809 206.456 164.676 206.456 164.544C206.441 164.412 206.426 164.25 206.426 164.117C206.412 164 206.411 163.852 206.411 163.72C206.397 163.602 206.397 163.47 206.382 163.352C206.382 163.249 206.367 163.117 206.353 163.029C206.323 162.852 206.323 162.69 206.294 162.528V162.514C206.191 161.661 206.014 161.116 205.75 160.616C205.735 160.542 205.691 160.484 205.632 160.41C205.602 160.337 205.544 160.278 205.514 160.219C205.382 159.998 205.235 159.807 205.073 159.586C204.985 159.454 204.882 159.321 204.779 159.174C204.631 158.983 204.499 158.792 204.323 158.556C202.557 156.041 183.565 155.629 180.711 154.423C179.255 153.82 167.971 147.817 164.514 146.743C162.72 146.199 162.219 146.067 154.216 146.111C153.819 146.111 153.422 146.111 153.025 146.126C152.731 146.126 152.422 146.14 152.142 146.14C149.215 146.229 146.464 146.493 143.919 146.861Z" fill="#0082A0"/>
<path d="M149.082 146.449C148.847 146.39 148.612 146.332 148.391 146.273C148.406 146.184 148.406 146.111 148.406 146.037C148.435 145.508 148.45 145.155 148.45 145.155C148.45 145.155 148.435 144.802 148.406 144.287C148.406 144.213 148.391 144.125 148.391 144.037C148.612 143.978 148.847 143.934 149.082 143.875C149.98 143.654 150.862 143.389 150.862 143.389C150.862 143.389 150.833 143.183 150.789 142.889C150.759 142.742 150.745 142.566 150.715 142.374C150.671 142.183 150.627 141.992 150.568 141.786C150.465 141.389 150.377 140.991 150.259 140.697C150.156 140.403 150.083 140.212 150.083 140.212C150.083 140.212 149.171 140.388 148.273 140.609C148.038 140.668 147.803 140.727 147.597 140.771C147.567 140.697 147.538 140.609 147.508 140.55C147.273 140.079 147.111 139.756 147.111 139.756C147.111 139.756 147.082 139.682 146.993 139.55C146.92 139.417 146.802 139.226 146.67 139.005C146.626 138.947 146.582 138.873 146.537 138.8C146.699 138.652 146.89 138.491 147.067 138.329C147.758 137.711 148.42 137.064 148.42 137.064C148.42 137.064 148.303 136.902 148.111 136.652C147.935 136.402 147.685 136.078 147.405 135.784C146.876 135.166 146.258 134.622 146.258 134.622C146.258 134.622 145.537 135.195 144.846 135.813C144.669 135.975 144.493 136.137 144.316 136.284C144.257 136.24 144.184 136.181 144.125 136.122C143.713 135.813 143.433 135.593 143.433 135.593C143.433 135.593 143.375 135.534 143.227 135.46C143.095 135.387 142.904 135.269 142.683 135.122C142.624 135.092 142.536 135.048 142.477 135.004C142.565 134.798 142.639 134.563 142.727 134.342C143.051 133.474 143.33 132.591 143.33 132.591C143.33 132.591 143.154 132.503 142.874 132.371C142.742 132.312 142.58 132.224 142.404 132.15C142.227 132.077 142.036 132.003 141.845 131.944C141.08 131.635 140.285 131.459 140.285 131.459C140.285 131.459 139.917 132.312 139.579 133.165C139.491 133.386 139.403 133.606 139.329 133.827C139.255 133.812 139.167 133.783 139.094 133.768C138.579 133.68 138.226 133.636 138.226 133.636C138.226 133.636 138.137 133.621 137.99 133.607C137.843 133.592 137.622 133.592 137.358 133.577C137.284 133.577 137.196 133.562 137.108 133.562C137.093 133.342 137.063 133.106 137.019 132.856C136.96 132.4 136.902 131.929 136.843 131.591C136.784 131.253 136.754 131.017 136.754 131.017C136.754 131.017 136.549 131.032 136.24 131.047C135.931 131.076 135.533 131.061 135.122 131.135C134.724 131.194 134.312 131.253 134.004 131.312C133.709 131.385 133.503 131.429 133.503 131.429C133.503 131.429 133.562 132.356 133.68 133.268C133.709 133.518 133.739 133.754 133.768 133.96C133.695 133.989 133.606 134.004 133.533 134.018C133.268 134.077 133.077 134.18 132.93 134.224C132.783 134.283 132.694 134.313 132.694 134.313C132.694 134.313 132.606 134.342 132.474 134.386C132.326 134.43 132.135 134.533 131.885 134.651C131.812 134.68 131.738 134.725 131.664 134.754C131.532 134.563 131.4 134.371 131.267 134.18C130.738 133.415 130.164 132.68 130.164 132.68C130.164 132.68 130.12 132.709 130.046 132.753C129.973 132.797 129.855 132.871 129.723 132.944C129.458 133.106 129.105 133.312 128.766 133.548C128.443 133.798 128.119 134.033 127.869 134.224C127.634 134.416 127.487 134.563 127.487 134.563C127.487 134.563 127.972 135.357 128.502 136.122C128.634 136.313 128.766 136.519 128.899 136.696C128.84 136.755 128.781 136.814 128.722 136.858C128.516 137.034 128.384 137.211 128.281 137.314C128.178 137.431 128.119 137.49 128.119 137.49C128.119 137.49 128.06 137.549 127.957 137.667C127.854 137.77 127.722 137.946 127.56 138.167C127.516 138.226 127.457 138.299 127.413 138.358C127.222 138.255 127.001 138.137 126.795 138.035C125.971 137.608 125.118 137.211 125.118 137.211C125.118 137.211 125.089 137.255 125.03 137.328C124.986 137.402 124.912 137.52 124.839 137.637C124.691 137.902 124.456 138.24 124.265 138.608C124.088 138.976 123.912 139.344 123.779 139.623C123.662 139.903 123.603 140.109 123.603 140.109C123.603 140.109 124.397 140.58 125.221 141.021C125.427 141.139 125.648 141.242 125.839 141.345C125.809 141.418 125.78 141.506 125.751 141.58C125.648 141.83 125.618 142.051 125.574 142.198C125.545 142.345 125.515 142.433 125.515 142.433C125.515 142.433 125.486 142.521 125.456 142.669C125.412 142.816 125.383 143.036 125.339 143.286C125.324 143.36 125.309 143.448 125.309 143.522C125.089 143.522 124.853 143.522 124.603 143.522C123.676 143.522 122.735 143.581 122.735 143.581C122.735 143.581 122.705 143.787 122.691 144.081C122.676 144.39 122.661 144.802 122.632 145.199C122.647 145.611 122.676 146.023 122.691 146.317C122.705 146.626 122.735 146.817 122.735 146.817C122.735 146.817 123.662 146.861 124.588 146.876C124.824 146.876 125.074 146.876 125.295 146.876C125.309 146.949 125.324 147.038 125.324 147.111C125.368 147.376 125.398 147.597 125.442 147.729C125.471 147.876 125.5 147.965 125.5 147.965C125.5 147.965 125.515 148.053 125.559 148.2C125.603 148.347 125.633 148.568 125.736 148.818C125.765 148.891 125.795 148.965 125.824 149.038C125.618 149.141 125.412 149.244 125.206 149.362C124.382 149.789 123.588 150.274 123.588 150.274C123.588 150.274 123.662 150.465 123.765 150.76C123.897 151.039 124.074 151.407 124.25 151.775C124.427 152.143 124.662 152.481 124.824 152.746C124.912 152.878 124.971 152.981 125.015 153.069C125.059 153.143 125.103 153.187 125.103 153.187C125.103 153.187 125.957 152.79 126.78 152.363C127.001 152.245 127.207 152.143 127.398 152.04C127.442 152.098 127.501 152.172 127.545 152.231C127.707 152.437 127.825 152.628 127.943 152.731C128.046 152.849 128.104 152.907 128.104 152.907C128.104 152.907 128.163 152.966 128.266 153.084C128.369 153.187 128.502 153.378 128.708 153.54C128.766 153.599 128.825 153.643 128.884 153.702C128.752 153.878 128.619 154.084 128.487 154.276C127.972 155.041 127.472 155.835 127.472 155.835C127.472 155.835 127.619 155.982 127.854 156.173C128.104 156.365 128.428 156.6 128.752 156.85C129.09 157.085 129.443 157.277 129.708 157.453C129.84 157.527 129.943 157.6 130.032 157.644C130.105 157.689 130.164 157.703 130.164 157.703C130.164 157.703 130.738 156.953 131.267 156.203C131.4 156.012 131.547 155.806 131.664 155.629C131.738 155.673 131.812 155.703 131.885 155.732C132.121 155.85 132.312 155.953 132.474 155.997C132.621 156.056 132.694 156.085 132.694 156.085C132.694 156.085 132.783 156.114 132.93 156.173C133.077 156.217 133.268 156.32 133.533 156.379C133.606 156.394 133.68 156.423 133.768 156.438C133.739 156.659 133.709 156.894 133.68 157.13C133.577 158.042 133.503 158.968 133.503 158.968C133.503 158.968 133.709 159.013 134.004 159.086C134.312 159.13 134.71 159.189 135.122 159.263C135.519 159.336 135.931 159.322 136.24 159.351C136.549 159.366 136.754 159.38 136.754 159.38C136.754 159.38 136.799 159.16 136.843 158.807C136.902 158.454 136.96 157.998 137.019 157.541C137.049 157.306 137.078 157.071 137.108 156.835C137.196 156.835 137.284 156.835 137.358 156.821C137.622 156.806 137.843 156.791 137.99 156.791C138.137 156.776 138.226 156.762 138.226 156.762C138.226 156.762 138.579 156.703 139.094 156.629C139.167 156.615 139.255 156.6 139.329 156.571C139.403 156.776 139.491 156.997 139.579 157.233C139.903 158.086 140.285 158.939 140.285 158.939C140.285 158.939 141.08 158.762 141.845 158.454C142.036 158.38 142.227 158.321 142.404 158.248C142.58 158.159 142.742 158.086 142.874 158.027C143.154 157.895 143.33 157.806 143.33 157.806C143.33 157.806 143.051 156.924 142.727 156.056C142.639 155.82 142.551 155.6 142.477 155.394C142.536 155.35 142.624 155.305 142.683 155.261C142.904 155.129 143.095 155.011 143.227 154.938C143.36 154.864 143.433 154.805 143.433 154.805C143.433 154.805 143.713 154.599 144.125 154.276C144.184 154.231 144.242 154.173 144.316 154.114C144.478 154.261 144.654 154.423 144.846 154.585C145.537 155.188 146.258 155.776 146.258 155.776C146.258 155.776 146.876 155.247 147.405 154.629C147.685 154.334 147.935 154.011 148.111 153.761C148.288 153.511 148.42 153.349 148.42 153.349C148.42 153.349 147.758 152.702 147.067 152.084C146.89 151.922 146.699 151.76 146.537 151.613C146.582 151.539 146.626 151.466 146.67 151.407C146.802 151.186 146.92 150.995 146.993 150.863C147.082 150.73 147.111 150.657 147.111 150.657C147.111 150.657 147.258 150.333 147.494 149.862C147.523 149.789 147.552 149.715 147.582 149.627C147.803 149.686 148.023 149.745 148.259 149.803C149.156 150.024 150.068 150.201 150.068 150.201C150.068 150.201 150.142 150.009 150.245 149.715C150.362 149.436 150.451 149.024 150.554 148.627C150.598 148.435 150.657 148.229 150.701 148.038C150.73 147.847 150.759 147.67 150.774 147.523C150.818 147.214 150.848 147.023 150.848 147.023C150.848 147.023 149.965 146.67 149.082 146.449ZM145.272 149.803C145.199 149.921 145.11 150.068 144.993 150.259C144.934 150.362 144.875 150.451 144.816 150.568C144.743 150.671 144.654 150.774 144.581 150.877C144.419 151.098 144.242 151.333 144.037 151.539C143.669 151.981 143.213 152.363 142.889 152.643C142.536 152.907 142.301 153.084 142.301 153.084C142.301 153.084 142.256 153.128 142.139 153.187C142.036 153.261 141.874 153.349 141.683 153.467C141.594 153.525 141.491 153.584 141.374 153.643C141.256 153.702 141.138 153.761 141.021 153.82C140.771 153.937 140.521 154.07 140.241 154.158C139.711 154.379 139.138 154.496 138.711 154.614C138.284 154.688 137.99 154.717 137.99 154.717C137.99 154.717 137.917 154.732 137.799 154.746C137.667 154.761 137.49 154.761 137.269 154.776C137.049 154.79 136.799 154.805 136.519 154.776C136.254 154.746 135.945 154.776 135.666 154.717C135.372 154.673 135.092 154.629 134.827 154.585C134.563 154.526 134.312 154.452 134.107 154.408C133.886 154.364 133.724 154.276 133.606 154.246C133.489 154.202 133.415 154.173 133.415 154.173C133.415 154.173 133.342 154.158 133.224 154.114C133.106 154.07 132.944 153.996 132.738 153.893C132.341 153.717 131.841 153.422 131.356 153.099C131.12 152.922 130.885 152.746 130.664 152.584C130.458 152.407 130.282 152.231 130.12 152.084C129.958 151.951 129.855 151.789 129.752 151.701C129.664 151.613 129.62 151.554 129.62 151.554C129.62 151.554 129.575 151.495 129.487 151.407C129.399 151.319 129.296 151.172 129.164 150.995C128.884 150.657 128.575 150.157 128.296 149.656C128.178 149.392 128.046 149.127 127.928 148.891C127.84 148.641 127.751 148.391 127.678 148.2C127.589 147.994 127.575 147.817 127.531 147.7C127.501 147.567 127.487 147.508 127.487 147.508C127.487 147.508 127.472 147.435 127.428 147.317C127.384 147.2 127.369 147.008 127.325 146.802C127.295 146.582 127.236 146.332 127.222 146.067C127.207 145.787 127.192 145.493 127.178 145.214C127.192 144.919 127.207 144.64 127.222 144.36C127.236 144.081 127.295 143.845 127.325 143.625C127.354 143.404 127.384 143.228 127.428 143.11C127.457 142.992 127.487 142.919 127.487 142.919C127.487 142.919 127.501 142.845 127.531 142.727C127.575 142.61 127.589 142.418 127.678 142.213C127.751 142.007 127.84 141.771 127.928 141.521C128.031 141.271 128.178 141.021 128.296 140.756C128.575 140.256 128.884 139.756 129.164 139.417C129.296 139.241 129.399 139.094 129.487 139.005C129.575 138.917 129.62 138.858 129.62 138.858C129.62 138.858 129.664 138.8 129.752 138.711C129.84 138.623 129.958 138.476 130.12 138.329C130.282 138.182 130.473 138.005 130.664 137.829C130.885 137.667 131.12 137.49 131.356 137.314C131.841 136.99 132.341 136.696 132.738 136.519C132.93 136.416 133.091 136.343 133.224 136.299C133.342 136.254 133.415 136.225 133.415 136.225C133.415 136.225 133.489 136.196 133.606 136.151C133.724 136.122 133.886 136.034 134.107 135.99C134.312 135.931 134.563 135.872 134.827 135.798C135.092 135.74 135.386 135.71 135.666 135.666C135.945 135.607 136.254 135.637 136.519 135.607C136.799 135.578 137.049 135.607 137.269 135.607C137.49 135.622 137.667 135.622 137.799 135.637C137.931 135.651 137.99 135.666 137.99 135.666C137.99 135.666 138.27 135.71 138.711 135.784C139.138 135.887 139.711 136.004 140.241 136.225C140.521 136.313 140.771 136.446 141.021 136.563C141.138 136.622 141.271 136.681 141.374 136.74C141.491 136.799 141.58 136.858 141.683 136.917C141.859 137.034 142.021 137.122 142.139 137.196C142.256 137.255 142.301 137.314 142.301 137.314C142.301 137.314 142.536 137.49 142.889 137.755C143.213 138.035 143.669 138.417 144.037 138.858C144.242 139.064 144.419 139.3 144.581 139.52C144.669 139.623 144.743 139.726 144.816 139.829C144.875 139.932 144.934 140.035 144.993 140.138C145.11 140.329 145.199 140.477 145.272 140.594C145.346 140.697 145.36 140.771 145.36 140.771C145.36 140.771 145.493 141.036 145.669 141.418C145.817 141.83 146.052 142.36 146.17 142.933C146.199 143.08 146.243 143.213 146.273 143.36C146.287 143.507 146.317 143.639 146.331 143.772C146.376 144.037 146.42 144.287 146.42 144.507C146.449 144.949 146.464 145.228 146.464 145.228C146.464 145.228 146.449 145.522 146.42 145.964C146.42 146.184 146.376 146.435 146.331 146.699C146.317 146.832 146.287 146.979 146.273 147.111C146.243 147.244 146.199 147.391 146.17 147.523C146.052 148.097 145.831 148.627 145.669 149.038C145.478 149.436 145.36 149.7 145.36 149.7C145.36 149.7 145.331 149.7 145.272 149.803Z" fill="#96B400"/>
<path d="M136.769 137.328C132.444 137.328 128.943 140.83 128.943 145.155C128.943 149.48 132.444 152.996 136.769 152.996C141.094 152.996 144.595 149.494 144.595 145.155C144.61 140.844 141.094 137.328 136.769 137.328ZM136.769 148.318C135.019 148.318 133.621 146.905 133.621 145.155C133.621 143.419 135.033 142.006 136.769 142.006C138.505 142.006 139.917 143.419 139.917 145.155C139.932 146.905 138.505 148.318 136.769 148.318Z" fill="#96B400"/>
<path d="M157.232 130.326C157.247 130.267 157.247 130.208 157.262 130.164C157.291 129.987 157.276 129.84 157.291 129.737C157.291 129.634 157.291 129.575 157.291 129.575C157.291 129.575 157.291 129.517 157.291 129.414C157.276 129.311 157.291 129.163 157.262 129.002C157.262 128.943 157.247 128.899 157.232 128.84C157.379 128.796 157.541 128.752 157.688 128.693C158.292 128.502 158.88 128.266 158.88 128.266C158.88 128.266 158.851 128.119 158.792 127.898C158.748 127.678 158.63 127.398 158.527 127.104C158.292 126.545 157.953 126.03 157.953 126.03C157.953 126.03 157.365 126.28 156.806 126.56C156.659 126.633 156.511 126.707 156.379 126.78C156.35 126.736 156.32 126.692 156.276 126.648C156.173 126.501 156.07 126.398 155.997 126.324C155.923 126.251 155.894 126.207 155.894 126.207C155.894 126.207 155.849 126.177 155.776 126.104C155.702 126.045 155.599 125.927 155.452 125.824C155.408 125.795 155.364 125.765 155.32 125.721C155.393 125.589 155.467 125.442 155.541 125.294C155.835 124.721 156.07 124.147 156.07 124.147C156.07 124.147 155.555 123.809 154.996 123.573C154.717 123.47 154.422 123.353 154.202 123.308C153.981 123.25 153.834 123.22 153.834 123.22C153.834 123.22 153.599 123.809 153.407 124.412C153.363 124.559 153.304 124.721 153.26 124.868C153.201 124.853 153.157 124.853 153.098 124.838C152.922 124.809 152.775 124.824 152.672 124.809C152.569 124.809 152.51 124.809 152.51 124.809C152.51 124.809 152.451 124.809 152.348 124.809C152.245 124.824 152.098 124.809 151.936 124.838C151.892 124.853 151.833 124.853 151.774 124.868C151.73 124.721 151.686 124.559 151.627 124.412C151.436 123.809 151.201 123.22 151.201 123.22C151.201 123.22 151.054 123.25 150.833 123.308C150.612 123.353 150.333 123.47 150.039 123.573C149.48 123.809 148.965 124.147 148.965 124.147C148.965 124.147 149.215 124.721 149.494 125.294C149.568 125.442 149.641 125.589 149.715 125.721C149.671 125.75 149.627 125.78 149.583 125.824C149.435 125.927 149.347 126.03 149.259 126.104C149.185 126.177 149.141 126.207 149.141 126.207C149.141 126.207 149.097 126.251 149.038 126.324C148.979 126.398 148.862 126.501 148.759 126.648C148.729 126.677 148.7 126.736 148.67 126.78C148.538 126.707 148.391 126.633 148.244 126.56C147.685 126.265 147.096 126.03 147.096 126.03C147.096 126.03 146.758 126.53 146.523 127.104C146.42 127.383 146.302 127.663 146.258 127.898C146.199 128.119 146.17 128.266 146.17 128.266C146.17 128.266 146.758 128.502 147.361 128.693C147.523 128.737 147.67 128.796 147.817 128.84C147.802 128.899 147.802 128.943 147.788 129.002C147.758 129.178 147.773 129.311 147.758 129.414C147.758 129.517 147.744 129.575 147.744 129.575C147.744 129.575 147.744 129.634 147.758 129.737C147.773 129.84 147.758 129.987 147.788 130.164C147.788 130.208 147.802 130.267 147.817 130.326C147.67 130.37 147.523 130.414 147.361 130.458C146.758 130.649 146.17 130.885 146.17 130.885C146.17 130.885 146.214 131.032 146.258 131.252C146.302 131.473 146.42 131.753 146.523 132.047C146.758 132.606 147.096 133.121 147.096 133.121C147.096 133.121 147.685 132.871 148.244 132.576C148.391 132.503 148.538 132.429 148.67 132.356C148.7 132.4 148.729 132.444 148.759 132.488C148.862 132.635 148.965 132.724 149.038 132.812C149.112 132.885 149.141 132.93 149.141 132.93C149.141 132.93 149.185 132.974 149.259 133.033C149.332 133.091 149.435 133.209 149.583 133.312C149.627 133.341 149.671 133.371 149.715 133.4C149.641 133.533 149.568 133.68 149.494 133.827C149.2 134.386 148.965 134.974 148.965 134.974C148.965 134.974 149.465 135.313 150.039 135.548C150.318 135.651 150.598 135.769 150.833 135.813C151.054 135.872 151.201 135.901 151.201 135.901C151.201 135.901 151.436 135.313 151.627 134.71C151.672 134.548 151.73 134.401 151.774 134.254C151.833 134.268 151.877 134.268 151.936 134.283C152.113 134.312 152.26 134.298 152.348 134.312C152.451 134.312 152.51 134.327 152.51 134.327C152.51 134.327 152.569 134.327 152.672 134.312C152.775 134.298 152.922 134.312 153.098 134.283C153.143 134.283 153.201 134.268 153.26 134.254C153.304 134.401 153.349 134.562 153.407 134.71C153.599 135.313 153.834 135.901 153.834 135.901C153.834 135.901 153.981 135.857 154.202 135.813C154.422 135.769 154.702 135.651 154.996 135.548C155.555 135.313 156.07 134.974 156.07 134.974C156.07 134.974 155.82 134.386 155.541 133.827C155.467 133.68 155.393 133.533 155.32 133.4C155.364 133.371 155.408 133.341 155.452 133.312C155.599 133.209 155.688 133.106 155.776 133.033C155.849 132.959 155.894 132.93 155.894 132.93C155.894 132.93 155.923 132.885 155.997 132.812C156.055 132.738 156.173 132.635 156.276 132.488C156.306 132.444 156.335 132.4 156.379 132.356C156.511 132.429 156.659 132.503 156.806 132.576C157.365 132.871 157.953 133.121 157.953 133.121C157.953 133.121 158.292 132.606 158.527 132.047C158.63 131.767 158.748 131.473 158.792 131.252C158.851 131.032 158.88 130.885 158.88 130.885C158.88 130.885 158.292 130.649 157.688 130.458C157.541 130.414 157.379 130.37 157.232 130.326ZM154.864 132.047C154.805 132.091 154.746 132.179 154.643 132.238C154.452 132.4 154.158 132.562 153.863 132.694C153.555 132.812 153.231 132.885 152.981 132.93C152.863 132.959 152.745 132.944 152.687 132.944C152.613 132.944 152.569 132.944 152.569 132.944C152.569 132.944 152.525 132.944 152.451 132.944C152.378 132.944 152.275 132.944 152.142 132.93C151.892 132.9 151.569 132.827 151.274 132.694C150.98 132.562 150.686 132.4 150.495 132.238C150.392 132.165 150.333 132.091 150.274 132.047C150.215 132.003 150.186 131.973 150.186 131.973C150.186 131.973 150.156 131.944 150.112 131.885C150.068 131.826 149.98 131.767 149.921 131.65C149.759 131.458 149.597 131.164 149.465 130.87C149.347 130.561 149.274 130.237 149.229 129.987C149.2 129.87 149.215 129.767 149.2 129.693C149.2 129.62 149.185 129.575 149.185 129.575C149.185 129.575 149.185 129.531 149.2 129.458C149.215 129.384 149.2 129.281 149.229 129.149C149.259 128.899 149.332 128.575 149.465 128.281C149.597 127.987 149.759 127.692 149.921 127.501C149.994 127.398 150.068 127.339 150.112 127.28C150.156 127.222 150.186 127.192 150.186 127.192C150.186 127.192 150.215 127.163 150.274 127.119C150.333 127.075 150.392 126.986 150.495 126.927C150.686 126.766 150.98 126.604 151.274 126.471C151.583 126.354 151.907 126.28 152.142 126.236C152.26 126.221 152.378 126.221 152.451 126.221C152.525 126.221 152.569 126.221 152.569 126.221C152.569 126.221 152.613 126.221 152.687 126.221C152.76 126.236 152.863 126.221 152.981 126.236C153.231 126.265 153.555 126.339 153.863 126.471C154.158 126.604 154.452 126.78 154.643 126.927C154.746 127.001 154.805 127.075 154.864 127.119C154.923 127.163 154.952 127.192 154.952 127.192C154.952 127.192 154.982 127.222 155.026 127.28C155.07 127.339 155.158 127.398 155.217 127.501C155.379 127.692 155.541 127.987 155.673 128.281C155.791 128.59 155.864 128.913 155.908 129.149C155.923 129.266 155.923 129.384 155.923 129.458C155.923 129.531 155.938 129.575 155.938 129.575C155.938 129.575 155.938 129.62 155.923 129.693C155.908 129.767 155.923 129.87 155.908 129.987C155.879 130.237 155.805 130.561 155.673 130.87C155.541 131.179 155.379 131.458 155.217 131.65C155.143 131.753 155.07 131.826 155.026 131.885C154.982 131.944 154.952 131.973 154.952 131.973C154.952 131.973 154.923 132.003 154.864 132.047Z" fill="#007896"/>
<path d="M188.155 126.913H184.08V150.495H188.155V126.913Z" fill="#FF6400"/>
<path d="M193.701 129.414H189.626V150.495H193.701V129.414Z" fill="#FFC800"/>
<path d="M199.233 136.004H195.158V150.509H199.233V136.004Z" fill="#00A0B4"/>
<g opacity="0.1">
<path d="M147.199 118.498L110.672 155.011V134.783L126.957 118.498H147.199Z" fill="white"/>
</g>
<g opacity="0.1">
<path d="M210.104 140.829V167.03L196.055 181.064H169.854L210.104 140.829Z" fill="white"/>
</g>
<path d="M174.842 236.658V230.67C174.842 227.095 176.063 224.256 180.093 224.256C183.845 224.256 185.169 226.801 185.169 230.288V231.847H181.565V230.185C181.565 228.831 181.476 227.081 180.093 227.081C178.711 227.081 178.505 228.64 178.505 229.758V237.57C178.505 238.702 178.711 240.232 180.093 240.232C181.432 240.232 181.609 238.526 181.594 237.128V235.275H185.169L185.154 236.805C185.11 240.056 184.021 243.072 180.079 243.072C176.063 243.057 174.842 240.144 174.842 236.658Z" fill="#FFB400"/>
<path d="M185.904 242.704L189.817 224.609H193.054L196.952 242.704H193.348L192.598 238.835H190.229L189.523 242.704H185.904ZM190.494 236.584H192.362L191.45 229.861L190.494 236.584Z" fill="#FFB400"/>
<path d="M198.218 242.704V224.609H202.204C205.705 224.609 207.971 225.86 207.971 229.376C207.971 230.964 207.75 232.994 205.514 233.965C206.426 236.834 207.338 239.703 208.353 242.719H204.558L202.484 234.377H201.881V242.719H198.218V242.704ZM201.866 232.127H202.91C204.131 232.127 204.323 230.332 204.323 229.655C204.323 228.993 204.176 227.287 203.087 227.287H201.866V232.127Z" fill="#FFB400"/>
<path d="M174.842 261.372V255.385C174.842 251.81 176.063 248.971 180.093 248.971C183.845 248.971 185.169 251.516 185.169 255.003V256.562H181.565V254.9C181.565 253.546 181.476 251.796 180.093 251.796C178.711 251.796 178.505 253.355 178.505 254.473V262.285C178.505 263.417 178.711 264.947 180.093 264.947C181.432 264.947 181.609 263.241 181.594 261.843V259.99H185.169L185.154 261.52C185.11 264.771 184.021 267.786 180.079 267.786C176.063 267.772 174.842 264.859 174.842 261.372Z" fill="#FFB400"/>
<path d="M186.875 267.419V249.324H190.538V256.738H193.157V249.324H196.835V267.419H193.157V259.342H190.538V267.419H186.875Z" fill="#FFB400"/>
<path d="M198.997 267.419V249.324H206.544V251.84H202.646V256.768H205.397V259.342H202.646V264.918H206.544V267.433H198.997V267.419Z" fill="#FFB400"/>
<path d="M207.706 261.372V255.385C207.706 251.81 208.927 248.971 212.958 248.971C216.709 248.971 218.033 251.516 218.033 255.003V256.562H214.429V254.9C214.429 253.546 214.341 251.796 212.958 251.796C211.575 251.796 211.369 253.355 211.369 254.473V262.285C211.369 263.417 211.575 264.947 212.958 264.947C214.297 264.947 214.473 263.241 214.458 261.843V259.99H218.033L218.019 261.52C217.974 264.771 216.886 267.786 212.943 267.786C208.927 267.772 207.706 264.859 207.706 261.372Z" fill="#FFB400"/>
<path d="M219.74 267.419V249.324H223.403V256.194L226.242 249.324H230.332L226.639 256.738L230.597 267.433H226.801L224.065 259.151L223.403 260.857V267.419H219.74Z" fill="#FFB400"/>
<path d="M230.641 262.858V260.622H234.834V262.858H230.641Z" fill="#FFB400"/>
<path d="M235.907 260.696V249.324H239.57V260.593C239.57 263.638 239.57 264.962 241.189 264.962C242.822 264.962 242.807 263.638 242.807 260.593V249.324H246.47V260.696C246.47 264.432 245.793 267.772 241.189 267.772C236.599 267.772 235.907 264.418 235.907 260.696Z" fill="#FFB400"/>
<path d="M248.544 267.419V249.324H252.913C256.165 249.324 257.43 251.251 257.43 254.458C257.43 258.607 255.458 259.666 252.222 259.681H252.207V267.419H248.544ZM252.207 257.091H252.354C253.958 257.091 253.958 256.223 253.958 254.37C253.958 252.943 253.943 251.913 252.399 251.913H252.193V257.091H252.207Z" fill="#FFB400"/>
</svg>
