<svg width="331" height="331" viewBox="0 0 331 331" fill="none" xmlns="http://www.w3.org/2000/svg">
<path d="M0 165.5C0 256.903 74.0969 331 165.5 331C256.903 331 331 256.903 331 165.5C331 74.0969 256.903 0 165.5 0C74.0969 0 0 74.0969 0 165.5Z" fill="#4455FB" fill-opacity="0.5"/>
<path d="M126.883 235.01C126.133 235.01 125.383 234.98 124.618 234.922L124.735 233.45C125.456 233.509 126.162 233.539 126.883 233.539V235.01Z" fill="white"/>
<path d="M120.16 234.216C118.748 233.892 117.292 233.465 115.835 232.95L116.336 231.568C117.733 232.068 119.131 232.48 120.499 232.789L120.16 234.216ZM111.687 231.244C110.378 230.626 109.039 229.92 107.715 229.155L108.45 227.875C109.73 228.625 111.025 229.302 112.305 229.905L111.687 231.244ZM103.934 226.772C102.728 225.948 101.507 225.065 100.33 224.138L101.242 222.976C102.404 223.888 103.596 224.756 104.773 225.565L103.934 226.772ZM96.8874 221.27C95.7841 220.299 94.6808 219.269 93.6216 218.225L94.6513 217.18C95.6958 218.21 96.7697 219.225 97.8436 220.181L96.8874 221.27ZM90.5469 214.988C89.5466 213.87 88.5609 212.723 87.6488 211.59L88.7963 210.678C89.6937 211.796 90.6499 212.914 91.6356 214.017L90.5469 214.988ZM238.85 213.105L237.952 211.943C239.1 211.06 240.232 210.133 241.306 209.163L242.292 210.251C241.189 211.237 240.027 212.193 238.85 213.105ZM84.9714 208C84.1476 206.794 83.3532 205.514 82.6176 204.176L83.9122 203.469C84.6184 204.764 85.3833 206.014 86.1777 207.177L84.9714 208ZM245.484 207.088L244.41 206.088C245.396 205.029 246.352 203.911 247.25 202.778L248.412 203.69C247.47 204.852 246.499 206 245.484 207.088ZM80.6611 200.13C80.0873 198.806 79.543 197.394 79.0428 195.952L80.4257 195.467C80.9112 196.879 81.4408 198.247 82.0145 199.527L80.6611 200.13ZM251.016 200.056L249.795 199.247C250.589 198.041 251.354 196.791 252.06 195.511L253.355 196.217C252.619 197.526 251.84 198.821 251.016 200.056ZM255.356 192.23L254.017 191.612C254.62 190.303 255.179 188.95 255.679 187.581L257.062 188.096C256.547 189.494 255.959 190.891 255.356 192.23ZM77.7188 191.7C77.3364 190.303 76.9833 188.847 76.6744 187.361L78.116 187.052C78.425 188.508 78.7633 189.935 79.1458 191.303L77.7188 191.7ZM258.474 183.845L257.062 183.433C257.474 182.065 257.842 180.638 258.165 179.196L259.607 179.52C259.269 180.991 258.886 182.447 258.474 183.845ZM75.8652 182.977C75.6446 181.55 75.4386 180.064 75.2768 178.563L76.7332 178.402C76.895 179.887 77.0863 181.344 77.3069 182.756L75.8652 182.977ZM260.446 175.136L258.989 174.9C259.225 173.473 259.401 172.017 259.548 170.561L261.019 170.708C260.872 172.194 260.681 173.679 260.446 175.136ZM74.8943 174.106C74.7913 172.62 74.7325 171.134 74.6884 169.663L76.1595 169.619C76.2036 171.076 76.2624 172.547 76.3654 174.018L74.8943 174.106ZM261.328 166.25L259.857 166.191C259.901 165.073 259.931 163.955 259.931 162.823V161.808L261.402 161.793V162.823C261.402 163.97 261.387 165.118 261.328 166.25ZM76.13 165.235L74.6589 165.22C74.6736 163.72 74.7178 162.234 74.7913 160.778L76.2624 160.851C76.1889 162.278 76.1448 163.749 76.13 165.235ZM259.754 157.424C259.666 155.982 259.519 154.511 259.357 153.054L260.813 152.878C260.99 154.349 261.122 155.85 261.225 157.321L259.754 157.424ZM76.5567 156.453L75.0856 156.335C75.1885 155.07 75.3209 153.819 75.4533 152.598L75.5416 151.907L76.998 152.083L76.9097 152.76C76.7773 153.966 76.6596 155.202 76.5567 156.453ZM258.724 148.729C258.474 147.288 258.195 145.846 257.871 144.434L259.313 144.11C259.636 145.552 259.931 147.023 260.181 148.479L258.724 148.729ZM77.6747 147.758L76.233 147.494C76.4978 146.037 76.8215 144.566 77.1745 143.124L78.6015 143.477C78.2484 144.89 77.9395 146.331 77.6747 147.758ZM79.7637 139.255L78.3514 138.829C78.778 137.416 79.2635 136.004 79.7784 134.592L81.1612 135.107C80.6611 136.475 80.1903 137.873 79.7637 139.255ZM254.031 131.856C253.502 130.502 252.928 129.134 252.325 127.825L253.664 127.207C254.282 128.546 254.855 129.929 255.4 131.311L254.031 131.856ZM250.398 123.897C249.721 122.617 249 121.337 248.235 120.087L249.486 119.322C250.265 120.602 251.001 121.911 251.692 123.206L250.398 123.897ZM86.722 123.206L85.4422 122.47C86.1777 121.19 86.9427 119.91 87.7518 118.66L88.9876 119.454C88.2079 120.69 87.4429 121.94 86.722 123.206ZM91.459 115.835L90.2674 114.982C91.1207 113.79 92.0328 112.584 92.9448 111.422L94.0923 112.334C93.1802 113.482 92.2976 114.658 91.459 115.835ZM240.453 109.51C239.497 108.421 238.497 107.332 237.481 106.288L238.541 105.258C239.57 106.317 240.6 107.435 241.571 108.539L240.453 109.51ZM96.9021 108.965L95.7988 107.994C96.7697 106.891 97.7848 105.788 98.8146 104.714L99.8738 105.729C98.8587 106.788 97.8584 107.877 96.9021 108.965ZM234.348 103.228C233.289 102.242 232.186 101.257 231.067 100.315L232.009 99.197C233.142 100.153 234.274 101.154 235.348 102.154L234.348 103.228ZM102.993 102.669L101.977 101.595C103.051 100.58 104.169 99.5795 105.287 98.6233L106.244 99.7413C105.14 100.683 104.052 101.668 102.993 102.669ZM227.625 97.5641C226.478 96.6814 225.286 95.8135 224.08 94.9749L224.918 93.7686C226.139 94.6219 227.346 95.5045 228.522 96.4019L227.625 97.5641ZM220.431 92.5329C219.196 91.7532 217.945 90.9882 216.665 90.2674L217.401 88.9875C218.695 89.7231 219.961 90.488 221.226 91.2824L220.431 92.5329ZM212.811 88.1637C211.516 87.487 210.192 86.8397 208.868 86.2218L209.486 84.8831C210.84 85.5157 212.164 86.163 213.488 86.8544L212.811 88.1637ZM204.852 84.4565C203.499 83.8975 202.145 83.3532 200.763 82.853L201.277 81.4701C202.675 81.985 204.058 82.5293 205.426 83.1031L204.852 84.4565ZM132.312 83.6915L131.738 82.3381C133.091 81.7644 134.489 81.22 135.887 80.7199L136.387 82.1027C135.019 82.6029 133.65 83.1325 132.312 83.6915ZM196.614 81.4113C195.216 80.9552 193.819 80.5433 192.407 80.1461L192.804 78.7339C194.231 79.1311 195.658 79.5577 197.07 80.0137L196.614 81.4113ZM140.55 80.6757L140.109 79.2782C141.521 78.8368 142.963 78.4102 144.39 78.0424L144.772 79.4694C143.36 79.8372 141.948 80.2344 140.55 80.6757ZM188.155 79.0722C186.728 78.7339 185.301 78.4396 183.86 78.1748L184.124 76.7332C185.581 76.998 187.037 77.3069 188.479 77.6452L188.155 79.0722ZM149.024 78.4396L148.715 76.998C150.156 76.689 151.627 76.4095 153.069 76.1594L153.349 77.6011C151.892 77.8512 150.451 78.1307 149.024 78.4396ZM179.534 77.454C178.078 77.248 176.622 77.0715 175.18 76.9391L175.312 75.468C176.769 75.6004 178.255 75.7769 179.726 75.9829L179.534 77.454ZM157.674 77.0127L157.512 75.5563C158.968 75.3944 160.469 75.2768 161.955 75.2032L162.028 76.6743C160.587 76.7479 159.115 76.8656 157.674 77.0127ZM170.811 76.6449C169.428 76.586 168.016 76.5419 166.648 76.5419H166.427V75.0708H166.648C168.045 75.0708 169.472 75.1002 170.884 75.1738L170.811 76.6449Z" fill="white"/>
<path d="M233.171 216.886L232.436 215.621C233.068 215.253 233.686 214.871 234.289 214.488L235.084 215.724C234.466 216.121 233.818 216.518 233.171 216.886Z" fill="white"/>
<path d="M270.42 170.664C270.42 175.754 266.286 179.887 261.196 179.887C256.091 179.887 251.972 175.754 251.972 170.664C251.972 165.559 256.106 161.44 261.196 161.44C266.286 161.44 270.42 165.559 270.42 170.664Z" fill="#00C8DC"/>
<path d="M117.38 114.202C117.38 125.868 107.921 135.327 96.2547 135.327C84.5888 135.327 75.1295 125.868 75.1295 114.202C75.1295 102.536 84.5888 93.0771 96.2547 93.0771C107.921 93.0771 117.38 102.536 117.38 114.202Z" fill="#00C8DC"/>
<path d="M100.506 115.07L96.8727 114.099L105.611 81.4702C106.42 78.4691 109.51 76.6744 112.525 77.4835L120.852 79.7196L119.881 83.3532L111.554 81.1171C110.554 80.8523 109.524 81.4408 109.245 82.4411L100.506 115.07Z" fill="#B4B4B4"/>
<path d="M96.1457 113.164L93.7738 122.017L99.216 123.475L101.588 114.623L96.1457 113.164Z" fill="#C8C8C8"/>
<path d="M93.2675 121.465L91.3715 128.541L98.0357 130.327L99.9317 123.251L93.2675 121.465Z" fill="#D2D2D2"/>
<path d="M115.235 77.0071L113.656 82.9041L121.826 85.0924L123.406 79.1954L115.235 77.0071Z" fill="#C8C8C8"/>
<path d="M119.627 76.9435L117.43 85.1423L125.601 87.3315L127.798 79.1326L119.627 76.9435Z" fill="#D2D2D2"/>
<path opacity="0.2" d="M119.337 78.0867L115.247 76.9981L114.453 79.9403L126.722 83.2209L127.825 79.1312L119.646 76.9392L119.337 78.0867Z" fill="#D2D2D2"/>
<path opacity="0.2" d="M101.595 114.629L98.8733 113.908L94.7101 129.428L98.0348 130.311L99.9325 123.235L99.3294 123.073L101.595 114.629Z" fill="#D2D2D2"/>
<path d="M113.736 77.7976L112.762 81.4355L113.97 81.7589L114.944 78.1209L113.736 77.7976Z" fill="#AAAAAA"/>
<path d="M97.3922 112.139L97.0497 113.418L100.688 114.393L101.03 113.114L97.3922 112.139Z" fill="#AAAAAA"/>
<path d="M91.9285 94.7098L86.2233 97.98L105.925 132.352L111.63 129.082L91.9285 94.7098Z" fill="#505050"/>
<path d="M108.774 130.708L111.643 129.06L91.9445 94.6953L89.017 96.3724L88.9729 96.4018L108.774 130.708Z" fill="#5A5A5A"/>
<path d="M92.9301 85.7511C95.2839 89.8702 93.8569 95.1221 89.7378 97.4759C85.6187 99.8296 80.3668 98.4026 78.0131 94.2982C75.7475 90.341 76.9686 85.3392 80.7199 82.8677L82.191 91.4443C82.5882 93.7539 90.1644 92.4594 89.7672 90.1497L88.3697 81.9409C90.2233 82.6029 91.8562 83.8975 92.9301 85.7511Z" fill="#505050"/>
<path d="M107.509 128.472C110.613 126.692 114.556 127.766 116.336 130.87C118.042 133.841 117.115 137.607 114.306 139.476L113.202 133.032C112.908 131.296 107.2 132.282 107.494 134.003L108.553 140.182C107.156 139.682 105.92 138.696 105.126 137.313C103.346 134.209 104.42 130.252 107.509 128.472Z" fill="#505050"/>
<path d="M123.044 100.183L120.822 96.3138L125.706 94.2984L127.398 93.6069L128.693 95.843L127.236 96.9611L123.044 100.183Z" fill="#C8C8C8"/>
<path d="M90.6353 118.91L88.3992 115.041L121.543 96.9907L122.838 99.2268L90.6353 118.91Z" fill="#C8C8C8"/>
<path d="M90.6351 118.91L122.588 99.3738L123.044 100.183L127.236 96.9612L128.693 95.8431L128.045 94.7251L89.5171 116.968L90.6351 118.91Z" fill="#D2D2D2"/>
<path d="M90.9735 120.205C91.4296 119.94 91.5767 119.366 91.3119 118.925L88.7227 114.438C88.4579 113.997 87.8842 113.835 87.4428 114.1L86.4278 114.688C85.9717 114.953 85.8246 115.527 86.0894 115.968L86.516 116.718L69.304 125.574C69.2746 125.589 69.2452 125.604 69.2011 125.619C68.3772 126.104 68.3331 127.59 69.0392 128.811C69.7454 130.032 71.0547 130.738 71.8785 130.267C71.9079 130.253 71.9373 130.223 71.9668 130.208L88.2372 119.734L88.6639 120.484C88.9287 120.94 89.5024 121.088 89.9437 120.823L90.9735 120.205Z" fill="#008CAA"/>
<path d="M90.9736 120.205C91.4296 119.94 91.5767 119.366 91.3119 118.925L90.0173 116.689L69.0393 128.796C69.7454 130.017 71.0547 130.723 71.8786 130.252C71.908 130.238 71.9374 130.208 71.9668 130.194L88.2373 119.719L88.6639 120.469C88.9287 120.926 89.5025 121.073 89.9438 120.808L90.9736 120.205Z" fill="#0096B4"/>
<path d="M87.5017 120.116L85.7805 117.13L86.5161 116.703L88.2373 119.69L87.5017 120.116Z" fill="#0082A0"/>
<path d="M127.236 96.9611L125.707 94.2984L127.398 93.6069L128.693 95.843L127.236 96.9611Z" fill="#969696"/>
<path d="M105.876 183.242C105.876 199.498 92.7094 212.664 76.4536 212.664C60.1978 212.664 47.0314 199.483 47.0314 183.242C47.0314 166.986 60.1978 153.82 76.4536 153.82C92.7094 153.82 105.876 166.986 105.876 183.242Z" fill="#505050"/>
<path d="M97.9025 183.242C97.9025 195.084 88.2961 204.69 76.4537 204.69C64.6112 204.69 55.0049 195.084 55.0049 183.242C55.0049 171.399 64.6112 161.793 76.4537 161.793C88.2961 161.793 97.9025 171.384 97.9025 183.242Z" fill="#B4B4B4"/>
<path d="M72.3639 185.551C72.5404 185.375 72.5993 185.11 72.4963 184.875C72.3933 184.639 72.1726 184.492 71.9225 184.492H58.8149C59.0945 188.435 60.6538 192.024 63.0959 194.834L72.3639 185.551Z" fill="#787878"/>
<path d="M71.9226 181.991C72.1727 181.991 72.4081 181.844 72.4963 181.609C72.5993 181.373 72.5405 181.109 72.3639 180.932L63.0812 171.649C60.6392 174.459 59.0798 178.049 58.8003 181.991H71.9226Z" fill="#787878"/>
<path d="M74.1293 179.152C74.3058 179.329 74.5706 179.387 74.806 179.284C75.0414 179.181 75.1885 178.961 75.1885 178.711V165.588C71.2459 165.868 67.6564 167.427 64.8466 169.869L74.1293 179.152Z" fill="#787878"/>
<path d="M77.704 165.603V178.711C77.704 178.961 77.8511 179.196 78.0865 179.284C78.3218 179.387 78.5866 179.328 78.7632 179.152L88.0459 169.869C85.2361 167.442 81.6466 165.868 77.704 165.603Z" fill="#787878"/>
<path d="M80.5285 180.917C80.352 181.094 80.2932 181.359 80.3961 181.594C80.4991 181.83 80.7198 181.977 80.9699 181.977H94.0775C93.798 178.034 92.2386 174.445 89.7965 171.635L80.5285 180.917Z" fill="#787878"/>
<path d="M80.9845 184.492C80.7344 184.492 80.499 184.639 80.4108 184.875C80.3078 185.11 80.3666 185.375 80.5432 185.551L89.8259 194.834C92.2679 192.024 93.8273 188.435 94.1068 184.492H80.9845Z" fill="#787878"/>
<path d="M78.7632 187.317C78.5866 187.14 78.3218 187.081 78.0865 187.184C77.8511 187.287 77.704 187.508 77.704 187.758V200.866C81.6466 200.586 85.2214 199.027 88.0312 196.585L78.7632 187.317Z" fill="#787878"/>
<path d="M75.2032 187.758C75.2032 187.508 75.0561 187.272 74.8207 187.184C74.5853 187.081 74.3205 187.14 74.144 187.317L64.876 196.585C67.6858 199.027 71.2753 200.586 75.2179 200.866V187.758H75.2032Z" fill="#787878"/>
<path d="M79.5136 183.242C79.5136 184.933 78.1454 186.316 76.4537 186.316C74.7619 186.316 73.379 184.948 73.379 183.242C73.379 181.55 74.7472 180.182 76.4537 180.182C78.1454 180.167 79.5136 181.55 79.5136 183.242Z" fill="#C8C8C8"/>
<path d="M76.4535 211.649C60.7862 211.649 48.0464 198.909 48.0464 183.242C48.0464 167.574 60.7862 154.834 76.4535 154.834C92.1209 154.834 104.861 167.574 104.861 183.242C104.861 198.909 92.1209 211.649 76.4535 211.649ZM76.4535 157.394C62.1985 157.394 50.6061 168.987 50.6061 183.242C50.6061 197.497 62.1985 209.089 76.4535 209.089C90.7086 209.089 102.301 197.497 102.301 183.242C102.286 168.987 90.6939 157.394 76.4535 157.394Z" fill="#5A5A5A"/>
<path d="M70.2963 185.733L51.829 203.543L54.7906 206.614L73.2579 188.804L70.2963 185.733Z" fill="#FFDC00"/>
<path d="M53.2983 205.073L54.7842 206.603L73.2466 188.788L71.7314 187.214L71.7167 187.199L53.2983 205.073Z" fill="#FFC800"/>
<path d="M79.028 187.993C76.8214 190.126 73.2907 190.053 71.1576 187.846C69.0245 185.639 69.0833 182.109 71.3047 179.976C73.4231 177.931 76.7625 177.901 78.9103 179.873L73.7614 182.153C72.3786 182.771 74.394 187.317 75.7769 186.713L80.7051 184.536C80.5727 185.801 80.0284 187.037 79.028 187.993Z" fill="#FFDC00"/>
<path d="M54.5045 203.925C56.108 205.588 56.0639 208.236 54.4015 209.854C52.798 211.398 50.2971 211.413 48.6789 209.942L52.5627 208.221C53.6071 207.765 52.0919 204.337 51.0474 204.793L47.3402 206.441C47.4285 205.485 47.8551 204.543 48.6054 203.837C50.2383 202.204 52.8863 202.263 54.5045 203.925Z" fill="#FFDC00"/>
<path d="M62.4486 203.837L62.9047 203.396C63.14 203.175 63.2872 202.866 63.346 202.557C63.3607 202.484 63.3754 202.395 63.3754 202.322C63.3754 202.234 63.3754 202.145 63.3607 202.057C63.3607 202.042 63.3607 202.042 63.3607 202.028L63.5667 202.248C63.6108 202.307 63.6696 202.351 63.7138 202.41C64.2875 202.984 65.229 202.999 65.8322 202.44L66.3029 202.013C66.656 201.689 66.8178 201.248 66.8031 200.807C66.8031 200.674 66.7737 200.542 66.7296 200.409L67.1415 200.895C67.2739 201.042 67.421 201.174 67.5828 201.248C68.1124 201.542 68.8038 201.483 69.2893 201.071L69.7748 200.66C70.0837 200.395 70.2749 200.027 70.3044 199.615C70.3191 199.38 70.2896 199.159 70.2014 198.938C70.1425 198.777 70.0543 198.629 69.9366 198.497L69.9807 198.541C70.1131 198.703 70.2749 198.821 70.4515 198.909C70.628 198.997 70.8192 199.056 71.0252 199.071C71.4224 199.1 71.8343 198.968 72.1432 198.703L72.6287 198.291C73.276 197.747 73.3496 196.776 72.8052 196.143L70.7604 193.731L70.7457 193.716C70.6721 193.569 70.5839 193.422 70.4662 193.289L65.9352 188.082C65.3467 187.405 64.5376 186.949 63.6402 186.816L61.8896 186.537C61.1246 186.419 60.4185 186.066 59.8595 185.537L50.7533 176.96L43.1624 185.007L52.4009 193.716C52.8717 194.157 53.2248 194.716 53.4307 195.334L53.7838 196.452C53.9603 197.011 54.2692 197.511 54.6664 197.938L56.1081 199.439L56.0787 199.468L59.374 202.852L59.4476 202.925L59.4623 202.94L60.2567 203.764C60.8745 204.426 61.8308 204.44 62.4486 203.837Z" fill="#FFE4C3"/>
<path d="M70.1866 198.968C69.9512 198.718 69.6864 198.438 69.4363 198.159C69.2009 197.908 68.9508 197.644 68.7302 197.408C68.7154 197.394 68.686 197.364 68.6713 197.335C68.4801 197.114 68.3182 196.893 68.1858 196.687C67.8769 196.261 67.7151 195.937 67.7151 195.937L67.7298 195.922L67.7445 195.908C67.7445 195.908 68.0387 196.114 68.4212 196.481C68.5978 196.658 68.789 196.849 68.995 197.07C69.0097 197.085 69.0244 197.114 69.0538 197.129C69.2598 197.379 69.4804 197.673 69.6864 197.938C69.9512 198.276 70.216 198.615 70.4514 198.923C70.2748 198.835 70.113 198.703 69.9806 198.556L69.9365 198.512C70.0394 198.659 70.1277 198.806 70.1866 198.968Z" fill="#F0BE96"/>
<path d="M43.1771 185.051L52.4157 193.76C52.8865 194.202 53.2395 194.761 53.4455 195.378L53.7985 196.497C53.9751 197.056 54.284 197.556 54.6812 197.982L56.1229 199.483L56.0935 199.512L59.3888 202.896L59.4623 202.969L59.477 202.984L60.2714 203.808C60.8599 204.411 61.8308 204.426 62.434 203.837L62.89 203.396C63.1254 203.175 63.2725 202.866 63.3313 202.557C63.3461 202.484 63.3608 202.396 63.3608 202.322C63.3608 202.234 63.3608 202.146 63.3461 202.057C63.3461 202.043 63.3461 202.043 63.3461 202.028L63.552 202.249C63.5961 202.307 63.655 202.352 63.6991 202.41C64.2729 202.984 65.2144 202.999 65.8175 202.44L66.2883 202.013C66.6413 201.69 66.8032 201.248 66.7885 200.807C66.7885 200.674 66.759 200.542 66.7149 200.41L67.1268 200.895C67.2592 201.042 67.4063 201.175 67.5681 201.248C68.0977 201.542 68.7892 201.484 69.2746 201.072L69.5394 200.836L47.2227 180.756L43.1771 185.051Z" fill="#FFDAB9"/>
<path d="M67.5535 201.277C67.3916 201.189 67.2298 201.071 67.1121 200.924L66.7002 200.439C66.7444 200.571 66.7738 200.703 66.7738 200.836C66.612 200.674 66.4501 200.497 66.3177 200.336C66.1265 200.115 65.95 199.894 65.8176 199.703C65.8029 199.674 65.7734 199.644 65.7587 199.63C65.4498 199.188 65.288 198.879 65.288 198.879L65.3174 198.85C65.3174 198.85 65.3468 198.865 65.3909 198.909C65.4645 198.968 65.5675 199.056 65.7146 199.173C65.7881 199.247 65.8911 199.321 65.9794 199.424C66.0088 199.438 66.0235 199.468 66.0529 199.497C66.2295 199.659 66.4207 199.865 66.5973 200.071C66.8032 200.321 67.0239 200.615 67.2298 200.895C67.3475 201.012 67.4505 201.145 67.5535 201.277Z" fill="#F0BE96"/>
<path d="M63.3314 202.557C63.2725 202.469 63.2137 202.396 63.1548 202.307C63.0813 202.204 63.0077 202.101 62.9489 202.013C62.7723 201.734 62.6841 201.557 62.6841 201.557L62.7135 201.528C62.7135 201.528 62.8753 201.645 63.1254 201.866C63.1843 201.925 63.2578 201.984 63.3314 202.057C63.3461 202.145 63.3461 202.234 63.3461 202.322C63.3608 202.396 63.3608 202.484 63.3314 202.557Z" fill="#F0BE96"/>
<path d="M172.767 204.455C168.575 211.958 163.955 210.634 158.63 210.634C155.732 210.634 151.26 210.649 150.524 207.133C150.289 206.162 150.289 204.72 150.524 203.617C150.892 201.94 151.26 202.175 153.069 202.16C155.85 202.16 158.512 202.41 161.293 202.881C164.912 203.499 169.148 203.381 172.767 204.455Z" fill="white"/>
<path d="M173.959 223.153C173.165 225.904 172.429 229.714 169.531 230.685C167.751 231.332 163.676 231.2 161.734 231.2C158.512 231.2 155.423 231.068 152.201 231.068C149.303 231.068 148.818 230.111 149.465 227.199C150.112 225.095 149.715 223.109 151.878 222.3C153.893 221.564 168.236 221.917 173.959 223.153Z" fill="#960000"/>
<path d="M156.511 189.877C156.129 190.553 155.879 191.068 155.791 191.333C155.526 192.142 155.423 192.539 155.335 192.76C154.864 192.642 154.364 192.451 153.937 192.583C153.525 192.745 153.452 193.142 152.981 193.275C152.407 193.393 151.569 193.069 150.995 192.995C149.788 192.789 148.538 192.628 147.317 192.348C145.375 191.907 144.698 190.097 144.816 188.273C144.934 186.581 146.67 186.022 148.038 185.816C149.406 185.566 151.26 184.963 152.554 185.728C154.437 186.89 153.702 190.392 156.511 189.877Z" fill="#DC3200"/>
<path d="M248.015 203.337C247.927 201.645 243.969 198.012 242.822 196.879C242.072 196.143 239.453 193.907 238.57 193.334C238.041 193.01 237.938 193.01 237.82 192.672C237.732 192.451 237.629 192.039 237.364 191.23C237.276 190.965 237.026 190.45 236.643 189.773C234.378 185.669 227.743 175.445 227.199 174.886C226.551 174.239 225.095 172.959 223.035 172.576C220.99 172.223 200.439 171.149 196.555 171.149C192.686 171.149 172.135 172.267 170.075 172.635C168.016 173.003 166.574 174.283 165.927 174.945C165.382 175.504 158.762 185.743 156.512 189.862C156.129 190.538 155.879 191.053 155.791 191.318C155.526 192.127 155.423 192.524 155.335 192.745C155.247 192.966 154.717 193.334 154.511 193.437C154.467 193.481 154.437 193.481 154.437 193.481C153.864 193.863 151.569 195.423 150.333 196.747C148.465 198.718 145.243 201.719 145.155 203.411C145.081 205.102 144.36 206.309 144.522 209.692C144.596 211.34 145.052 216.312 145.508 221.064C145.964 226.036 146.435 230.759 146.479 231.126C146.552 231.847 146.317 232.656 146.641 233.304C146.964 233.951 147.773 234.113 149.053 234.113C149.45 234.113 153.731 234.172 159.616 234.245C173.635 234.407 196.614 234.701 196.614 234.701C196.614 234.701 220.328 234.348 234.26 234.157C239.791 234.069 243.807 234.024 244.175 234.01C245.455 234.01 246.264 233.848 246.588 233.201C246.897 232.553 246.661 231.744 246.735 231.023C246.794 230.523 247.618 222.005 248.162 215.724C248.412 212.958 248.603 210.634 248.647 209.589C248.824 206.235 248.103 205.029 248.015 203.337ZM240.115 202.087C241.924 202.072 242.292 201.851 242.66 203.528C242.895 204.617 242.895 206.073 242.675 207.044C241.939 210.56 237.482 210.56 234.569 210.56C229.243 210.575 224.624 211.899 220.417 204.396C224.036 203.308 228.272 203.425 231.891 202.822C234.672 202.351 237.335 202.087 240.115 202.087ZM166.971 175.445L196.555 174.106L226.139 175.386C226.139 175.386 236.805 191.995 235.996 191.995C235.231 191.995 208.56 190.494 196.57 190.774C184.595 190.538 157.924 192.068 157.159 192.083C156.35 192.068 166.971 175.445 166.971 175.445ZM150.51 203.631C150.877 201.954 151.245 202.19 153.055 202.175C155.835 202.175 158.498 202.425 161.278 202.896C164.912 203.499 169.149 203.367 172.767 204.455C168.575 211.958 163.956 210.634 158.63 210.634C155.732 210.634 151.26 210.649 150.524 207.133C150.289 206.176 150.289 204.72 150.51 203.631ZM169.531 230.7C167.751 231.347 163.676 231.215 161.734 231.215C161.013 231.215 160.322 231.2 159.616 231.2C157.909 231.185 156.217 231.126 154.496 231.112C153.731 231.097 152.966 231.097 152.201 231.097C149.303 231.097 148.818 230.141 149.465 227.228C150.112 225.124 149.715 223.138 151.878 222.329C152.672 222.035 155.291 221.917 158.557 221.947C158.895 221.932 159.248 221.947 159.616 221.961C160.704 221.976 161.837 222.02 162.999 222.064C163.691 222.094 164.382 222.138 165.059 222.167C165.309 222.182 165.574 222.197 165.809 222.211C166.192 222.226 166.559 222.256 166.927 222.285C167.295 222.314 167.663 222.344 168.016 222.373C168.384 222.403 168.737 222.432 169.09 222.476C169.605 222.52 170.119 222.579 170.59 222.638C170.929 222.682 171.238 222.712 171.546 222.77C171.797 222.8 172.047 222.844 172.282 222.873C172.4 222.888 172.517 222.918 172.635 222.932C172.782 222.947 172.929 222.976 173.076 223.006C173.135 223.006 173.194 223.021 173.253 223.021C173.356 223.035 173.444 223.065 173.547 223.065C173.709 223.109 173.841 223.124 173.988 223.168C173.15 225.904 172.429 229.729 169.531 230.7ZM210.56 229.493L182.653 229.523C182.256 229.523 178.225 229.92 177.181 227.022C176.122 224.124 174.503 219.431 173.944 217.107C173.341 214.65 171.37 210.443 183.212 210.707C189.332 210.84 193.746 210.84 196.585 210.796C199.439 210.84 203.852 210.825 209.972 210.693C221.814 210.413 219.858 214.621 219.255 217.077C218.681 219.402 217.077 224.094 216.033 226.993C214.988 229.876 210.958 229.493 210.56 229.493ZM241.042 230.994C238.747 230.994 236.525 231.068 234.275 231.112C233.363 231.141 232.436 231.141 231.494 231.141C229.567 231.141 225.463 231.288 223.697 230.656C220.799 229.685 220.064 225.875 219.269 223.124C219.475 223.079 219.681 223.035 219.902 223.006C220.196 222.947 220.505 222.903 220.829 222.844C221.035 222.815 221.27 222.77 221.491 222.741C221.564 222.726 221.638 222.726 221.711 222.712C222.006 222.667 222.314 222.638 222.623 222.594C222.653 222.594 222.682 222.579 222.712 222.579C223.021 222.55 223.33 222.506 223.668 222.476C224.462 222.388 225.286 222.314 226.154 222.256C226.389 222.241 226.64 222.226 226.875 222.197C228.199 222.094 229.567 222.02 230.891 221.976C231.244 221.961 231.582 221.947 231.936 221.917C232.186 221.903 232.436 221.903 232.686 221.903C232.98 221.888 233.274 221.888 233.568 221.873C233.819 221.858 234.054 221.858 234.289 221.858C237.746 221.8 240.556 221.932 241.38 222.226C243.543 223.021 243.145 225.021 243.793 227.11C244.425 230.023 243.94 230.994 241.042 230.994Z" fill="#DC3200"/>
<path d="M235.981 191.98C235.687 191.98 231.759 191.774 226.345 191.524C223.991 191.421 221.388 191.303 218.666 191.201C210.84 190.877 202.116 190.612 196.57 190.744C189.479 190.612 177.195 191.098 168.236 191.524C162.999 191.76 158.895 191.98 157.586 192.024C157.35 192.054 157.218 192.054 157.159 192.054C156.364 192.054 166.986 175.43 166.986 175.43L174.533 175.092L185.154 174.606L196.541 174.106L226.139 175.386C226.139 175.386 227.581 177.622 229.361 180.476C230.347 182.05 231.45 183.786 232.436 185.448C234.569 188.935 236.334 191.98 235.981 191.98Z" fill="#78DCF0"/>
<path d="M242.66 207.044C241.924 210.56 237.467 210.56 234.554 210.56C229.229 210.575 224.609 211.899 220.402 204.396C224.021 203.308 228.258 203.426 231.877 202.822C234.657 202.337 237.32 202.087 240.1 202.087C241.91 202.072 242.277 201.851 242.645 203.529C242.895 204.632 242.895 206.088 242.66 207.044Z" fill="white"/>
<path d="M241.042 230.994C237.805 230.994 234.731 231.141 231.494 231.141C229.567 231.141 225.463 231.288 223.697 230.656C220.799 229.685 220.064 225.874 219.269 223.123C224.977 221.873 239.321 221.491 241.351 222.241C243.513 223.035 243.116 225.036 243.763 227.125C244.425 230.023 243.94 230.994 241.042 230.994Z" fill="#960000"/>
<path d="M219.254 217.063C218.681 219.387 217.077 224.08 216.033 226.978C214.988 229.876 210.957 229.494 210.56 229.494L182.653 229.523C182.256 229.523 178.225 229.92 177.181 227.022C176.122 224.124 174.503 219.431 173.944 217.107C173.341 214.65 171.37 210.443 183.212 210.708C189.332 210.84 193.745 210.84 196.585 210.796C199.439 210.84 203.852 210.825 209.972 210.693C221.814 210.399 219.843 214.606 219.254 217.063Z" fill="#C81E00"/>
<path opacity="0.2" d="M242.837 196.894C242.086 196.158 239.468 193.922 238.585 193.348C238.055 193.025 237.952 193.025 237.835 192.686C237.747 192.466 237.644 192.054 237.379 191.244C237.29 190.98 237.04 190.465 236.658 189.788C234.392 185.684 227.758 175.459 227.213 174.9C226.566 174.253 225.11 172.973 223.05 172.591C221.005 172.238 200.572 171.179 196.614 171.164V174.091L226.154 175.371C226.154 175.371 236.82 191.98 236.011 191.98C235.246 191.98 208.619 190.494 196.614 190.759V234.731H196.629C196.629 234.731 220.343 234.377 234.275 234.186C239.806 234.098 243.822 234.054 244.19 234.039C245.47 234.039 246.279 233.877 246.603 233.23C246.912 232.583 246.676 231.774 246.75 231.053C246.809 230.553 247.632 222.035 248.177 215.753C248.427 212.988 248.618 210.663 248.662 209.619C248.824 206.235 248.088 205.029 248.015 203.337C247.927 201.645 243.969 198.012 242.837 196.894ZM231.892 202.837C234.672 202.351 237.335 202.101 240.115 202.101C241.924 202.087 242.292 201.866 242.66 203.543C242.895 204.632 242.895 206.088 242.675 207.059C241.939 210.575 237.482 210.575 234.569 210.575C229.244 210.59 224.624 211.914 220.417 204.411C224.036 203.322 228.273 203.44 231.892 202.837ZM241.042 230.994C238.747 230.994 236.526 231.067 234.275 231.112C233.363 231.141 232.436 231.141 231.494 231.141C229.567 231.141 225.463 231.288 223.697 230.656C220.799 229.685 220.064 225.874 219.269 223.123C219.475 223.079 219.681 223.035 219.902 223.006C220.196 222.947 220.505 222.903 220.829 222.844C221.035 222.815 221.27 222.77 221.491 222.741C221.564 222.726 221.638 222.726 221.711 222.712C222.006 222.667 222.315 222.638 222.624 222.594C222.653 222.594 222.682 222.579 222.712 222.579C223.021 222.55 223.33 222.506 223.668 222.476C224.462 222.388 225.286 222.314 226.154 222.256C226.39 222.241 226.64 222.226 226.875 222.197C228.199 222.094 229.567 222.02 230.891 221.976C231.244 221.961 231.583 221.947 231.936 221.917C232.186 221.902 232.436 221.902 232.686 221.902C232.98 221.888 233.274 221.888 233.569 221.873C233.819 221.858 234.054 221.858 234.289 221.858C237.747 221.799 240.556 221.932 241.38 222.226C243.543 223.02 243.146 225.021 243.793 227.11C244.425 230.023 243.94 230.994 241.042 230.994Z" fill="#DC3200"/>
<path d="M159.616 234.275L159.63 241.88C159.63 242.41 159.189 242.836 158.674 242.851L146.508 242.866C145.979 242.866 145.537 242.425 145.537 241.895L145.522 221.108C145.979 226.081 146.449 230.803 146.493 231.171C146.567 231.891 146.332 232.7 146.655 233.348C146.979 233.995 147.788 234.157 149.068 234.157C149.45 234.142 153.731 234.201 159.616 234.275Z" fill="#323232"/>
<path d="M248.368 216.312L248.382 241.792C248.397 242.322 247.956 242.763 247.426 242.763L235.26 242.778C234.73 242.778 234.289 242.336 234.289 241.807L234.274 234.201C239.806 234.113 243.822 234.069 244.19 234.054C245.47 234.054 246.279 233.892 246.602 233.245C246.911 232.598 246.676 231.788 246.749 231.068C246.808 230.567 247.632 222.05 248.176 215.768C248.309 215.915 248.368 216.106 248.368 216.312Z" fill="#323232"/>
<path d="M158.512 226.566C158.512 228.611 156.864 230.258 154.834 230.258C152.789 230.258 151.142 228.611 151.142 226.566C151.142 224.521 152.789 222.873 154.834 222.873C156.864 222.888 158.512 224.536 158.512 226.566Z" fill="#FFDC00"/>
<path d="M245.838 192.26C244.631 192.539 243.366 192.716 242.16 192.907C241.601 192.981 240.762 193.304 240.188 193.187C239.703 193.069 239.629 192.672 239.218 192.495C238.806 192.363 238.291 192.569 237.82 192.686C237.732 192.466 237.629 192.054 237.364 191.245C237.276 190.98 237.026 190.465 236.643 189.788C239.453 190.289 238.703 186.802 240.586 185.64C241.865 184.86 243.734 185.478 245.102 185.713C246.47 185.919 248.191 186.478 248.324 188.17C248.441 189.994 247.765 191.804 245.838 192.26Z" fill="#DC3200"/>
<path d="M164.867 226.566C164.867 228.023 163.691 229.199 162.234 229.199C160.792 229.199 159.601 228.023 159.601 226.566C159.601 225.11 160.778 223.933 162.234 223.933C163.691 223.933 164.867 225.11 164.867 226.566Z" fill="#FFDC00"/>
<path d="M241.836 226.492C241.836 228.522 240.203 230.185 238.144 230.185C236.114 230.185 234.451 228.537 234.451 226.507C234.451 224.477 236.099 222.829 238.129 222.815C240.189 222.8 241.836 224.447 241.836 226.492Z" fill="#FFDC00"/>
<path d="M233.009 226.492C233.009 227.949 231.832 229.126 230.376 229.126C228.934 229.126 227.743 227.949 227.743 226.492C227.743 225.036 228.92 223.859 230.376 223.859C231.818 223.874 233.009 225.036 233.009 226.492Z" fill="#FFDC00"/>
<path opacity="0.45" d="M235.672 191.95C233.554 191.862 226.831 191.509 219.254 191.2C215.827 191.068 212.208 190.935 208.765 190.862C204.293 190.744 200.115 190.685 196.938 190.759C184.948 190.509 158.292 192.068 157.512 192.053C157.453 192.053 157.453 191.936 157.556 191.7C161.513 188.435 177.401 185.992 196.423 185.978C200.954 185.978 205.338 186.11 209.398 186.36C209.207 186.007 209.045 185.639 208.927 185.257C208.545 185.228 208.089 184.668 207.868 183.933C207.603 183.08 207.736 182.285 208.133 182.153C208.28 182.123 208.427 182.153 208.559 182.256C208.295 181.697 208.133 180.873 208.03 180.226C207.912 179.623 207.868 178.931 207.956 178.299C208.133 177.475 208.589 177.239 209.324 176.872C211.046 176.063 213.576 174.944 215.474 175.798C216.106 176.092 216.136 176.975 216.15 177.622C216.754 177.431 217.519 177.239 218.048 177.622C218.151 177.695 218.254 177.798 218.342 177.916C218.607 178.24 218.784 178.696 218.872 179.093C219.093 180.137 218.857 181.344 218.401 182.329C218.534 182.256 218.681 182.138 218.813 182.168C219.21 182.3 219.343 183.094 219.078 183.933C218.857 184.668 218.401 185.213 218.033 185.242C217.813 185.89 217.519 186.493 217.151 187.008C226.728 188.081 233.657 189.862 235.672 191.95Z" fill="#32A0B4"/>
<path opacity="0.2" d="M185.154 174.606L168.236 191.524C162.999 191.76 158.895 191.98 157.585 192.024L174.533 175.077L185.154 174.606Z" fill="white"/>
<path opacity="0.2" d="M232.436 185.434L226.36 191.524C224.006 191.421 221.402 191.303 218.681 191.2L229.376 180.476C230.362 182.05 231.45 183.786 232.436 185.434Z" fill="white"/>
<path d="M182.668 140.844C182.668 143.625 182.506 146.317 182.212 148.935C180.137 166.736 171.193 179.976 157.438 179.976C143.639 179.976 134.665 166.633 132.65 148.715C132.371 146.17 132.223 143.551 132.223 140.844C132.223 126.913 143.522 115.629 157.438 115.629C171.399 115.629 182.668 126.913 182.668 140.844Z" fill="#FFDAB9"/>
<path d="M182.227 148.935C182.521 146.317 182.683 143.625 182.683 140.844C182.683 126.913 171.399 115.629 157.468 115.629V179.976C171.208 179.961 180.152 166.721 182.227 148.935Z" fill="#FFE4C3"/>
<path d="M132.297 143.11L132.238 142.669C129.384 139.859 127.133 143.007 128.369 147.288C129.605 151.569 129.943 152.348 131.179 156.188C132.415 160.013 134.401 157.836 134.401 157.836L134.371 157.6C133.165 153.158 132.459 148.273 132.297 143.11Z" fill="#FFDAB9"/>
<path d="M182.609 143.11L182.668 142.669C185.522 139.859 187.773 143.007 186.537 147.288C185.301 151.569 184.963 152.348 183.727 156.188C182.491 160.013 180.505 157.836 180.505 157.836L180.535 157.6C181.756 153.158 182.462 148.273 182.609 143.11Z" fill="#FFDAB9"/>
<path d="M171.267 174.371V206.618H143.654V174.371C147.435 177.916 152.069 179.976 157.453 179.976C162.837 179.976 167.486 177.916 171.267 174.371Z" fill="#FFDAB9"/>
<path d="M183.095 121.926C183.095 121.926 178.784 110.466 157.453 110.466C138.373 110.466 136.637 118.733 136.637 118.733C132.224 119.719 128.149 123.014 130.149 141.609C130.767 141.609 131.473 141.918 132.238 142.668L132.297 143.11C132.356 145.258 134.401 150.657 134.401 150.657H136.24C136.24 150.657 136.24 146.493 136.24 143.904C136.24 141.315 138.034 137.372 140.182 134.224C142.33 131.076 143.654 123.985 143.654 123.985C148.406 128.708 169.104 125.486 171.914 126.81C173.518 127.56 174.856 128.605 176.989 131.768C179.123 134.916 178.681 139.653 178.681 142.242C178.681 144.831 178.681 150.686 178.681 150.686H180.505C180.505 150.686 182.536 145.287 182.609 143.139L182.668 142.698C183.418 141.948 184.139 141.639 184.757 141.639C185.963 130.546 184.992 124.897 183.095 121.926Z" fill="#785000"/>
<path d="M175.415 195.57H139.506V226.757H175.415V195.57Z" fill="white"/>
<path d="M212.443 242.866H102.448C102.448 242.866 106.391 216.533 108.2 208.427C109.495 202.616 111.304 199.453 113.511 197.967V197.953C114.379 197.335 115.32 196.997 116.306 196.835C119.778 196.261 132.224 193.142 132.224 193.142L148.582 200.071L156.541 223.123L157.438 225.742L158.336 223.123L166.294 200.071L182.653 193.113C182.653 193.113 195.099 196.232 198.571 196.805C199.556 196.967 200.498 197.305 201.366 197.923V197.938C203.587 199.439 205.382 202.587 206.676 208.398C208.501 216.518 212.443 242.866 212.443 242.866Z" fill="#007896"/>
<path d="M143.639 182.403H142.286L132.709 190.494L128.943 211.222L148.582 200.071L143.639 190.95V182.403Z" fill="#008CAA"/>
<path d="M120.366 242.866H102.448C102.448 242.866 106.391 216.533 108.2 208.427C109.495 202.616 111.304 199.453 113.511 197.968L120.366 242.866Z" fill="#0082A0"/>
<path d="M148.391 225.521H121.94V227.993H148.391V225.521Z" fill="#C8C8C8"/>
<path d="M171.252 182.403H172.62L182.182 190.494L185.948 211.222L166.309 200.071L171.267 190.95L171.252 182.403Z" fill="#008CAA"/>
<path d="M194.54 242.866H212.443C212.443 242.866 208.501 216.533 206.691 208.427C205.397 202.616 203.587 199.453 201.38 197.968L194.54 242.866Z" fill="#0082A0"/>
<path d="M192.966 225.521H166.515V227.993H192.966V225.521Z" fill="#C8C8C8"/>
<path d="M158.35 223.138V242.866H156.556V223.138L157.453 225.742L158.35 223.138Z" fill="#C8C8C8"/>
<path opacity="0.3" d="M171.267 174.371V177.916C167.486 181.462 162.823 183.506 157.453 183.506C152.069 183.506 147.435 181.491 143.654 177.946V174.386C147.435 177.931 152.069 179.99 157.453 179.99C162.837 179.976 167.486 177.916 171.267 174.371Z" fill="#FFDAB9"/>
<path d="M204.47 71.0399C204.47 88.7521 190.112 103.095 172.414 103.095C154.702 103.095 140.359 88.7374 140.359 71.0399C140.359 53.3277 154.717 38.9844 172.414 38.9844C190.127 38.9697 204.47 53.3277 204.47 71.0399Z" fill="#00A0B4"/>
<path d="M153.908 60.5804L152.378 62.1103L148.582 57.4175L149.215 56.7849L153.908 60.5804Z" fill="#C8C8C8"/>
<path d="M163.573 68.9068L160.704 71.7755L152.495 63.5667C152.025 63.0959 152.025 62.3457 152.495 61.8749L153.672 60.698C154.143 60.2273 154.893 60.2273 155.364 60.698L163.573 68.9068Z" fill="#C8C8C8"/>
<path d="M174.023 75.2989L167.096 82.2278L168.73 83.8607L175.656 76.9318L174.023 75.2989Z" fill="#C8C8C8"/>
<path d="M171.723 71.6875L174.621 74.5856C174.871 74.8357 174.856 75.2329 174.621 75.483L167.28 82.8238C167.03 83.0739 166.633 83.0739 166.383 82.8238L163.485 79.9257C163.249 79.6904 163.234 79.2785 163.485 79.0284L170.825 71.6875C171.076 71.4521 171.487 71.4521 171.723 71.6875Z" fill="#EBEBEB"/>
<path d="M176.557 80.39L172.168 84.781L183.083 95.6899L187.472 91.2989L176.557 80.39Z" fill="#787878"/>
<path d="M176.561 80.3707L174.367 82.5662L185.282 93.475L187.476 91.2795L176.561 80.3707Z" fill="#828282"/>
<path d="M176.416 76.3801L179.314 79.2782C179.564 79.5283 179.549 79.9255 179.314 80.1756L171.973 87.5165C171.723 87.7666 171.326 87.7666 171.076 87.5165L168.177 84.6184C167.942 84.383 167.927 83.9711 168.177 83.721L175.518 76.3801C175.768 76.1448 176.18 76.1448 176.416 76.3801Z" fill="#EBEBEB"/>
<path d="M163.573 68.907L160.704 71.7757L161.896 75.8212L164.294 78.2338L170.031 72.4965L167.633 70.0986L163.573 68.907Z" fill="#C8C8C8"/>
<path d="M187.596 92.6801C187.625 93.0332 187.508 93.3862 187.258 93.6363L185.433 95.4605C185.183 95.7106 184.83 95.843 184.477 95.7988L183.065 95.6664L187.464 91.2678L187.596 92.6801Z" fill="#505050"/>
<path d="M186.067 89.8524L181.66 94.2463L182.106 94.6943L186.513 90.3004L186.067 89.8524Z" fill="#505050"/>
<path d="M184.853 88.6389L180.452 93.0391L180.9 93.4864L185.3 89.0862L184.853 88.6389Z" fill="#505050"/>
<path d="M179.696 92.2828L179.255 91.8415L183.639 87.4429L184.095 87.8989L179.696 92.2828Z" fill="#505050"/>
<path d="M182.447 86.2455L178.063 90.6421L178.511 91.0888L182.895 86.6922L182.447 86.2455Z" fill="#505050"/>
<path d="M177.284 89.8849L176.842 89.4288L181.241 85.0449L181.682 85.4863L177.284 89.8849Z" fill="#505050"/>
<path d="M176.092 88.6786L175.636 88.2372L180.035 83.8386L180.476 84.28L176.092 88.6786Z" fill="#505050"/>
<path d="M178.843 82.6364L174.435 87.0291L174.882 87.4771L179.289 83.0844L178.843 82.6364Z" fill="#505050"/>
<path d="M171.723 71.6874L174.621 74.5855C174.871 74.8356 174.856 75.2328 174.621 75.4829L170.958 79.1607L167.162 75.3652L170.825 71.7021C171.076 71.4521 171.487 71.4521 171.723 71.6874Z" fill="#F5F5F5"/>
<path d="M176.416 76.3801L179.314 79.2781C179.564 79.5282 179.549 79.9254 179.314 80.1755L175.651 83.8533L171.855 80.0578L175.518 76.3948C175.768 76.1447 176.18 76.1447 176.416 76.3801Z" fill="#F5F5F5"/>
<path d="M155.364 60.6981C154.952 60.2862 154.319 60.242 153.863 60.551L149.215 56.7849L148.906 57.1086L167.162 75.3798L170.031 72.5111L167.633 70.1132L163.573 68.9216L155.364 60.6981Z" fill="#D2D2D2"/>
<path d="M190.921 81.485L192.451 79.9551L196.246 84.6479L195.614 85.2805L190.921 81.485Z" fill="#C8C8C8"/>
<path d="M181.256 73.1585L184.124 70.2898L192.333 78.4986C192.804 78.9694 192.804 79.7196 192.333 80.1904L191.156 81.3673C190.685 81.838 189.935 81.838 189.464 81.3673L181.256 73.1585Z" fill="#C8C8C8"/>
<path d="M176.086 58.1964L169.157 65.1233L170.79 66.7567L177.719 59.8298L176.086 58.1964Z" fill="#C8C8C8"/>
<path d="M173.106 70.3781L170.207 67.48C169.957 67.2299 169.972 66.8327 170.207 66.5826L177.548 59.2418C177.798 58.9917 178.196 58.9917 178.446 59.2418L181.344 62.1399C181.579 62.3899 181.594 62.7871 181.344 63.0372L174.003 70.3781C173.753 70.6135 173.341 70.6135 173.106 70.3781Z" fill="#EBEBEB"/>
<path d="M161.746 46.3822L157.345 50.7817L168.256 61.6952L172.656 57.2957L161.746 46.3822Z" fill="#787878"/>
<path d="M159.545 48.5944L157.351 50.7893L168.263 61.7012L170.457 59.5064L159.545 48.5944Z" fill="#828282"/>
<path d="M168.413 65.6852L165.515 62.7871C165.265 62.537 165.279 62.1398 165.515 61.8897L172.855 54.5489C173.106 54.2988 173.503 54.2988 173.753 54.5489L176.651 57.447C176.886 57.6824 176.901 58.0943 176.651 58.3444L169.31 65.6852C169.06 65.9206 168.648 65.9206 168.413 65.6852Z" fill="#EBEBEB"/>
<path d="M181.256 73.1586L184.124 70.3047L182.933 66.2444L180.535 63.8318L174.797 69.5691L177.195 71.967L181.256 73.1586Z" fill="#C8C8C8"/>
<path d="M157.232 49.3854C157.203 49.0323 157.32 48.6793 157.571 48.4292L159.395 46.6197C159.645 46.3696 159.998 46.2372 160.351 46.2813L161.763 46.4137L157.365 50.8124L157.232 49.3854Z" fill="#505050"/>
<path d="M158.777 52.2096L158.336 51.7682L162.72 47.3696L163.176 47.811L158.777 52.2096Z" fill="#505050"/>
<path d="M163.925 48.5802L159.535 52.97L159.983 53.4173L164.372 49.0275L163.925 48.5802Z" fill="#505050"/>
<path d="M161.19 54.6222L160.734 54.1661L165.132 49.7822L165.588 50.2236L161.19 54.6222Z" fill="#505050"/>
<path d="M162.396 55.8285L161.94 55.3725L166.339 50.9739L166.78 51.4299L162.396 55.8285Z" fill="#505050"/>
<path d="M167.527 52.1896L163.138 56.5793L163.585 57.0266L167.975 52.6369L167.527 52.1896Z" fill="#505050"/>
<path d="M164.794 58.2267L164.353 57.7853L168.736 53.3867L169.192 53.8281L164.794 58.2267Z" fill="#505050"/>
<path d="M169.953 54.5855L165.553 58.9856L166 59.4329L170.4 55.0327L169.953 54.5855Z" fill="#505050"/>
<path d="M173.106 70.378L170.207 67.4799C169.957 67.2298 169.972 66.8326 170.207 66.5825L173.871 62.9194L177.666 66.7149L174.003 70.378C173.753 70.6133 173.341 70.6133 173.106 70.378Z" fill="#F5F5F5"/>
<path d="M168.413 65.6853L165.515 62.7872C165.265 62.5372 165.279 62.14 165.515 61.8899L169.178 58.2268L172.973 62.0223L169.31 65.6853C169.06 65.9207 168.648 65.9207 168.413 65.6853Z" fill="#F5F5F5"/>
<path d="M189.464 81.3672C189.876 81.7791 190.509 81.8232 190.965 81.5143L195.614 85.2803L195.937 84.9714L177.666 66.7002L174.797 69.5689L177.195 71.9668L181.256 73.1584L189.464 81.3672Z" fill="#D2D2D2"/>
<path d="M255.238 153.142C255.15 153.51 254.826 153.76 254.458 153.76H211.561C211.193 153.76 210.869 153.496 210.781 153.142L204.514 125.603H261.505L255.238 153.142Z" fill="#505050"/>
<path d="M244.057 125.559H221.961V112.569C221.961 109.627 224.344 107.229 227.287 107.229H238.732C241.674 107.229 244.057 109.627 244.057 112.569V125.559ZM225.963 121.558H240.056V112.569C240.056 111.834 239.467 111.245 238.732 111.245H227.287C226.551 111.245 225.963 111.834 225.963 112.569V121.558Z" fill="#505050"/>
<path d="M257.709 116.88C257.577 116.585 257.297 116.394 256.974 116.394H209.045C208.721 116.394 208.442 116.585 208.309 116.88L204.514 125.603H261.505L257.709 116.88Z" fill="#505050"/>
<path d="M254.458 153.76C254.826 153.76 255.149 153.495 255.238 153.142L261.504 125.603L257.709 116.88C257.577 116.585 257.297 116.394 256.973 116.394H233.009V153.76H254.458Z" fill="#5A5A5A"/>
<path d="M263.079 126.765C263.079 127.207 262.711 127.56 262.27 127.56H203.749C203.307 127.56 202.954 127.207 202.954 126.765V124.426C202.954 123.985 203.307 123.632 203.749 123.632H262.27C262.711 123.632 263.079 123.985 263.079 124.426V126.765Z" fill="#008CAA"/>
<path d="M222.535 122.234H213.429V128.987H222.535V122.234Z" fill="#FFDC00"/>
<path d="M252.59 122.234H243.484V128.987H252.59V122.234Z" fill="#FFDC00"/>
<path d="M235.084 133.179H230.935V148.097H235.084V133.179Z" fill="#96C800"/>
<path d="M240.468 138.563H225.551V142.712H240.468V138.563Z" fill="#96C800"/>
<path d="M273.264 99.092L244.377 127.979L245.989 129.591L274.876 100.704L273.264 99.092Z" fill="#C8C8C8"/>
<path d="M274.082 99.9101L245.223 128.826L246.004 129.605L274.863 100.69L274.082 99.9101Z" fill="#D2D2D2"/>
<path d="M274.936 101.801L271.965 102.036L272.171 99.0351L276.275 94.916L279.055 97.6817L274.936 101.801Z" fill="#C8C8C8"/>
<path d="M242.91 133.827L240.144 131.061L244.263 126.942L247.264 126.736L247.029 129.708L242.91 133.827Z" fill="#C8C8C8"/>
<path d="M276.275 94.9285L272.168 99.0386L274.936 101.805L279.043 97.6947L276.275 94.9285Z" fill="#D2D2D2"/>
<path d="M244.253 126.956L240.143 131.064L242.909 133.832L247.019 129.724L244.253 126.956Z" fill="#D2D2D2"/>
<path d="M277.656 96.3095L273.546 100.417L274.929 101.801L279.039 97.6934L277.656 96.3095Z" fill="#DCDCDC"/>
<path d="M245.627 128.33L241.519 132.439L242.902 133.823L247.011 129.714L245.627 128.33Z" fill="#DCDCDC"/>
<path d="M245.94 99.103L244.327 100.715L273.206 129.61L274.819 127.998L245.94 99.103Z" fill="#C8C8C8"/>
<path d="M245.923 99.0886L245.143 99.8689L274.034 128.752L274.814 127.972L245.923 99.0886Z" fill="#D2D2D2"/>
<path d="M247.029 99.0351L247.264 102.007L244.263 101.801L240.144 97.6817L242.91 94.916L247.029 99.0351Z" fill="#C8C8C8"/>
<path d="M279.055 131.061L276.274 133.827L272.17 129.708L271.964 126.707L274.936 126.942L279.055 131.061Z" fill="#C8C8C8"/>
<path d="M242.906 94.9119L240.139 97.6785L244.247 101.788L247.014 99.0213L242.906 94.9119Z" fill="#D2D2D2"/>
<path d="M274.942 126.958L272.173 129.724L276.28 133.835L279.048 131.07L274.942 126.958Z" fill="#D2D2D2"/>
<path d="M242.915 94.9102L241.531 96.2925L245.636 100.405L247.021 99.0225L242.915 94.9102Z" fill="#DCDCDC"/>
<path d="M274.934 126.957L273.55 128.339L277.656 132.451L279.04 131.068L274.934 126.957Z" fill="#DCDCDC"/>
<path d="M97.417 276.833L101.33 258.739H104.567L108.465 276.833H104.861L104.111 272.964H101.742L101.036 276.833H97.417ZM102.007 270.714H103.875L102.963 263.991L102.007 270.714Z" fill="white"/>
<path d="M109.568 270.11V258.739H113.231V270.007C113.231 273.053 113.231 274.377 114.85 274.377C116.483 274.377 116.468 273.053 116.468 270.007V258.739H120.131V270.11C120.131 273.847 119.454 277.186 114.85 277.186C110.26 277.186 109.568 273.847 109.568 270.11Z" fill="white"/>
<path d="M123.956 276.833V261.46H121.308V258.724H130.223V261.46H127.619V276.833H123.956Z" fill="white"/>
<path d="M131.047 270.89V264.8C131.047 261.21 132.297 258.386 136.343 258.386C140.373 258.386 141.639 261.21 141.639 264.8V270.787C141.639 274.274 140.344 277.187 136.343 277.187C132.356 277.187 131.047 274.377 131.047 270.89ZM137.976 271.714V263.888C137.976 262.726 137.74 261.21 136.343 261.21C134.96 261.21 134.71 262.755 134.71 263.888V271.714C134.71 272.861 134.945 274.377 136.343 274.377C137.755 274.377 137.976 272.876 137.976 271.714Z" fill="white"/>
<path d="M146.361 276.833V258.739H150.745L152.672 270.802L154.761 258.739H158.998V276.833H156.306L156.232 264.108C155.644 268.021 154.717 272.935 154.114 276.833H151.377L149.156 264.02L149.082 276.833H146.361Z" fill="white"/>
<path d="M161.146 276.833V258.739H168.692V261.254H164.794V266.183H167.545V268.757H164.794V274.333H168.692V276.848H161.146V276.833Z" fill="white"/>
<path d="M169.854 270.802V264.8C169.854 261.225 171.076 258.386 175.106 258.386C178.858 258.386 180.182 260.931 180.182 264.417V265.977H176.577V264.314C176.577 262.961 176.489 261.21 175.106 261.21C173.724 261.21 173.518 262.77 173.518 263.888V271.699C173.518 272.832 173.724 274.362 175.106 274.362C176.445 274.362 176.622 272.656 176.607 271.258V269.404H180.182L180.167 270.934C180.123 274.185 179.034 277.201 175.092 277.201C171.076 277.187 169.854 274.288 169.854 270.802Z" fill="white"/>
<path d="M181.888 276.833V258.739H185.551V266.153H188.17V258.739H191.848V276.833H188.17V268.757H185.551V276.833H181.888Z" fill="white"/>
<path d="M193.113 276.833L197.026 258.739H200.262L204.161 276.833H200.557L199.806 272.964H197.438L196.732 276.833H193.113ZM197.703 270.714H199.571L198.659 263.991L197.703 270.714Z" fill="white"/>
<path d="M205.426 276.833V258.724H208.059L212.031 268.198V258.724H215.062V276.833H212.531L208.574 266.786V276.833H205.426Z" fill="white"/>
<path d="M217.209 276.833V258.739H220.873V276.833H217.209Z" fill="white"/>
<path d="M222.8 270.802V264.8C222.8 261.225 224.021 258.386 228.052 258.386C231.803 258.386 233.127 260.931 233.127 264.417V265.977H229.523V264.314C229.523 262.961 229.435 261.21 228.052 261.21C226.669 261.21 226.463 262.77 226.463 263.888V271.699C226.463 272.832 226.669 274.362 228.052 274.362C229.39 274.362 229.567 272.656 229.552 271.258V269.404H233.127L233.112 270.934C233.068 274.185 231.98 277.201 228.037 277.201C224.021 277.187 222.8 274.288 222.8 270.802Z" fill="white"/>
</svg>
