<svg width="361" height="361" viewBox="0 0 361 361" fill="none" xmlns="http://www.w3.org/2000/svg">
<g filter="url(#filter0_d_10_21176)">
<path d="M15 177.5C15 268.903 89.0969 343 180.5 343C271.903 343 346 268.903 346 177.5C346 86.0969 271.903 12 180.5 12C89.0969 12 15 86.0969 15 177.5Z" fill="#FAA944"/>
<path d="M158.639 65.5339C158.639 65.2544 158.669 65.0043 158.728 64.7395H156.594V66.3283H158.728C158.683 66.0635 158.639 65.7987 158.639 65.5339Z" fill="#FFB400"/>
<path d="M208.554 53.9858C208.554 53.9416 208.554 53.8828 208.554 53.8387C208.569 53.5003 208.584 53.2649 208.584 53.2649C208.584 53.2649 208.569 53.0443 208.554 52.7059C208.554 52.6471 208.554 52.6029 208.554 52.5441C208.687 52.5147 208.848 52.4705 208.995 52.4411C209.569 52.294 210.143 52.1175 210.143 52.1175C210.143 52.1175 210.114 51.9851 210.099 51.7938C210.084 51.6908 210.069 51.5879 210.04 51.4555C210.011 51.3378 209.981 51.2054 209.952 51.073C209.878 50.8229 209.834 50.5581 209.746 50.3816C209.687 50.205 209.628 50.0726 209.628 50.0726C209.628 50.0726 209.04 50.1903 208.466 50.3227C208.319 50.3521 208.157 50.3963 208.025 50.4404C207.995 50.3816 207.98 50.3374 207.966 50.2933C207.819 49.9844 207.716 49.7784 207.716 49.7784C207.716 49.7784 207.686 49.7343 207.642 49.646C207.583 49.5724 207.51 49.44 207.421 49.2929C207.392 49.2488 207.363 49.2047 207.348 49.1605C207.466 49.0576 207.569 48.9546 207.686 48.8516C208.128 48.4544 208.554 48.0425 208.554 48.0425C208.554 48.0425 208.481 47.9395 208.348 47.7777C208.23 47.6306 208.069 47.4099 207.892 47.2187C207.554 46.8215 207.142 46.4684 207.142 46.4684C207.142 46.4684 206.671 46.8509 206.215 47.2334C206.097 47.3364 205.98 47.4393 205.877 47.5423C205.833 47.5129 205.788 47.4688 205.759 47.4393C205.48 47.2334 205.303 47.101 205.303 47.101C205.303 47.101 205.259 47.0568 205.171 47.0127C205.097 46.9539 204.965 46.8803 204.818 46.792C204.773 46.7626 204.729 46.7332 204.685 46.7185C204.744 46.5861 204.803 46.439 204.847 46.2919C205.053 45.7328 205.244 45.1738 205.244 45.1738C205.244 45.1738 205.126 45.115 204.95 45.0267C204.862 44.9826 204.759 44.9384 204.641 44.8943C204.523 44.8355 204.406 44.806 204.273 44.7472C203.788 44.5412 203.258 44.4383 203.258 44.4383C203.258 44.4383 203.023 44.9826 202.817 45.5416C202.758 45.6887 202.699 45.8358 202.655 45.9682C202.596 45.9535 202.552 45.9388 202.508 45.9388C202.17 45.88 201.949 45.8505 201.949 45.8505C201.949 45.8505 201.89 45.8358 201.787 45.8211C201.684 45.8064 201.552 45.8064 201.375 45.7917C201.331 45.7917 201.272 45.7917 201.213 45.777C201.199 45.6299 201.184 45.4828 201.169 45.3356C201.125 45.0414 201.096 44.7325 201.051 44.5118C201.022 44.2912 200.993 44.144 200.993 44.144C200.993 44.144 200.86 44.1588 200.669 44.1588C200.478 44.1735 200.213 44.1735 199.948 44.2176C199.698 44.2617 199.433 44.2912 199.227 44.3353C199.036 44.3794 198.904 44.4088 198.904 44.4088C198.904 44.4088 198.948 45.012 199.021 45.6004C199.036 45.7476 199.065 45.9094 199.08 46.0565C199.036 46.0712 198.977 46.0859 198.933 46.1006C198.771 46.1448 198.639 46.2036 198.536 46.233C198.448 46.2624 198.389 46.2919 198.389 46.2919C198.389 46.2919 198.33 46.3066 198.242 46.336C198.139 46.3654 198.021 46.439 197.874 46.5125C197.83 46.5272 197.771 46.5567 197.727 46.5714C197.653 46.4537 197.565 46.3213 197.477 46.1889C197.138 45.7034 196.771 45.218 196.771 45.218C196.771 45.218 196.741 45.2327 196.697 45.2621C196.653 45.2915 196.579 45.3356 196.491 45.3798C196.314 45.4975 196.094 45.6152 195.873 45.777C195.653 45.9388 195.447 46.0859 195.285 46.2036C195.138 46.3213 195.035 46.4243 195.035 46.4243C195.035 46.4243 195.358 46.9392 195.697 47.4393C195.785 47.5717 195.873 47.6894 195.947 47.8071C195.903 47.8512 195.873 47.8807 195.829 47.9101C195.697 48.0278 195.608 48.1455 195.535 48.219C195.476 48.2926 195.432 48.3367 195.432 48.3367C195.432 48.3367 195.388 48.3808 195.329 48.4544C195.255 48.528 195.182 48.6456 195.079 48.778C195.049 48.8075 195.02 48.8516 194.991 48.8957C194.858 48.8369 194.726 48.7633 194.579 48.6898C194.049 48.4103 193.505 48.1602 193.505 48.1602C193.505 48.1602 193.49 48.1896 193.461 48.2337C193.431 48.2779 193.387 48.3514 193.328 48.4397C193.24 48.6015 193.078 48.8369 192.975 49.0576C192.902 49.2194 192.813 49.3812 192.754 49.5283C192.71 49.6019 192.696 49.6607 192.651 49.7196C192.578 49.9108 192.534 50.0285 192.534 50.0285C192.534 50.0285 193.049 50.3374 193.578 50.6169C193.711 50.6905 193.843 50.764 193.99 50.8229C193.961 50.8817 193.946 50.9259 193.931 50.97C193.872 51.1318 193.843 51.2642 193.814 51.3672C193.784 51.4702 193.784 51.5143 193.784 51.5143C193.784 51.5143 193.769 51.5732 193.74 51.6614C193.711 51.7497 193.681 51.8968 193.667 52.0586C193.667 52.1028 193.652 52.1616 193.637 52.2204C193.49 52.2204 193.343 52.2057 193.196 52.2204C192.593 52.2204 191.989 52.2499 191.989 52.2499C191.989 52.2499 191.975 52.3823 191.96 52.5735C191.945 52.7648 191.931 53.0443 191.916 53.2944C191.931 53.5003 191.931 53.6916 191.945 53.8681L192.622 54.383C192.799 54.3977 193.005 54.3977 193.196 54.3977H193.637C193.637 54.4418 193.667 54.5007 193.667 54.5448C193.696 54.7066 193.711 54.8537 193.74 54.9567C193.769 55.0597 193.784 55.1038 193.784 55.1038C193.784 55.1038 193.784 55.1627 193.828 55.2509C193.828 55.2656 193.843 55.2804 193.843 55.2804L196.02 56.928C195.873 56.722 195.711 56.4572 195.55 56.1777C195.476 56.0159 195.388 55.8394 195.314 55.6776C195.255 55.5157 195.196 55.3539 195.152 55.2362C195.093 55.1038 195.093 54.9861 195.064 54.9126C195.035 54.839 195.035 54.7802 195.035 54.7802C195.035 54.7802 195.02 54.736 195.005 54.6625C194.976 54.5889 194.961 54.4565 194.946 54.3241C194.932 54.177 194.888 54.0152 194.888 53.8387C194.873 53.6621 194.858 53.4856 194.858 53.2796C194.873 53.0884 194.888 52.8972 194.888 52.7206C194.902 52.5441 194.932 52.3823 194.946 52.2499C194.961 52.1028 194.976 51.9998 195.005 51.9115C195.02 51.838 195.035 51.7791 195.035 51.7791C195.035 51.7791 195.035 51.735 195.064 51.6614C195.093 51.5879 195.093 51.4555 195.152 51.3378C195.152 51.3231 195.152 51.3084 195.152 51.3084C195.196 51.176 195.255 51.0436 195.314 50.8817C195.388 50.7199 195.461 50.5581 195.55 50.3816C195.726 50.0579 195.932 49.7343 196.109 49.5136C196.197 49.3959 196.256 49.3076 196.315 49.2488C196.373 49.19 196.403 49.1458 196.403 49.1458C196.403 49.1458 196.432 49.1164 196.491 49.0428C196.55 48.984 196.623 48.8957 196.726 48.8075C196.829 48.7045 196.947 48.6015 197.079 48.4838C197.227 48.3808 197.374 48.2632 197.521 48.1455C197.83 47.9395 198.153 47.7483 198.418 47.6453C198.551 47.5864 198.654 47.5276 198.727 47.5129C198.801 47.4835 198.845 47.4688 198.845 47.4688C198.845 47.4688 198.889 47.454 198.962 47.4246C199.036 47.4099 199.154 47.3511 199.286 47.3216C199.419 47.2922 199.58 47.2481 199.757 47.204C199.919 47.1745 200.11 47.1451 200.301 47.1157C200.478 47.0863 200.684 47.0863 200.86 47.0716C201.037 47.0568 201.199 47.0716 201.346 47.0863C201.478 47.101 201.596 47.101 201.684 47.101C201.758 47.1157 201.802 47.1157 201.802 47.1157C201.802 47.1157 201.993 47.1451 202.272 47.1892C202.537 47.2481 202.92 47.3364 203.258 47.4835C203.435 47.5423 203.596 47.6306 203.758 47.7041C203.832 47.7483 203.92 47.7777 203.994 47.8218C204.067 47.866 204.126 47.8954 204.185 47.9395C204.303 47.9984 204.406 48.0719 204.479 48.1013C204.553 48.1455 204.582 48.1749 204.582 48.1749C204.582 48.1749 204.729 48.2926 204.965 48.4691C205.185 48.6456 205.465 48.8957 205.715 49.1752C205.847 49.3076 205.95 49.4695 206.053 49.6019C206.112 49.6754 206.156 49.7343 206.2 49.8078C206.245 49.8814 206.274 49.9402 206.318 50.0138C206.392 50.1315 206.45 50.2344 206.495 50.308C206.539 50.3816 206.553 50.4257 206.553 50.4257C206.553 50.4257 206.627 50.5875 206.759 50.8523C206.862 51.1171 207.009 51.4555 207.083 51.8232C207.098 51.9262 207.127 52.0145 207.142 52.088C207.157 52.191 207.171 52.2793 207.186 52.3528C207.215 52.5294 207.245 52.6912 207.245 52.8383C207.26 53.1178 207.274 53.3091 207.274 53.3091C207.274 53.3091 207.26 53.5003 207.245 53.7798C207.245 53.9269 207.215 54.0888 207.186 54.2653C207.171 54.3536 207.157 54.4418 207.142 54.5301C207.127 54.6331 207.098 54.7213 207.083 54.7949C207.009 55.1627 206.862 55.5157 206.759 55.7805C206.642 56.0306 206.553 56.1924 206.553 56.1924C206.553 56.1924 206.539 56.2366 206.495 56.3101C206.45 56.369 206.392 56.472 206.318 56.6044C206.274 56.6632 206.245 56.722 206.2 56.7956C206.156 56.8544 206.112 56.928 206.053 57.0016C205.95 57.1487 205.847 57.3105 205.715 57.4282C205.48 57.7224 205.185 57.9578 204.965 58.149C204.744 58.3108 204.582 58.4285 204.582 58.4285C204.582 58.4285 204.582 58.4285 204.582 58.4432C204.567 58.458 204.538 58.4874 204.479 58.5021C204.406 58.5462 204.303 58.6051 204.185 58.6786C204.126 58.7228 204.067 58.7522 203.994 58.7963C203.92 58.8404 203.847 58.8699 203.758 58.914C203.596 58.9876 203.435 59.0758 203.258 59.1347C202.92 59.2818 202.537 59.3553 202.272 59.4289C201.993 59.473 201.802 59.4877 201.802 59.4877C201.802 59.4877 201.758 59.5024 201.684 59.5172C201.596 59.5172 201.478 59.5172 201.346 59.5319C201.199 59.5466 201.037 59.5613 200.86 59.5319C200.684 59.5172 200.492 59.5319 200.301 59.4877C200.125 59.4583 199.933 59.4436 199.757 59.4142C199.58 59.37 199.433 59.3259 199.286 59.2965C199.139 59.2671 199.036 59.2082 198.962 59.1788L201.213 60.8853C201.213 60.8559 201.213 60.8412 201.213 60.8264C201.272 60.8264 201.331 60.8117 201.375 60.8117C201.537 60.797 201.684 60.797 201.787 60.797C201.89 60.7823 201.949 60.7676 201.949 60.7676C201.949 60.7676 202.17 60.7382 202.508 60.6793C202.552 60.6646 202.611 60.6499 202.655 60.6499C202.699 60.7823 202.758 60.9294 202.817 61.0765C203.023 61.6356 203.273 62.1799 203.273 62.1799C203.273 62.1799 203.788 62.0622 204.273 61.8709C204.406 61.8268 204.523 61.7827 204.641 61.7238C204.759 61.665 204.862 61.6208 204.95 61.5767C205.126 61.4884 205.244 61.4296 205.244 61.4296C205.244 61.4296 205.068 60.8559 204.847 60.2968C204.788 60.1497 204.729 60.0026 204.685 59.8702C204.729 59.8408 204.773 59.8114 204.818 59.782C204.965 59.7084 205.082 59.6201 205.171 59.576C205.259 59.5319 205.303 59.4877 205.303 59.4877C205.303 59.4877 205.435 59.3848 205.641 59.2376C205.671 59.2082 205.715 59.1788 205.759 59.1494C205.788 59.12 205.833 59.0758 205.877 59.0464C205.98 59.1494 206.097 59.2524 206.215 59.3406C206.656 59.7378 207.142 60.1056 207.142 60.1056C207.142 60.1056 207.539 59.7672 207.892 59.3553C208.069 59.1641 208.23 58.9581 208.348 58.7963C208.466 58.6345 208.554 58.5315 208.554 58.5315C208.554 58.5315 208.128 58.1049 207.686 57.7077C207.569 57.59 207.451 57.5017 207.348 57.3988C207.377 57.3546 207.407 57.2958 207.421 57.2664C207.51 57.1192 207.583 57.0016 207.642 56.9133C207.686 56.825 207.716 56.7809 207.716 56.7809C207.716 56.7809 207.819 56.5749 207.966 56.266C207.98 56.2219 207.995 56.163 208.025 56.1189C208.157 56.163 208.319 56.1924 208.466 56.2366C209.04 56.369 209.628 56.4867 209.628 56.4867C209.628 56.4867 209.672 56.369 209.746 56.1777C209.819 56.0012 209.878 55.7364 209.952 55.4716C209.981 55.3392 210.011 55.2215 210.04 55.0891C210.069 54.9714 210.084 54.8537 210.099 54.7508C210.128 54.5595 210.143 54.4271 210.143 54.4271C210.143 54.4271 209.569 54.2506 208.995 54.1035C208.834 54.0593 208.687 54.0299 208.554 53.9858Z" fill="#FFB400"/>
<path d="M189.488 52.0878C189.385 52.4114 189.077 52.6321 188.738 52.6321H183.163C182.824 52.6321 182.515 52.4114 182.412 52.0878L180.544 46.2622C180.471 46.0268 180.515 45.762 180.662 45.5561C180.809 45.3501 181.044 45.2324 181.309 45.2324H190.621C190.871 45.2324 191.107 45.3501 191.269 45.5561C191.416 45.762 191.46 46.0268 191.386 46.2622L189.488 52.0878Z" fill="#FFB400"/>
<path d="M162.243 62.7239C160.699 62.7239 159.434 63.9743 159.434 65.5337C159.434 67.0784 160.684 68.3435 162.243 68.3435C163.788 68.3435 165.053 67.0931 165.053 65.5337C165.053 63.9743 163.803 62.7239 162.243 62.7239ZM162.243 66.8871C161.493 66.8871 160.89 66.284 160.89 65.5337C160.89 64.7834 161.493 64.1803 162.243 64.1803C162.994 64.1803 163.597 64.7834 163.597 65.5337C163.597 66.284 162.994 66.8871 162.243 66.8871Z" fill="#FFB400"/>
<path d="M194.755 88.2627H177.131L182.442 80.6865C182.589 80.4805 182.839 80.3481 183.089 80.3481H188.797C189.062 80.3481 189.297 80.4805 189.444 80.6865L194.755 88.2627Z" fill="#FFB400"/>
<path d="M181.78 80.2303C181.986 79.9361 182.28 79.7302 182.618 79.6272L165.686 66.5637C165.259 67.9613 164.009 69.0058 162.494 69.1087L180.073 82.6724L181.78 80.2303Z" fill="#FFB400"/>
<path d="M206.2 66.5637L189.268 79.6272C189.606 79.7302 189.9 79.9361 190.106 80.2303L191.813 82.6724L209.393 69.1087C207.877 69.0058 206.627 67.976 206.2 66.5637Z" fill="#FFB400"/>
<path d="M209.643 62.7239C208.098 62.7239 206.833 63.9743 206.833 65.5337C206.833 67.0784 208.083 68.3435 209.643 68.3435C211.187 68.3435 212.453 67.0931 212.453 65.5337C212.438 63.9743 211.187 62.7239 209.643 62.7239ZM209.643 66.8871C208.892 66.8871 208.289 66.284 208.289 65.5337C208.289 64.7834 208.892 64.1803 209.643 64.1803C210.393 64.1803 210.996 64.7834 210.996 65.5337C210.996 66.284 210.393 66.8871 209.643 66.8871Z" fill="#FFB400"/>
<path d="M217.248 65.5339C217.248 66.6225 216.366 67.4905 215.292 67.4905C214.203 67.4905 213.335 66.6078 213.335 65.5339C213.335 64.4453 214.218 63.5773 215.292 63.5773C216.366 63.5626 217.248 64.4453 217.248 65.5339Z" fill="#FFB400"/>
<path d="M165.701 64.5334L181.721 52.4703C181.706 52.4262 181.662 52.382 181.648 52.3232L180.412 48.4983L162.552 61.9442C164.053 62.0766 165.289 63.1358 165.701 64.5334Z" fill="#FFB400"/>
<path d="M209.334 61.959L205.671 59.208L204.597 58.4136L195.167 51.3229L192.754 49.5134L191.46 48.5425L190.224 52.3674C190.209 52.4262 190.18 52.4703 190.151 52.5145L191.945 53.8679L192.622 54.3828L193.828 55.2802L196.006 56.9278L198.948 59.1492C198.963 59.1492 198.963 59.1639 198.963 59.1639L201.213 60.8704L206.142 64.5776C206.598 63.1359 207.833 62.0767 209.334 61.959Z" fill="#FFB400"/>
<path d="M206.127 66.3283C206.068 66.0782 206.038 65.8134 206.038 65.5339C206.038 65.2544 206.068 65.0043 206.127 64.7395H165.759C165.818 64.9896 165.848 65.2544 165.848 65.5339C165.848 65.8134 165.818 66.0635 165.759 66.3283H206.127Z" fill="#FFB400"/>
<path d="M213.144 64.7395C213.203 64.9896 213.232 65.2544 213.232 65.5339C213.232 65.8134 213.203 66.0635 213.144 66.3283H215.277V64.7395H213.144Z" fill="#FFB400"/>
<path d="M268.531 196.61L268.267 195.168C269.62 194.918 270.973 194.492 272.283 193.888L272.901 195.227C271.474 195.874 270.003 196.345 268.531 196.61ZM276.814 192.903L275.931 191.726C277.034 190.917 278.108 189.96 279.153 188.887L280.212 189.916C279.109 191.034 277.976 192.035 276.814 192.903ZM283.14 186.489L281.963 185.606C282.801 184.503 283.625 183.282 284.39 182.016L285.64 182.781C284.846 184.091 284.007 185.341 283.14 186.489ZM287.803 178.839L286.479 178.192C287.112 176.912 287.715 175.573 288.259 174.22L289.627 174.764C289.083 176.147 288.465 177.53 287.803 178.839ZM291.128 170.542L289.73 170.115C290.157 168.732 290.525 167.32 290.833 165.908L292.275 166.217C291.937 167.673 291.569 169.13 291.128 170.542ZM293.025 161.803L291.569 161.612C291.76 160.185 291.878 158.729 291.951 157.272L293.423 157.346C293.349 158.832 293.217 160.332 293.025 161.803ZM291.996 152.918C291.951 151.476 291.863 150.02 291.701 148.563L293.158 148.416C293.305 149.902 293.408 151.403 293.452 152.874L291.996 152.918ZM291.113 144.253C290.878 142.841 290.583 141.399 290.245 139.972L291.672 139.634C292.01 141.09 292.319 142.561 292.555 144.003L291.113 144.253ZM289.127 135.75L288.95 135.132C288.671 134.191 288.23 133.161 287.553 131.778L288.862 131.116C289.583 132.572 290.054 133.676 290.363 134.706L290.554 135.338L289.127 135.75ZM285.508 127.85C284.92 126.688 284.199 125.158 283.787 123.628L285.199 123.246C285.582 124.643 286.258 126.085 286.817 127.188L285.508 127.85Z" fill="white"/>
<path d="M139.54 153.665C150.742 142.462 150.742 124.299 139.54 113.096C128.337 101.894 110.174 101.894 98.971 113.096C87.7683 124.299 87.7683 142.462 98.971 153.665C110.174 164.868 128.337 164.868 139.54 153.665Z" fill="#FFE600"/>
<path d="M89.3206 122.539L88.2761 121.495C88.8057 120.965 89.35 120.45 89.8944 119.95L90.88 121.039C90.3504 121.524 89.8355 122.024 89.3206 122.539Z" fill="white"/>
<path d="M90.1591 208.879C89.0116 207.996 87.8789 207.01 86.8049 205.922L87.8494 204.877C88.8792 205.907 89.9679 206.863 91.0565 207.702L90.1591 208.879ZM83.8333 202.597C82.9506 201.494 82.0827 200.331 81.2 199.022L82.421 198.198C83.289 199.478 84.1275 200.611 84.9808 201.685L83.8333 202.597ZM78.8168 195.3C78.4196 194.638 78.0224 193.976 77.6399 193.314C77.2868 192.711 76.9485 192.093 76.6102 191.461L77.9194 190.784C78.2284 191.387 78.5667 191.99 78.9051 192.579C79.2876 193.241 79.6848 193.903 80.082 194.55L78.8168 195.3ZM74.7271 187.43C74.1681 186.076 73.6679 184.679 73.2266 183.237L74.6389 182.796C75.0655 184.179 75.5657 185.547 76.0953 186.856L74.7271 187.43ZM72.0938 178.956C71.7849 177.529 71.5201 176.058 71.3141 174.587L72.7705 174.381C72.9765 175.808 73.2266 177.25 73.5355 178.633L72.0938 178.956ZM70.8581 170.174C70.7698 168.835 70.7257 167.467 70.7257 166.113V165.746H72.1968V166.128C72.1968 167.452 72.2409 168.776 72.3292 170.085L70.8581 170.174ZM72.3733 161.421L70.9022 161.318C71.0052 159.861 71.167 158.375 71.373 156.919L72.8294 157.125C72.6234 158.552 72.4763 159.994 72.3733 161.421ZM73.5797 152.844L72.138 152.55C72.4322 151.108 72.7852 149.666 73.1824 148.239L74.5947 148.637C74.2122 150.019 73.8739 151.432 73.5797 152.844ZM75.8893 144.503L74.5065 144.017C74.9919 142.62 75.5362 141.222 76.11 139.883L77.4634 140.457C76.9044 141.766 76.3748 143.135 75.8893 144.503ZM79.2876 136.529L77.9783 135.867C78.655 134.558 79.3758 133.249 80.1261 131.998L81.3913 132.763C80.6557 133.984 79.9496 135.249 79.2876 136.529ZM83.7597 129.144L82.5681 128.291C83.4361 127.085 84.3482 125.893 85.2897 124.775L86.4224 125.717C85.4956 126.805 84.5983 127.967 83.7597 129.144Z" fill="white"/>
<path d="M95.97 212.365C95.2786 212.041 94.6019 211.703 93.9546 211.35L94.6607 210.055C95.2786 210.394 95.9258 210.717 96.5878 211.026L95.97 212.365Z" fill="white"/>
<path d="M121.803 246.966C121.832 246.833 121.847 246.686 121.876 246.569C121.95 246.127 121.935 245.759 121.95 245.495C121.965 245.23 121.965 245.083 121.965 245.083C121.965 245.083 121.965 244.936 121.95 244.686C121.921 244.435 121.95 244.068 121.876 243.612C121.862 243.479 121.832 243.347 121.803 243.214C122.185 243.097 122.582 242.979 122.98 242.847C124.51 242.361 126.01 241.743 126.01 241.743C126.01 241.743 125.922 241.376 125.775 240.802C125.657 240.228 125.378 239.507 125.098 238.786C124.51 237.345 123.642 236.065 123.642 236.065C123.642 236.065 122.156 236.683 120.729 237.433C120.361 237.624 119.993 237.83 119.64 238.007C119.567 237.889 119.478 237.771 119.405 237.668C119.155 237.301 118.875 237.051 118.713 236.859C118.537 236.668 118.434 236.55 118.434 236.55C118.434 236.55 118.316 236.462 118.125 236.286C117.919 236.124 117.684 235.844 117.316 235.579C117.213 235.506 117.095 235.418 116.992 235.329C117.183 234.991 117.375 234.623 117.566 234.255C118.302 232.814 118.934 231.328 118.934 231.328C118.934 231.328 117.64 230.475 116.213 229.886C115.492 229.621 114.771 229.342 114.197 229.209C113.638 229.062 113.256 228.974 113.256 228.974C113.256 228.974 112.638 230.475 112.152 232.019C112.02 232.417 111.902 232.814 111.799 233.181C111.667 233.152 111.52 233.137 111.387 233.123C110.946 233.049 110.578 233.064 110.313 233.049C110.063 233.034 109.916 233.034 109.916 233.034C109.916 233.034 109.769 233.049 109.504 233.049C109.24 233.079 108.872 233.049 108.43 233.123C108.313 233.137 108.166 233.167 108.033 233.181C107.93 232.799 107.798 232.402 107.665 232.019C107.18 230.475 106.562 228.974 106.562 228.974C106.562 228.974 106.18 229.062 105.621 229.209C105.062 229.342 104.326 229.621 103.605 229.886C102.178 230.475 100.884 231.328 100.884 231.328C100.884 231.328 101.501 232.799 102.252 234.255C102.443 234.623 102.634 234.991 102.825 235.329C102.723 235.418 102.605 235.491 102.502 235.579C102.134 235.829 101.884 236.124 101.693 236.286C101.501 236.462 101.384 236.55 101.384 236.55C101.384 236.55 101.281 236.668 101.104 236.859C100.942 237.065 100.663 237.301 100.398 237.668C100.325 237.771 100.236 237.889 100.163 238.007C99.8244 237.83 99.4566 237.624 99.0889 237.433C97.6472 236.683 96.1614 236.065 96.1614 236.065C96.1614 236.065 95.3081 237.359 94.7049 238.786C94.4401 239.507 94.1606 240.228 94.0282 240.802C93.8811 241.361 93.7928 241.743 93.7928 241.743C93.7928 241.743 95.3081 242.361 96.8381 242.847C97.2353 242.979 97.6325 243.097 98.0002 243.214C97.9708 243.347 97.9561 243.479 97.9414 243.612C97.8678 244.053 97.8825 244.421 97.8678 244.686C97.8531 244.936 97.8531 245.083 97.8531 245.083C97.8531 245.083 97.8678 245.23 97.8678 245.495C97.8972 245.745 97.8825 246.113 97.9414 246.569C97.9561 246.686 97.9855 246.833 98.0002 246.966C97.6325 247.069 97.2353 247.201 96.8381 247.319C95.3081 247.819 93.7928 248.422 93.7928 248.422C93.7928 248.422 93.8811 248.79 94.0282 249.349C94.1459 249.923 94.4401 250.644 94.7049 251.364C95.3081 252.791 96.1614 254.086 96.1614 254.086C96.1614 254.086 97.6472 253.468 99.0889 252.718C99.4566 252.527 99.8244 252.335 100.163 252.144C100.251 252.262 100.325 252.365 100.398 252.482C100.648 252.85 100.942 253.1 101.104 253.292C101.281 253.483 101.384 253.586 101.384 253.586C101.384 253.586 101.487 253.689 101.693 253.865C101.884 254.027 102.134 254.307 102.502 254.557C102.605 254.645 102.723 254.719 102.825 254.792C102.634 255.13 102.443 255.513 102.252 255.881C101.516 257.322 100.884 258.794 100.884 258.794C100.884 258.794 102.178 259.647 103.605 260.25C104.326 260.515 105.047 260.809 105.621 260.927C106.18 261.059 106.562 261.162 106.562 261.162C106.562 261.162 107.165 259.661 107.665 258.117C107.798 257.72 107.916 257.322 108.033 256.955C108.166 256.969 108.313 256.999 108.43 257.013C108.872 257.087 109.24 257.072 109.504 257.087C109.754 257.102 109.916 257.116 109.916 257.116C109.916 257.116 110.063 257.102 110.313 257.087C110.578 257.072 110.946 257.087 111.387 257.013C111.52 256.999 111.652 256.969 111.799 256.955C111.902 257.322 112.02 257.72 112.152 258.117C112.638 259.661 113.256 261.162 113.256 261.162C113.256 261.162 113.638 261.074 114.197 260.927C114.771 260.809 115.492 260.515 116.213 260.25C117.64 259.647 118.934 258.794 118.934 258.808C118.934 258.808 118.302 257.322 117.566 255.881C117.375 255.513 117.183 255.145 116.992 254.792C117.095 254.719 117.228 254.63 117.316 254.557C117.684 254.307 117.919 254.012 118.125 253.865C118.316 253.689 118.434 253.586 118.434 253.586C118.434 253.586 118.537 253.483 118.713 253.292C118.875 253.086 119.155 252.85 119.405 252.482C119.478 252.379 119.567 252.262 119.64 252.144C119.979 252.335 120.346 252.527 120.729 252.718C122.171 253.453 123.642 254.086 123.642 254.086C123.642 254.086 124.495 252.791 125.098 251.364C125.363 250.644 125.657 249.923 125.775 249.349C125.922 248.79 126.01 248.422 126.01 248.422C126.01 248.422 124.51 247.804 122.98 247.319C122.582 247.201 122.185 247.083 121.803 246.966ZM115.786 251.35C115.639 251.467 115.477 251.673 115.212 251.85C114.727 252.262 113.991 252.674 113.226 253.027C112.447 253.35 111.623 253.527 110.99 253.601C110.681 253.659 110.402 253.63 110.225 253.659C110.034 253.674 109.931 253.674 109.931 253.674C109.931 253.674 109.813 253.659 109.637 253.659C109.445 253.645 109.181 253.659 108.872 253.601C108.239 253.527 107.43 253.336 106.636 253.027C105.871 252.688 105.135 252.262 104.65 251.85C104.385 251.673 104.223 251.467 104.076 251.35C103.943 251.232 103.855 251.158 103.855 251.158C103.855 251.158 103.782 251.07 103.664 250.938C103.546 250.791 103.34 250.629 103.164 250.364C102.752 249.879 102.34 249.143 101.987 248.378C101.678 247.598 101.487 246.775 101.413 246.142C101.354 245.833 101.384 245.568 101.354 245.377C101.354 245.186 101.34 245.083 101.34 245.083C101.34 245.083 101.354 244.98 101.354 244.789C101.384 244.612 101.354 244.347 101.413 244.024C101.487 243.391 101.678 242.582 101.987 241.787C102.34 241.023 102.752 240.287 103.164 239.802C103.34 239.537 103.546 239.36 103.664 239.228C103.782 239.081 103.855 239.007 103.855 239.007C103.855 239.007 103.929 238.934 104.076 238.816C104.223 238.698 104.385 238.492 104.65 238.316C105.135 237.904 105.871 237.492 106.636 237.153C107.415 236.83 108.239 236.653 108.872 236.565C109.181 236.506 109.445 236.536 109.637 236.506C109.813 236.506 109.931 236.491 109.931 236.491C109.931 236.491 110.034 236.506 110.225 236.506C110.402 236.536 110.666 236.506 110.99 236.565C111.623 236.653 112.447 236.83 113.226 237.153C113.991 237.492 114.727 237.918 115.212 238.316C115.477 238.492 115.654 238.698 115.786 238.816C115.918 238.934 116.007 239.007 116.007 239.007C116.007 239.007 116.08 239.095 116.198 239.228C116.316 239.375 116.522 239.537 116.698 239.802C117.095 240.287 117.522 241.023 117.86 241.787C118.184 242.567 118.36 243.391 118.449 244.024C118.508 244.333 118.478 244.597 118.507 244.789C118.522 244.98 118.522 245.083 118.522 245.083C118.522 245.083 118.522 245.186 118.507 245.377C118.493 245.568 118.508 245.833 118.449 246.142C118.375 246.775 118.184 247.598 117.86 248.378C117.522 249.143 117.095 249.879 116.698 250.364C116.522 250.629 116.316 250.805 116.198 250.938C116.08 251.07 116.007 251.158 116.007 251.158C116.007 251.158 115.918 251.232 115.786 251.35Z" fill="white"/>
<path d="M91.0271 212.042V221.678H76.1983V214.572C76.1983 213.175 77.3311 212.042 78.7286 212.042H91.0271ZM94.8226 208.261H78.7139C75.2274 208.261 72.4028 211.086 72.4028 214.572V225.473H94.8226V208.261Z" fill="#505050"/>
<path d="M105.385 214.145C105.576 214.366 105.665 214.646 105.665 214.94V270.666C105.665 272.048 104.547 273.196 103.134 273.196H74.9331C73.5503 273.196 72.4028 272.063 72.4028 270.666V221.751C72.4028 220.78 72.9619 219.883 73.8445 219.471C76.9927 217.985 84.5248 214.293 89.0411 211.365C91.1595 209.982 92.6159 208.761 92.6159 208.026L92.6306 207.511L92.6453 206.304H101.707C101.707 206.304 101.707 206.981 101.707 207.511V208.026C101.693 209.482 104.473 213.027 105.385 214.145Z" fill="#505050"/>
<path d="M105.385 214.146C105.576 214.366 105.665 214.646 105.665 214.94V270.666C105.665 272.048 104.547 273.196 103.134 273.196H89.0411V211.35C91.1595 209.968 92.616 208.747 92.616 208.011L92.6307 207.496L92.6454 206.29H101.707C101.707 206.29 101.707 206.966 101.707 207.496V208.011C101.693 209.482 104.473 213.027 105.385 214.146Z" fill="#5A5A5A"/>
<path d="M103.311 205.643C103.311 205.996 103.031 206.275 102.678 206.275H91.6302C91.2772 206.275 90.9977 205.996 90.9977 205.643V200.273C90.9977 199.92 91.2772 199.64 91.6302 199.64H102.678C103.031 199.64 103.311 199.92 103.311 200.273V205.643Z" fill="#B4B4B4"/>
<path d="M99.8831 260.515C99.8831 261.206 99.3093 261.78 98.6179 261.78H79.464C78.7726 261.78 78.1989 261.206 78.1989 260.515V227.326C78.1989 226.635 78.7726 226.061 79.464 226.061H98.6179C99.3093 226.061 99.8831 226.635 99.8831 227.326V260.515Z" fill="#008CAA"/>
<path d="M98.6181 261.78C99.3095 261.78 99.8833 261.206 99.8833 260.515V227.326C99.8833 226.635 99.3095 226.061 98.6181 226.061H89.0411V261.78H98.6181Z" fill="#0096B4"/>
<path d="M95.1902 251.909C95.1902 255.307 92.4392 258.073 89.0263 258.073C85.6133 258.073 82.8623 255.322 82.8623 251.909C82.8623 248.511 89.0263 240.861 89.0263 240.861C89.0263 240.861 95.1902 248.511 95.1902 251.909Z" fill="#FFDC00"/>
<path d="M101.693 206.29C101.693 206.29 101.693 206.966 101.693 207.496H92.6158L92.6305 206.29H101.693Z" fill="#505050"/>
<path d="M89.0411 258.073C92.4394 258.073 95.2051 255.322 95.2051 251.909C95.2051 248.511 89.0411 240.861 89.0411 240.861V258.073Z" fill="#FFE600"/>
<path d="M88.3348 231.446V235.05C88.3348 237.051 87.614 238.345 85.5985 238.345C83.5684 238.345 82.8623 237.08 82.8623 235.05V231.446C82.8623 229.416 83.5684 228.209 85.5985 228.209C87.614 228.209 88.3348 229.445 88.3348 231.446ZM84.2598 231.093V235.418C84.2598 236.477 84.51 237.198 85.5839 237.198C86.6431 237.198 86.9079 236.492 86.9079 235.418V231.093C86.9079 230.033 86.6578 229.371 85.5839 229.371C84.5247 229.371 84.2598 230.033 84.2598 231.093Z" fill="white"/>
<path d="M91.0564 228.312V238.257H89.6294V228.312H91.0564Z" fill="white"/>
<path d="M92.5864 228.312H94.0134V237.198H96.4996V238.257H92.5864V228.312Z" fill="white"/>
<path d="M121.317 273.211H94.1605V249.158H119.066C120.317 249.158 121.332 250.173 121.332 251.424V273.211H121.317Z" fill="#C81E00"/>
<path d="M121.317 273.211L141.883 246.407H139.515L121.317 262.413V273.211Z" fill="#C81E00"/>
<path d="M99.8244 251.983V270.372H92.9249L90.1003 255.337C89.9385 254.513 90.1591 253.66 90.7035 253.013C91.2478 252.365 92.0422 251.997 92.8807 251.997H99.8244V251.983ZM102.649 249.158H92.866C91.1889 249.158 89.5854 249.908 88.5115 251.203C87.4376 252.498 86.9963 254.204 87.3052 255.866L90.5711 273.211H102.649V249.158Z" fill="#C81E00"/>
<path d="M121.317 251.424C121.317 250.173 120.302 249.158 119.052 249.158H107.739V273.211H121.317V251.424Z" fill="#DC3200"/>
<path d="M271.665 92.2052C271.665 103.533 262.485 112.698 251.172 112.698C239.845 112.698 230.665 103.518 230.665 92.2052C230.665 80.8924 239.845 71.7127 251.172 71.7127C262.5 71.698 271.665 80.8777 271.665 92.2052Z" fill="#FFC800"/>
<path d="M158.198 167.658C152.563 177.735 146.355 175.97 139.191 175.97C135.293 175.97 129.291 175.985 128.29 171.262C127.981 169.968 127.981 168.011 128.29 166.54C128.776 164.275 129.276 164.584 131.703 164.584C135.44 164.584 139.029 164.922 142.751 165.569C147.65 166.364 153.343 166.216 158.198 167.658Z" fill="white"/>
<path d="M159.801 192.799C158.727 196.492 157.756 201.626 153.858 202.935C151.475 203.803 145.988 203.612 143.384 203.612C139.044 203.612 134.91 203.435 130.556 203.435C126.657 203.435 126.01 202.141 126.878 198.242C127.746 195.418 127.201 192.74 130.114 191.667C132.836 190.652 152.122 191.122 159.801 192.799Z" fill="#960000"/>
<path d="M136.352 148.063C135.837 148.975 135.499 149.667 135.381 150.034C135.028 151.108 134.881 151.653 134.778 151.962C134.16 151.814 133.469 151.535 132.91 151.711C132.351 151.932 132.262 152.462 131.615 152.638C130.85 152.785 129.717 152.373 128.952 152.27C127.334 152.006 125.642 151.785 124.009 151.403C121.405 150.814 120.493 148.372 120.64 145.93C120.817 143.65 123.127 142.899 124.966 142.62C126.804 142.282 129.305 141.473 131.041 142.502C133.572 144.047 132.571 148.755 136.352 148.063Z" fill="#DC3200"/>
<path d="M259.366 166.172C259.234 163.892 253.923 159.008 252.393 157.493C251.393 156.507 247.862 153.491 246.671 152.726C245.964 152.285 245.817 152.285 245.655 151.844C245.538 151.535 245.391 151.005 245.038 149.916C244.92 149.549 244.582 148.872 244.067 147.96C241.007 142.443 232.121 128.688 231.371 127.938C230.488 127.07 228.546 125.334 225.781 124.849C223.03 124.363 195.402 122.936 190.195 122.936C185.002 122.936 157.374 124.437 154.608 124.922C151.843 125.422 149.901 127.144 149.033 128.012C148.297 128.777 139.412 142.531 136.381 148.063C135.866 148.975 135.528 149.666 135.41 150.034C135.057 151.108 134.91 151.652 134.807 151.961C134.69 152.256 133.983 152.741 133.704 152.903C133.645 152.962 133.601 152.962 133.601 152.962C132.836 153.477 129.747 155.58 128.084 157.346C125.569 160.008 121.229 164.024 121.126 166.305C121.023 168.585 120.052 170.203 120.273 174.764C120.376 176.985 120.979 183.664 121.597 190.048C122.214 196.727 122.847 203.068 122.906 203.568C123.009 204.539 122.685 205.627 123.112 206.495C123.553 207.363 124.642 207.584 126.363 207.584C126.893 207.584 132.659 207.658 140.559 207.761C159.404 207.981 190.298 208.378 190.298 208.378C190.298 208.378 222.177 207.908 240.918 207.643C248.362 207.525 253.747 207.452 254.232 207.452C255.953 207.452 257.042 207.231 257.483 206.363C257.91 205.495 257.586 204.406 257.689 203.435C257.763 202.759 258.881 191.314 259.602 182.855C259.94 179.147 260.19 176.014 260.249 174.616C260.44 170.056 259.469 168.438 259.366 166.172ZM248.73 164.48C251.172 164.466 251.658 164.157 252.158 166.422C252.481 167.893 252.467 169.835 252.172 171.13C251.187 175.852 245.185 175.867 241.286 175.867C234.137 175.882 227.914 177.662 222.279 167.585C227.134 166.128 232.827 166.275 237.711 165.466C241.404 164.819 245.008 164.48 248.73 164.48ZM150.43 128.674L190.195 126.864L229.959 128.585C229.959 128.585 244.287 150.902 243.199 150.902C242.169 150.902 206.318 148.901 190.209 149.254C174.115 148.931 138.264 151.005 137.235 151.005C136.146 151.005 150.43 128.674 150.43 128.674ZM128.305 166.54C128.79 164.275 129.291 164.583 131.718 164.583C135.454 164.583 139.044 164.922 142.766 165.569C147.65 166.363 153.343 166.216 158.213 167.658C152.578 177.735 146.37 175.97 139.206 175.97C135.307 175.97 129.305 175.985 128.305 171.262C127.996 169.968 127.996 168.026 128.305 166.54ZM153.858 202.935C151.475 203.803 145.988 203.612 143.384 203.612C142.413 203.612 141.471 203.597 140.53 203.597C138.235 203.568 135.955 203.509 133.66 203.48C132.63 203.465 131.6 203.45 130.57 203.45C126.672 203.45 126.025 202.156 126.893 198.257C127.761 195.433 127.216 192.755 130.129 191.681C131.188 191.284 134.719 191.122 139.118 191.166C139.574 191.152 140.059 191.166 140.53 191.181C141.986 191.211 143.516 191.255 145.076 191.314C146.002 191.358 146.929 191.402 147.856 191.461C148.194 191.475 148.533 191.505 148.856 191.519C149.371 191.549 149.857 191.578 150.357 191.622C150.842 191.667 151.343 191.696 151.813 191.74C152.313 191.784 152.784 191.828 153.255 191.873C153.961 191.931 154.638 192.02 155.285 192.079C155.726 192.137 156.153 192.181 156.565 192.255C156.903 192.299 157.242 192.343 157.551 192.402C157.698 192.432 157.86 192.461 158.021 192.49C158.227 192.505 158.419 192.549 158.625 192.593C158.698 192.608 158.786 192.608 158.86 192.623C158.992 192.652 159.125 192.682 159.242 192.682C159.448 192.741 159.64 192.77 159.846 192.814C158.727 196.492 157.757 201.626 153.858 202.935ZM209.01 201.317L171.511 201.347C170.982 201.347 165.553 201.891 164.156 197.992C162.729 194.094 160.566 187.783 159.801 184.664C158.992 181.354 156.33 175.705 172.262 176.058C180.485 176.235 186.428 176.235 190.239 176.176C194.064 176.22 200.007 176.22 208.216 176.029C224.148 175.646 221.5 181.31 220.691 184.605C219.926 187.724 217.778 194.035 216.366 197.934C214.968 201.832 209.54 201.317 209.01 201.317ZM249.966 203.332C246.876 203.332 243.905 203.435 240.874 203.48C239.639 203.509 238.403 203.524 237.138 203.524C234.549 203.524 229.047 203.73 226.663 202.862C222.765 201.567 221.779 196.433 220.705 192.741C220.97 192.682 221.264 192.623 221.559 192.579C221.956 192.49 222.368 192.432 222.794 192.358C223.074 192.329 223.383 192.27 223.677 192.226C223.765 192.211 223.868 192.196 223.971 192.196C224.368 192.152 224.78 192.093 225.207 192.034C225.236 192.034 225.281 192.02 225.325 192.02C225.751 191.976 226.163 191.931 226.605 191.873C227.664 191.77 228.782 191.652 229.959 191.578C230.282 191.564 230.606 191.534 230.93 191.505C232.71 191.372 234.549 191.255 236.314 191.211C236.785 191.181 237.255 191.166 237.726 191.137C238.064 191.122 238.403 191.122 238.726 191.122C239.124 191.108 239.521 191.108 239.903 191.093C240.242 191.078 240.565 191.078 240.874 191.078C245.523 191.005 249.304 191.166 250.392 191.564C253.305 192.638 252.776 195.315 253.644 198.139C254.526 202.023 253.864 203.318 249.966 203.332Z" fill="#DC3200"/>
<path d="M243.184 150.887C242.787 150.887 237.52 150.593 230.238 150.284C227.075 150.137 223.574 149.99 219.911 149.858C209.393 149.431 197.668 149.063 190.209 149.255C180.677 149.078 164.171 149.725 152.122 150.299C145.09 150.623 139.574 150.902 137.808 150.976C137.485 151.02 137.308 151.02 137.235 151.02C136.161 151.02 150.43 128.674 150.43 128.674L160.581 128.203L174.866 127.556L190.18 126.879L229.959 128.6C229.959 128.6 231.901 131.616 234.299 135.455C235.623 137.574 237.094 139.898 238.432 142.134C241.286 146.798 243.655 150.887 243.184 150.887Z" fill="#78DCF0"/>
<path d="M252.158 171.145C251.172 175.867 245.17 175.882 241.271 175.882C234.122 175.896 227.899 177.676 222.265 167.599C227.119 166.143 232.812 166.29 237.697 165.481C241.419 164.819 245.008 164.48 248.745 164.48C251.187 164.466 251.672 164.157 252.172 166.422C252.467 167.893 252.467 169.85 252.158 171.145Z" fill="white"/>
<path d="M249.966 203.333C245.611 203.333 241.492 203.524 237.138 203.524C234.549 203.524 229.047 203.73 226.663 202.862C222.765 201.567 221.779 196.433 220.705 192.741C228.385 191.064 247.656 190.549 250.378 191.549C253.291 192.623 252.761 195.3 253.629 198.125C254.526 202.023 253.864 203.318 249.966 203.333Z" fill="#960000"/>
<path d="M220.691 184.605C219.926 187.724 217.778 194.035 216.366 197.934C214.968 201.832 209.54 201.317 209.01 201.317L171.511 201.347C170.982 201.347 165.553 201.891 164.156 197.992C162.729 194.094 160.566 187.783 159.801 184.664C158.992 181.354 156.33 175.705 172.262 176.058C180.485 176.235 186.428 176.235 190.239 176.176C194.064 176.22 200.007 176.22 208.216 176.029C224.148 175.646 221.5 181.31 220.691 184.605Z" fill="#C81E00"/>
<path opacity="0.2" d="M252.378 157.493C251.378 156.507 247.847 153.491 246.656 152.726C245.95 152.285 245.802 152.285 245.641 151.844C245.523 151.535 245.376 151.005 245.023 149.916C244.905 149.549 244.567 148.872 244.052 147.96C240.992 142.443 232.106 128.688 231.356 127.938C230.474 127.07 228.532 125.334 225.766 124.849C223.015 124.378 195.549 122.936 190.239 122.936V126.864L229.944 128.585C229.944 128.585 244.273 150.902 243.184 150.902C242.154 150.902 206.362 148.901 190.224 149.254V208.364H190.253C190.253 208.364 222.132 207.893 240.874 207.628C248.318 207.51 253.702 207.437 254.188 207.437C255.909 207.437 256.998 207.216 257.439 206.348C257.866 205.48 257.542 204.392 257.645 203.421C257.718 202.744 258.837 191.299 259.557 182.84C259.896 179.133 260.146 175.999 260.205 174.602C260.411 170.056 259.44 168.423 259.337 166.158C259.234 163.877 253.908 158.993 252.378 157.493ZM237.682 165.481C241.404 164.819 244.993 164.48 248.73 164.48C251.172 164.466 251.657 164.157 252.158 166.422C252.481 167.893 252.467 169.835 252.172 171.13C251.187 175.852 245.185 175.867 241.286 175.867C234.137 175.882 227.914 177.662 222.279 167.585C227.119 166.143 232.813 166.29 237.682 165.481ZM249.966 203.332C246.876 203.332 243.905 203.435 240.874 203.48C239.639 203.509 238.403 203.524 237.138 203.524C234.548 203.524 229.047 203.73 226.663 202.862C222.765 201.567 221.779 196.433 220.705 192.741C220.97 192.682 221.264 192.623 221.559 192.579C221.956 192.49 222.368 192.432 222.794 192.358C223.074 192.329 223.383 192.27 223.677 192.226C223.765 192.211 223.868 192.196 223.971 192.196C224.368 192.152 224.78 192.093 225.207 192.034C225.236 192.034 225.28 192.02 225.325 192.02C225.751 191.976 226.163 191.931 226.604 191.873C227.664 191.77 228.782 191.652 229.959 191.578C230.282 191.564 230.606 191.534 230.93 191.505C232.71 191.372 234.548 191.255 236.314 191.211C236.785 191.181 237.255 191.166 237.726 191.137C238.064 191.122 238.403 191.122 238.726 191.122C239.124 191.108 239.521 191.108 239.903 191.093C240.242 191.078 240.565 191.078 240.874 191.078C245.523 191.005 249.304 191.166 250.392 191.564C253.305 192.638 252.776 195.315 253.644 198.139C254.526 202.023 253.864 203.318 249.966 203.332Z" fill="#DC3200"/>
<path d="M140.53 207.746L140.545 217.97C140.545 218.676 139.971 219.265 139.25 219.279L122.891 219.294C122.17 219.294 121.597 218.706 121.597 217.999L121.567 190.063C122.185 196.742 122.818 203.082 122.877 203.582C122.98 204.553 122.656 205.642 123.083 206.51C123.524 207.378 124.612 207.599 126.334 207.599C126.863 207.569 132.63 207.643 140.53 207.746Z" fill="#323232"/>
<path d="M259.822 183.59L259.852 217.838C259.866 218.544 259.293 219.132 258.557 219.132L242.198 219.147C241.492 219.147 240.904 218.558 240.904 217.852L240.889 207.628C248.333 207.51 253.717 207.437 254.203 207.437C255.924 207.437 257.012 207.216 257.454 206.348C257.88 205.48 257.557 204.392 257.66 203.421C257.733 202.744 258.851 191.299 259.572 182.84C259.734 183.061 259.822 183.325 259.822 183.59Z" fill="#323232"/>
<path d="M139.059 197.389C139.059 200.126 136.852 202.347 134.116 202.347C131.38 202.347 129.158 200.126 129.158 197.389C129.158 194.653 131.365 192.432 134.116 192.432C136.837 192.432 139.059 194.653 139.059 197.389Z" fill="#FFDC00"/>
<path d="M256.424 151.255C254.806 151.638 253.099 151.858 251.481 152.123C250.731 152.226 249.598 152.667 248.833 152.506C248.171 152.344 248.068 151.799 247.524 151.579C246.965 151.402 246.273 151.667 245.655 151.829C245.538 151.52 245.391 150.99 245.038 149.902C244.92 149.534 244.582 148.857 244.067 147.945C247.847 148.622 246.847 143.929 249.363 142.37C251.084 141.325 253.585 142.149 255.424 142.473C257.263 142.737 259.587 143.502 259.749 145.768C259.925 148.225 259.028 150.652 256.424 151.255Z" fill="#DC3200"/>
<path d="M147.591 197.374C147.591 199.331 146.017 200.905 144.06 200.905C142.119 200.905 140.515 199.331 140.53 197.374C140.53 195.418 142.104 193.829 144.06 193.829C146.002 193.844 147.591 195.418 147.591 197.374Z" fill="#FFDC00"/>
<path d="M251.04 197.271C251.04 200.008 248.833 202.229 246.082 202.229C243.36 202.229 241.124 200.022 241.124 197.271C241.124 194.535 243.331 192.314 246.067 192.314C248.818 192.328 251.054 194.535 251.04 197.271Z" fill="#FFDC00"/>
<path d="M239.183 197.286C239.183 199.243 237.608 200.817 235.652 200.831C233.71 200.831 232.121 199.257 232.121 197.301C232.121 195.344 233.695 193.755 235.652 193.755C237.594 193.755 239.183 195.329 239.183 197.286Z" fill="#FFDC00"/>
<path opacity="0.45" d="M242.772 150.858C239.918 150.74 230.885 150.255 220.705 149.858C216.101 149.681 211.246 149.505 206.612 149.387C200.61 149.225 194.976 149.151 190.724 149.254C174.601 148.931 138.764 151.005 137.735 151.005C137.646 151.005 137.661 150.843 137.794 150.534C143.104 146.15 164.48 142.87 190.047 142.84C196.153 142.84 202.037 143.017 207.495 143.355C207.245 142.885 207.024 142.384 206.862 141.869C206.347 141.825 205.729 141.09 205.435 140.104C205.082 138.957 205.259 137.897 205.788 137.721C205.98 137.677 206.171 137.721 206.362 137.853C206.009 137.088 205.803 135.985 205.641 135.117C205.494 134.293 205.421 133.381 205.538 132.528C205.774 131.41 206.391 131.101 207.377 130.601C209.701 129.512 213.1 128.012 215.645 129.159C216.498 129.556 216.542 130.733 216.557 131.616C217.366 131.366 218.381 131.101 219.102 131.616C219.234 131.719 219.381 131.851 219.499 131.998C219.867 132.44 220.088 133.043 220.22 133.587C220.514 134.985 220.205 136.618 219.587 137.927C219.764 137.839 219.97 137.677 220.146 137.706C220.676 137.868 220.853 138.942 220.514 140.089C220.22 141.075 219.617 141.796 219.102 141.855C218.808 142.723 218.41 143.532 217.91 144.223C230.724 145.65 240.05 148.048 242.772 150.858Z" fill="#32A0B4"/>
<path opacity="0.2" d="M174.851 127.541L152.122 150.284C145.09 150.608 139.574 150.887 137.808 150.961L160.581 128.188L174.851 127.541Z" fill="white"/>
<path opacity="0.2" d="M238.417 142.105L230.238 150.284C227.075 150.137 223.574 149.99 219.911 149.858L234.284 135.441C235.608 137.545 237.079 139.884 238.417 142.105Z" fill="white"/>
<path d="M249.076 175.645L246.631 178.089L271.597 203.054L274.041 200.61L249.076 175.645Z" fill="#323232"/>
<path d="M235.77 184.606C232.283 184.606 228.855 183.679 225.854 181.943C222.839 180.207 220.338 177.691 218.587 174.69C216.851 171.675 215.924 168.247 215.924 164.775C215.924 161.288 216.836 157.861 218.587 154.845C220.323 151.829 222.839 149.328 225.854 147.578C231.856 144.106 239.683 144.106 245.7 147.578C248.715 149.328 251.216 151.829 252.952 154.845C254.688 157.846 255.615 161.288 255.615 164.775C255.615 168.262 254.688 171.689 252.952 174.69C251.216 177.691 248.701 180.207 245.7 181.943C242.684 183.694 239.256 184.606 235.77 184.606ZM235.77 148.961C232.989 148.961 230.253 149.696 227.855 151.079C225.457 152.462 223.456 154.463 222.059 156.875C220.676 159.273 219.955 161.995 219.955 164.775C219.955 167.555 220.691 170.292 222.059 172.675C223.442 175.073 225.457 177.074 227.855 178.471C232.636 181.237 238.888 181.237 243.669 178.471C246.067 177.074 248.068 175.088 249.451 172.675C250.834 170.292 251.569 167.555 251.569 164.775C251.569 161.995 250.834 159.258 249.451 156.875C248.053 154.477 246.053 152.477 243.655 151.079C241.286 149.681 238.55 148.961 235.77 148.961Z" fill="#323232"/>
<path d="M274.607 204.421C273.71 205.319 272.253 205.319 271.356 204.421L252.202 185.268C251.981 185.047 251.864 184.753 251.864 184.458C251.864 184.149 251.981 183.855 252.202 183.649L254.644 181.207C255.1 180.751 255.821 180.751 256.277 181.207L275.431 200.361C275.857 200.788 276.108 201.376 276.108 201.994C276.108 202.597 275.857 203.186 275.431 203.627L274.607 204.421Z" fill="#008CAA"/>
<path opacity="0.5" d="M251.819 164.775C251.819 167.703 251.04 170.439 249.672 172.807C248.259 175.249 246.229 177.265 243.802 178.677C241.448 180.045 238.697 180.825 235.77 180.825C232.842 180.825 230.106 180.045 227.737 178.677C225.295 177.265 223.265 175.235 221.868 172.807C220.499 170.439 219.72 167.703 219.72 164.775C219.72 161.848 220.499 159.111 221.868 156.743C223.28 154.316 225.31 152.271 227.737 150.873C230.106 149.505 232.842 148.725 235.77 148.725C238.697 148.725 241.433 149.505 243.802 150.873C246.244 152.285 248.274 154.316 249.672 156.743C251.04 159.097 251.819 161.848 251.819 164.775Z" fill="#E6FFFF"/>
<path d="M256.277 181.207C255.821 180.766 255.1 180.766 254.659 181.207L253.526 182.34L275.107 203.936L275.431 203.612C275.857 203.186 276.108 202.597 276.108 201.994C276.108 201.376 275.857 200.803 275.431 200.361L256.277 181.207Z" fill="#0096B4"/>
<path d="M162.376 135.397H134.101L148.238 109.888L162.376 135.397Z" fill="white"/>
<path d="M162.42 136.368C162.405 136.368 162.39 136.368 162.376 136.368H134.101C133.748 136.368 133.439 136.191 133.262 135.882C133.086 135.588 133.086 135.22 133.248 134.911L147.385 109.402C147.723 108.784 148.753 108.784 149.092 109.402L163.111 134.705C163.288 134.882 163.391 135.117 163.391 135.382C163.391 135.927 162.949 136.368 162.42 136.368ZM135.763 134.411H160.728L148.253 111.889L135.763 134.411Z" fill="#FFC800"/>
<path d="M147.812 128.674L147.032 118.744H149.577L148.665 128.674H147.812ZM147.032 132.102V129.748H149.43V132.102H147.032Z" fill="#505050"/>
<path d="M292.201 125.658C292.128 125.996 291.819 126.247 291.466 126.247H250.775C250.422 126.247 250.113 125.996 250.039 125.658L244.096 99.5459H298.145L292.201 125.658Z" fill="#505050"/>
<path d="M281.595 99.5016H260.631V87.1737C260.631 84.3785 262.897 82.113 265.692 82.113H276.534C279.329 82.113 281.595 84.3785 281.595 87.1737V99.5016ZM264.442 95.7061H277.814V87.1737C277.814 86.4822 277.255 85.9085 276.549 85.9085H265.707C265.015 85.9085 264.442 86.4675 264.442 87.1737V95.7061Z" fill="#505050"/>
<path d="M294.555 91.2632C294.438 90.9837 294.158 90.8071 293.864 90.8071H248.407C248.098 90.8071 247.833 90.9837 247.715 91.2632L244.111 99.5308H298.159L294.555 91.2632Z" fill="#505050"/>
<path d="M291.466 126.246C291.819 126.246 292.128 125.996 292.201 125.658L298.145 99.5455L294.54 91.2632C294.423 90.9837 294.143 90.8071 293.849 90.8071H271.12V126.246H291.466Z" fill="#5A5A5A"/>
<path d="M299.631 100.649C299.631 101.076 299.292 101.414 298.866 101.414H243.361C242.949 101.414 242.61 101.076 242.61 100.649V98.4425C242.61 98.0158 242.949 97.6775 243.361 97.6775H298.866C299.277 97.6775 299.631 98.0158 299.631 98.4425V100.649Z" fill="#008CAA"/>
<path d="M261.19 96.3386H252.555V102.738H261.19V96.3386Z" fill="#FFDC00"/>
<path d="M289.701 96.3386H281.065V102.738H289.701V96.3386Z" fill="#FFDC00"/>
<path d="M273.092 106.725H269.149V120.877H273.092V106.725Z" fill="#96C800"/>
<path d="M278.197 111.829H264.044V115.772H278.197V111.829Z" fill="#96C800"/>
<path d="M127.01 89.9101C127.025 89.8071 127.054 89.6894 127.069 89.6011C127.128 89.2628 127.113 88.9685 127.128 88.7773C127.143 88.5713 127.143 88.4537 127.143 88.4537C127.143 88.4537 127.143 88.336 127.128 88.1447C127.113 87.9535 127.128 87.6593 127.069 87.3209C127.054 87.2179 127.04 87.115 127.01 87.012C127.305 86.9237 127.613 86.8354 127.922 86.7325C129.099 86.35 130.276 85.8792 130.276 85.8792C130.276 85.8792 130.203 85.585 130.1 85.1584C130.011 84.717 129.791 84.158 129.585 83.599C129.129 82.4809 128.467 81.4953 128.467 81.4953C128.467 81.4953 127.319 81.9808 126.201 82.5545C125.907 82.7016 125.627 82.8634 125.363 82.9958C125.304 82.9076 125.23 82.8193 125.171 82.7457C124.98 82.4662 124.759 82.275 124.627 82.1132C124.495 81.9661 124.421 81.8778 124.421 81.8778C124.421 81.8778 124.333 81.8042 124.186 81.6718C124.024 81.5394 123.833 81.3188 123.553 81.1275C123.48 81.0687 123.377 81.0098 123.303 80.9363C123.45 80.6715 123.597 80.392 123.744 80.0977C124.318 78.9797 124.804 77.8322 124.804 77.8322C124.804 77.8322 123.803 77.1702 122.7 76.7142C122.141 76.5082 121.582 76.2876 121.141 76.1846C120.714 76.0816 120.42 76.0081 120.42 76.0081C120.42 76.0081 119.949 77.1702 119.566 78.3618C119.463 78.6708 119.375 78.965 119.287 79.2592C119.184 79.2445 119.066 79.2298 118.978 79.2004C118.64 79.1415 118.345 79.1562 118.154 79.1415C117.963 79.1268 117.845 79.1268 117.845 79.1268C117.845 79.1268 117.728 79.1268 117.536 79.1415C117.33 79.1562 117.051 79.1415 116.713 79.2004C116.61 79.2151 116.507 79.2298 116.404 79.2592C116.315 78.965 116.227 78.6561 116.124 78.3618C115.742 77.1702 115.271 76.0081 115.271 76.0081C115.271 76.0081 114.977 76.0816 114.55 76.1846C114.109 76.2876 113.55 76.5082 112.991 76.7142C111.887 77.1702 110.887 77.8322 110.887 77.8322C110.887 77.8322 111.372 78.9797 111.946 80.0977C112.093 80.3773 112.24 80.6715 112.387 80.9363C112.299 80.9951 112.211 81.0687 112.137 81.1275C111.858 81.3188 111.667 81.5394 111.505 81.6718C111.358 81.8042 111.269 81.8778 111.269 81.8778C111.269 81.8778 111.196 81.9661 111.063 82.1132C110.946 82.275 110.725 82.4515 110.519 82.7457C110.46 82.8193 110.401 82.9076 110.328 82.9958C110.063 82.8487 109.784 82.7016 109.489 82.5545C108.371 81.9808 107.224 81.4953 107.224 81.4953C107.224 81.4953 106.562 82.4957 106.106 83.599C105.9 84.158 105.679 84.717 105.591 85.1584C105.473 85.5997 105.4 85.8792 105.4 85.8792C105.4 85.8792 106.562 86.35 107.753 86.7325C108.062 86.8354 108.371 86.9237 108.666 87.012C108.651 87.115 108.636 87.2179 108.621 87.3209C108.563 87.6593 108.577 87.9535 108.563 88.1447C108.548 88.336 108.548 88.4537 108.548 88.4537C108.548 88.4537 108.548 88.5713 108.563 88.7773C108.577 88.9685 108.563 89.2628 108.621 89.6011C108.636 89.6894 108.651 89.8071 108.666 89.9101C108.371 89.9983 108.062 90.0866 107.753 90.1896C106.562 90.5721 105.4 91.0428 105.4 91.0428C105.4 91.0428 105.473 91.337 105.591 91.7637C105.694 92.205 105.9 92.764 106.106 93.323C106.577 94.4264 107.224 95.4267 107.224 95.4267C107.224 95.4267 108.371 94.9413 109.489 94.3675C109.784 94.2204 110.063 94.0733 110.328 93.9262C110.387 94.0145 110.46 94.1027 110.519 94.1763C110.71 94.4558 110.931 94.647 111.063 94.8089C111.196 94.956 111.269 95.0442 111.269 95.0442C111.269 95.0442 111.358 95.1178 111.505 95.2502C111.652 95.3679 111.843 95.6033 112.137 95.7945C112.211 95.8533 112.314 95.9269 112.387 95.9857C112.24 96.2505 112.093 96.5448 111.946 96.8243C111.372 97.9423 110.887 99.0751 110.887 99.0751C110.887 99.0751 111.887 99.7371 112.991 100.193C113.55 100.399 114.109 100.62 114.55 100.723C114.977 100.826 115.271 100.899 115.271 100.899C115.271 100.899 115.742 99.7371 116.124 98.5455C116.227 98.2365 116.315 97.9276 116.404 97.6481C116.507 97.6628 116.624 97.6775 116.713 97.6922C117.051 97.7511 117.345 97.7364 117.536 97.7511C117.728 97.7658 117.845 97.7658 117.845 97.7658C117.845 97.7658 117.963 97.7511 118.154 97.7511C118.36 97.7364 118.64 97.7511 118.978 97.6922C119.081 97.6775 119.184 97.6628 119.287 97.6481C119.375 97.9276 119.463 98.2365 119.566 98.5455C119.949 99.7371 120.42 100.899 120.42 100.899C120.42 100.899 120.714 100.826 121.141 100.723C121.582 100.62 122.141 100.399 122.7 100.193C123.803 99.7371 124.804 99.0751 124.804 99.0751C124.804 99.0751 124.318 97.9276 123.744 96.8096C123.597 96.5301 123.45 96.2358 123.303 95.971C123.391 95.9122 123.48 95.8533 123.553 95.7798C123.833 95.5885 124.024 95.3679 124.186 95.2355C124.333 95.1031 124.421 95.0295 124.421 95.0295C124.421 95.0295 124.495 94.9413 124.627 94.7941C124.759 94.647 124.965 94.4558 125.171 94.1616C125.23 94.088 125.289 93.985 125.363 93.9115C125.627 94.0586 125.907 94.2057 126.201 94.3528C127.304 94.9265 128.467 95.412 128.467 95.412C128.467 95.412 129.129 94.4117 129.585 93.3083C129.791 92.7493 130.011 92.1903 130.1 91.7489C130.217 91.3223 130.276 91.0281 130.276 91.0281C130.276 91.0281 129.114 90.5573 127.922 90.1749C127.613 90.0866 127.305 89.9983 127.01 89.9101ZM122.362 93.3083C122.244 93.3966 122.126 93.5584 121.92 93.6908C121.538 94.0145 120.979 94.3381 120.376 94.6029C119.772 94.853 119.125 95.0001 118.64 95.0589C118.39 95.1031 118.184 95.0884 118.051 95.1031C117.904 95.1178 117.831 95.1178 117.831 95.1178C117.831 95.1178 117.742 95.1178 117.61 95.1031C117.463 95.0884 117.257 95.1031 117.021 95.0589C116.536 95.0001 115.903 94.853 115.286 94.6029C114.697 94.3381 114.123 94.0145 113.741 93.6908C113.535 93.5584 113.402 93.3966 113.3 93.3083C113.197 93.2053 113.123 93.1612 113.123 93.1612C113.123 93.1612 113.064 93.1024 112.976 92.9994C112.888 92.8817 112.726 92.7493 112.593 92.5581C112.284 92.1756 111.961 91.6165 111.681 91.0134C111.446 90.4102 111.299 89.7777 111.24 89.2775C111.196 89.0421 111.211 88.8361 111.196 88.689C111.196 88.5419 111.181 88.4537 111.181 88.4537C111.181 88.4537 111.196 88.3801 111.196 88.233C111.211 88.0859 111.196 87.8799 111.24 87.6445C111.299 87.1591 111.446 86.5265 111.681 85.9233C111.946 85.3349 112.27 84.7612 112.593 84.3787C112.726 84.1727 112.888 84.0403 112.976 83.9373C113.064 83.8344 113.123 83.7608 113.123 83.7608C113.123 83.7608 113.182 83.702 113.3 83.6137C113.417 83.5254 113.55 83.3636 113.741 83.2312C114.123 82.9223 114.682 82.5986 115.286 82.3191C115.889 82.069 116.521 81.9219 117.021 81.8631C117.257 81.819 117.463 81.8484 117.61 81.8189C117.757 81.8189 117.831 81.8042 117.831 81.8042C117.831 81.8042 117.904 81.8042 118.051 81.8189C118.184 81.8337 118.404 81.819 118.64 81.8631C119.125 81.9219 119.758 82.069 120.376 82.3191C120.964 82.5839 121.538 82.9076 121.92 83.2312C122.126 83.3636 122.259 83.5254 122.362 83.6137C122.465 83.702 122.523 83.7608 122.523 83.7608C122.523 83.7608 122.582 83.8197 122.67 83.9373C122.759 84.055 122.921 84.1727 123.053 84.3787C123.362 84.7465 123.7 85.3202 123.965 85.9233C124.215 86.5265 124.348 87.1591 124.406 87.6445C124.451 87.8946 124.436 88.0859 124.451 88.233C124.465 88.3801 124.465 88.4537 124.465 88.4537C124.465 88.4537 124.465 88.5272 124.451 88.689C124.436 88.8361 124.451 89.0421 124.406 89.2775C124.348 89.7629 124.2 90.3955 123.965 91.0134C123.7 91.6018 123.362 92.1756 123.053 92.5581C122.921 92.764 122.759 92.8964 122.67 92.9994C122.568 93.1024 122.523 93.1612 122.523 93.1612C122.523 93.1612 122.465 93.2053 122.362 93.3083Z" fill="#008CAA"/>
<path d="M111.358 99.2517H86.0695V84.2758C86.0695 81.9809 87.9378 80.1125 90.2327 80.1125H107.18C109.475 80.1125 111.343 81.9809 111.343 84.2758V99.2517H111.358ZM89.8502 95.471H107.562V84.2758C107.562 84.0698 107.401 83.8933 107.18 83.8933H90.2327C90.0268 83.8933 89.8502 84.0698 89.8502 84.2758V95.471Z" fill="#323232"/>
<path d="M120.126 93.5584H77.4635V88.6155C77.4635 87.7622 78.155 87.0708 79.0082 87.0708H118.581C119.434 87.0708 120.126 87.7622 120.126 88.6155V93.5584Z" fill="#505050"/>
<path d="M122.068 116.096V113.83H124.73V93.1025C124.73 92.2493 124.039 91.5579 123.186 91.5579H74.3889C73.5356 91.5579 72.8442 92.2493 72.8442 93.1025V113.83H75.5069V116.096H72.8442V126.791C72.8442 127.644 73.5356 128.336 74.3889 128.336H123.186C124.039 128.336 124.73 127.644 124.73 126.791V116.096H122.068Z" fill="#DC3200"/>
<path d="M120.273 122.348V124.672H118.096V122.348H110.078V124.672H107.901V122.348H99.8833V124.672H97.706V122.348H89.6884V124.672H87.5112V122.348H79.4936V124.672H77.3164V122.348H72.8442V126.806C72.8442 127.659 73.5356 128.35 74.3889 128.35H123.186C124.039 128.35 124.73 127.659 124.73 126.806V122.348H120.273Z" fill="#960000"/>
<path d="M120.126 93.5584H98.7946V87.0708H118.581C119.434 87.0708 120.126 87.7622 120.126 88.6155V93.5584Z" fill="#5A5A5A"/>
<path d="M98.7946 128.336H123.186C124.039 128.336 124.73 127.644 124.73 126.791V116.096H122.068V113.83H124.73V93.1025C124.73 92.2493 124.039 91.5579 123.186 91.5579H98.7946V128.336Z" fill="#E63C00"/>
<path d="M120.273 122.348V124.672H118.096V122.348H110.078V124.672H107.901V122.348H99.8832V124.672H98.7063V128.35H123.186C124.039 128.35 124.73 127.659 124.73 126.806V122.348H120.273Z" fill="#A00A00"/>
<path d="M85.0985 99.7516C85.0985 102.326 83.0096 104.415 80.4351 104.415C77.8607 104.415 75.757 102.326 75.757 99.7516C75.757 97.1625 77.846 95.0735 80.4351 95.0735C83.0096 95.0882 85.0985 97.1772 85.0985 99.7516Z" fill="#FFDE17"/>
<path d="M77.2722 99.1927H79.8467V96.6035H80.9647V99.1927H83.5686V100.311H80.9647V102.9H79.8467V100.311H77.2722V99.1927Z" fill="#505050"/>
<path d="M121.832 99.7516C121.832 102.326 119.743 104.415 117.169 104.415C114.594 104.415 112.491 102.326 112.491 99.7516C112.491 97.1772 114.58 95.0735 117.169 95.0735C119.743 95.0882 121.832 97.1772 121.832 99.7516Z" fill="#FFDE17"/>
<path d="M114.006 99.1929H120.317V100.311H114.006V99.1929Z" fill="#505050"/>
<path d="M100.884 106.431L97.6177 106.857L101.913 99.5605L98.1178 100.061L94.9844 107.637L94.3224 109.211L95.9553 108.99L99.3977 108.52L95.8964 115.64L101.81 107.843L103.105 106.136L100.884 106.431Z" fill="#FFDE17"/>
<path d="M69.8327 106.34L66.4728 109.679L86.5592 129.891L89.9191 126.551L69.8327 106.34Z" fill="#464646"/>
<path d="M88.2319 128.233L89.9236 126.556L69.8283 106.343L68.1071 108.049L68.0776 108.078L88.2319 128.233Z" fill="#505050"/>
<path d="M68.8427 99.943C71.2553 102.37 71.2259 106.284 68.8133 108.681C66.3859 111.079 62.4728 111.079 60.0749 108.652C57.7652 106.328 57.677 102.62 59.8248 100.208L62.4434 105.886C63.1495 107.416 68.1807 105.107 67.4746 103.577L64.9737 98.1335C66.3859 98.2512 67.7688 98.8544 68.8427 99.943Z" fill="#464646"/>
<path d="M86.9374 126.909C88.7616 125.099 91.7038 125.114 93.5132 126.938C95.2492 128.689 95.308 131.469 93.7045 133.293L91.7332 129.012C91.2036 127.865 87.4228 129.601 87.9524 130.748L89.8355 134.838C88.7616 134.75 87.7318 134.294 86.908 133.485C85.1132 131.675 85.1132 128.718 86.9374 126.909Z" fill="#464646"/>
<path d="M164.7 248.613L168.613 230.519H171.85L175.748 248.613H172.144L171.394 244.744H169.025L168.319 248.613H164.7ZM169.29 242.479H171.158L170.246 235.756L169.29 242.479Z" fill="#EB9600"/>
<path d="M176.852 241.876V230.504H180.515V241.773C180.515 244.818 180.515 246.142 182.133 246.142C183.766 246.142 183.751 244.818 183.751 241.773V230.504H187.414V241.876C187.414 245.612 186.738 248.952 182.133 248.952C177.543 248.967 176.852 245.612 176.852 241.876Z" fill="#EB9600"/>
<path d="M191.239 248.614V233.24H188.591V230.504H197.506V233.24H194.902V248.614H191.239Z" fill="#EB9600"/>
<path d="M198.33 242.656V236.565C198.33 232.976 199.58 230.151 203.626 230.151C207.657 230.151 208.922 232.976 208.922 236.565V242.553C208.922 246.039 207.627 248.952 203.626 248.952C199.639 248.967 198.33 246.142 198.33 242.656ZM205.259 243.479V235.653C205.259 234.491 205.023 232.976 203.626 232.976C202.243 232.976 201.993 234.52 201.993 235.653V243.479C201.993 244.627 202.228 246.142 203.626 246.142C205.038 246.142 205.259 244.642 205.259 243.479Z" fill="#EB9600"/>
<path d="M213.144 243.435L216.851 242.714C216.851 244.303 216.984 246.172 218.249 246.172C219.117 246.172 219.337 245.554 219.337 244.789C219.337 243.274 218.249 241.935 217.189 241.008L216.057 240.037C214.63 238.831 213.144 237.507 213.144 234.903C213.144 231.931 215.203 230.136 218.249 230.136C220.823 230.136 222.868 232.24 222.868 234.8C222.868 234.859 222.853 234.947 222.853 235.227L219.072 235.756C219.072 235.521 219.102 235.3 219.102 235.021C219.102 234.167 218.911 232.932 217.94 232.932C217.072 232.932 216.733 233.755 216.733 234.52C216.733 235.815 217.41 236.624 218.278 237.345C218.734 237.742 219.19 238.11 219.617 238.492C221.47 240.155 222.868 241.847 222.868 244.642C222.868 247.231 220.735 248.967 218.205 248.967C214.762 248.981 213.276 246.26 213.144 243.435Z" fill="#EB9600"/>
<path d="M224.427 248.613V230.519H231.974V233.034H228.076V237.963H230.827V240.537H228.076V246.113H231.974V248.628H224.427V248.613Z" fill="#EB9600"/>
<path d="M233.372 248.613V230.519H237.358C240.86 230.519 243.125 231.769 243.125 235.285C243.125 236.874 242.904 238.904 240.668 239.875C241.58 242.758 242.493 245.612 243.508 248.628H239.712L237.638 240.287H237.035V248.628H233.372V248.613ZM237.035 238.036H238.079C239.3 238.036 239.492 236.241 239.492 235.565C239.492 234.903 239.344 233.196 238.256 233.196H237.035V238.036Z" fill="#EB9600"/>
<path d="M247.156 248.613L243.831 230.519H247.303L248.907 241.493L250.672 230.519H254.085L250.51 248.613H247.156Z" fill="#EB9600"/>
<path d="M255.453 248.613V230.519H259.116V248.613H255.453Z" fill="#EB9600"/>
<path d="M261.029 242.567V236.58C261.029 233.005 262.25 230.166 266.28 230.166C270.032 230.166 271.356 232.711 271.356 236.197V237.757H267.752V236.094C267.752 234.741 267.663 232.99 266.28 232.99C264.898 232.99 264.692 234.55 264.692 235.668V243.479C264.692 244.612 264.898 246.142 266.28 246.142C267.619 246.142 267.796 244.436 267.781 243.038V241.184H271.356L271.341 242.714C271.297 245.966 270.208 248.981 266.266 248.981C262.25 248.967 261.029 246.054 261.029 242.567Z" fill="#EB9600"/>
<path d="M273.062 248.613V230.519H280.609V233.034H276.711V237.963H279.462V240.537H276.711V246.113H280.609V248.628H273.062V248.613Z" fill="#EB9600"/>
<path d="M219.631 267.282V261.295C219.631 257.72 220.853 254.881 224.883 254.881C228.635 254.881 229.959 257.426 229.959 260.912V262.472H226.354V260.809C226.354 259.456 226.266 257.705 224.883 257.705C223.501 257.705 223.295 259.265 223.295 260.383V268.194C223.295 269.327 223.501 270.857 224.883 270.857C226.222 270.857 226.399 269.15 226.384 267.753V265.899H229.959L229.944 267.429C229.9 270.68 228.811 273.696 224.869 273.696C220.852 273.681 219.631 270.769 219.631 267.282Z" fill="#EB9600"/>
<path d="M231.665 273.328V255.234H239.212V257.749H235.314V262.677H238.065V265.252H235.314V270.827H239.212V273.343H231.665V273.328Z" fill="#EB9600"/>
<path d="M240.61 273.328V255.219H243.243L247.215 264.693V255.219H250.245V273.328H247.715L243.758 263.281V273.328H240.61Z" fill="#EB9600"/>
<path d="M254.144 273.328V257.955H251.496V255.219H260.411V257.955H257.807V273.328H254.144Z" fill="#EB9600"/>
<path d="M261.661 273.328V255.234H269.208V257.749H265.31V262.677H268.061V265.252H265.31V270.827H269.208V273.343H261.661V273.328Z" fill="#EB9600"/>
<path d="M270.606 273.328V255.234H274.592C278.094 255.234 280.359 256.484 280.359 260C280.359 261.589 280.138 263.619 277.902 264.59C278.814 267.473 279.727 270.327 280.742 273.343H276.946L274.872 265.002H274.269V273.343H270.606V273.328ZM274.269 262.751H275.313C276.534 262.751 276.725 260.956 276.725 260.28C276.725 259.618 276.578 257.911 275.49 257.911H274.269V262.751Z" fill="#EB9600"/>
<path d="M76.8454 170.233C76.8454 173.204 74.4328 175.617 71.4612 175.617C68.4895 175.617 66.0769 173.204 66.0769 170.233C66.0769 167.261 68.4895 164.848 71.4612 164.848C74.4328 164.848 76.8454 167.261 76.8454 170.233Z" fill="white"/>
</g>
<defs>
<filter id="filter0_d_10_21176" x="0" y="0" width="361" height="361" filterUnits="userSpaceOnUse" color-interpolation-filters="sRGB">
<feFlood flood-opacity="0" result="BackgroundImageFix"/>
<feColorMatrix in="SourceAlpha" type="matrix" values="0 0 0 0 0 0 0 0 0 0 0 0 0 0 0 0 0 0 127 0" result="hardAlpha"/>
<feOffset dy="3"/>
<feGaussianBlur stdDeviation="7.5"/>
<feComposite in2="hardAlpha" operator="out"/>
<feColorMatrix type="matrix" values="0 0 0 0 0.65098 0 0 0 0 0.709804 0 0 0 0 0.788235 0 0 0 0.2 0"/>
<feBlend mode="normal" in2="BackgroundImageFix" result="effect1_dropShadow_10_21176"/>
<feBlend mode="normal" in="SourceGraphic" in2="effect1_dropShadow_10_21176" result="shape"/>
</filter>
</defs>
</svg>
