<svg width="48" height="48" viewBox="0 0 48 48" fill="none" xmlns="http://www.w3.org/2000/svg">
<path fill-rule="evenodd" clip-rule="evenodd" d="M20.4175 15.2509C20.6982 14.6592 21.3011 14.25 21.9995 14.25H25.9995C26.698 14.25 27.3008 14.6592 27.5815 15.2509C28.265 15.2559 28.7978 15.2872 29.2733 15.4731C29.8415 15.6952 30.3357 16.0727 30.6994 16.5624C31.0663 17.0565 31.2386 17.6898 31.4757 18.5614L32.2176 21.2827L32.4981 22.124C32.506 22.1339 32.5139 22.1438 32.5218 22.1539C33.4226 23.3076 32.9936 25.0235 32.1357 28.4553C31.59 30.638 31.3172 31.7293 30.5034 32.3647C29.6896 33.0001 28.5647 33.0001 26.3148 33.0001H21.6841C19.4343 33.0001 18.3093 33.0001 17.4956 32.3647C16.6818 31.7293 16.4089 30.638 15.8633 28.4553C15.0053 25.0235 14.5764 23.3076 15.4772 22.1539C15.4851 22.1438 15.493 22.1338 15.501 22.1239L15.7814 21.2827L16.5234 18.5614C16.7604 17.6898 16.9327 17.0565 17.2996 16.5624C17.6633 16.0727 18.1575 15.6952 18.7257 15.4731C19.2013 15.2872 19.734 15.2559 20.4175 15.2509ZM20.419 16.7523C19.7571 16.759 19.4916 16.7843 19.2717 16.8702C18.9658 16.9898 18.6997 17.193 18.5038 17.4567C18.3277 17.6939 18.2244 18.0252 17.9335 19.0921L17.3639 21.1809C18.384 21.0001 19.777 21.0001 21.6841 21.0001H26.3148C28.222 21.0001 29.615 21.0001 30.6351 21.1809L30.0655 19.0921C29.7746 18.0252 29.6713 17.6939 29.4952 17.4567C29.2993 17.193 29.0332 16.9898 28.7273 16.8702C28.5075 16.7843 28.2419 16.759 27.58 16.7523C27.2987 17.3423 26.6967 17.75 25.9995 17.75H21.9995C21.3023 17.75 20.7004 17.3423 20.419 16.7523Z" fill="#D0D0D0"/>
</svg>
