<svg width="48" height="48" viewBox="0 0 48 48" fill="none" xmlns="http://www.w3.org/2000/svg">
<path d="M21.5644 20.7305L22.0789 22.5926C22.5639 24.3481 22.8064 25.2259 23.5194 25.6252C24.2323 26.0244 25.1374 25.7892 26.9474 25.3188L28.8673 24.8199C30.6774 24.3495 31.5824 24.1143 31.9941 23.4227C32.4057 22.7312 32.1632 21.8534 31.6782 20.0979L31.1638 18.2358C30.6788 16.4802 30.4363 15.6024 29.7233 15.2032C29.0103 14.8039 28.1052 15.0391 26.2952 15.5095L24.3753 16.0085C22.5652 16.4789 21.6602 16.7141 21.2486 17.4056C20.8369 18.0971 21.0794 18.9749 21.5644 20.7305Z" fill="#D0D0D0"/>
<path d="M14.2775 17.2469C14.3882 16.8478 14.8016 16.614 15.2007 16.7248L16.9044 17.1974C17.8213 17.4518 18.5469 18.1587 18.8 19.0749L20.9511 26.8609L21.1093 27.4075C21.7425 27.6438 22.2863 28.0866 22.6314 28.6747L22.9414 28.579L31.8115 26.2739C32.2124 26.1697 32.6219 26.4102 32.7261 26.8111C32.8303 27.212 32.5897 27.6214 32.1888 27.7256L23.3515 30.0223L23.0228 30.1238C23.0161 31.3947 22.1392 32.5555 20.8124 32.9003C19.2219 33.3136 17.5871 32.3982 17.1609 30.8556C16.7348 29.313 17.6786 27.7274 19.2691 27.3141C19.3479 27.2936 19.4268 27.2764 19.5057 27.2623L17.3542 19.4743C17.2459 19.0824 16.929 18.7609 16.5034 18.6428L14.7997 18.1702C14.4005 18.0594 14.1668 17.6461 14.2775 17.2469Z" fill="#D0D0D0"/>
</svg>
