<svg width="48" height="48" viewBox="0 0 48 48" fill="none" xmlns="http://www.w3.org/2000/svg">
<path d="M33.1938 14.8062C34.2687 15.8812 34.2687 17.6241 33.1938 18.6991L32.6982 19.1947C32.5539 19.1634 32.3722 19.1159 32.1651 19.044C31.6108 18.8517 30.8823 18.4883 30.197 17.803C29.5117 17.1177 29.1483 16.3892 28.956 15.8349C28.8841 15.6278 28.8366 15.4461 28.8053 15.3018L29.3009 14.8062C30.3759 13.7313 32.1188 13.7313 33.1938 14.8062Z" fill="#D0D0D0"/>
<path d="M26.5801 25.3128C26.1761 25.7168 25.9741 25.9188 25.7513 26.0926C25.4886 26.2975 25.2043 26.4732 24.9035 26.6166C24.6485 26.7381 24.3775 26.8284 23.8354 27.0091L20.9771 27.9619C20.7103 28.0508 20.4163 27.9814 20.2174 27.7826C20.0186 27.5837 19.9492 27.2897 20.0381 27.0229L20.9909 24.1646C21.1716 23.6225 21.2619 23.3515 21.3834 23.0965C21.5268 22.7957 21.7025 22.5114 21.9074 22.2487C22.0812 22.0259 22.2832 21.8239 22.6872 21.4199L27.6033 16.5038C27.867 17.198 28.3293 18.0566 29.1363 18.8637C29.9434 19.6707 30.802 20.133 31.4962 20.3967L26.5801 25.3128Z" fill="#D0D0D0"/>
<path d="M32.5355 32.5355C34 31.0711 34 28.714 34 24C34 22.4517 34 21.1577 33.9481 20.0661L27.586 26.4283C27.2347 26.7797 26.9708 27.0437 26.6738 27.2753C26.3252 27.5473 25.948 27.7804 25.5488 27.9706C25.2088 28.1327 24.8546 28.2506 24.3833 28.4076L21.4514 29.3849C20.6457 29.6535 19.7573 29.4438 19.1568 28.8432C18.5562 28.2427 18.3465 27.3543 18.6151 26.5486L19.5924 23.6167C19.7494 23.1454 19.8673 22.7912 20.0294 22.4512C20.2196 22.052 20.4527 21.6748 20.7247 21.3262C20.9563 21.0292 21.2203 20.7653 21.5717 20.414L27.9339 14.0519C26.8423 14 25.5483 14 24 14C19.286 14 16.9289 14 15.4645 15.4645C14 16.9289 14 19.286 14 24C14 28.714 14 31.0711 15.4645 32.5355C16.9289 34 19.286 34 24 34C28.714 34 31.0711 34 32.5355 32.5355Z" fill="#D0D0D0"/>
</svg>
