<svg width="79" height="48" viewBox="0 0 79 48" fill="none" xmlns="http://www.w3.org/2000/svg">
<ellipse cx="40" cy="41.5" rx="17" ry="2.5" fill="#4455FB"/>
<path d="M49.1938 14.8062C50.2687 15.8812 50.2687 17.6241 49.1938 18.6991L48.6982 19.1947C48.5539 19.1634 48.3722 19.1159 48.1651 19.044C47.6108 18.8517 46.8823 18.4883 46.197 17.803C45.5117 17.1177 45.1483 16.3892 44.956 15.8349C44.8841 15.6278 44.8366 15.4461 44.8053 15.3018L45.3009 14.8062C46.3759 13.7313 48.1188 13.7313 49.1938 14.8062Z" fill="#4455FB"/>
<path d="M42.5801 25.3128C42.1761 25.7168 41.9741 25.9188 41.7513 26.0926C41.4886 26.2975 41.2043 26.4732 40.9035 26.6166C40.6485 26.7381 40.3775 26.8284 39.8354 27.0091L36.9771 27.9619C36.7103 28.0508 36.4163 27.9814 36.2174 27.7826C36.0186 27.5837 35.9492 27.2897 36.0381 27.0229L36.9909 24.1646C37.1716 23.6225 37.2619 23.3515 37.3834 23.0965C37.5268 22.7957 37.7025 22.5114 37.9074 22.2487C38.0812 22.0259 38.2832 21.8239 38.6872 21.4199L43.6033 16.5038C43.867 17.198 44.3293 18.0566 45.1363 18.8637C45.9434 19.6707 46.802 20.133 47.4962 20.3967L42.5801 25.3128Z" fill="#4455FB"/>
<path d="M48.5355 32.5355C50 31.0711 50 28.714 50 24C50 22.4517 50 21.1577 49.9481 20.0661L43.586 26.4283C43.2347 26.7797 42.9708 27.0437 42.6738 27.2753C42.3252 27.5473 41.948 27.7804 41.5488 27.9706C41.2088 28.1327 40.8546 28.2506 40.3833 28.4076L37.4514 29.3849C36.6457 29.6535 35.7573 29.4438 35.1568 28.8432C34.5562 28.2427 34.3465 27.3543 34.6151 26.5486L35.5924 23.6167C35.7494 23.1454 35.8673 22.7912 36.0294 22.4512C36.2196 22.052 36.4527 21.6748 36.7247 21.3262C36.9563 21.0292 37.2203 20.7653 37.5717 20.414L43.9339 14.0519C42.8423 14 41.5483 14 40 14C35.286 14 32.9289 14 31.4645 15.4645C30 16.9289 30 19.286 30 24C30 28.714 30 31.0711 31.4645 32.5355C32.9289 34 35.286 34 40 34C44.714 34 47.0711 34 48.5355 32.5355Z" fill="#4455FB"/>
</svg>
