<svg width="10" height="14" viewBox="0 0 10 14" fill="none" xmlns="http://www.w3.org/2000/svg">
<path fill-rule="evenodd" clip-rule="evenodd" d="M0.465663 1.19949C0.867137 0.333374 2.24481 0.333374 5.00016 0.333374C7.75551 0.333374 9.13319 0.333374 9.53466 1.19949C9.56917 1.27394 9.59828 1.35128 9.62173 1.43077C9.89445 2.35557 8.92029 3.42745 6.97196 5.5712L5.66683 7.00004L6.97196 8.42888C8.92029 10.5726 9.89445 11.6445 9.62173 12.5693C9.59828 12.6488 9.56917 12.7261 9.53466 12.8006C9.13319 13.6667 7.75551 13.6667 5.00016 13.6667C2.24481 13.6667 0.867137 13.6667 0.465663 12.8006C0.431153 12.7261 0.402041 12.6488 0.378598 12.5693C0.105874 11.6445 1.08004 10.5726 3.02836 8.42888L4.3335 7.00004L3.02836 5.5712C1.08004 3.42745 0.105874 2.35557 0.378598 1.43077C0.402041 1.35128 0.431153 1.27394 0.465663 1.19949ZM3.66683 10.8334C3.39069 10.8334 3.16683 11.0572 3.16683 11.3334C3.16683 11.6095 3.39069 11.8334 3.66683 11.8334H6.3335C6.60964 11.8334 6.8335 11.6095 6.8335 11.3334C6.8335 11.0572 6.60964 10.8334 6.3335 10.8334H3.66683ZM3.16683 2.66671C3.16683 2.39056 3.39069 2.16671 3.66683 2.16671H6.3335C6.60964 2.16671 6.8335 2.39056 6.8335 2.66671C6.8335 2.94285 6.60964 3.16671 6.3335 3.16671H3.66683C3.39069 3.16671 3.16683 2.94285 3.16683 2.66671Z" fill="#4455FB"/>
</svg>
