<svg width="79" height="48" viewBox="0 0 79 48" fill="none" xmlns="http://www.w3.org/2000/svg">
<path d="M37.5644 20.7305L38.0789 22.5926C38.5639 24.3481 38.8064 25.2259 39.5194 25.6252C40.2323 26.0244 41.1374 25.7892 42.9474 25.3188L44.8673 24.8199C46.6774 24.3495 47.5824 24.1143 47.9941 23.4227C48.4057 22.7312 48.1632 21.8534 47.6782 20.0979L47.1638 18.2358C46.6788 16.4802 46.4363 15.6024 45.7233 15.2032C45.0103 14.8039 44.1052 15.0391 42.2952 15.5095L40.3753 16.0085C38.5652 16.4789 37.6602 16.7141 37.2486 17.4056C36.8369 18.0971 37.0794 18.9749 37.5644 20.7305Z" fill="#4455FB"/>
<path d="M30.2775 17.2469C30.3882 16.8478 30.8016 16.614 31.2007 16.7248L32.9044 17.1974C33.8213 17.4518 34.5469 18.1587 34.8 19.0749L36.9511 26.8609L37.1093 27.4075C37.7425 27.6438 38.2863 28.0866 38.6314 28.6747L38.9414 28.579L47.8115 26.2739C48.2124 26.1697 48.6219 26.4102 48.7261 26.8111C48.8303 27.212 48.5897 27.6214 48.1888 27.7256L39.3515 30.0223L39.0228 30.1238C39.0161 31.3947 38.1392 32.5555 36.8124 32.9003C35.2219 33.3136 33.5871 32.3982 33.1609 30.8556C32.7348 29.313 33.6786 27.7274 35.2691 27.3141C35.3479 27.2936 35.4268 27.2764 35.5057 27.2623L33.3542 19.4743C33.2459 19.0824 32.929 18.7609 32.5034 18.6428L30.7997 18.1702C30.4005 18.0594 30.1668 17.6461 30.2775 17.2469Z" fill="#4455FB"/>
<ellipse cx="40" cy="41.5" rx="17" ry="2.5" fill="#4455FB"/>
</svg>
