<svg width="79" height="48" viewBox="0 0 79 48" fill="none" xmlns="http://www.w3.org/2000/svg">
<ellipse cx="40" cy="41.5" rx="17" ry="2.5" fill="#4455FB"/>
<path fill-rule="evenodd" clip-rule="evenodd" d="M36.418 15.2509C36.6987 14.6592 37.3016 14.25 38 14.25H42C42.6984 14.25 43.3013 14.6592 43.582 15.2509C44.2655 15.2559 44.7983 15.2872 45.2738 15.4731C45.842 15.6952 46.3362 16.0727 46.6999 16.5624C47.0668 17.0565 47.2391 17.6898 47.4762 18.5614L48.2181 21.2827L48.4985 22.124C48.5065 22.1339 48.5144 22.1438 48.5222 22.1539C49.4231 23.3076 48.9941 25.0235 48.1362 28.4553C47.5905 30.638 47.3176 31.7293 46.5039 32.3647C45.6901 33.0001 44.5652 33.0001 42.3153 33.0001H37.6846C35.4348 33.0001 34.3098 33.0001 33.496 32.3647C32.6823 31.7293 32.4094 30.638 31.8638 28.4553C31.0058 25.0235 30.5768 23.3076 31.4777 22.1539C31.4856 22.1438 31.4935 22.1338 31.5015 22.1239L31.7819 21.2827L32.5238 18.5614C32.7609 17.6898 32.9332 17.0565 33.3001 16.5624C33.6638 16.0727 34.158 15.6952 34.7262 15.4731C35.2017 15.2872 35.7345 15.2559 36.418 15.2509ZM36.4195 16.7523C35.7576 16.759 35.492 16.7843 35.2722 16.8702C34.9663 16.9898 34.7002 17.193 34.5043 17.4567C34.3282 17.6939 34.2249 18.0252 33.934 19.0921L33.3644 21.1809C34.3845 21.0001 35.7775 21.0001 37.6846 21.0001H42.3153C44.2224 21.0001 45.6155 21.0001 46.6356 21.1809L46.066 19.0921C45.7751 18.0252 45.6718 17.6939 45.4957 17.4567C45.2998 17.193 45.0337 16.9898 44.7278 16.8702C44.508 16.7843 44.2424 16.759 43.5805 16.7523C43.2992 17.3423 42.6972 17.75 42 17.75H38C37.3028 17.75 36.7008 17.3423 36.4195 16.7523Z" fill="#4455FB"/>
</svg>
