<svg width="79" height="48" viewBox="0 0 79 48" fill="none" xmlns="http://www.w3.org/2000/svg">
<path fill-rule="evenodd" clip-rule="evenodd" d="M42.2788 14.1522C41.9085 14 41.439 14 40.5 14C39.561 14 39.0915 14 38.7212 14.1522C38.2274 14.3552 37.8351 14.7446 37.6306 15.2346C37.5372 15.4583 37.5007 15.7185 37.4864 16.098C37.4653 16.6557 37.1772 17.1719 36.6902 17.4509C36.2032 17.73 35.6086 17.7195 35.1115 17.4588C34.7732 17.2813 34.5279 17.1826 34.286 17.151C33.7561 17.0818 33.2202 17.2243 32.7962 17.5472C32.4781 17.7894 32.2434 18.1929 31.7739 18.9999C31.3044 19.807 31.0697 20.2105 31.0173 20.6049C30.9476 21.1308 31.0912 21.6627 31.4165 22.0835C31.5651 22.2756 31.7738 22.437 32.0977 22.639C32.5739 22.936 32.8803 23.4419 32.8803 24C32.8803 24.5581 32.5739 25.0639 32.0977 25.3608C31.7737 25.5629 31.565 25.7244 31.4164 25.9165C31.0911 26.3373 30.9475 26.8691 31.0172 27.395C31.0696 27.7894 31.3043 28.193 31.7738 29C32.2433 29.807 32.478 30.2106 32.7961 30.4527C33.2201 30.7756 33.756 30.9181 34.2859 30.8489C34.5278 30.8173 34.7731 30.7186 35.1113 30.5412C35.6085 30.2804 36.2031 30.27 36.6901 30.549C37.1771 30.8281 37.4653 31.3443 37.4864 31.9021C37.5007 32.2815 37.5372 32.5417 37.6306 32.7654C37.8351 33.2554 38.2274 33.6448 38.7212 33.8478C39.0915 34 39.561 34 40.5 34C41.439 34 41.9085 34 42.2788 33.8478C42.7726 33.6448 43.1649 33.2554 43.3694 32.7654C43.4628 32.5417 43.4994 32.2815 43.5137 31.902C43.5347 31.3443 43.8228 30.8281 44.3098 30.549C44.7968 30.2699 45.3914 30.2804 45.8886 30.5412C46.2269 30.7186 46.4721 30.8172 46.714 30.8488C47.2439 30.9181 47.7798 30.7756 48.2038 30.4527C48.5219 30.2105 48.7566 29.807 49.2261 28.9999C49.6956 28.1929 49.9303 27.7894 49.9827 27.395C50.0524 26.8691 49.9088 26.3372 49.5835 25.9164C49.4349 25.7243 49.2262 25.5628 48.9022 25.3608C48.4261 25.0639 48.1197 24.558 48.1197 23.9999C48.1197 23.4418 48.4261 22.9361 48.9022 22.6392C49.2263 22.4371 49.435 22.2757 49.5836 22.0835C49.9089 21.6627 50.0525 21.1309 49.9828 20.605C49.9304 20.2106 49.6957 19.807 49.2262 19C48.7567 18.193 48.522 17.7894 48.2039 17.5473C47.7799 17.2244 47.244 17.0818 46.7141 17.1511C46.4722 17.1827 46.2269 17.2814 45.8887 17.4588C45.3915 17.7196 44.7969 17.73 44.3099 17.451C43.8229 17.1719 43.5347 16.6557 43.5136 16.0979C43.4993 15.7185 43.4628 15.4583 43.3694 15.2346C43.1649 14.7446 42.7726 14.3552 42.2788 14.1522ZM40.5 27C42.1695 27 43.5228 25.6569 43.5228 24C43.5228 22.3431 42.1695 21 40.5 21C38.8305 21 37.4772 22.3431 37.4772 24C37.4772 25.6569 38.8305 27 40.5 27Z" fill="#4455FB"/>
<ellipse cx="40" cy="41.5" rx="17" ry="2.5" fill="#4455FB"/>
</svg>
