<svg width="48" height="48" viewBox="0 0 48 48" fill="none" xmlns="http://www.w3.org/2000/svg">
<path fill-rule="evenodd" clip-rule="evenodd" d="M26.2788 14.1522C25.9085 14 25.439 14 24.5 14C23.561 14 23.0915 14 22.7212 14.1522C22.2274 14.3552 21.8351 14.7446 21.6306 15.2346C21.5372 15.4583 21.5007 15.7185 21.4864 16.098C21.4653 16.6557 21.1772 17.1719 20.6902 17.4509C20.2032 17.73 19.6086 17.7195 19.1115 17.4588C18.7732 17.2813 18.5279 17.1826 18.286 17.151C17.7561 17.0818 17.2202 17.2243 16.7962 17.5472C16.4781 17.7894 16.2434 18.1929 15.7739 18.9999C15.3044 19.807 15.0697 20.2105 15.0173 20.6049C14.9476 21.1308 15.0912 21.6627 15.4165 22.0835C15.5651 22.2756 15.7738 22.437 16.0977 22.639C16.5739 22.936 16.8803 23.4419 16.8803 24C16.8803 24.5581 16.5739 25.0639 16.0977 25.3608C15.7737 25.5629 15.565 25.7244 15.4164 25.9165C15.0911 26.3373 14.9475 26.8691 15.0172 27.395C15.0696 27.7894 15.3043 28.193 15.7738 29C16.2433 29.807 16.478 30.2106 16.7961 30.4527C17.2201 30.7756 17.756 30.9181 18.2859 30.8489C18.5278 30.8173 18.7731 30.7186 19.1113 30.5412C19.6085 30.2804 20.2031 30.27 20.6901 30.549C21.1771 30.8281 21.4653 31.3443 21.4864 31.9021C21.5007 32.2815 21.5372 32.5417 21.6306 32.7654C21.8351 33.2554 22.2274 33.6448 22.7212 33.8478C23.0915 34 23.561 34 24.5 34C25.439 34 25.9085 34 26.2788 33.8478C26.7726 33.6448 27.1649 33.2554 27.3694 32.7654C27.4628 32.5417 27.4994 32.2815 27.5137 31.902C27.5347 31.3443 27.8228 30.8281 28.3098 30.549C28.7968 30.2699 29.3914 30.2804 29.8886 30.5412C30.2269 30.7186 30.4721 30.8172 30.714 30.8488C31.2439 30.9181 31.7798 30.7756 32.2038 30.4527C32.5219 30.2105 32.7566 29.807 33.2261 28.9999C33.6956 28.1929 33.9303 27.7894 33.9827 27.395C34.0524 26.8691 33.9088 26.3372 33.5835 25.9164C33.4349 25.7243 33.2262 25.5628 32.9022 25.3608C32.4261 25.0639 32.1197 24.558 32.1197 23.9999C32.1197 23.4418 32.4261 22.9361 32.9022 22.6392C33.2263 22.4371 33.435 22.2757 33.5836 22.0835C33.9089 21.6627 34.0525 21.1309 33.9828 20.605C33.9304 20.2106 33.6957 19.807 33.2262 19C32.7567 18.193 32.522 17.7894 32.2039 17.5473C31.7799 17.2244 31.244 17.0818 30.7141 17.1511C30.4722 17.1827 30.2269 17.2814 29.8887 17.4588C29.3915 17.7196 28.7969 17.73 28.3099 17.451C27.8229 17.1719 27.5347 16.6557 27.5136 16.0979C27.4993 15.7185 27.4628 15.4583 27.3694 15.2346C27.1649 14.7446 26.7726 14.3552 26.2788 14.1522ZM24.5 27C26.1695 27 27.5228 25.6569 27.5228 24C27.5228 22.3431 26.1695 21 24.5 21C22.8305 21 21.4772 22.3431 21.4772 24C21.4772 25.6569 22.8305 27 24.5 27Z" fill="#D0D0D0"/>
</svg>
