<svg width="331" height="248" viewBox="0 0 331 248" fill="none" xmlns="http://www.w3.org/2000/svg">
<path d="M214.346 67.1975H211.342V40.2301C211.342 37.749 213.363 35.728 215.844 35.728H222.728V38.7324H215.844C215.014 38.7324 214.337 39.4091 214.337 40.2301V67.1975H214.346Z" fill="#B4B4B4"/>
<path d="M215.095 66.6379H210.593V73.955H215.095V66.6379Z" fill="#C8C8C8"/>
<path d="M215.591 73.6123H210.088V79.4677H215.591V73.6123Z" fill="#D2D2D2"/>
<path d="M224.605 34.7805H217.847V39.6615H224.605V34.7805Z" fill="#C8C8C8"/>
<path d="M227.988 33.8333H221.23V40.6089H227.988V33.8333Z" fill="#D2D2D2"/>
<path opacity="0.2" d="M221.23 34.7806H217.847V37.2256H227.988V33.8333H221.23V34.7806Z" fill="#D2D2D2"/>
<path opacity="0.2" d="M215.095 66.6379H212.849V79.4585H215.601V73.6121H215.095V66.6379Z" fill="#D2D2D2"/>
<path d="M217.847 35.719H216.846V38.7234H217.847V35.719Z" fill="#AAAAAA"/>
<path d="M214.346 65.5828H211.342V66.6383H214.346V65.5828Z" fill="#AAAAAA"/>
<path d="M203.53 53.2586L199.799 56.9663L222.097 79.4028L225.827 75.6951L203.53 53.2586Z" fill="#787878"/>
<path d="M223.955 77.5551L225.832 75.6876L203.529 53.2583L201.625 55.153L201.589 55.1891L223.955 77.5551Z" fill="#828282"/>
<path d="M202.446 46.1487C205.117 48.8373 205.099 53.177 202.41 55.8476C199.721 58.5182 195.373 58.5001 192.711 55.8205C190.149 53.2311 190.059 49.126 192.44 46.4464L195.346 52.753C196.13 54.4491 201.706 51.8868 200.921 50.1907L198.142 44.1548C199.703 44.2811 201.237 44.9397 202.446 46.1487Z" fill="#787878"/>
<path d="M222.52 76.0938C224.541 74.0818 227.807 74.0908 229.819 76.1208C231.75 78.0606 231.813 81.1553 230.027 83.1762L227.844 78.4305C227.257 77.1494 223.053 79.0892 223.639 80.3613L225.732 84.9085C224.55 84.8092 223.396 84.313 222.493 83.4018C220.49 81.3718 220.499 78.1057 222.52 76.0938Z" fill="#787878"/>
<path d="M228.656 51.0567L226.138 48.5395L229.486 45.9772L230.65 45.084L232.111 46.5456L231.227 47.7095L228.656 51.0567Z" fill="#C8C8C8"/>
<path d="M207.526 72.196L205.008 69.6698L226.842 48.9006L228.295 50.3622L207.526 72.196Z" fill="#C8C8C8"/>
<path d="M207.526 72.1959L228.132 50.5336L228.656 51.0569L231.227 47.7096L232.111 46.5457L231.38 45.8149L206.262 70.9328L207.526 72.1959Z" fill="#D2D2D2"/>
<path d="M208.058 73.1252C208.356 72.8365 208.356 72.3583 208.058 72.0606L205.135 69.1374C204.846 68.8396 204.368 68.8396 204.079 69.1374L203.411 69.796C203.123 70.0847 203.123 70.5629 203.411 70.8606L203.899 71.3478L192.458 81.7324C192.44 81.7504 192.413 81.7685 192.395 81.7865C191.854 82.3278 192.134 83.4827 192.928 84.2766C193.722 85.0706 194.876 85.3503 195.418 84.809C195.436 84.7909 195.454 84.7638 195.472 84.7458L205.856 73.3056L206.344 73.7928C206.641 74.0815 207.111 74.0815 207.408 73.7928L208.058 73.1252Z" fill="#008CAA"/>
<path d="M208.058 73.1251C208.356 72.8364 208.356 72.3582 208.058 72.0605L206.596 70.5989L192.919 84.2766C193.713 85.0705 194.867 85.3502 195.409 84.8089C195.427 84.7908 195.445 84.7638 195.463 84.7457L205.847 73.3055L206.335 73.7928C206.632 74.0815 207.102 74.0815 207.399 73.7928L208.058 73.1251Z" fill="#0096B4"/>
<path d="M203.89 71.3509L203.411 71.8293L205.357 73.7751L205.835 73.2966L203.89 71.3509Z" fill="#0082A0"/>
<path d="M231.227 47.7095L229.486 45.9772L230.649 45.084L232.111 46.5456L231.227 47.7095Z" fill="#969696"/>
<path d="M108.633 126.924C108.489 127.177 108.398 127.376 108.362 127.475C108.263 127.782 108.227 127.926 108.191 128.016C108.019 127.971 107.821 127.899 107.667 127.944C107.514 128.007 107.487 128.151 107.307 128.206C107.09 128.251 106.774 128.133 106.558 128.097C106.098 128.025 105.628 127.962 105.168 127.854C104.438 127.691 104.185 127.006 104.221 126.311C104.266 125.67 104.916 125.454 105.439 125.382C105.953 125.291 106.657 125.057 107.144 125.346C107.848 125.797 107.568 127.123 108.633 126.924Z" fill="#464646"/>
<path d="M118.26 141.153C117.917 141.153 117.312 141.098 117.168 140.702C116.717 139.456 116.157 137.796 115.968 137.029L115.914 136.822C115.815 136.461 115.751 136.172 115.851 136.037C115.914 135.956 116.329 135.55 118.341 135.55C118.458 135.55 118.584 135.55 118.711 135.55C120.136 135.586 121.318 135.595 122.265 135.595C122.87 135.595 123.375 135.595 123.799 135.586C124.133 135.586 124.557 135.595 125.044 135.595C126.037 135.595 127.3 135.586 128.852 135.55C128.987 135.55 129.122 135.55 129.24 135.55C131.243 135.55 131.649 135.956 131.712 136.037C131.811 136.172 131.748 136.452 131.649 136.813L131.594 137.02C131.405 137.787 130.846 139.447 130.404 140.692C130.259 141.089 129.655 141.144 129.303 141.144L129.05 141.135L118.485 141.144C118.503 141.153 118.332 141.153 118.26 141.153Z" fill="#464646"/>
<path d="M109.806 143.706L109.815 146.575C109.815 146.773 109.652 146.945 109.454 146.945H104.853C104.654 146.945 104.483 146.782 104.483 146.575L104.474 138.716C104.645 140.593 104.826 142.379 104.844 142.515C104.871 142.785 104.78 143.101 104.907 143.336C105.033 143.579 105.331 143.642 105.818 143.642C105.962 143.66 107.586 143.679 109.806 143.706Z" fill="#464646"/>
<path d="M109.4 140.792C109.4 141.568 108.777 142.19 108.01 142.19C107.244 142.19 106.612 141.568 106.612 140.801C106.612 140.034 107.235 139.403 108.01 139.403C108.768 139.403 109.4 140.025 109.4 140.792Z" fill="#464646"/>
<path d="M142.403 127.827C141.943 127.935 141.474 127.998 141.014 128.07C140.797 128.098 140.481 128.224 140.265 128.179C140.075 128.134 140.048 127.98 139.895 127.917C139.732 127.863 139.543 127.944 139.372 127.989C139.336 127.908 139.299 127.755 139.2 127.448C139.164 127.349 139.074 127.15 138.93 126.898C139.994 127.087 139.714 125.77 140.418 125.328C140.905 125.039 141.609 125.265 142.123 125.355C142.638 125.427 143.296 125.644 143.341 126.284C143.386 126.97 143.134 127.655 142.403 127.827Z" fill="#464646"/>
<path d="M111.791 140.792C111.791 141.342 111.349 141.784 110.798 141.784C110.257 141.784 109.806 141.342 109.806 140.792C109.806 140.241 110.248 139.799 110.798 139.799C111.349 139.799 111.791 140.241 111.791 140.792Z" fill="#464646"/>
<path d="M122.257 165.341C106.116 164.15 93.4756 150.527 93.4756 134.332C93.4756 120.05 103.138 107.644 116.988 104.171L117.953 108.005C105.872 111.037 97.4364 121.863 97.4364 134.332C97.4364 148.479 108.471 160.361 122.554 161.399L122.257 165.341Z" fill="#464646"/>
<path d="M124.566 105.208C121.399 106.904 117.556 109.593 115.3 112.182L116.545 106.318L113.749 101.013C116.636 102.899 121.066 104.441 124.566 105.208Z" fill="#464646"/>
<path d="M132.154 164.493L131.189 160.659C143.269 157.627 151.705 146.801 151.705 134.323C151.705 120.059 140.572 108.167 126.362 107.238L126.614 103.295C142.899 104.351 155.657 117.984 155.657 134.323C155.666 148.623 146.003 161.02 132.154 164.493Z" fill="#464646"/>
<path d="M124.566 163.456C127.733 161.76 131.576 159.071 133.832 156.482L132.587 162.346L135.384 167.651C132.506 165.766 128.076 164.223 124.566 163.456Z" fill="#464646"/>
<path d="M138.776 135.974C134.851 135.974 131.667 139.159 131.667 143.092C131.667 147.017 134.851 150.202 138.776 150.202C142.701 150.202 145.886 147.017 145.886 143.092C145.895 139.168 142.71 135.974 138.776 135.974ZM138.307 148.1L134.563 141.008L135.663 140.422L138.343 145.501L141.898 139.186L142.98 139.799L138.307 148.1Z" fill="#464646"/>
<path d="M130.773 143.093C130.773 142.425 130.864 141.775 131.017 141.153C130.512 142.01 129.204 141.902 129.059 141.902L118.512 141.911C118.368 141.911 116.843 142.064 116.446 140.963C116.049 139.863 115.436 138.094 115.219 137.219C114.994 136.29 114.245 134.702 118.72 134.801C121.029 134.855 122.699 134.846 123.772 134.828C124.846 134.846 126.515 134.846 128.834 134.783C133.309 134.675 132.569 136.272 132.343 137.201C132.208 137.733 131.928 138.618 131.649 139.466C132.975 136.876 135.663 135.09 138.767 135.09C140.445 135.09 142.006 135.613 143.296 136.497C143.377 135.55 143.441 134.747 143.459 134.386C143.522 133.105 143.242 132.654 143.215 132.013C143.179 131.373 141.681 130.001 141.257 129.568C140.978 129.289 139.985 128.44 139.651 128.233C139.453 128.107 139.417 128.107 139.363 127.989C139.326 127.908 139.29 127.755 139.191 127.448C139.155 127.349 139.065 127.15 138.92 126.898C138.063 125.346 135.555 121.484 135.348 121.268C135.104 121.024 134.554 120.537 133.778 120.402C133.002 120.266 125.234 119.86 123.772 119.86C122.311 119.86 114.542 120.284 113.767 120.42C112.991 120.555 112.44 121.042 112.197 121.286C111.989 121.502 109.49 125.373 108.633 126.925C108.489 127.177 108.398 127.376 108.362 127.475C108.263 127.782 108.227 127.926 108.191 128.016C108.155 128.098 107.956 128.233 107.884 128.278C107.866 128.287 107.857 128.296 107.857 128.296C107.64 128.44 106.774 129.036 106.305 129.532C105.601 130.281 104.374 131.409 104.347 132.049C104.32 132.69 104.041 133.15 104.104 134.431C104.131 135.054 104.302 136.93 104.474 138.726C104.645 140.602 104.825 142.389 104.844 142.524C104.871 142.795 104.78 143.111 104.907 143.345C105.033 143.589 105.331 143.652 105.818 143.652C105.962 143.652 107.586 143.67 109.806 143.697C115.111 143.76 123.79 143.878 123.79 143.878C123.79 143.878 127.056 143.832 130.8 143.769C130.791 143.553 130.773 143.327 130.773 143.093ZM140.238 131.544C140.923 131.544 141.059 131.454 141.194 132.094C141.284 132.51 141.284 133.06 141.194 133.421C140.914 134.747 139.227 134.756 138.127 134.756C136.115 134.756 134.364 135.261 132.776 132.428C134.139 132.022 135.745 132.058 137.116 131.833C138.181 131.634 139.191 131.544 140.238 131.544ZM112.594 121.466L123.772 120.952L134.96 121.439C134.96 121.439 138.993 127.719 138.686 127.719C138.397 127.719 128.31 127.159 123.781 127.259C119.252 127.168 109.174 127.755 108.886 127.755C108.579 127.746 112.594 121.466 112.594 121.466ZM106.368 132.122C106.504 131.49 106.648 131.571 107.325 131.571C108.38 131.571 109.391 131.67 110.437 131.851C111.809 132.076 113.406 132.031 114.777 132.437C113.198 135.27 111.448 134.774 109.436 134.774C108.344 134.774 106.657 134.774 106.368 133.448C106.287 133.087 106.287 132.537 106.368 132.122ZM113.559 142.353C112.891 142.596 111.349 142.542 110.609 142.542C110.338 142.542 110.076 142.542 109.806 142.542C109.165 142.533 108.525 142.515 107.875 142.506C107.586 142.506 107.298 142.497 107.009 142.497C105.908 142.497 105.728 142.136 105.971 141.036C106.215 140.242 106.062 139.484 106.883 139.186C107.18 139.078 108.173 139.024 109.409 139.042C109.535 139.042 109.67 139.042 109.806 139.042C110.212 139.051 110.645 139.06 111.087 139.078C111.349 139.087 111.61 139.105 111.872 139.114C111.971 139.114 112.061 139.123 112.152 139.132C112.296 139.141 112.431 139.15 112.576 139.159C112.711 139.168 112.855 139.177 112.982 139.195C113.117 139.204 113.252 139.222 113.388 139.231C113.586 139.249 113.776 139.267 113.956 139.294C114.082 139.312 114.2 139.321 114.317 139.339C114.416 139.348 114.506 139.366 114.597 139.375C114.642 139.384 114.687 139.393 114.732 139.402C114.786 139.402 114.849 139.421 114.903 139.43C114.921 139.43 114.948 139.439 114.966 139.439C115.003 139.448 115.039 139.448 115.075 139.457C115.129 139.475 115.183 139.484 115.246 139.493C114.93 140.539 114.651 141.992 113.559 142.353Z" fill="#464646"/>
<path d="M153.158 81.6514C152.914 81.5341 152.67 81.4258 152.436 81.3176C152.454 81.2273 152.49 81.1371 152.508 81.0559C152.652 80.4875 152.743 80.0996 152.743 80.0996C152.743 80.0996 152.797 79.7116 152.878 79.1252C152.896 79.044 152.896 78.9447 152.905 78.8545C153.158 78.8455 153.428 78.8274 153.699 78.8184C154.736 78.7643 155.765 78.656 155.765 78.656C155.765 78.656 155.774 78.4304 155.783 78.0876C155.792 77.9162 155.792 77.7177 155.801 77.5012C155.801 77.2846 155.783 77.0591 155.765 76.8245C155.729 76.3734 155.729 75.9133 155.657 75.5704C155.603 75.2276 155.567 75.002 155.567 75.002C155.567 75.002 154.52 75.002 153.491 75.0561C153.221 75.0652 152.95 75.0832 152.706 75.0922C152.688 75.002 152.67 74.9118 152.661 74.8306C152.508 74.2622 152.409 73.8742 152.409 73.8742C152.409 73.8742 152.391 73.775 152.328 73.6126C152.264 73.4502 152.183 73.2246 152.075 72.9449C152.039 72.8637 152.003 72.7825 151.976 72.6923C152.192 72.566 152.427 72.4307 152.652 72.2863C153.546 71.754 154.403 71.1766 154.403 71.1766C154.403 71.1766 154.303 70.9691 154.15 70.6623C154.006 70.3556 153.798 69.9405 153.555 69.5526C153.103 68.7586 152.535 68.0368 152.535 68.0368C152.535 68.0368 151.615 68.524 150.722 69.0473C150.487 69.1827 150.261 69.327 150.045 69.4533C149.991 69.3812 149.928 69.309 149.873 69.2368C149.477 68.8037 149.206 68.515 149.206 68.515C149.206 68.515 149.152 68.4338 149.016 68.3256C148.89 68.2083 148.71 68.0369 148.484 67.8474C148.421 67.7933 148.349 67.7301 148.277 67.6669C148.412 67.4504 148.556 67.2158 148.692 66.9903C149.233 66.1061 149.729 65.2039 149.729 65.2039C149.729 65.2039 149.549 65.0685 149.269 64.861C149.134 64.7618 148.971 64.6445 148.8 64.5182C148.619 64.3919 148.421 64.2836 148.231 64.1663C147.456 63.6611 146.616 63.3002 146.616 63.3002C146.616 63.3002 146.03 64.1573 145.48 65.0415C145.335 65.267 145.191 65.5016 145.065 65.7091C144.983 65.673 144.893 65.6279 144.812 65.6008C144.253 65.4023 143.883 65.267 143.883 65.267C143.883 65.267 143.793 65.2309 143.63 65.1768C143.459 65.1317 143.224 65.0775 142.935 65.0054C142.854 64.9873 142.755 64.9603 142.674 64.9422C142.692 64.6896 142.71 64.428 142.728 64.1483C142.764 63.625 142.782 63.1107 142.8 62.7137C142.809 62.3258 142.818 62.0731 142.818 62.0731C142.818 62.0731 142.593 62.0371 142.25 61.9919C141.907 61.9559 141.465 61.8566 141.005 61.8476C140.545 61.8295 140.084 61.8115 139.742 61.8025C139.399 61.8205 139.173 61.8296 139.173 61.8296C139.173 61.8296 139.047 62.8671 138.975 63.8957C138.948 64.1663 138.939 64.428 138.921 64.6806C138.83 64.6896 138.731 64.6896 138.65 64.6986C138.352 64.7076 138.118 64.7798 137.946 64.7979C137.775 64.8249 137.684 64.843 137.684 64.843C137.684 64.843 137.585 64.861 137.414 64.8881C137.242 64.9061 137.008 64.9783 136.719 65.0505C136.638 65.0685 136.548 65.0956 136.457 65.1227C136.358 64.8881 136.25 64.6445 136.142 64.4009C135.718 63.4536 135.248 62.5153 135.248 62.5153C135.248 62.5153 135.194 62.5333 135.095 62.5604C135.005 62.5964 134.87 62.6415 134.707 62.6957C134.391 62.822 133.949 62.9573 133.534 63.1558C133.119 63.3543 132.713 63.5528 132.406 63.7062C132.109 63.8686 131.919 63.9949 131.919 63.9949C131.919 63.9949 132.289 64.9693 132.704 65.9166C132.812 66.1602 132.921 66.4038 133.02 66.6384C132.948 66.6835 132.858 66.7376 132.785 66.7827C132.533 66.9271 132.343 67.0985 132.208 67.1978C132.064 67.297 131.991 67.3602 131.991 67.3602C131.991 67.3602 131.91 67.4143 131.775 67.5226C131.631 67.6128 131.459 67.7932 131.234 67.9917C131.17 68.0459 131.098 68.109 131.035 68.1722C130.837 68.0188 130.629 67.8474 130.422 67.676C129.61 67.0354 128.752 66.4219 128.752 66.4219C128.752 66.4219 128.707 66.4579 128.644 66.5301C128.572 66.6023 128.482 66.7106 128.365 66.8369C128.139 67.0985 127.814 67.4233 127.534 67.7842C127.264 68.1541 126.984 68.524 126.786 68.7947C126.596 69.0834 126.488 69.2819 126.488 69.2819C126.488 69.2819 127.273 69.9766 128.076 70.6262C128.283 70.7976 128.491 70.9601 128.689 71.1134C128.644 71.1946 128.59 71.2758 128.545 71.348C128.383 71.6006 128.301 71.8352 128.22 71.9796C128.148 72.1329 128.112 72.2231 128.112 72.2231C128.112 72.2231 128.067 72.3134 127.995 72.4668C127.913 72.6201 127.832 72.8547 127.733 73.1254C127.706 73.2066 127.67 73.2968 127.643 73.378C127.399 73.3329 127.137 73.2788 126.867 73.2337C125.847 73.0442 124.81 72.8998 124.81 72.8998C124.81 72.8998 124.729 73.1164 124.656 73.4502C124.575 73.784 124.467 74.2261 124.359 74.6682C124.295 75.1193 124.232 75.5704 124.178 75.9133C124.124 76.2561 124.124 76.4816 124.124 76.4816C124.124 76.4816 125.144 76.7343 126.163 76.9327C126.425 76.9869 126.686 77.041 126.93 77.0771C126.93 77.1673 126.93 77.2666 126.921 77.3478C126.912 77.6455 126.894 77.8891 126.921 78.0605C126.93 78.2319 126.939 78.3312 126.939 78.3312C126.939 78.3312 126.948 78.4304 126.957 78.6019C126.975 78.7733 126.966 79.0169 127.02 79.3056C127.038 79.3868 127.047 79.477 127.065 79.5672C126.822 79.6394 126.569 79.7116 126.316 79.7928C125.324 80.0905 124.341 80.4514 124.341 80.4514C124.341 80.4514 124.377 80.677 124.44 81.0108C124.53 81.3446 124.647 81.7867 124.765 82.2288C124.882 82.6709 125.071 83.0949 125.189 83.4107C125.252 83.5731 125.297 83.7084 125.333 83.7987C125.369 83.8979 125.396 83.943 125.396 83.943C125.396 83.943 126.416 83.6904 127.408 83.3837C127.661 83.3025 127.922 83.2303 128.157 83.1491C128.193 83.2303 128.238 83.3205 128.274 83.4017C128.41 83.6633 128.5 83.8889 128.608 84.0333C128.698 84.1776 128.752 84.2588 128.752 84.2588C128.752 84.2588 128.807 84.34 128.897 84.4934C128.996 84.6377 129.095 84.8633 129.285 85.0888C129.339 85.161 129.393 85.2332 129.447 85.3054C129.267 85.4768 129.077 85.6663 128.888 85.8557C128.157 86.5865 127.444 87.3534 127.444 87.3534C127.444 87.3534 127.571 87.5429 127.796 87.8045C128.031 88.0572 128.337 88.4 128.644 88.7338C128.96 89.0676 129.312 89.3563 129.564 89.5909C129.7 89.7082 129.799 89.7984 129.88 89.8706C129.961 89.9338 130.007 89.9699 130.007 89.9699C130.007 89.9699 130.791 89.2752 131.531 88.5444C131.73 88.3549 131.919 88.1654 132.091 87.985C132.163 88.0391 132.244 88.1023 132.307 88.1474C132.542 88.3278 132.74 88.4722 132.894 88.5534C133.047 88.6436 133.128 88.6977 133.128 88.6977C133.128 88.6977 133.209 88.7519 133.354 88.8331C133.507 88.9143 133.706 89.0676 133.976 89.1849C134.049 89.221 134.139 89.2661 134.22 89.3022C134.139 89.5368 134.058 89.7984 133.985 90.0511C133.67 91.0435 133.399 92.045 133.399 92.045C133.399 92.045 133.606 92.1442 133.922 92.2886C134.238 92.4059 134.671 92.5593 135.104 92.7126C135.537 92.875 135.988 92.9472 136.313 93.0374C136.656 93.1186 136.872 93.1727 136.872 93.1727C136.872 93.1727 136.963 92.9292 137.098 92.5683C137.233 92.1984 137.396 91.7021 137.558 91.2059C137.648 90.9533 137.721 90.6917 137.802 90.4571C137.892 90.4751 137.991 90.4841 138.072 90.4931C138.361 90.5383 138.605 90.5653 138.776 90.5924C138.948 90.6104 139.047 90.6104 139.047 90.6104C139.047 90.6104 139.444 90.6285 140.03 90.6465C140.111 90.6465 140.211 90.6375 140.301 90.6375C140.337 90.8811 140.391 91.1518 140.436 91.4134C140.617 92.4239 140.851 93.4434 140.851 93.4434C140.851 93.4434 141.772 93.4164 142.674 93.2359C142.899 93.1908 143.125 93.1637 143.341 93.1186C143.549 93.0645 143.738 93.0103 143.91 92.9743C144.244 92.884 144.469 92.8209 144.469 92.8209C144.469 92.8209 144.343 91.7923 144.162 90.7728C144.117 90.5022 144.072 90.2405 144.027 89.9879C144.108 89.9518 144.208 89.9248 144.28 89.8977C144.55 89.7985 144.785 89.7082 144.947 89.6451C145.11 89.5909 145.2 89.5368 145.2 89.5368C145.2 89.5368 145.552 89.3654 146.084 89.1037C146.156 89.0677 146.238 89.0135 146.319 88.9684C146.472 89.1669 146.635 89.3834 146.797 89.5909C147.428 90.4119 148.105 91.1969 148.105 91.1969C148.105 91.1969 148.899 90.7458 149.612 90.1684C149.991 89.9067 150.325 89.5999 150.577 89.3654C150.83 89.1398 151.001 88.9774 151.001 88.9774C151.001 88.9774 150.415 88.1203 149.783 87.2993C149.621 87.0828 149.449 86.8662 149.296 86.6768C149.359 86.6046 149.422 86.5414 149.477 86.4783C149.675 86.2617 149.837 86.0813 149.955 85.955C150.072 85.8287 150.126 85.7384 150.126 85.7384C150.126 85.7384 150.361 85.4227 150.713 84.9535C150.758 84.8813 150.803 84.8001 150.857 84.728C151.082 84.8362 151.326 84.9445 151.57 85.0618C152.508 85.4858 153.473 85.8738 153.473 85.8738C153.473 85.8738 153.591 85.6753 153.762 85.3866C153.952 85.0979 154.123 84.6738 154.33 84.2588C154.43 84.0513 154.529 83.8438 154.61 83.6453C154.682 83.4378 154.755 83.2573 154.809 83.0949C154.917 82.7701 154.998 82.5536 154.998 82.5536C154.998 82.5536 154.096 82.0844 153.158 81.6514ZM148.259 84.5385C148.159 84.6468 148.033 84.8001 147.862 84.9715C147.78 85.0618 147.69 85.161 147.591 85.2693C147.483 85.3595 147.374 85.4588 147.266 85.567C147.041 85.7745 146.806 86.0001 146.535 86.1805C146.03 86.5955 145.453 86.9113 145.038 87.1549C144.595 87.3715 144.307 87.5158 144.307 87.5158C144.307 87.5158 144.235 87.5609 144.099 87.606C143.964 87.6602 143.774 87.7233 143.549 87.8135C143.432 87.8587 143.314 87.9038 143.179 87.9399C143.044 87.976 142.899 88.0211 142.755 88.0572C142.457 88.1384 142.15 88.2286 141.826 88.2647C141.185 88.4 140.536 88.409 140.048 88.4361C139.561 88.418 139.236 88.4 139.236 88.4C139.236 88.4 139.155 88.4 139.011 88.391C138.866 88.3729 138.668 88.3368 138.424 88.3098C138.181 88.2737 137.892 88.2466 137.603 88.1564C137.315 88.0752 136.981 88.0301 136.674 87.9128C136.367 87.7955 136.06 87.7053 135.772 87.588C135.501 87.4527 135.239 87.3354 135.023 87.2361C134.797 87.1459 134.635 87.0106 134.509 86.9474C134.391 86.8752 134.319 86.8301 134.319 86.8301C134.319 86.8301 134.247 86.785 134.13 86.7219C134.003 86.6587 133.841 86.5234 133.652 86.379C133.246 86.1083 132.758 85.6663 132.289 85.2152C132.073 84.9716 131.856 84.728 131.649 84.5024C131.468 84.2588 131.297 84.0333 131.152 83.8348C130.999 83.6453 130.918 83.4558 130.828 83.3385C130.755 83.2212 130.71 83.1491 130.71 83.1491C130.71 83.1491 130.665 83.0769 130.593 82.9596C130.512 82.8423 130.431 82.6528 130.322 82.4363C130.088 82.0032 129.853 81.3988 129.655 80.7762C129.573 80.4604 129.483 80.1447 129.411 79.8469C129.366 79.5402 129.312 79.2605 129.276 79.0259C129.222 78.7823 129.24 78.5748 129.222 78.4395C129.213 78.2951 129.204 78.2139 129.204 78.2139C129.204 78.2139 129.204 78.1327 129.186 77.9884C129.167 77.844 129.177 77.6455 129.195 77.4019C129.213 77.1583 129.195 76.8696 129.231 76.5719C129.276 76.2651 129.321 75.9403 129.366 75.6245C129.447 75.3088 129.519 74.993 129.592 74.6953C129.664 74.3975 129.781 74.1359 129.862 73.9103C129.934 73.6757 130.007 73.4863 130.079 73.36C130.142 73.2336 130.169 73.1615 130.169 73.1615C130.169 73.1615 130.205 73.0893 130.268 72.963C130.34 72.8367 130.395 72.6382 130.53 72.4397C130.656 72.2322 130.801 71.9886 130.963 71.7269C131.134 71.4743 131.333 71.2217 131.522 70.96C131.937 70.4638 132.379 69.9766 132.758 69.6608C132.939 69.4984 133.083 69.3541 133.2 69.2729C133.318 69.1827 133.381 69.1376 133.381 69.1376C133.381 69.1376 133.453 69.0925 133.561 69.0022C133.679 68.921 133.823 68.7767 134.039 68.6594C134.247 68.5331 134.491 68.3797 134.752 68.2263C135.023 68.1 135.321 67.9466 135.609 67.8023C136.214 67.5496 136.827 67.3331 137.306 67.2249C137.54 67.1617 137.739 67.0985 137.874 67.0895C138.018 67.0624 138.09 67.0534 138.09 67.0534C138.09 67.0534 138.172 67.0444 138.307 67.0173C138.451 67.0083 138.65 66.9452 138.893 66.9361C139.137 66.9181 139.417 66.9 139.723 66.882C140.03 66.882 140.355 66.9091 140.68 66.9091C141.005 66.9091 141.329 66.9903 141.636 67.0264C141.934 67.0534 142.214 67.1346 142.457 67.1888C142.692 67.2429 142.89 67.297 143.035 67.3241C143.17 67.3692 143.242 67.3963 143.242 67.3963C143.242 67.3963 143.549 67.5045 144.009 67.6669C144.451 67.8744 145.056 68.118 145.597 68.4789C145.886 68.6413 146.138 68.8308 146.382 69.0203C146.508 69.1105 146.626 69.2007 146.734 69.2819C146.842 69.3631 146.932 69.4623 147.022 69.5435C147.203 69.7059 147.356 69.8413 147.465 69.9405C147.573 70.0307 147.627 70.0939 147.627 70.0939C147.627 70.0939 147.843 70.3375 148.177 70.6984C148.475 71.0863 148.89 71.5916 149.215 72.16C149.404 72.4217 149.531 72.7284 149.666 72.9991C149.729 73.1344 149.801 73.2697 149.864 73.3961C149.919 73.5224 149.955 73.6487 150 73.766C150.081 73.9915 150.153 74.181 150.207 74.3253C150.261 74.4516 150.27 74.5328 150.27 74.5419C150.27 74.5419 150.361 74.8576 150.487 75.3268C150.568 75.805 150.704 76.4456 150.713 77.0952C150.722 77.2576 150.749 77.4199 150.74 77.5823C150.731 77.7447 150.731 77.8981 150.722 78.0515C150.713 78.3583 150.713 78.647 150.658 78.8815C150.595 79.3687 150.55 79.6935 150.55 79.6935C150.55 79.6935 150.469 80.0093 150.352 80.4875C150.316 80.7311 150.207 80.9928 150.099 81.2905C150.045 81.4349 150 81.5792 149.946 81.7326C149.892 81.8769 149.81 82.0213 149.738 82.1747C149.486 82.7791 149.125 83.3205 148.872 83.7355C148.583 84.1325 148.385 84.3851 148.385 84.3851C148.385 84.3851 148.358 84.4393 148.259 84.5385Z" fill="#96B400"/>
<path d="M148.286 108.492C144.415 115.421 140.138 114.203 135.221 114.203C132.542 114.203 128.41 114.212 127.724 110.964C127.507 110.071 127.507 108.727 127.724 107.716C128.058 106.164 128.401 106.372 130.07 106.372C132.632 106.372 135.104 106.597 137.666 107.048C141.023 107.599 144.938 107.5 148.286 108.492Z" fill="white"/>
<path d="M149.377 125.77C148.637 128.305 147.97 131.842 145.29 132.735C143.657 133.33 139.877 133.204 138.09 133.204C135.104 133.204 132.262 133.087 129.276 133.087C126.596 133.087 126.145 132.194 126.75 129.514C127.345 127.574 126.975 125.734 128.978 124.985C130.846 124.299 144.099 124.624 149.377 125.77Z" fill="#828282"/>
<path d="M133.264 95.013C132.912 95.6356 132.677 96.1137 132.596 96.3664C132.352 97.1062 132.253 97.4761 132.181 97.6836C131.748 97.5753 131.279 97.3949 130.891 97.5122C130.512 97.6655 130.449 98.0355 129.997 98.1528C129.465 98.261 128.689 97.9633 128.166 97.8911C127.047 97.7107 125.892 97.5573 124.774 97.2956C122.987 96.8896 122.356 95.2115 122.464 93.5334C122.581 91.9725 124.178 91.4492 125.441 91.2598C126.704 91.0342 128.428 90.4658 129.61 91.1876C131.342 92.2522 130.656 95.4912 133.264 95.013Z" fill="#D2D2D2"/>
<path d="M217.838 107.464C217.748 105.894 214.094 102.538 213.047 101.5C212.352 100.823 209.934 98.7483 209.113 98.2251C208.626 97.9183 208.527 97.9183 208.419 97.6206C208.338 97.4131 208.238 97.0341 207.995 96.2943C207.904 96.0417 207.679 95.5725 207.318 94.95C205.225 91.1516 199.099 81.6964 198.594 81.1821C197.989 80.5776 196.645 79.3957 194.75 79.0528C192.855 78.719 173.864 77.7356 170.282 77.7356C166.709 77.7446 147.708 78.7641 145.814 79.107C143.91 79.4498 142.575 80.6317 141.979 81.2362C141.465 81.7595 135.366 91.2238 133.273 95.0222C132.921 95.6447 132.686 96.1229 132.605 96.3755C132.361 97.1153 132.262 97.4852 132.19 97.6927C132.109 97.9003 131.622 98.2341 131.432 98.3333C131.387 98.3694 131.36 98.3784 131.36 98.3784C130.837 98.7393 128.707 100.183 127.562 101.392C125.829 103.223 122.852 105.984 122.771 107.545C122.699 109.115 122.031 110.225 122.184 113.355C122.256 114.889 122.672 119.472 123.096 123.866C123.52 128.459 123.953 132.816 123.998 133.159C124.07 133.827 123.853 134.576 124.142 135.171C124.449 135.767 125.189 135.92 126.38 135.92C126.741 135.92 130.71 135.974 136.142 136.037C149.098 136.191 170.336 136.461 170.336 136.461C170.336 136.461 192.251 136.136 205.135 135.956C210.25 135.875 213.958 135.83 214.292 135.83C215.483 135.83 216.223 135.676 216.53 135.081C216.818 134.485 216.602 133.737 216.674 133.069C216.728 132.609 217.495 124.741 217.991 118.922C218.217 116.369 218.397 114.212 218.442 113.256C218.578 110.143 217.91 109.016 217.838 107.464ZM210.53 106.309C212.208 106.3 212.542 106.083 212.885 107.644C213.101 108.655 213.101 109.999 212.885 110.892C212.208 114.14 208.076 114.14 205.396 114.14C200.479 114.149 196.203 115.376 192.323 108.447C195.661 107.446 199.577 107.554 202.933 106.995C205.496 106.535 207.968 106.309 210.53 106.309ZM142.935 81.6783L170.273 80.4332L197.61 81.6242C197.61 81.6242 207.462 96.9619 206.714 96.9619C206.001 96.9619 181.361 95.5815 170.273 95.8342C159.203 95.6086 134.554 97.0341 133.85 97.0431C133.119 97.0341 142.935 81.6783 142.935 81.6783ZM127.724 107.725C128.058 106.174 128.401 106.381 130.07 106.381C132.632 106.381 135.104 106.607 137.666 107.058C141.023 107.608 144.938 107.5 148.286 108.492C144.415 115.421 140.139 114.203 135.221 114.203C132.542 114.203 128.41 114.212 127.724 110.964C127.507 110.08 127.507 108.736 127.724 107.725ZM145.29 132.744C143.657 133.34 139.877 133.213 138.09 133.213C137.423 133.213 136.773 133.204 136.133 133.195C134.554 133.177 132.984 133.132 131.405 133.105C130.701 133.096 129.998 133.087 129.276 133.087C126.596 133.087 126.145 132.194 126.75 129.514C127.345 127.574 126.975 125.734 128.978 124.985C129.709 124.714 132.136 124.597 135.158 124.633C135.474 124.624 135.799 124.633 136.133 124.642C137.134 124.66 138.19 124.687 139.254 124.732C139.886 124.768 140.526 124.795 141.167 124.832C141.402 124.841 141.636 124.859 141.853 124.877C142.205 124.895 142.547 124.913 142.881 124.949C143.224 124.976 143.567 125.003 143.883 125.03C144.226 125.057 144.55 125.084 144.866 125.12C145.353 125.165 145.814 125.22 146.256 125.265C146.562 125.301 146.851 125.337 147.131 125.382C147.365 125.409 147.6 125.445 147.807 125.481C147.916 125.499 148.024 125.517 148.132 125.535C148.277 125.553 148.403 125.571 148.538 125.608C148.592 125.617 148.647 125.617 148.701 125.635C148.791 125.653 148.881 125.671 148.971 125.68C149.116 125.716 149.242 125.743 149.377 125.77C148.647 128.314 147.979 131.842 145.29 132.744ZM183.22 131.634L157.434 131.661C157.064 131.661 153.338 132.031 152.373 129.352C151.389 126.672 149.901 122.332 149.377 120.194C148.818 117.921 146.995 114.032 157.939 114.276C163.596 114.402 167.674 114.393 170.3 114.357C172.925 114.393 177.012 114.393 182.66 114.258C193.613 113.996 191.791 117.884 191.24 120.158C190.708 122.305 189.228 126.645 188.263 129.325C187.316 131.986 183.581 131.634 183.22 131.634ZM211.378 133.015C209.258 133.024 207.21 133.087 205.126 133.123C204.278 133.15 203.429 133.159 202.563 133.15C200.777 133.15 196.997 133.294 195.355 132.699C192.675 131.806 191.998 128.278 191.258 125.734C191.439 125.689 191.637 125.653 191.845 125.617C192.116 125.562 192.404 125.517 192.702 125.463C192.9 125.436 193.108 125.4 193.307 125.373C193.37 125.364 193.433 125.355 193.505 125.346C193.776 125.31 194.064 125.274 194.353 125.238C194.371 125.238 194.407 125.229 194.425 125.229C194.714 125.201 195.003 125.165 195.3 125.129C196.031 125.048 196.798 124.985 197.601 124.922C197.818 124.913 198.043 124.886 198.269 124.877C199.487 124.786 200.75 124.714 201.977 124.678C202.302 124.66 202.617 124.642 202.942 124.624C203.177 124.615 203.402 124.615 203.628 124.615C203.908 124.606 204.178 124.606 204.44 124.597C204.674 124.588 204.891 124.579 205.108 124.588C208.301 124.534 210.9 124.651 211.658 124.931C213.652 125.671 213.291 127.511 213.895 129.451C214.509 132.113 214.058 133.015 211.378 133.015Z" fill="#D2D2D2"/>
<path d="M206.713 96.9618C206.443 96.9618 202.816 96.7633 197.809 96.5378C195.634 96.4385 193.225 96.3393 190.708 96.2401C183.481 95.9423 175.415 95.6987 170.291 95.825C163.732 95.6987 152.382 96.1408 144.099 96.5378C139.263 96.7633 135.465 96.9618 134.256 97.0069C134.039 97.034 133.913 97.034 133.859 97.034C133.119 97.034 142.935 81.6691 142.935 81.6691L149.919 81.3444L159.735 80.9023L170.264 80.4331L197.61 81.615C197.61 81.615 198.936 83.6901 200.596 86.3246C201.508 87.7772 202.518 89.3831 203.429 90.9169C205.405 94.1469 207.038 96.9618 206.713 96.9618Z" fill="#787878"/>
<path d="M212.885 110.883C212.208 114.131 208.076 114.131 205.396 114.131C200.479 114.14 196.203 115.367 192.323 108.438C195.661 107.436 199.577 107.544 202.933 106.985C205.495 106.534 207.968 106.299 210.53 106.299C212.208 106.29 212.542 106.074 212.885 107.635C213.092 108.654 213.092 109.99 212.885 110.883Z" fill="white"/>
<path d="M211.378 133.014C208.383 133.023 205.55 133.141 202.554 133.15C200.768 133.15 196.988 133.294 195.345 132.699C192.666 131.805 191.989 128.278 191.249 125.733C196.527 124.579 209.781 124.227 211.658 124.921C213.652 125.661 213.291 127.502 213.895 129.442C214.509 132.112 214.058 133.014 211.378 133.014Z" fill="#828282"/>
<path d="M191.249 120.14C190.717 122.287 189.237 126.627 188.272 129.306C187.307 131.986 183.581 131.634 183.211 131.634L157.425 131.661C157.055 131.661 153.329 132.031 152.364 129.352C151.38 126.672 149.892 122.332 149.368 120.194C148.809 117.92 146.986 114.032 157.93 114.275C163.587 114.402 167.665 114.393 170.291 114.357C172.916 114.393 177.003 114.393 182.651 114.257C193.622 113.987 191.8 117.866 191.249 120.14Z" fill="#B4B4B4"/>
<path opacity="0.2" d="M213.038 101.5C212.343 100.823 209.925 98.7483 209.104 98.2251C208.617 97.9183 208.518 97.9183 208.41 97.6206C208.328 97.4131 208.229 97.0341 207.986 96.2943C207.895 96.0417 207.67 95.5725 207.309 94.95C205.216 91.1516 199.09 81.6964 198.584 81.1821C197.98 80.5776 196.636 79.3957 194.741 79.0528C192.846 78.728 173.963 77.7446 170.309 77.7356V80.4332L197.61 81.6242C197.61 81.6242 207.462 96.962 206.713 96.962C206.001 96.962 181.397 95.5906 170.3 95.8342V136.479H170.318C170.318 136.479 192.233 136.154 205.117 135.974C210.232 135.893 213.94 135.848 214.274 135.848C215.465 135.848 216.205 135.694 216.512 135.099C216.8 134.503 216.584 133.755 216.656 133.087C216.71 132.627 217.477 124.759 217.973 118.94C218.199 116.387 218.379 114.23 218.424 113.274C218.569 110.143 217.901 109.025 217.829 107.464C217.748 105.894 214.085 102.538 213.038 101.5ZM202.933 106.995C205.495 106.544 207.968 106.309 210.53 106.309C212.208 106.3 212.542 106.083 212.885 107.644C213.101 108.655 213.101 109.999 212.885 110.892C212.208 114.14 208.076 114.14 205.396 114.14C200.479 114.149 196.203 115.376 192.323 108.447C195.661 107.446 199.586 107.545 202.933 106.995ZM211.378 133.015C209.258 133.024 207.21 133.087 205.126 133.123C204.278 133.15 203.429 133.159 202.563 133.15C200.777 133.15 196.997 133.294 195.355 132.699C192.675 131.806 191.998 128.278 191.258 125.734C191.439 125.689 191.637 125.653 191.845 125.617C192.116 125.562 192.404 125.517 192.702 125.463C192.9 125.436 193.108 125.4 193.306 125.373C193.37 125.364 193.433 125.355 193.505 125.346C193.776 125.31 194.064 125.274 194.353 125.238C194.371 125.238 194.407 125.229 194.425 125.229C194.714 125.201 195.003 125.165 195.3 125.129C196.031 125.048 196.798 124.985 197.601 124.922C197.818 124.913 198.043 124.886 198.269 124.877C199.487 124.786 200.75 124.714 201.977 124.678C202.302 124.66 202.617 124.642 202.942 124.624C203.177 124.615 203.402 124.615 203.628 124.615C203.908 124.606 204.178 124.606 204.44 124.597C204.674 124.588 204.891 124.579 205.108 124.588C208.301 124.534 210.9 124.651 211.658 124.931C213.652 125.671 213.291 127.511 213.895 129.451C214.509 132.113 214.058 133.015 211.378 133.015Z" fill="#D2D2D2"/>
<path d="M136.133 136.046L136.142 143.075C136.142 143.562 135.736 143.968 135.258 143.968L124.007 143.977C123.52 143.977 123.114 143.571 123.114 143.084L123.096 123.875C123.52 128.468 123.953 132.825 123.998 133.168C124.07 133.836 123.854 134.585 124.142 135.18C124.449 135.776 125.189 135.929 126.38 135.929C126.732 135.929 130.701 135.983 136.133 136.046Z" fill="#626262"/>
<path d="M218.154 119.445L218.172 142.993C218.181 143.49 217.784 143.887 217.288 143.887L206.037 143.905C205.55 143.905 205.144 143.499 205.144 143.011L205.135 135.974C210.25 135.893 213.958 135.848 214.292 135.848C215.483 135.848 216.223 135.694 216.53 135.099C216.818 134.504 216.602 133.755 216.674 133.087C216.728 132.627 217.495 124.76 217.991 118.94C218.1 119.076 218.154 119.265 218.154 119.445Z" fill="#323232"/>
<path d="M135.122 128.927C135.122 130.813 133.606 132.338 131.721 132.338C129.844 132.338 128.31 130.813 128.31 128.927C128.31 127.042 129.835 125.517 131.721 125.517C133.588 125.526 135.122 127.051 135.122 128.927Z" fill="#FFDC00"/>
<path d="M215.817 97.2144C214.698 97.476 213.534 97.6294 212.416 97.8189C211.892 97.8911 211.125 98.1888 210.593 98.0805C210.142 97.9632 210.07 97.6023 209.7 97.449C209.321 97.3317 208.843 97.5121 208.419 97.6204C208.338 97.4129 208.238 97.0339 207.995 96.2941C207.904 96.0415 207.679 95.5723 207.318 94.9498C209.916 95.4189 209.231 92.189 210.963 91.1244C212.145 90.4026 213.868 90.971 215.131 91.1965C216.394 91.377 217.991 91.9003 218.109 93.4611C218.226 95.1302 217.603 96.7994 215.817 97.2144Z" fill="#D2D2D2"/>
<path d="M140.987 128.928C140.987 130.263 139.904 131.355 138.56 131.355C137.224 131.355 136.124 130.272 136.133 128.928C136.133 127.583 137.215 126.492 138.56 126.492C139.895 126.492 140.987 127.583 140.987 128.928Z" fill="#FFDC00"/>
<path d="M212.118 128.855C212.118 130.732 210.602 132.266 208.707 132.266C206.831 132.275 205.297 130.75 205.297 128.864C205.297 126.988 206.822 125.454 208.698 125.454C210.593 125.445 212.118 126.97 212.118 128.855Z" fill="#FFDC00"/>
<path d="M203.953 128.865C203.962 130.209 202.87 131.291 201.526 131.301C200.19 131.301 199.099 130.218 199.099 128.874C199.099 127.529 200.181 126.438 201.526 126.438C202.87 126.429 203.962 127.52 203.953 128.865Z" fill="#FFDC00"/>
<path opacity="0.45" d="M206.425 96.9349C204.458 96.8537 198.251 96.5199 191.249 96.2402C188.083 96.1229 184.744 95.9966 181.56 95.9244C177.427 95.8161 173.557 95.762 170.634 95.8342C159.554 95.6086 134.906 97.0431 134.202 97.0341C134.148 97.0341 134.157 96.9259 134.238 96.7184C137.892 93.7049 152.58 91.4403 170.164 91.4223C174.36 91.4223 178.402 91.5396 182.155 91.7742C181.984 91.4494 181.83 91.1065 181.713 90.7547C181.352 90.7276 180.937 90.2223 180.739 89.5366C180.495 88.7517 180.621 88.0209 180.982 87.8946C181.117 87.8585 181.244 87.8946 181.379 87.9848C181.136 87.4615 180.991 86.7037 180.883 86.1082C180.775 85.5488 180.73 84.9082 180.811 84.3218C180.973 83.5549 181.397 83.3384 182.074 82.9955C183.671 82.2467 186.008 81.2182 187.758 82.0031C188.344 82.2828 188.371 83.0858 188.38 83.6993C188.94 83.5278 189.643 83.3474 190.131 83.6993C190.221 83.7714 190.329 83.8617 190.401 83.9699C190.654 84.2767 190.807 84.6827 190.898 85.0616C191.096 86.027 190.88 87.1458 190.464 88.048C190.582 87.9848 190.726 87.8766 190.843 87.8946C191.204 88.0119 191.322 88.7427 191.096 89.5276C190.889 90.2043 190.473 90.7095 190.131 90.7456C189.923 91.3501 189.652 91.9005 189.31 92.3696C198.151 93.3531 204.557 94.9951 206.425 96.9349Z" fill="#646464"/>
<path opacity="0.15" d="M159.735 80.9021L144.099 96.5376C139.263 96.7632 135.465 96.9616 134.256 97.0067L149.919 81.3442L159.735 80.9021Z" fill="white"/>
<path opacity="0.15" d="M203.438 90.9168L197.818 96.5376C195.643 96.4384 193.234 96.3391 190.717 96.2399L200.606 86.3245C201.508 87.7861 202.518 89.383 203.438 90.9168Z" fill="white"/>
<path d="M221.627 143.525C221.564 143.796 221.329 143.985 221.05 143.985H189.544C189.273 143.985 189.03 143.796 188.967 143.525L184.365 123.297H226.219L221.627 143.525Z" fill="#505050"/>
<path d="M213.417 123.261H197.186V113.716C197.186 111.56 198.936 109.8 201.102 109.8H209.501C211.658 109.8 213.417 111.56 213.417 113.716V123.261ZM200.127 120.329H210.485V113.725C210.485 113.193 210.052 112.751 209.51 112.751H201.111C200.569 112.751 200.136 113.193 200.136 113.725V120.329H200.127Z" fill="#505050"/>
<path d="M223.441 116.892C223.35 116.676 223.134 116.54 222.899 116.54H187.695C187.46 116.54 187.244 116.676 187.153 116.892L184.365 123.307H226.219L223.441 116.892Z" fill="#505050"/>
<path d="M221.05 143.977C221.32 143.977 221.564 143.787 221.627 143.516L226.229 123.289L223.441 116.874C223.35 116.657 223.134 116.522 222.899 116.522H205.297V143.968H221.05V143.977Z" fill="#5A5A5A"/>
<path d="M227.383 124.155C227.383 124.479 227.113 124.741 226.797 124.741H183.815C183.49 124.741 183.229 124.479 183.229 124.155V122.44C183.229 122.116 183.49 121.854 183.815 121.854H226.797C227.122 121.854 227.383 122.116 227.383 122.44V124.155Z" fill="#008CAA"/>
<path d="M197.601 120.816H190.916V125.779H197.601V120.816Z" fill="#FFDC00"/>
<path d="M219.678 120.816H212.993V125.779H219.678V120.816Z" fill="#FFDC00"/>
<path d="M206.831 128.864H203.781V139.817H206.831V128.864Z" fill="#96C800"/>
<path d="M210.774 132.816H199.821V135.866H210.774V132.816Z" fill="#96C800"/>
<path d="M151.488 50.7588C151.516 50.6866 151.543 50.6054 151.57 50.5332C151.66 50.2896 151.687 50.0821 151.732 49.9378C151.768 49.7934 151.786 49.7032 151.786 49.7032C151.786 49.7032 151.795 49.6129 151.822 49.4686C151.84 49.3242 151.885 49.1167 151.895 48.8551C151.895 48.7739 151.894 48.6927 151.904 48.6205C152.129 48.6025 152.373 48.5664 152.607 48.5393C153.528 48.431 154.457 48.2416 154.457 48.2416C154.457 48.2416 154.448 48.025 154.421 47.6912C154.421 47.3574 154.331 46.9153 154.258 46.4732C154.078 45.589 153.726 44.768 153.726 44.768C153.726 44.768 152.815 44.9575 151.922 45.2281C151.687 45.3003 151.461 45.3725 151.245 45.4356C151.209 45.3635 151.173 45.2823 151.146 45.2191C151.037 44.9845 150.911 44.8131 150.839 44.6778C150.758 44.5515 150.713 44.4793 150.713 44.4793C150.713 44.4793 150.658 44.4162 150.568 44.2989C150.469 44.1816 150.361 43.9921 150.18 43.8117C150.135 43.7575 150.072 43.6944 150.018 43.6402C150.162 43.4598 150.316 43.2794 150.46 43.0899C151.037 42.3501 151.552 41.5832 151.552 41.5832C151.552 41.5832 150.92 40.9516 150.162 40.4644C149.774 40.2389 149.404 39.9952 149.089 39.8599C148.791 39.7156 148.583 39.6254 148.583 39.6254C148.583 39.6254 148.069 40.4103 147.627 41.2403C147.51 41.4478 147.401 41.6553 147.293 41.8629C147.221 41.8358 147.14 41.8087 147.068 41.7817C146.824 41.6914 146.616 41.6644 146.463 41.6193C146.319 41.5832 146.238 41.5651 146.238 41.5651C146.238 41.5651 146.147 41.5561 146.003 41.529C145.85 41.511 145.642 41.4659 145.389 41.4569C145.317 41.4569 145.236 41.4478 145.155 41.4478C145.137 41.2223 145.11 40.9787 145.074 40.7441C144.965 39.8148 144.785 38.8945 144.785 38.8945C144.785 38.8945 144.559 38.9036 144.226 38.9216C143.892 38.9306 143.45 39.0118 143.008 39.084C142.132 39.2645 141.302 39.6073 141.302 39.6073C141.302 39.6073 141.501 40.5185 141.763 41.4208C141.835 41.6463 141.898 41.8809 141.97 42.0974C141.898 42.1335 141.826 42.1696 141.754 42.1967C141.519 42.3049 141.348 42.4403 141.221 42.5034C141.095 42.5846 141.023 42.6207 141.023 42.6207C141.023 42.6207 140.96 42.6749 140.833 42.7651C140.716 42.8643 140.536 42.9726 140.346 43.153C140.292 43.1981 140.229 43.2613 140.175 43.3154C140.003 43.1711 139.814 43.0267 139.624 42.8733C138.884 42.2959 138.118 41.7817 138.118 41.7817C138.118 41.7817 137.495 42.4222 136.999 43.1711C136.773 43.55 136.53 43.9289 136.403 44.2357C136.259 44.5425 136.169 44.7409 136.169 44.7409C136.169 44.7409 136.954 45.2552 137.775 45.6973C137.991 45.8146 138.199 45.9319 138.397 46.0311C138.37 46.1033 138.343 46.1845 138.316 46.2567C138.226 46.5003 138.199 46.7078 138.154 46.8521C138.118 46.9965 138.1 47.0777 138.1 47.0777C138.1 47.0777 138.09 47.1679 138.063 47.3123C138.054 47.4566 138 47.6732 137.991 47.9258C137.991 47.998 137.982 48.0792 137.982 48.1604C137.757 48.1784 137.522 48.2055 137.278 48.2325C136.358 48.3498 135.429 48.5303 135.429 48.5303C135.429 48.5303 135.438 48.7468 135.465 49.0806C135.474 49.4145 135.555 49.8565 135.627 50.2986C135.817 51.1738 136.16 52.0038 136.16 52.0038C136.16 52.0038 137.071 51.8144 137.964 51.5437C138.199 51.4805 138.424 51.4084 138.641 51.3362C138.677 51.4084 138.713 51.4806 138.74 51.5527C138.848 51.7873 138.975 51.9587 139.047 52.085C139.128 52.2114 139.173 52.2835 139.173 52.2835C139.173 52.2835 139.227 52.3467 139.318 52.473C139.408 52.5813 139.516 52.7707 139.696 52.9602C139.751 53.0143 139.805 53.0775 139.859 53.1316C139.714 53.303 139.561 53.4925 139.417 53.682C138.839 54.4218 138.325 55.1887 138.325 55.1887C138.325 55.1887 138.966 55.8112 139.715 56.3074C140.093 56.542 140.481 56.7766 140.788 56.9119C141.086 57.0472 141.293 57.1465 141.293 57.1465C141.293 57.1465 141.799 56.3525 142.25 55.5315C142.367 55.324 142.484 55.1075 142.584 54.909C142.656 54.936 142.737 54.9631 142.809 54.9902C143.053 55.0804 143.26 55.1075 143.414 55.1436C143.558 55.1797 143.639 55.1977 143.639 55.1977C143.639 55.1977 143.72 55.2067 143.865 55.2248C144.018 55.2428 144.226 55.297 144.478 55.297C144.55 55.297 144.632 55.2969 144.713 55.306C144.731 55.5315 144.758 55.7661 144.794 56.0097C144.902 56.939 145.092 57.8593 145.092 57.8593C145.092 57.8593 145.317 57.8412 145.651 57.8232C145.994 57.8141 146.427 57.7329 146.869 57.6608C147.744 57.4803 148.574 57.1284 148.574 57.1375C148.574 57.1375 148.376 56.2262 148.114 55.324C148.051 55.0985 147.979 54.8639 147.907 54.6474C147.979 54.6203 148.06 54.5842 148.123 54.5481C148.358 54.4398 148.529 54.3045 148.665 54.2413C148.791 54.1601 148.863 54.115 148.863 54.115C148.863 54.115 148.935 54.0609 149.052 53.9707C149.17 53.8714 149.35 53.7632 149.531 53.5827C149.585 53.5376 149.648 53.4744 149.702 53.4203C149.874 53.5647 150.063 53.709 150.252 53.8624C150.983 54.4398 151.759 54.9631 151.759 54.9631C151.759 54.9631 152.391 54.3225 152.878 53.5737C153.113 53.1858 153.347 52.8158 153.482 52.5001C153.627 52.1933 153.717 51.9948 153.717 51.9948C153.717 51.9948 152.932 51.4806 152.111 51.0385C151.904 50.9753 151.687 50.867 151.488 50.7588ZM147.591 52.5993C147.492 52.6534 147.374 52.7527 147.203 52.8158C146.878 52.9963 146.418 53.1497 145.949 53.267C145.471 53.3572 144.983 53.3752 144.614 53.3572C144.433 53.3572 144.28 53.312 144.171 53.303C144.063 53.294 144.009 53.285 144.009 53.285C144.009 53.285 143.946 53.267 143.847 53.2399C143.738 53.2038 143.585 53.1948 143.414 53.1316C143.062 53.0143 142.62 52.8249 142.205 52.5632C141.808 52.2835 141.438 51.9677 141.203 51.679C141.077 51.5527 141.005 51.4174 140.932 51.3362C140.869 51.246 140.824 51.2009 140.824 51.2009C140.824 51.2009 140.788 51.1467 140.734 51.0565C140.689 50.9663 140.581 50.84 140.517 50.6685C140.337 50.3437 140.184 49.8836 140.066 49.4144C139.976 48.9363 139.958 48.4491 139.976 48.0792C139.976 47.8987 140.021 47.7453 140.03 47.6371C140.048 47.5288 140.048 47.4656 140.048 47.4656C140.048 47.4656 140.066 47.4115 140.093 47.3032C140.13 47.204 140.139 47.0506 140.211 46.8792C140.319 46.5273 140.517 46.0853 140.779 45.6793C141.059 45.2823 141.375 44.9124 141.663 44.6778C141.79 44.5424 141.925 44.4703 142.006 44.4071C142.087 44.3349 142.141 44.2989 142.141 44.2989C142.141 44.2989 142.196 44.2718 142.286 44.2177C142.385 44.1635 142.502 44.0643 142.665 43.9921C142.99 43.8117 143.45 43.6583 143.928 43.55C144.406 43.4598 144.893 43.4327 145.263 43.4598C145.444 43.4598 145.597 43.5049 145.705 43.5139C145.804 43.532 145.868 43.532 145.868 43.532C145.868 43.532 145.922 43.55 146.03 43.5681C146.129 43.6042 146.283 43.6222 146.454 43.6763C146.806 43.7936 147.248 43.9921 147.663 44.2537C148.06 44.5334 148.43 44.8492 148.665 45.1379C148.8 45.2642 148.872 45.3996 148.944 45.4808C149.007 45.562 149.043 45.6071 149.043 45.6071C149.043 45.6071 149.08 45.6612 149.125 45.7605C149.179 45.8507 149.278 45.968 149.341 46.1394C149.522 46.4552 149.675 46.9243 149.792 47.3935C149.892 47.8717 149.901 48.3589 149.883 48.7197C149.883 48.9092 149.837 49.0536 149.828 49.1618C149.819 49.2701 149.81 49.3242 149.81 49.3242C149.81 49.3242 149.792 49.3784 149.765 49.4866C149.729 49.5949 149.711 49.7483 149.648 49.9107C149.531 50.2626 149.341 50.7046 149.071 51.1197C148.791 51.5166 148.475 51.8865 148.186 52.1211C148.06 52.2564 147.925 52.3286 147.844 52.4008C147.753 52.464 147.708 52.5001 147.708 52.5001C147.708 52.5001 147.681 52.5452 147.591 52.5993Z" fill="#DCDCDC"/>
<path d="M179.241 63.0381C179.06 62.9478 178.871 62.8666 178.708 62.7945C178.726 62.7313 178.745 62.6591 178.763 62.605C178.862 62.181 178.934 61.9013 178.934 61.9013C178.934 61.9013 178.979 61.6216 179.033 61.1885C179.042 61.1254 179.051 61.0532 179.051 60.99C179.241 60.981 179.439 60.972 179.638 60.963C180.396 60.9179 181.162 60.8366 181.162 60.8366C181.162 60.8366 181.171 60.6652 181.181 60.4126C181.181 60.2863 181.19 60.1329 181.19 59.9795C181.19 59.8171 181.171 59.6547 181.162 59.4833C181.135 59.1495 181.135 58.8066 181.081 58.554C181.036 58.3014 181.009 58.139 181.009 58.139C181.009 58.139 180.242 58.139 179.475 58.1751C179.277 58.1841 179.078 58.1931 178.898 58.2112C178.889 58.148 178.871 58.0758 178.862 58.0127C178.754 57.5886 178.672 57.3089 178.672 57.3089C178.672 57.3089 178.663 57.2368 178.618 57.1195C178.573 57.0022 178.51 56.8308 178.438 56.6233C178.42 56.5691 178.393 56.506 178.366 56.4338C178.519 56.3436 178.699 56.2353 178.871 56.1361C179.529 55.7391 180.161 55.315 180.161 55.315C180.161 55.315 180.089 55.1617 179.981 54.9361C179.872 54.7106 179.719 54.4038 179.538 54.1151C179.205 53.5287 178.781 52.9963 178.781 52.9963C178.781 52.9963 178.104 53.3572 177.445 53.7452C177.274 53.8444 177.102 53.9437 176.949 54.0429C176.904 53.9888 176.859 53.9346 176.823 53.8805C176.525 53.5557 176.336 53.3482 176.336 53.3482C176.336 53.3482 176.29 53.285 176.191 53.2038C176.101 53.1136 175.966 52.9963 175.803 52.852C175.758 52.8069 175.704 52.7617 175.659 52.7166C175.758 52.5542 175.866 52.3918 175.966 52.2204C176.372 51.5708 176.733 50.8942 176.733 50.8942C176.733 50.8942 176.597 50.7949 176.39 50.6415C176.29 50.5694 176.173 50.4791 176.038 50.3889C175.912 50.2987 175.758 50.2085 175.614 50.1273C175.045 49.7574 174.414 49.4867 174.414 49.4867C174.414 49.4867 173.981 50.1182 173.584 50.7678C173.476 50.9393 173.376 51.1107 173.277 51.2641C173.214 51.237 173.151 51.2099 173.097 51.1829C172.691 51.0385 172.411 50.9393 172.411 50.9393C172.411 50.9393 172.339 50.9122 172.221 50.8761C172.095 50.8491 171.924 50.8039 171.707 50.7498C171.644 50.7318 171.572 50.7137 171.509 50.7047C171.527 50.5243 171.536 50.3257 171.554 50.1182C171.581 49.7393 171.599 49.3514 171.608 49.0536C171.617 48.7649 171.617 48.5754 171.617 48.5754C171.617 48.5754 171.446 48.5484 171.202 48.5123C170.949 48.4852 170.624 48.413 170.282 48.404C169.939 48.386 169.605 48.3769 169.352 48.3679C169.1 48.3769 168.928 48.386 168.928 48.386C168.928 48.386 168.838 49.1529 168.784 49.9107C168.766 50.1092 168.757 50.3077 168.748 50.4881C168.685 50.4972 168.613 50.4972 168.549 50.5062C168.333 50.5152 168.152 50.5603 168.026 50.5784C167.9 50.5964 167.828 50.6145 167.828 50.6145C167.828 50.6145 167.755 50.6235 167.629 50.6415C167.503 50.6596 167.331 50.7047 167.115 50.7678C167.052 50.7859 166.989 50.8039 166.916 50.822C166.844 50.6505 166.763 50.4701 166.682 50.2897C166.366 49.5859 166.023 48.9003 166.023 48.9003C166.023 48.9003 165.987 48.9093 165.915 48.9363C165.843 48.9634 165.743 48.9995 165.626 49.0356C165.392 49.1258 165.067 49.2341 164.76 49.3784C164.462 49.5318 164.156 49.6761 163.921 49.7844C163.695 49.9017 163.56 50.001 163.56 50.001C163.56 50.001 163.84 50.7227 164.147 51.4265C164.228 51.6069 164.309 51.7874 164.381 51.9588C164.327 51.9949 164.264 52.0309 164.21 52.067C164.02 52.1753 163.885 52.3016 163.777 52.3738C163.677 52.446 163.623 52.4911 163.623 52.4911C163.623 52.4911 163.569 52.5362 163.461 52.6174C163.353 52.6806 163.226 52.8159 163.064 52.9603C163.019 52.9963 162.965 53.0505 162.92 53.0956C162.775 52.9783 162.622 52.861 162.468 52.7347C161.864 52.2565 161.241 51.8054 161.241 51.8054C161.241 51.8054 161.205 51.8325 161.16 51.8866C161.106 51.9407 161.043 52.0219 160.953 52.1122C160.79 52.3016 160.547 52.5452 160.339 52.8159C160.141 53.0866 159.933 53.3662 159.789 53.5647C159.644 53.7813 159.563 53.9256 159.563 53.9256C159.563 53.9256 160.141 54.4399 160.736 54.9181C160.89 55.0444 161.043 55.1707 161.196 55.2789C161.16 55.3331 161.124 55.3962 161.088 55.4504C160.971 55.6308 160.908 55.8113 160.853 55.9195C160.799 56.0368 160.772 56.1 160.772 56.1C160.772 56.1 160.736 56.1631 160.691 56.2804C160.628 56.3977 160.565 56.5691 160.493 56.7676C160.475 56.8218 160.447 56.8849 160.429 56.9571C160.249 56.921 160.05 56.8849 159.861 56.8488C159.103 56.7045 158.336 56.6052 158.336 56.6052C158.336 56.6052 158.273 56.7676 158.219 57.0112C158.156 57.2548 158.075 57.5886 158.002 57.9134C157.957 58.2473 157.903 58.5811 157.867 58.8337C157.831 59.0863 157.831 59.2487 157.831 59.2487C157.831 59.2487 158.58 59.4292 159.338 59.5826C159.536 59.6187 159.726 59.6547 159.906 59.6908C159.906 59.763 159.906 59.8352 159.897 59.8893C159.888 60.1058 159.879 60.2863 159.897 60.4126C159.906 60.5389 159.906 60.6111 159.906 60.6111C159.906 60.6111 159.906 60.6833 159.915 60.8096C159.933 60.9359 159.915 61.1163 159.96 61.3329C159.969 61.396 159.978 61.4682 159.996 61.5314C159.816 61.5855 159.626 61.6396 159.437 61.7028C158.706 61.9283 157.975 62.19 157.975 62.19C157.975 62.19 158.002 62.3524 158.048 62.605C158.111 62.8486 158.201 63.1734 158.282 63.5072C158.372 63.832 158.508 64.1478 158.589 64.3824C158.634 64.4997 158.67 64.5989 158.697 64.6711C158.724 64.7433 158.742 64.7793 158.742 64.7793C158.742 64.7793 159.491 64.5899 160.231 64.3734C160.42 64.3192 160.61 64.2561 160.79 64.2019C160.817 64.2651 160.844 64.3282 160.881 64.3824C160.98 64.5809 161.052 64.7433 161.124 64.8515C161.187 64.9598 161.232 65.023 161.232 65.023C161.232 65.023 161.268 65.0861 161.341 65.1944C161.413 65.3027 161.485 65.465 161.629 65.6365C161.665 65.6816 161.711 65.7447 161.747 65.7989C161.62 65.9252 161.476 66.0695 161.332 66.2049C160.79 66.7372 160.267 67.3146 160.267 67.3146C160.267 67.3146 160.366 67.459 160.529 67.6484C160.7 67.8379 160.926 68.0815 161.16 68.3341C161.395 68.5777 161.656 68.7942 161.837 68.9657C161.927 69.0469 162.008 69.1191 162.062 69.1732C162.117 69.2183 162.153 69.2454 162.153 69.2454C162.153 69.2454 162.73 68.7311 163.28 68.1897C163.425 68.0544 163.56 67.9101 163.695 67.7838C163.75 67.8198 163.804 67.865 163.858 67.9011C164.029 68.0364 164.174 68.1446 164.291 68.1988C164.399 68.2619 164.462 68.307 164.462 68.307C164.462 68.307 164.525 68.3431 164.634 68.4063C164.742 68.4694 164.895 68.5777 165.094 68.6679C165.148 68.695 165.211 68.7221 165.274 68.7491C165.211 68.9296 165.157 69.1191 165.094 69.3085C164.868 70.0393 164.67 70.7791 164.67 70.7791C164.67 70.7791 164.823 70.8513 165.058 70.9596C165.292 71.0498 165.617 71.1581 165.933 71.2754C166.249 71.3926 166.583 71.4468 166.826 71.5189C167.079 71.5821 167.232 71.6182 167.232 71.6182C167.232 71.6182 167.295 71.4378 167.395 71.1671C167.494 70.8964 167.62 70.5265 167.737 70.1656C167.801 69.9761 167.864 69.7867 167.918 69.6062C167.981 69.6153 168.053 69.6243 168.116 69.6333C168.333 69.6604 168.513 69.6875 168.64 69.7055C168.766 69.7145 168.838 69.7145 168.838 69.7145C168.838 69.7145 169.127 69.7235 169.56 69.7416C169.623 69.7416 169.695 69.7416 169.758 69.7326C169.785 69.913 169.822 70.1115 169.858 70.301C169.993 71.0498 170.164 71.7986 170.164 71.7986C170.164 71.7986 170.841 71.7806 171.509 71.6453C171.671 71.6182 171.843 71.5911 171.996 71.5641C172.149 71.519 172.294 71.4829 172.411 71.4558C172.655 71.3927 172.817 71.3475 172.817 71.3475C172.817 71.3475 172.727 70.5897 172.591 69.8318C172.564 69.6333 172.528 69.4348 172.492 69.2544C172.555 69.2273 172.618 69.2093 172.682 69.1822C172.889 69.11 173.051 69.0469 173.178 69.0018C173.295 68.9657 173.358 68.9206 173.358 68.9206C173.358 68.9206 173.62 68.7943 174.008 68.6048C174.062 68.5777 174.125 68.5416 174.179 68.5055C174.288 68.6499 174.405 68.8123 174.531 68.9657C175 69.5702 175.496 70.1566 175.496 70.1566C175.496 70.1566 176.083 69.8228 176.615 69.3987C176.895 69.2003 177.139 68.9747 177.328 68.8033C177.517 68.6319 177.635 68.5146 177.635 68.5146C177.635 68.5146 177.202 67.883 176.742 67.2785C176.615 67.1161 176.498 66.9627 176.381 66.8184C176.426 66.7642 176.471 66.7191 176.516 66.665C176.66 66.5026 176.787 66.3673 176.868 66.277C176.949 66.1868 176.994 66.1146 176.994 66.1146C176.994 66.1146 177.166 65.8801 177.427 65.5372C177.463 65.4831 177.499 65.4199 177.536 65.3658C177.698 65.447 177.878 65.5282 178.068 65.6094C178.763 65.9252 179.475 66.2139 179.475 66.2139C179.475 66.2139 179.557 66.0695 179.692 65.853C179.836 65.6365 179.963 65.3297 180.107 65.023C180.179 64.8696 180.251 64.7162 180.314 64.5718C180.369 64.4185 180.423 64.2831 180.459 64.1658C180.54 63.9222 180.603 63.7689 180.603 63.7689C180.603 63.7689 179.935 63.3629 179.241 63.0381ZM175.614 65.1854C175.542 65.2666 175.442 65.3748 175.316 65.5101C175.253 65.5823 175.19 65.6545 175.118 65.7267C175.036 65.7989 174.955 65.871 174.874 65.9432C174.703 66.0966 174.531 66.268 174.333 66.4034C173.954 66.7101 173.539 66.9447 173.223 67.1251C172.898 67.2875 172.682 67.3958 172.682 67.3958C172.682 67.3958 172.627 67.4319 172.528 67.4589C172.429 67.495 172.285 67.5492 172.122 67.6123C172.041 67.6394 171.951 67.6845 171.852 67.7116C171.752 67.7386 171.644 67.7657 171.536 67.8018C171.319 67.865 171.085 67.9281 170.85 67.9462C170.381 68.0454 169.894 68.0544 169.533 68.0725C169.172 68.0544 168.928 68.0454 168.928 68.0454C168.928 68.0454 168.865 68.0454 168.766 68.0364C168.658 68.0183 168.513 68.0003 168.333 67.9732C168.152 67.9462 167.945 67.9281 167.728 67.865C167.512 67.8018 167.268 67.7747 167.043 67.6845C166.817 67.6033 166.583 67.5311 166.375 67.4409C166.168 67.3417 165.987 67.2514 165.825 67.1793C165.662 67.1071 165.536 67.0169 165.446 66.9627C165.356 66.9086 165.301 66.8725 165.301 66.8725C165.301 66.8725 165.247 66.8454 165.157 66.7913C165.067 66.7462 164.95 66.647 164.805 66.5387C164.507 66.3402 164.147 66.0154 163.795 65.6816C163.632 65.5011 163.47 65.3207 163.326 65.1583C163.19 64.9778 163.064 64.8064 162.956 64.6621C162.838 64.5267 162.775 64.3824 162.721 64.3012C162.667 64.2109 162.631 64.1568 162.631 64.1568C162.631 64.1568 162.595 64.1027 162.541 64.0125C162.477 63.9313 162.423 63.7869 162.342 63.6245C162.171 63.3087 161.999 62.8576 161.846 62.3975C161.792 62.1629 161.72 61.9373 161.665 61.7118C161.629 61.4862 161.593 61.2787 161.566 61.1073C161.53 60.9269 161.539 60.7735 161.53 60.6742C161.521 60.566 161.521 60.5119 161.521 60.5119C161.521 60.5119 161.521 60.4487 161.512 60.3495C161.494 60.2412 161.503 60.0968 161.512 59.9164C161.521 59.7359 161.512 59.5284 161.539 59.3029C161.575 59.0773 161.611 58.8337 161.638 58.5991C161.693 58.3646 161.756 58.13 161.81 57.9134C161.864 57.6969 161.954 57.4984 162.008 57.327C162.062 57.1556 162.117 57.0112 162.171 56.921C162.216 56.8218 162.243 56.7676 162.243 56.7676C162.243 56.7676 162.27 56.7135 162.315 56.6233C162.369 56.5331 162.414 56.3797 162.504 56.2263C162.595 56.0729 162.703 55.8925 162.82 55.703C162.947 55.5225 163.1 55.3331 163.235 55.1346C163.542 54.7647 163.867 54.4128 164.147 54.1782C164.282 54.0609 164.381 53.9527 164.471 53.8895C164.553 53.8264 164.607 53.7903 164.607 53.7903C164.607 53.7903 164.652 53.7542 164.742 53.6911C164.832 53.6369 164.94 53.5287 165.094 53.4384C165.247 53.3482 165.428 53.2309 165.626 53.1136C165.825 53.0144 166.041 52.9061 166.258 52.8069C166.7 52.6264 167.151 52.455 167.512 52.3828C167.683 52.3377 167.828 52.2926 167.936 52.2836C168.044 52.2655 168.098 52.2565 168.098 52.2565C168.098 52.2565 168.161 52.2475 168.261 52.2295C168.369 52.2204 168.513 52.1753 168.694 52.1663C168.874 52.1573 169.082 52.1392 169.307 52.1212C169.533 52.1212 169.776 52.1392 170.02 52.1482C170.264 52.1482 170.498 52.2114 170.724 52.2295C170.949 52.2475 171.148 52.3016 171.328 52.3558C171.5 52.4009 171.653 52.4279 171.752 52.455C171.852 52.4821 171.906 52.5091 171.906 52.5091C171.906 52.5091 172.131 52.5903 172.474 52.7076C172.799 52.861 173.25 53.0414 173.647 53.3121C173.863 53.4294 174.053 53.5738 174.224 53.7091C174.315 53.7722 174.405 53.8444 174.486 53.8985C174.567 53.9617 174.63 54.0339 174.703 54.088C174.838 54.2053 174.946 54.3136 175.027 54.3767C175.109 54.4399 175.145 54.494 175.145 54.494C175.145 54.494 175.307 54.6745 175.551 54.9361C175.776 55.2248 176.083 55.5947 176.318 56.0188C176.453 56.2173 176.552 56.4338 176.651 56.6413C176.696 56.7496 176.751 56.8398 176.796 56.93C176.832 57.0293 176.868 57.1195 176.895 57.2007C176.958 57.3721 177.012 57.5075 177.048 57.6067C177.084 57.7059 177.093 57.7601 177.093 57.7601C177.093 57.7601 177.157 57.9947 177.247 58.3465C177.31 58.6984 177.409 59.1675 177.418 59.6547C177.418 59.772 177.436 59.8983 177.436 60.0156C177.427 60.1329 177.427 60.2502 177.418 60.3585C177.409 60.584 177.409 60.7915 177.373 60.972C177.328 61.3329 177.292 61.5674 177.292 61.5674C177.292 61.5674 177.238 61.802 177.148 62.1539C177.111 62.3343 177.039 62.5328 176.958 62.7403C176.922 62.8486 176.886 62.9569 176.841 63.0742C176.796 63.1824 176.742 63.2907 176.687 63.3989C176.498 63.841 176.236 64.247 176.047 64.5538C175.83 64.8425 175.686 65.041 175.686 65.041C175.686 65.041 175.686 65.1042 175.614 65.1854Z" fill="#FFDC00"/>
<path d="M108.967 108.97C108.462 108.221 108.019 107.419 107.632 106.525L108.462 106.164C108.822 107.003 109.237 107.761 109.716 108.465L108.967 108.97ZM106.711 103.918C106.486 103.133 106.287 102.285 106.08 101.247L106.964 101.067C107.171 102.077 107.37 102.907 107.586 103.665L106.711 103.918ZM105.574 98.5857L105.457 97.9813C105.322 97.2866 105.214 96.5919 105.114 95.8971L106.008 95.7708C106.098 96.4475 106.215 97.1332 106.341 97.8098L106.459 98.4234L105.574 98.5857ZM104.835 93.1724C104.771 92.2612 104.726 91.3499 104.726 90.4387L105.629 90.4297C105.638 91.3139 105.674 92.2161 105.737 93.1002L104.835 93.1724ZM105.683 87.7501L104.781 87.7049C104.826 86.8027 104.907 85.8825 105.015 84.9802L105.908 85.0885C105.809 85.9727 105.737 86.8659 105.683 87.7501ZM106.314 82.436L105.43 82.2736C105.593 81.3804 105.791 80.4782 106.008 79.603L106.883 79.8195C106.666 80.6766 106.477 81.5608 106.314 82.436ZM107.604 77.2392L106.747 76.9685C107.027 76.1024 107.334 75.2363 107.659 74.3882L108.498 74.713C108.182 75.543 107.875 76.3911 107.604 77.2392ZM109.553 72.2499L108.732 71.871C109.111 71.0499 109.535 70.2289 109.968 69.4259L110.762 69.859C110.338 70.6439 109.932 71.4469 109.553 72.2499ZM112.125 67.5583L111.367 67.0711C111.854 66.3042 112.377 65.5464 112.919 64.8156L113.64 65.3479C113.117 66.0697 112.603 66.8095 112.125 67.5583ZM115.3 63.2638L114.615 62.6773C115.21 61.9826 115.824 61.3059 116.464 60.6563L117.105 61.2879C116.491 61.9194 115.878 62.5781 115.3 63.2638ZM119.045 59.4474L118.449 58.7707C119.135 58.1662 119.848 57.5888 120.569 57.0384L121.12 57.7512C120.407 58.2835 119.712 58.8609 119.045 59.4474ZM123.294 56.2174L122.807 55.4595C123.565 54.9723 124.35 54.4942 125.153 54.0521L125.586 54.846C124.801 55.2791 124.034 55.7392 123.294 56.2174ZM127.977 53.6551L127.607 52.8341C128.437 52.4551 129.285 52.1123 130.142 51.7965L130.449 52.6446C129.619 52.9423 128.789 53.2852 127.977 53.6551ZM132.993 51.8146L132.749 50.9484C133.625 50.7048 134.518 50.4793 135.411 50.2988L135.591 51.183C134.716 51.3635 133.841 51.58 132.993 51.8146Z" fill="#464646"/>
<path d="M60.8691 221.094H63.4258L69.9473 237.322L76.4551 221.094H79.0254L70.9316 241H68.9355L60.8691 221.094ZM60.0352 221.094H62.291L62.6602 233.234V241H60.0352V221.094ZM77.5898 221.094H79.8457V241H77.2207V233.234L77.5898 221.094ZM83.4277 233.768V233.453C83.4277 232.387 83.5827 231.398 83.8926 230.486C84.2025 229.566 84.6491 228.768 85.2324 228.094C85.8158 227.41 86.5221 226.882 87.3516 226.508C88.181 226.125 89.1107 225.934 90.1406 225.934C91.1797 225.934 92.1139 226.125 92.9434 226.508C93.7819 226.882 94.4928 227.41 95.0762 228.094C95.6686 228.768 96.1198 229.566 96.4297 230.486C96.7396 231.398 96.8945 232.387 96.8945 233.453V233.768C96.8945 234.834 96.7396 235.823 96.4297 236.734C96.1198 237.646 95.6686 238.443 95.0762 239.127C94.4928 239.801 93.7865 240.33 92.957 240.713C92.1367 241.087 91.207 241.273 90.168 241.273C89.1289 241.273 88.1947 241.087 87.3652 240.713C86.5358 240.33 85.8249 239.801 85.2324 239.127C84.6491 238.443 84.2025 237.646 83.8926 236.734C83.5827 235.823 83.4277 234.834 83.4277 233.768ZM85.957 233.453V233.768C85.957 234.506 86.0436 235.203 86.2168 235.859C86.39 236.507 86.6497 237.081 86.9961 237.582C87.3516 238.083 87.7936 238.48 88.3223 238.771C88.8509 239.054 89.4661 239.195 90.168 239.195C90.8607 239.195 91.4668 239.054 91.9863 238.771C92.515 238.48 92.9525 238.083 93.2988 237.582C93.6452 237.081 93.9049 236.507 94.0781 235.859C94.2604 235.203 94.3516 234.506 94.3516 233.768V233.453C94.3516 232.724 94.2604 232.036 94.0781 231.389C93.9049 230.732 93.6406 230.154 93.2852 229.652C92.9388 229.142 92.5013 228.741 91.9727 228.449C91.4531 228.158 90.8424 228.012 90.1406 228.012C89.4479 228.012 88.8372 228.158 88.3086 228.449C87.7891 228.741 87.3516 229.142 86.9961 229.652C86.6497 230.154 86.39 230.732 86.2168 231.389C86.0436 232.036 85.957 232.724 85.957 233.453ZM102.801 236.994L109.623 226.207H112.166V241H109.623V230.213L102.801 241H100.285V226.207H102.801V236.994ZM108.242 220.848H110.293C110.293 221.559 110.129 222.192 109.801 222.748C109.473 223.295 109.003 223.723 108.393 224.033C107.782 224.343 107.057 224.498 106.219 224.498C104.952 224.498 103.949 224.161 103.211 223.486C102.482 222.803 102.117 221.923 102.117 220.848H104.168C104.168 221.385 104.323 221.859 104.633 222.27C104.943 222.68 105.471 222.885 106.219 222.885C106.948 222.885 107.467 222.68 107.777 222.27C108.087 221.859 108.242 221.385 108.242 220.848ZM131.895 238.471V230.855C131.895 230.272 131.776 229.766 131.539 229.338C131.311 228.9 130.965 228.563 130.5 228.326C130.035 228.089 129.461 227.971 128.777 227.971C128.139 227.971 127.579 228.08 127.096 228.299C126.622 228.518 126.248 228.805 125.975 229.16C125.71 229.516 125.578 229.898 125.578 230.309H123.049C123.049 229.78 123.186 229.256 123.459 228.736C123.732 228.217 124.124 227.747 124.635 227.328C125.154 226.9 125.774 226.562 126.494 226.316C127.223 226.061 128.035 225.934 128.928 225.934C130.003 225.934 130.951 226.116 131.771 226.48C132.601 226.845 133.248 227.396 133.713 228.135C134.187 228.864 134.424 229.78 134.424 230.883V237.773C134.424 238.266 134.465 238.79 134.547 239.346C134.638 239.902 134.77 240.38 134.943 240.781V241H132.305C132.177 240.708 132.077 240.321 132.004 239.838C131.931 239.346 131.895 238.89 131.895 238.471ZM132.332 232.031L132.359 233.809H129.803C129.083 233.809 128.44 233.868 127.875 233.986C127.31 234.096 126.836 234.264 126.453 234.492C126.07 234.72 125.779 235.007 125.578 235.354C125.378 235.691 125.277 236.087 125.277 236.543C125.277 237.008 125.382 237.432 125.592 237.814C125.801 238.197 126.116 238.503 126.535 238.73C126.964 238.949 127.488 239.059 128.107 239.059C128.882 239.059 129.566 238.895 130.158 238.566C130.751 238.238 131.22 237.837 131.566 237.363C131.922 236.889 132.113 236.429 132.141 235.982L133.221 237.199C133.157 237.582 132.984 238.006 132.701 238.471C132.419 238.936 132.04 239.382 131.566 239.811C131.102 240.23 130.546 240.581 129.898 240.863C129.26 241.137 128.54 241.273 127.738 241.273C126.736 241.273 125.856 241.077 125.1 240.686C124.352 240.294 123.769 239.77 123.35 239.113C122.939 238.448 122.734 237.705 122.734 236.885C122.734 236.092 122.889 235.395 123.199 234.793C123.509 234.182 123.956 233.676 124.539 233.275C125.122 232.865 125.824 232.555 126.645 232.346C127.465 232.136 128.381 232.031 129.393 232.031H132.332ZM145.348 234.492H140.494L140.467 232.469H144.432C145.215 232.469 145.867 232.391 146.387 232.236C146.915 232.081 147.312 231.849 147.576 231.539C147.84 231.229 147.973 230.846 147.973 230.391C147.973 230.035 147.895 229.725 147.74 229.461C147.594 229.188 147.371 228.964 147.07 228.791C146.77 228.609 146.396 228.477 145.949 228.395C145.512 228.303 144.997 228.258 144.404 228.258H141.164V241H138.635V226.207H144.404C145.343 226.207 146.186 226.289 146.934 226.453C147.69 226.617 148.333 226.868 148.861 227.205C149.399 227.533 149.809 227.952 150.092 228.463C150.374 228.973 150.516 229.575 150.516 230.268C150.516 230.714 150.424 231.138 150.242 231.539C150.06 231.94 149.791 232.296 149.436 232.605C149.08 232.915 148.643 233.171 148.123 233.371C147.604 233.562 147.007 233.686 146.332 233.74L145.348 234.492ZM145.348 241H139.578L140.836 238.949H145.348C146.049 238.949 146.633 238.863 147.098 238.689C147.562 238.507 147.909 238.252 148.137 237.924C148.374 237.587 148.492 237.186 148.492 236.721C148.492 236.256 148.374 235.859 148.137 235.531C147.909 235.194 147.562 234.939 147.098 234.766C146.633 234.583 146.049 234.492 145.348 234.492H141.506L141.533 232.469H146.332L147.248 233.234C148.059 233.298 148.747 233.499 149.312 233.836C149.878 234.173 150.306 234.602 150.598 235.121C150.889 235.632 151.035 236.188 151.035 236.789C151.035 237.482 150.903 238.092 150.639 238.621C150.383 239.15 150.01 239.592 149.518 239.947C149.025 240.294 148.428 240.558 147.727 240.74C147.025 240.913 146.232 241 145.348 241ZM160.291 226.207V241H157.748V226.207H160.291ZM165.254 226.207V228.258H152.881V226.207H165.254ZM166.498 233.768V233.453C166.498 232.387 166.653 231.398 166.963 230.486C167.273 229.566 167.719 228.768 168.303 228.094C168.886 227.41 169.592 226.882 170.422 226.508C171.251 226.125 172.181 225.934 173.211 225.934C174.25 225.934 175.184 226.125 176.014 226.508C176.852 226.882 177.563 227.41 178.146 228.094C178.739 228.768 179.19 229.566 179.5 230.486C179.81 231.398 179.965 232.387 179.965 233.453V233.768C179.965 234.834 179.81 235.823 179.5 236.734C179.19 237.646 178.739 238.443 178.146 239.127C177.563 239.801 176.857 240.33 176.027 240.713C175.207 241.087 174.277 241.273 173.238 241.273C172.199 241.273 171.265 241.087 170.436 240.713C169.606 240.33 168.895 239.801 168.303 239.127C167.719 238.443 167.273 237.646 166.963 236.734C166.653 235.823 166.498 234.834 166.498 233.768ZM169.027 233.453V233.768C169.027 234.506 169.114 235.203 169.287 235.859C169.46 236.507 169.72 237.081 170.066 237.582C170.422 238.083 170.864 238.48 171.393 238.771C171.921 239.054 172.536 239.195 173.238 239.195C173.931 239.195 174.537 239.054 175.057 238.771C175.585 238.48 176.023 238.083 176.369 237.582C176.715 237.081 176.975 236.507 177.148 235.859C177.331 235.203 177.422 234.506 177.422 233.768V233.453C177.422 232.724 177.331 232.036 177.148 231.389C176.975 230.732 176.711 230.154 176.355 229.652C176.009 229.142 175.572 228.741 175.043 228.449C174.523 228.158 173.913 228.012 173.211 228.012C172.518 228.012 171.908 228.158 171.379 228.449C170.859 228.741 170.422 229.142 170.066 229.652C169.72 230.154 169.46 230.732 169.287 231.389C169.114 232.036 169.027 232.724 169.027 233.453ZM189.057 239.195C189.658 239.195 190.214 239.072 190.725 238.826C191.235 238.58 191.654 238.243 191.982 237.814C192.311 237.377 192.497 236.88 192.543 236.324H194.949C194.904 237.199 194.607 238.015 194.061 238.771C193.523 239.519 192.816 240.125 191.941 240.59C191.066 241.046 190.105 241.273 189.057 241.273C187.945 241.273 186.974 241.077 186.145 240.686C185.324 240.294 184.641 239.756 184.094 239.072C183.556 238.389 183.15 237.605 182.877 236.721C182.613 235.827 182.48 234.884 182.48 233.891V233.316C182.48 232.323 182.613 231.384 182.877 230.5C183.15 229.607 183.556 228.818 184.094 228.135C184.641 227.451 185.324 226.913 186.145 226.521C186.974 226.13 187.945 225.934 189.057 225.934C190.214 225.934 191.226 226.171 192.092 226.645C192.958 227.109 193.637 227.747 194.129 228.559C194.63 229.361 194.904 230.272 194.949 231.293H192.543C192.497 230.682 192.324 230.131 192.023 229.639C191.732 229.146 191.331 228.755 190.82 228.463C190.319 228.162 189.731 228.012 189.057 228.012C188.282 228.012 187.63 228.167 187.102 228.477C186.582 228.777 186.167 229.188 185.857 229.707C185.557 230.217 185.338 230.787 185.201 231.416C185.074 232.036 185.01 232.669 185.01 233.316V233.891C185.01 234.538 185.074 235.176 185.201 235.805C185.329 236.434 185.543 237.003 185.844 237.514C186.154 238.024 186.568 238.434 187.088 238.744C187.617 239.045 188.273 239.195 189.057 239.195ZM203.932 241.273C202.902 241.273 201.967 241.1 201.129 240.754C200.299 240.398 199.584 239.902 198.982 239.264C198.39 238.626 197.934 237.869 197.615 236.994C197.296 236.119 197.137 235.162 197.137 234.123V233.549C197.137 232.346 197.314 231.275 197.67 230.336C198.025 229.388 198.508 228.586 199.119 227.93C199.73 227.273 200.423 226.777 201.197 226.439C201.972 226.102 202.774 225.934 203.604 225.934C204.661 225.934 205.572 226.116 206.338 226.48C207.113 226.845 207.746 227.355 208.238 228.012C208.73 228.659 209.095 229.424 209.332 230.309C209.569 231.184 209.688 232.141 209.688 233.18V234.314H198.641V232.25H207.158V232.059C207.122 231.402 206.985 230.764 206.748 230.145C206.52 229.525 206.156 229.014 205.654 228.613C205.153 228.212 204.469 228.012 203.604 228.012C203.029 228.012 202.501 228.135 202.018 228.381C201.535 228.618 201.12 228.973 200.773 229.447C200.427 229.921 200.158 230.5 199.967 231.184C199.775 231.867 199.68 232.656 199.68 233.549V234.123C199.68 234.825 199.775 235.486 199.967 236.105C200.167 236.716 200.454 237.254 200.828 237.719C201.211 238.184 201.671 238.548 202.209 238.812C202.756 239.077 203.376 239.209 204.068 239.209C204.962 239.209 205.718 239.027 206.338 238.662C206.958 238.298 207.5 237.81 207.965 237.199L209.496 238.416C209.177 238.899 208.771 239.359 208.279 239.797C207.787 240.234 207.181 240.59 206.461 240.863C205.75 241.137 204.907 241.273 203.932 241.273ZM215.17 229.051V246.688H212.627V226.207H214.951L215.17 229.051ZM225.137 233.48V233.768C225.137 234.843 225.009 235.841 224.754 236.762C224.499 237.673 224.125 238.466 223.633 239.141C223.15 239.815 222.553 240.339 221.842 240.713C221.131 241.087 220.315 241.273 219.395 241.273C218.456 241.273 217.626 241.118 216.906 240.809C216.186 240.499 215.576 240.048 215.074 239.455C214.573 238.863 214.172 238.152 213.871 237.322C213.579 236.493 213.379 235.559 213.27 234.52V232.988C213.379 231.895 213.584 230.915 213.885 230.049C214.186 229.183 214.582 228.445 215.074 227.834C215.576 227.214 216.182 226.745 216.893 226.426C217.604 226.098 218.424 225.934 219.354 225.934C220.283 225.934 221.108 226.116 221.828 226.48C222.548 226.836 223.154 227.346 223.646 228.012C224.139 228.677 224.508 229.475 224.754 230.404C225.009 231.325 225.137 232.35 225.137 233.48ZM222.594 233.768V233.48C222.594 232.742 222.516 232.049 222.361 231.402C222.206 230.746 221.965 230.172 221.637 229.68C221.318 229.178 220.908 228.786 220.406 228.504C219.905 228.212 219.308 228.066 218.615 228.066C217.977 228.066 217.421 228.176 216.947 228.395C216.482 228.613 216.086 228.91 215.758 229.283C215.43 229.648 215.161 230.067 214.951 230.541C214.751 231.006 214.6 231.489 214.5 231.99V235.531C214.682 236.169 214.938 236.771 215.266 237.336C215.594 237.892 216.031 238.343 216.578 238.689C217.125 239.027 217.813 239.195 218.643 239.195C219.326 239.195 219.914 239.054 220.406 238.771C220.908 238.48 221.318 238.083 221.637 237.582C221.965 237.081 222.206 236.507 222.361 235.859C222.516 235.203 222.594 234.506 222.594 233.768ZM235.309 234.492H230.455L230.428 232.469H234.393C235.176 232.469 235.828 232.391 236.348 232.236C236.876 232.081 237.273 231.849 237.537 231.539C237.801 231.229 237.934 230.846 237.934 230.391C237.934 230.035 237.856 229.725 237.701 229.461C237.555 229.188 237.332 228.964 237.031 228.791C236.73 228.609 236.357 228.477 235.91 228.395C235.473 228.303 234.958 228.258 234.365 228.258H231.125V241H228.596V226.207H234.365C235.304 226.207 236.147 226.289 236.895 226.453C237.651 226.617 238.294 226.868 238.822 227.205C239.36 227.533 239.77 227.952 240.053 228.463C240.335 228.973 240.477 229.575 240.477 230.268C240.477 230.714 240.385 231.138 240.203 231.539C240.021 231.94 239.752 232.296 239.396 232.605C239.041 232.915 238.604 233.171 238.084 233.371C237.564 233.562 236.967 233.686 236.293 233.74L235.309 234.492ZM235.309 241H229.539L230.797 238.949H235.309C236.01 238.949 236.594 238.863 237.059 238.689C237.523 238.507 237.87 238.252 238.098 237.924C238.335 237.587 238.453 237.186 238.453 236.721C238.453 236.256 238.335 235.859 238.098 235.531C237.87 235.194 237.523 234.939 237.059 234.766C236.594 234.583 236.01 234.492 235.309 234.492H231.467L231.494 232.469H236.293L237.209 233.234C238.02 233.298 238.708 233.499 239.273 233.836C239.839 234.173 240.267 234.602 240.559 235.121C240.85 235.632 240.996 236.188 240.996 236.789C240.996 237.482 240.864 238.092 240.6 238.621C240.344 239.15 239.971 239.592 239.479 239.947C238.986 240.294 238.389 240.558 237.688 240.74C236.986 240.913 236.193 241 235.309 241ZM247.121 236.994L253.943 226.207H256.486V241H253.943V230.213L247.121 241H244.605V226.207H247.121V236.994ZM266.467 239.195C267.068 239.195 267.624 239.072 268.135 238.826C268.645 238.58 269.064 238.243 269.393 237.814C269.721 237.377 269.908 236.88 269.953 236.324H272.359C272.314 237.199 272.018 238.015 271.471 238.771C270.933 239.519 270.227 240.125 269.352 240.59C268.477 241.046 267.515 241.273 266.467 241.273C265.355 241.273 264.384 241.077 263.555 240.686C262.734 240.294 262.051 239.756 261.504 239.072C260.966 238.389 260.561 237.605 260.287 236.721C260.023 235.827 259.891 234.884 259.891 233.891V233.316C259.891 232.323 260.023 231.384 260.287 230.5C260.561 229.607 260.966 228.818 261.504 228.135C262.051 227.451 262.734 226.913 263.555 226.521C264.384 226.13 265.355 225.934 266.467 225.934C267.624 225.934 268.636 226.171 269.502 226.645C270.368 227.109 271.047 227.747 271.539 228.559C272.04 229.361 272.314 230.272 272.359 231.293H269.953C269.908 230.682 269.734 230.131 269.434 229.639C269.142 229.146 268.741 228.755 268.23 228.463C267.729 228.162 267.141 228.012 266.467 228.012C265.692 228.012 265.04 228.167 264.512 228.477C263.992 228.777 263.577 229.188 263.268 229.707C262.967 230.217 262.748 230.787 262.611 231.416C262.484 232.036 262.42 232.669 262.42 233.316V233.891C262.42 234.538 262.484 235.176 262.611 235.805C262.739 236.434 262.953 237.003 263.254 237.514C263.564 238.024 263.979 238.434 264.498 238.744C265.027 239.045 265.683 239.195 266.467 239.195Z" fill="#011166"/>
</svg>
