<svg width="203" height="203" viewBox="0 0 203 203" fill="none" xmlns="http://www.w3.org/2000/svg">
<path d="M150.346 67.1975H147.342V40.2301C147.342 37.749 149.363 35.728 151.844 35.728H158.728V38.7324H151.844C151.014 38.7324 150.337 39.4091 150.337 40.2301V67.1975H150.346Z" fill="#B4B4B4"/>
<path d="M151.095 66.6379H146.593V73.955H151.095V66.6379Z" fill="#C8C8C8"/>
<path d="M151.591 73.6123H146.088V79.4677H151.591V73.6123Z" fill="#D2D2D2"/>
<path d="M160.605 34.7805H153.847V39.6615H160.605V34.7805Z" fill="#C8C8C8"/>
<path d="M163.988 33.8333H157.23V40.6089H163.988V33.8333Z" fill="#D2D2D2"/>
<path opacity="0.2" d="M157.23 34.7806H153.847V37.2256H163.988V33.8333H157.23V34.7806Z" fill="#D2D2D2"/>
<path opacity="0.2" d="M151.095 66.6379H148.849V79.4585H151.601V73.6121H151.095V66.6379Z" fill="#D2D2D2"/>
<path d="M153.847 35.719H152.846V38.7234H153.847V35.719Z" fill="#AAAAAA"/>
<path d="M150.346 65.5828H147.342V66.6383H150.346V65.5828Z" fill="#AAAAAA"/>
<path d="M139.53 53.2586L135.799 56.9663L158.097 79.4028L161.827 75.6951L139.53 53.2586Z" fill="#787878"/>
<path d="M159.955 77.5551L161.832 75.6876L139.529 53.2583L137.625 55.153L137.589 55.1891L159.955 77.5551Z" fill="#828282"/>
<path d="M138.446 46.1487C141.117 48.8373 141.099 53.177 138.41 55.8476C135.721 58.5182 131.373 58.5001 128.711 55.8205C126.149 53.2311 126.059 49.126 128.44 46.4464L131.346 52.753C132.13 54.4491 137.706 51.8868 136.921 50.1907L134.142 44.1548C135.703 44.2811 137.237 44.9397 138.446 46.1487Z" fill="#787878"/>
<path d="M158.52 76.0938C160.541 74.0818 163.807 74.0908 165.819 76.1208C167.75 78.0606 167.813 81.1553 166.027 83.1762L163.844 78.4305C163.257 77.1494 159.053 79.0892 159.639 80.3613L161.732 84.9085C160.55 84.8092 159.396 84.313 158.493 83.4018C156.49 81.3718 156.499 78.1057 158.52 76.0938Z" fill="#787878"/>
<path d="M164.656 51.0567L162.138 48.5395L165.486 45.9772L166.65 45.084L168.111 46.5456L167.227 47.7095L164.656 51.0567Z" fill="#C8C8C8"/>
<path d="M143.526 72.196L141.008 69.6698L162.842 48.9006L164.295 50.3622L143.526 72.196Z" fill="#C8C8C8"/>
<path d="M143.526 72.1959L164.132 50.5336L164.656 51.0569L167.227 47.7096L168.111 46.5457L167.38 45.8149L142.262 70.9328L143.526 72.1959Z" fill="#D2D2D2"/>
<path d="M144.058 73.1252C144.356 72.8365 144.356 72.3583 144.058 72.0606L141.135 69.1374C140.846 68.8396 140.368 68.8396 140.079 69.1374L139.411 69.796C139.123 70.0847 139.123 70.5629 139.411 70.8606L139.899 71.3478L128.458 81.7324C128.44 81.7504 128.413 81.7685 128.395 81.7865C127.854 82.3278 128.134 83.4827 128.928 84.2766C129.722 85.0706 130.876 85.3503 131.418 84.809C131.436 84.7909 131.454 84.7638 131.472 84.7458L141.856 73.3056L142.344 73.7928C142.641 74.0815 143.111 74.0815 143.408 73.7928L144.058 73.1252Z" fill="#008CAA"/>
<path d="M144.058 73.1251C144.356 72.8364 144.356 72.3582 144.058 72.0605L142.596 70.5989L128.919 84.2766C129.713 85.0705 130.867 85.3502 131.409 84.8089C131.427 84.7908 131.445 84.7638 131.463 84.7457L141.847 73.3055L142.335 73.7928C142.632 74.0815 143.102 74.0815 143.399 73.7928L144.058 73.1251Z" fill="#0096B4"/>
<path d="M139.89 71.3509L139.411 71.8293L141.357 73.7751L141.835 73.2966L139.89 71.3509Z" fill="#0082A0"/>
<path d="M167.227 47.7095L165.486 45.9772L166.649 45.084L168.111 46.5456L167.227 47.7095Z" fill="#969696"/>
<path d="M44.6329 126.924C44.4885 127.177 44.3983 127.376 44.3622 127.475C44.263 127.782 44.2269 127.926 44.1908 128.016C44.0194 127.971 43.8209 127.899 43.6675 127.944C43.5141 128.007 43.487 128.151 43.3066 128.206C43.0901 128.251 42.7743 128.133 42.5578 128.097C42.0976 128.025 41.6285 127.962 41.1683 127.854C40.4375 127.691 40.1849 127.006 40.221 126.311C40.2661 125.67 40.9157 125.454 41.439 125.382C41.9533 125.291 42.657 125.057 43.1442 125.346C43.8479 125.797 43.5682 127.123 44.6329 126.924Z" fill="#464646"/>
<path d="M54.2596 141.153C53.9168 141.153 53.3123 141.098 53.1679 140.702C52.7168 139.456 52.1574 137.796 51.968 137.029L51.9138 136.822C51.8146 136.461 51.7514 136.172 51.8507 136.037C51.9138 135.956 52.3289 135.55 54.3408 135.55C54.4581 135.55 54.5844 135.55 54.7107 135.55C56.1362 135.586 57.3181 135.595 58.2655 135.595C58.8699 135.595 59.3752 135.595 59.7992 135.586C60.1331 135.586 60.5571 135.595 61.0443 135.595C62.0368 135.595 63.2999 135.586 64.8517 135.55C64.987 135.55 65.1224 135.55 65.2396 135.55C67.2426 135.55 67.6486 135.956 67.7117 136.037C67.811 136.172 67.7478 136.452 67.6486 136.813L67.5945 137.02C67.405 137.787 66.8456 139.447 66.4035 140.692C66.2592 141.089 65.6547 141.144 65.3028 141.144L65.0502 141.135L54.4852 141.144C54.5032 141.153 54.3318 141.153 54.2596 141.153Z" fill="#464646"/>
<path d="M45.8058 143.706L45.8148 146.575C45.8148 146.773 45.6524 146.945 45.4539 146.945H40.8526C40.6541 146.945 40.4827 146.782 40.4827 146.575L40.4736 138.716C40.6451 140.593 40.8255 142.379 40.8435 142.515C40.8706 142.785 40.7804 143.101 40.9067 143.336C41.033 143.579 41.3308 143.642 41.818 143.642C41.9623 143.66 43.5863 143.679 45.8058 143.706Z" fill="#464646"/>
<path d="M45.3999 140.792C45.3999 141.568 44.7773 142.19 44.0104 142.19C43.2435 142.19 42.612 141.568 42.612 140.801C42.612 140.034 43.2345 139.403 44.0104 139.403C44.7683 139.403 45.3999 140.025 45.3999 140.792Z" fill="#464646"/>
<path d="M78.4031 127.827C77.9429 127.935 77.4738 127.998 77.0136 128.07C76.7971 128.098 76.4813 128.224 76.2648 128.179C76.0753 128.134 76.0483 127.98 75.8949 127.917C75.7325 127.863 75.543 127.944 75.3716 127.989C75.3355 127.908 75.2994 127.755 75.2002 127.448C75.1641 127.349 75.0739 127.15 74.9295 126.898C75.9941 127.087 75.7145 125.77 76.4182 125.328C76.9054 125.039 77.6091 125.265 78.1234 125.355C78.6376 125.427 79.2963 125.644 79.3414 126.284C79.3865 126.97 79.1339 127.655 78.4031 127.827Z" fill="#464646"/>
<path d="M47.7907 140.792C47.7907 141.342 47.3487 141.784 46.7983 141.784C46.257 141.784 45.8058 141.342 45.8058 140.792C45.8058 140.241 46.2479 139.799 46.7983 139.799C47.3487 139.799 47.7907 140.241 47.7907 140.792Z" fill="#464646"/>
<path d="M58.2565 165.341C42.1158 164.15 29.4756 150.527 29.4756 134.332C29.4756 120.05 39.1384 107.644 52.9876 104.171L53.9529 108.005C41.8722 111.037 33.4364 121.863 33.4364 134.332C33.4364 148.479 44.4706 160.361 58.5543 161.399L58.2565 165.341Z" fill="#464646"/>
<path d="M60.5662 105.208C57.3994 106.904 53.5559 109.593 51.3003 112.182L52.5454 106.318L49.7485 101.013C52.6356 102.899 57.0655 104.441 60.5662 105.208Z" fill="#464646"/>
<path d="M68.154 164.493L67.1886 160.659C79.2693 157.627 87.7051 146.801 87.7051 134.323C87.7051 120.059 76.5717 108.167 62.3617 107.238L62.6143 103.295C78.8994 104.351 91.6568 117.984 91.6568 134.323C91.6659 148.623 82.0031 161.02 68.154 164.493Z" fill="#464646"/>
<path d="M60.5662 163.456C63.733 161.76 67.5765 159.071 69.832 156.482L68.587 162.346L71.3839 167.651C68.5058 165.766 64.0759 164.223 60.5662 163.456Z" fill="#464646"/>
<path d="M74.7761 135.974C70.8514 135.974 67.6666 139.159 67.6666 143.092C67.6666 147.017 70.8514 150.202 74.7761 150.202C78.7007 150.202 81.8856 147.017 81.8856 143.092C81.8946 139.168 78.7098 135.974 74.7761 135.974ZM74.3069 148.1L70.5627 141.008L71.6634 140.422L74.343 145.501L77.8978 139.186L78.9804 139.799L74.3069 148.1Z" fill="#464646"/>
<path d="M66.7734 143.093C66.7734 142.425 66.8636 141.775 67.017 141.153C66.5118 142.01 65.2035 141.902 65.0592 141.902L54.5122 141.911C54.3679 141.911 52.8431 142.064 52.4461 140.963C52.0492 139.863 51.4356 138.094 51.2191 137.219C50.9935 136.29 50.2447 134.702 54.7197 134.801C57.0294 134.855 58.6985 134.846 59.7722 134.828C60.8458 134.846 62.5149 134.846 64.8336 134.783C69.3087 134.675 68.5688 136.272 68.3433 137.201C68.208 137.733 67.9283 138.618 67.6486 139.466C68.9749 136.876 71.6635 135.09 74.7671 135.09C76.4452 135.09 78.0061 135.613 79.2963 136.497C79.3775 135.55 79.4406 134.747 79.4587 134.386C79.5218 133.105 79.2421 132.654 79.2151 132.013C79.179 131.373 77.6813 130.001 77.2572 129.568C76.9776 129.289 75.9851 128.44 75.6513 128.233C75.4528 128.107 75.4167 128.107 75.3626 127.989C75.3265 127.908 75.2904 127.755 75.1912 127.448C75.1551 127.349 75.0648 127.15 74.9205 126.898C74.0634 125.346 71.5552 121.484 71.3477 121.268C71.1041 121.024 70.5537 120.537 69.7778 120.402C69.0019 120.266 61.2338 119.86 59.7722 119.86C58.3106 119.86 50.5424 120.284 49.7665 120.42C48.9906 120.555 48.4403 121.042 48.1967 121.286C47.9892 121.502 45.49 125.373 44.6329 126.925C44.4885 127.177 44.3983 127.376 44.3622 127.475C44.263 127.782 44.2269 127.926 44.1908 128.016C44.1547 128.098 43.9562 128.233 43.8841 128.278C43.866 128.287 43.857 128.296 43.857 128.296C43.6404 128.44 42.7743 129.036 42.3052 129.532C41.6014 130.281 40.3744 131.409 40.3473 132.049C40.3203 132.69 40.0406 133.15 40.1037 134.431C40.1308 135.054 40.3022 136.93 40.4736 138.726C40.645 140.602 40.8255 142.389 40.8435 142.524C40.8706 142.795 40.7804 143.111 40.9067 143.345C41.033 143.589 41.3308 143.652 41.818 143.652C41.9623 143.652 43.5863 143.67 45.8058 143.697C51.1108 143.76 59.7902 143.878 59.7902 143.878C59.7902 143.878 63.0563 143.832 66.8005 143.769C66.7915 143.553 66.7734 143.327 66.7734 143.093ZM76.2377 131.544C76.9234 131.544 77.0588 131.454 77.1941 132.094C77.2843 132.51 77.2843 133.06 77.1941 133.421C76.9144 134.747 75.2272 134.756 74.1265 134.756C72.1146 134.756 70.3643 135.261 68.7764 132.428C70.1387 132.022 71.7447 132.058 73.1161 131.833C74.1807 131.634 75.1912 131.544 76.2377 131.544ZM48.5936 121.466L59.7722 120.952L70.9597 121.439C70.9597 121.439 74.9927 127.719 74.6859 127.719C74.3972 127.719 64.3104 127.159 59.7812 127.259C55.2521 127.168 45.1742 127.755 44.8855 127.755C44.5788 127.746 48.5936 121.466 48.5936 121.466ZM42.3683 132.122C42.5036 131.49 42.648 131.571 43.3247 131.571C44.3803 131.571 45.3908 131.67 46.4373 131.851C47.8087 132.076 49.4056 132.031 50.777 132.437C49.1981 135.27 47.4478 134.774 45.4358 134.774C44.3442 134.774 42.657 134.774 42.3683 133.448C42.2871 133.087 42.2871 132.537 42.3683 132.122ZM49.559 142.353C48.8914 142.596 47.3486 142.542 46.6088 142.542C46.3381 142.542 46.0764 142.542 45.8058 142.542C45.1652 142.533 44.5246 142.515 43.875 142.506C43.5863 142.506 43.2976 142.497 43.0089 142.497C41.9082 142.497 41.7277 142.136 41.9713 141.036C42.2149 140.242 42.0616 139.484 42.8826 139.186C43.1803 139.078 44.1727 139.024 45.4088 139.042C45.5351 139.042 45.6704 139.042 45.8058 139.042C46.2118 139.051 46.6448 139.06 47.0869 139.078C47.3486 139.087 47.6102 139.105 47.8719 139.114C47.9711 139.114 48.0613 139.123 48.1515 139.132C48.2959 139.141 48.4312 139.15 48.5756 139.159C48.7109 139.168 48.8553 139.177 48.9816 139.195C49.1169 139.204 49.2523 139.222 49.3876 139.231C49.5861 139.249 49.7755 139.267 49.956 139.294C50.0823 139.312 50.1996 139.321 50.3169 139.339C50.4161 139.348 50.5063 139.366 50.5966 139.375C50.6417 139.384 50.6868 139.393 50.7319 139.402C50.7861 139.402 50.8492 139.421 50.9033 139.43C50.9214 139.43 50.9484 139.439 50.9665 139.439C51.0026 139.448 51.0387 139.448 51.0747 139.457C51.1289 139.475 51.183 139.484 51.2462 139.493C50.9304 140.539 50.6507 141.992 49.559 142.353Z" fill="#464646"/>
<path d="M89.1576 81.6514C88.914 81.5341 88.6704 81.4258 88.4358 81.3176C88.4538 81.2273 88.4899 81.1371 88.508 81.0559C88.6523 80.4875 88.7425 80.0996 88.7425 80.0996C88.7425 80.0996 88.7967 79.7116 88.8779 79.1252C88.8959 79.044 88.8959 78.9447 88.905 78.8545C89.1576 78.8455 89.4283 78.8274 89.6989 78.8184C90.7365 78.7643 91.765 78.656 91.765 78.656C91.765 78.656 91.774 78.4304 91.7831 78.0876C91.7921 77.9162 91.7921 77.7177 91.8011 77.5012C91.8011 77.2846 91.783 77.0591 91.765 76.8245C91.7289 76.3734 91.7289 75.9133 91.6567 75.5704C91.6026 75.2276 91.5665 75.002 91.5665 75.002C91.5665 75.002 90.5199 75.002 89.4914 75.0561C89.2207 75.0652 88.9501 75.0832 88.7065 75.0922C88.6884 75.002 88.6704 74.9118 88.6614 74.8306C88.508 74.2622 88.4087 73.8742 88.4087 73.8742C88.4087 73.8742 88.3907 73.775 88.3275 73.6126C88.2644 73.4502 88.1832 73.2246 88.0749 72.9449C88.0388 72.8637 88.0027 72.7825 87.9757 72.6923C88.1922 72.566 88.4268 72.4307 88.6523 72.2863C89.5455 71.754 90.4027 71.1766 90.4027 71.1766C90.4027 71.1766 90.3034 70.9691 90.15 70.6623C90.0057 70.3556 89.7982 69.9405 89.5546 69.5526C89.1035 68.7586 88.5351 68.0368 88.5351 68.0368C88.5351 68.0368 87.6148 68.524 86.7216 69.0473C86.487 69.1827 86.2614 69.327 86.0449 69.4533C85.9908 69.3812 85.9276 69.309 85.8735 69.2368C85.4765 68.8037 85.2059 68.515 85.2059 68.515C85.2059 68.515 85.1517 68.4338 85.0164 68.3256C84.8901 68.2083 84.7096 68.0369 84.4841 67.8474C84.4209 67.7933 84.3487 67.7301 84.2766 67.6669C84.4119 67.4504 84.5562 67.2158 84.6916 66.9903C85.2329 66.1061 85.7291 65.2039 85.7291 65.2039C85.7291 65.2039 85.5487 65.0685 85.269 64.861C85.1337 64.7618 84.9713 64.6445 84.7998 64.5182C84.6194 64.3919 84.4209 64.2836 84.2314 64.1663C83.4555 63.6611 82.6165 63.3002 82.6165 63.3002C82.6165 63.3002 82.03 64.1573 81.4797 65.0415C81.3353 65.267 81.191 65.5016 81.0647 65.7091C80.9835 65.673 80.8932 65.6279 80.812 65.6008C80.2527 65.4023 79.8827 65.267 79.8827 65.267C79.8827 65.267 79.7925 65.2309 79.6301 65.1768C79.4587 65.1317 79.2241 65.0775 78.9354 65.0054C78.8542 64.9873 78.755 64.9603 78.6738 64.9422C78.6918 64.6896 78.7099 64.428 78.7279 64.1483C78.764 63.625 78.782 63.1107 78.8001 62.7137C78.8091 62.3258 78.8181 62.0731 78.8181 62.0731C78.8181 62.0731 78.5926 62.0371 78.2497 61.9919C77.9069 61.9559 77.4648 61.8566 77.0047 61.8476C76.5445 61.8295 76.0844 61.8115 75.7415 61.8025C75.3987 61.8205 75.1731 61.8296 75.1731 61.8296C75.1731 61.8296 75.0468 62.8671 74.9747 63.8957C74.9476 64.1663 74.9386 64.428 74.9205 64.6806C74.8303 64.6896 74.731 64.6896 74.6498 64.6986C74.3521 64.7076 74.1175 64.7798 73.9461 64.7979C73.7747 64.8249 73.6845 64.843 73.6845 64.843C73.6845 64.843 73.5852 64.861 73.4138 64.8881C73.2424 64.9061 73.0078 64.9783 72.7191 65.0505C72.6379 65.0685 72.5477 65.0956 72.4574 65.1227C72.3582 64.8881 72.2499 64.6445 72.1417 64.4009C71.7176 63.4536 71.2485 62.5153 71.2485 62.5153C71.2485 62.5153 71.1943 62.5333 71.0951 62.5604C71.0049 62.5964 70.8695 62.6415 70.7071 62.6957C70.3914 62.822 69.9493 62.9573 69.5343 63.1558C69.1192 63.3543 68.7132 63.5528 68.4065 63.7062C68.1087 63.8686 67.9193 63.9949 67.9193 63.9949C67.9193 63.9949 68.2892 64.9693 68.7042 65.9166C68.8125 66.1602 68.9207 66.4038 69.02 66.6384C68.9478 66.6835 68.8576 66.7376 68.7854 66.7827C68.5328 66.9271 68.3433 67.0985 68.208 67.1978C68.0636 67.297 67.9914 67.3602 67.9914 67.3602C67.9914 67.3602 67.9102 67.4143 67.7749 67.5226C67.6306 67.6128 67.4591 67.7932 67.2336 67.9917C67.1704 68.0459 67.0982 68.109 67.0351 68.1722C66.8366 68.0188 66.6291 67.8474 66.4216 67.676C65.6096 67.0354 64.7525 66.4219 64.7525 66.4219C64.7525 66.4219 64.7074 66.4579 64.6442 66.5301C64.572 66.6023 64.4818 66.7106 64.3645 66.8369C64.139 67.0985 63.8142 67.4233 63.5345 67.7842C63.2638 68.1541 62.9841 68.524 62.7856 68.7947C62.5962 69.0834 62.4879 69.2819 62.4879 69.2819C62.4879 69.2819 63.2728 69.9766 64.0758 70.6262C64.2833 70.7976 64.4908 70.9601 64.6893 71.1134C64.6442 71.1946 64.5901 71.2758 64.545 71.348C64.3826 71.6006 64.3014 71.8352 64.2202 71.9796C64.148 72.1329 64.1119 72.2231 64.1119 72.2231C64.1119 72.2231 64.0668 72.3134 63.9946 72.4668C63.9134 72.6201 63.8322 72.8547 63.733 73.1254C63.7059 73.2066 63.6698 73.2968 63.6427 73.378C63.3991 73.3329 63.1375 73.2788 62.8668 73.2337C61.8473 73.0442 60.8098 72.8998 60.8098 72.8998C60.8098 72.8998 60.7286 73.1164 60.6564 73.4502C60.5752 73.784 60.4669 74.2261 60.3586 74.6682C60.2955 75.1193 60.2323 75.5704 60.1782 75.9133C60.1241 76.2561 60.1241 76.4816 60.1241 76.4816C60.1241 76.4816 61.1436 76.7343 62.1631 76.9327C62.4247 76.9869 62.6864 77.041 62.93 77.0771C62.93 77.1673 62.93 77.2666 62.921 77.3478C62.9119 77.6455 62.8939 77.8891 62.921 78.0605C62.93 78.2319 62.939 78.3312 62.939 78.3312C62.939 78.3312 62.948 78.4304 62.957 78.6019C62.9751 78.7733 62.9661 79.0169 63.0202 79.3056C63.0383 79.3868 63.0473 79.477 63.0653 79.5672C62.8217 79.6394 62.5691 79.7116 62.3165 79.7928C61.324 80.0905 60.3406 80.4514 60.3406 80.4514C60.3406 80.4514 60.3767 80.677 60.4398 81.0108C60.5301 81.3446 60.6474 81.7867 60.7647 82.2288C60.8819 82.6709 61.0714 83.0949 61.1887 83.4107C61.2519 83.5731 61.297 83.7084 61.3331 83.7987C61.3691 83.8979 61.3962 83.943 61.3962 83.943C61.3962 83.943 62.4157 83.6904 63.4082 83.3837C63.6608 83.3025 63.9224 83.2303 64.157 83.1491C64.1931 83.2303 64.2382 83.3205 64.2743 83.4017C64.4096 83.6633 64.4998 83.8889 64.6081 84.0333C64.6983 84.1776 64.7525 84.2588 64.7525 84.2588C64.7525 84.2588 64.8066 84.34 64.8968 84.4934C64.9961 84.6377 65.0953 84.8633 65.2848 85.0888C65.3389 85.161 65.3931 85.2332 65.4472 85.3054C65.2667 85.4768 65.0773 85.6663 64.8878 85.8557C64.157 86.5865 63.4443 87.3534 63.4443 87.3534C63.4443 87.3534 63.5706 87.5429 63.7961 87.8045C64.0307 88.0572 64.3374 88.4 64.6442 88.7338C64.96 89.0676 65.3119 89.3563 65.5645 89.5909C65.6998 89.7082 65.799 89.7984 65.8802 89.8706C65.9614 89.9338 66.0066 89.9699 66.0066 89.9699C66.0066 89.9699 66.7915 89.2752 67.5313 88.5444C67.7298 88.3549 67.9193 88.1654 68.0907 87.985C68.1629 88.0391 68.2441 88.1023 68.3072 88.1474C68.5418 88.3278 68.7403 88.4722 68.8937 88.5534C69.047 88.6436 69.1282 88.6977 69.1282 88.6977C69.1282 88.6977 69.2094 88.7519 69.3538 88.8331C69.5072 88.9143 69.7057 89.0676 69.9763 89.1849C70.0485 89.221 70.1387 89.2661 70.2199 89.3022C70.1387 89.5368 70.0575 89.7984 69.9854 90.0511C69.6696 91.0435 69.3989 92.045 69.3989 92.045C69.3989 92.045 69.6064 92.1442 69.9222 92.2886C70.238 92.4059 70.671 92.5593 71.1041 92.7126C71.5372 92.875 71.9883 92.9472 72.3131 93.0374C72.6559 93.1186 72.8725 93.1727 72.8725 93.1727C72.8725 93.1727 72.9627 92.9292 73.098 92.5683C73.2333 92.1984 73.3958 91.7021 73.5582 91.2059C73.6484 90.9533 73.7205 90.6917 73.8017 90.4571C73.892 90.4751 73.9912 90.4841 74.0724 90.4931C74.3611 90.5383 74.6047 90.5653 74.7762 90.5924C74.9476 90.6104 75.0468 90.6104 75.0468 90.6104C75.0468 90.6104 75.4438 90.6285 76.0302 90.6465C76.1114 90.6465 76.2107 90.6375 76.3009 90.6375C76.337 90.8811 76.3911 91.1518 76.4363 91.4134C76.6167 92.4239 76.8513 93.4434 76.8513 93.4434C76.8513 93.4434 77.7715 93.4164 78.6738 93.2359C78.8993 93.1908 79.1249 93.1637 79.3414 93.1186C79.5489 93.0645 79.7384 93.0103 79.9098 92.9743C80.2436 92.884 80.4692 92.8209 80.4692 92.8209C80.4692 92.8209 80.3429 91.7923 80.1624 90.7728C80.1173 90.5022 80.0722 90.2405 80.0271 89.9879C80.1083 89.9518 80.2075 89.9248 80.2797 89.8977C80.5504 89.7985 80.785 89.7082 80.9474 89.6451C81.1098 89.5909 81.2 89.5368 81.2 89.5368C81.2 89.5368 81.5519 89.3654 82.0842 89.1037C82.1563 89.0677 82.2375 89.0135 82.3187 88.9684C82.4721 89.1669 82.6345 89.3834 82.7969 89.5909C83.4285 90.4119 84.1051 91.1969 84.1051 91.1969C84.1051 91.1969 84.8991 90.7458 85.6119 90.1684C85.9908 89.9067 86.3246 89.5999 86.5772 89.3654C86.8298 89.1398 87.0013 88.9774 87.0013 88.9774C87.0013 88.9774 86.4148 88.1203 85.7833 87.2993C85.6209 87.0828 85.4495 86.8662 85.2961 86.6768C85.3592 86.6046 85.4224 86.5414 85.4765 86.4783C85.675 86.2617 85.8374 86.0813 85.9547 85.955C86.072 85.8287 86.1261 85.7384 86.1261 85.7384C86.1261 85.7384 86.3607 85.4227 86.7125 84.9535C86.7577 84.8813 86.8028 84.8001 86.8569 84.728C87.0825 84.8362 87.3261 84.9445 87.5697 85.0618C88.508 85.4858 89.4734 85.8738 89.4734 85.8738C89.4734 85.8738 89.5906 85.6753 89.7621 85.3866C89.9515 85.0979 90.123 84.6738 90.3305 84.2588C90.4297 84.0513 90.529 83.8438 90.6102 83.6453C90.6823 83.4378 90.7545 83.2573 90.8086 83.0949C90.9169 82.7701 90.9981 82.5536 90.9981 82.5536C90.9981 82.5536 90.0959 82.0844 89.1576 81.6514ZM84.2585 84.5385C84.1593 84.6468 84.033 84.8001 83.8615 84.9715C83.7803 85.0618 83.6901 85.161 83.5909 85.2693C83.4826 85.3595 83.3743 85.4588 83.2661 85.567C83.0405 85.7745 82.8059 86.0001 82.5353 86.1805C82.03 86.5955 81.4526 86.9113 81.0376 87.1549C80.5955 87.3715 80.3068 87.5158 80.3068 87.5158C80.3068 87.5158 80.2346 87.5609 80.0993 87.606C79.9639 87.6602 79.7745 87.7233 79.5489 87.8135C79.4316 87.8587 79.3143 87.9038 79.179 87.9399C79.0437 87.976 78.8993 88.0211 78.755 88.0572C78.4572 88.1384 78.1505 88.2286 77.8257 88.2647C77.1851 88.4 76.5355 88.409 76.0483 88.4361C75.5611 88.418 75.2363 88.4 75.2363 88.4C75.2363 88.4 75.1551 88.4 75.0108 88.391C74.8664 88.3729 74.6679 88.3368 74.4243 88.3098C74.1807 88.2737 73.892 88.2466 73.6033 88.1564C73.3145 88.0752 72.9807 88.0301 72.674 87.9128C72.3672 87.7955 72.0605 87.7053 71.7717 87.588C71.5011 87.4527 71.2395 87.3354 71.0229 87.2361C70.7974 87.1459 70.635 87.0106 70.5086 86.9474C70.3914 86.8752 70.3192 86.8301 70.3192 86.8301C70.3192 86.8301 70.247 86.785 70.1297 86.7219C70.0034 86.6587 69.841 86.5234 69.6515 86.379C69.2455 86.1083 68.7583 85.6663 68.2892 85.2152C68.0727 84.9716 67.8561 84.728 67.6486 84.5024C67.4682 84.2588 67.2967 84.0333 67.1524 83.8348C66.999 83.6453 66.9178 83.4558 66.8276 83.3385C66.7554 83.2212 66.7103 83.1491 66.7103 83.1491C66.7103 83.1491 66.6652 83.0769 66.593 82.9596C66.5118 82.8423 66.4306 82.6528 66.3223 82.4363C66.0878 82.0032 65.8532 81.3988 65.6547 80.7762C65.5735 80.4604 65.4833 80.1447 65.4111 79.8469C65.366 79.5402 65.3119 79.2605 65.2758 79.0259C65.2216 78.7823 65.2397 78.5748 65.2216 78.4395C65.2126 78.2951 65.2036 78.2139 65.2036 78.2139C65.2036 78.2139 65.2036 78.1327 65.1855 77.9884C65.1675 77.844 65.1765 77.6455 65.1946 77.4019C65.2126 77.1583 65.1945 76.8696 65.2306 76.5719C65.2757 76.2651 65.3209 75.9403 65.366 75.6245C65.4472 75.3088 65.5194 74.993 65.5915 74.6953C65.6637 74.3975 65.781 74.1359 65.8622 73.9103C65.9344 73.6757 66.0066 73.4863 66.0787 73.36C66.1419 73.2336 66.169 73.1615 66.169 73.1615C66.169 73.1615 66.2051 73.0893 66.2682 72.963C66.3404 72.8367 66.3945 72.6382 66.5298 72.4397C66.6562 72.2322 66.8005 71.9886 66.9629 71.7269C67.1343 71.4743 67.3328 71.2217 67.5223 70.96C67.9373 70.4638 68.3794 69.9766 68.7583 69.6608C68.9388 69.4984 69.0831 69.3541 69.2004 69.2729C69.3177 69.1827 69.3809 69.1376 69.3809 69.1376C69.3809 69.1376 69.4531 69.0925 69.5613 69.0022C69.6786 68.921 69.823 68.7767 70.0395 68.6594C70.247 68.5331 70.4906 68.3797 70.7523 68.2263C71.0229 68.1 71.3206 67.9466 71.6094 67.8023C72.2138 67.5496 72.8274 67.3331 73.3055 67.2249C73.5401 67.1617 73.7386 67.0985 73.8739 67.0895C74.0183 67.0624 74.0905 67.0534 74.0905 67.0534C74.0905 67.0534 74.1717 67.0444 74.307 67.0173C74.4513 67.0083 74.6499 66.9452 74.8935 66.9361C75.1371 66.9181 75.4167 66.9 75.7235 66.882C76.0302 66.882 76.355 66.9091 76.6798 66.9091C77.0046 66.9091 77.3294 66.9903 77.6362 67.0264C77.9339 67.0534 78.2136 67.1346 78.4572 67.1888C78.6918 67.2429 78.8903 67.297 79.0347 67.3241C79.17 67.3692 79.2421 67.3963 79.2421 67.3963C79.2421 67.3963 79.5489 67.5045 80.009 67.6669C80.4511 67.8744 81.0556 68.118 81.597 68.4789C81.8857 68.6413 82.1383 68.8308 82.3819 69.0203C82.5082 69.1105 82.6255 69.2007 82.7338 69.2819C82.842 69.3631 82.9322 69.4623 83.0225 69.5435C83.2029 69.7059 83.3563 69.8413 83.4646 69.9405C83.5728 70.0307 83.627 70.0939 83.627 70.0939C83.627 70.0939 83.8435 70.3375 84.1773 70.6984C84.475 71.0863 84.8901 71.5916 85.2149 72.16C85.4043 72.4217 85.5307 72.7284 85.666 72.9991C85.7291 73.1344 85.8013 73.2697 85.8645 73.3961C85.9186 73.5224 85.9547 73.6487 85.9998 73.766C86.081 73.9915 86.1532 74.181 86.2073 74.3253C86.2614 74.4516 86.2705 74.5328 86.2705 74.5419C86.2705 74.5419 86.3607 74.8576 86.487 75.3268C86.5682 75.805 86.7035 76.4456 86.7125 77.0952C86.7216 77.2576 86.7487 77.4199 86.7396 77.5823C86.7306 77.7447 86.7306 77.8981 86.7216 78.0515C86.7126 78.3583 86.7125 78.647 86.6584 78.8815C86.5953 79.3687 86.5502 79.6935 86.5502 79.6935C86.5502 79.6935 86.469 80.0093 86.3517 80.4875C86.3156 80.7311 86.2073 80.9928 86.099 81.2905C86.0449 81.4349 85.9998 81.5792 85.9457 81.7326C85.8915 81.8769 85.8103 82.0213 85.7382 82.1747C85.4855 82.7791 85.1247 83.3205 84.872 83.7355C84.5833 84.1325 84.3848 84.3851 84.3848 84.3851C84.3848 84.3851 84.3578 84.4393 84.2585 84.5385Z" fill="#96B400"/>
<path d="M84.2856 108.492C80.415 115.421 76.1385 114.203 71.2214 114.203C68.5418 114.203 64.4096 114.212 63.7239 110.964C63.5074 110.071 63.5074 108.727 63.7239 107.716C64.0577 106.164 64.4006 106.372 66.0697 106.372C68.632 106.372 71.1041 106.597 73.6664 107.048C77.0227 107.599 80.9383 107.5 84.2856 108.492Z" fill="white"/>
<path d="M85.3773 125.77C84.6374 128.305 83.9698 131.842 81.2902 132.735C79.6572 133.33 75.8768 133.204 74.0904 133.204C71.1041 133.204 68.2621 133.087 65.2757 133.087C62.5961 133.087 62.145 132.194 62.7495 129.514C63.345 127.574 62.9751 125.734 64.978 124.985C66.8456 124.299 80.0993 124.624 85.3773 125.77Z" fill="#828282"/>
<path d="M69.2635 95.013C68.9117 95.6356 68.6771 96.1137 68.5959 96.3664C68.3523 97.1062 68.2531 97.4761 68.1809 97.6836C67.7478 97.5753 67.2787 97.3949 66.8907 97.5122C66.5118 97.6655 66.4486 98.0355 65.9975 98.1528C65.4652 98.261 64.6893 97.9633 64.166 97.8911C63.0472 97.7107 61.8924 97.5573 60.7736 97.2956C58.9872 96.8896 58.3557 95.2115 58.4639 93.5334C58.5812 91.9725 60.1782 91.4492 61.4413 91.2598C62.7044 91.0342 64.4276 90.4658 65.6095 91.1876C67.3418 92.2522 66.6561 95.4912 69.2635 95.013Z" fill="#D2D2D2"/>
<path d="M153.838 107.464C153.748 105.894 150.094 102.538 149.047 101.5C148.352 100.823 145.934 98.7483 145.113 98.2251C144.626 97.9183 144.527 97.9183 144.419 97.6206C144.338 97.4131 144.238 97.0341 143.995 96.2943C143.904 96.0417 143.679 95.5725 143.318 94.95C141.225 91.1516 135.099 81.6964 134.594 81.1821C133.989 80.5776 132.645 79.3957 130.75 79.0528C128.855 78.719 109.864 77.7356 106.282 77.7356C102.709 77.7446 83.7082 78.7641 81.8135 79.107C79.9098 79.4498 78.5745 80.6317 77.9791 81.2362C77.4648 81.7595 71.3658 91.2238 69.2726 95.0222C68.9208 95.6447 68.6862 96.1229 68.605 96.3755C68.3614 97.1153 68.2621 97.4852 68.19 97.6927C68.1088 97.9003 67.6216 98.2341 67.4321 98.3333C67.387 98.3694 67.3599 98.3784 67.3599 98.3784C66.8366 98.7393 64.7074 100.183 63.5616 101.392C61.8293 103.223 58.852 105.984 58.7708 107.545C58.6986 109.115 58.0309 110.225 58.1843 113.355C58.2565 114.889 58.6715 119.472 59.0956 123.866C59.5196 128.459 59.9527 132.816 59.9978 133.159C60.07 133.827 59.8534 134.576 60.1421 135.171C60.4489 135.767 61.1887 135.92 62.3797 135.92C62.7406 135.92 66.7103 135.974 72.1417 136.037C85.0976 136.191 106.336 136.461 106.336 136.461C106.336 136.461 128.251 136.136 141.135 135.956C146.25 135.875 149.958 135.83 150.292 135.83C151.483 135.83 152.223 135.676 152.53 135.081C152.818 134.485 152.602 133.737 152.674 133.069C152.728 132.609 153.495 124.741 153.991 118.922C154.217 116.369 154.397 114.212 154.442 113.256C154.578 110.143 153.91 109.016 153.838 107.464ZM146.53 106.309C148.208 106.3 148.542 106.083 148.885 107.644C149.101 108.655 149.101 109.999 148.885 110.892C148.208 114.14 144.076 114.14 141.396 114.14C136.479 114.149 132.203 115.376 128.323 108.447C131.661 107.446 135.577 107.554 138.933 106.995C141.496 106.535 143.968 106.309 146.53 106.309ZM78.9354 81.6783L106.273 80.4332L133.61 81.6242C133.61 81.6242 143.462 96.9619 142.714 96.9619C142.001 96.9619 117.361 95.5815 106.273 95.8342C95.2025 95.6086 70.5538 97.0341 69.8501 97.0431C69.1193 97.0341 78.9354 81.6783 78.9354 81.6783ZM63.724 107.725C64.0578 106.174 64.4006 106.381 66.0698 106.381C68.6321 106.381 71.1041 106.607 73.6664 107.058C77.0227 107.608 80.9384 107.5 84.2856 108.492C80.4151 115.421 76.1385 114.203 71.2214 114.203C68.5418 114.203 64.4097 114.212 63.724 110.964C63.5074 110.08 63.5074 108.736 63.724 107.725ZM81.2902 132.744C79.6572 133.34 75.8769 133.213 74.0905 133.213C73.4228 133.213 72.7733 133.204 72.1327 133.195C70.5538 133.177 68.9839 133.132 67.405 133.105C66.7013 133.096 65.9976 133.087 65.2758 133.087C62.5962 133.087 62.1451 132.194 62.7496 129.514C63.345 127.574 62.9751 125.734 64.978 124.985C65.7088 124.714 68.1358 124.597 71.1583 124.633C71.474 124.624 71.7989 124.633 72.1327 124.642C73.1342 124.66 74.1897 124.687 75.2544 124.732C75.8859 124.768 76.5265 124.795 77.1671 124.832C77.4017 124.841 77.6362 124.859 77.8528 124.877C78.2046 124.895 78.5475 124.913 78.8813 124.949C79.2241 124.976 79.567 125.003 79.8828 125.03C80.2256 125.057 80.5504 125.084 80.8662 125.12C81.3534 125.165 81.8135 125.22 82.2556 125.265C82.5624 125.301 82.8511 125.337 83.1308 125.382C83.3654 125.409 83.5999 125.445 83.8074 125.481C83.9157 125.499 84.024 125.517 84.1322 125.535C84.2766 125.553 84.4029 125.571 84.5382 125.608C84.5924 125.617 84.6465 125.617 84.7006 125.635C84.7909 125.653 84.8811 125.671 84.9713 125.68C85.1156 125.716 85.242 125.743 85.3773 125.77C84.6465 128.314 83.9789 131.842 81.2902 132.744ZM119.22 131.634L93.4341 131.661C93.0642 131.661 89.3381 132.031 88.3727 129.352C87.3893 126.672 85.9006 122.332 85.3773 120.194C84.8179 117.921 82.9954 114.032 93.9394 114.276C99.5963 114.402 103.674 114.393 106.3 114.357C108.925 114.393 113.012 114.393 118.66 114.258C129.613 113.996 127.791 117.884 127.24 120.158C126.708 122.305 125.228 126.645 124.263 129.325C123.316 131.986 119.581 131.634 119.22 131.634ZM147.378 133.015C145.258 133.024 143.21 133.087 141.126 133.123C140.278 133.15 139.429 133.159 138.563 133.15C136.777 133.15 132.997 133.294 131.355 132.699C128.675 131.806 127.998 128.278 127.258 125.734C127.439 125.689 127.637 125.653 127.845 125.617C128.116 125.562 128.404 125.517 128.702 125.463C128.9 125.436 129.108 125.4 129.307 125.373C129.37 125.364 129.433 125.355 129.505 125.346C129.776 125.31 130.064 125.274 130.353 125.238C130.371 125.238 130.407 125.229 130.425 125.229C130.714 125.201 131.003 125.165 131.3 125.129C132.031 125.048 132.798 124.985 133.601 124.922C133.818 124.913 134.043 124.886 134.269 124.877C135.487 124.786 136.75 124.714 137.977 124.678C138.302 124.66 138.617 124.642 138.942 124.624C139.177 124.615 139.402 124.615 139.628 124.615C139.908 124.606 140.178 124.606 140.44 124.597C140.674 124.588 140.891 124.579 141.108 124.588C144.301 124.534 146.9 124.651 147.658 124.931C149.652 125.671 149.291 127.511 149.895 129.451C150.509 132.113 150.058 133.015 147.378 133.015Z" fill="#D2D2D2"/>
<path d="M142.713 96.9618C142.443 96.9618 138.816 96.7633 133.809 96.5378C131.634 96.4385 129.225 96.3393 126.708 96.2401C119.481 95.9423 111.415 95.6987 106.291 95.825C99.7316 95.6987 88.3817 96.1408 80.0993 96.5378C75.2633 96.7633 71.465 96.9618 70.256 97.0069C70.0395 97.034 69.9132 97.034 69.859 97.034C69.1192 97.034 78.9354 81.6691 78.9354 81.6691L85.9186 81.3444L95.7348 80.9023L106.264 80.4331L133.61 81.615C133.61 81.615 134.936 83.6901 136.596 86.3246C137.508 87.7772 138.518 89.3831 139.429 90.9169C141.405 94.1469 143.038 96.9618 142.713 96.9618Z" fill="#787878"/>
<path d="M148.885 110.883C148.208 114.131 144.076 114.131 141.396 114.131C136.479 114.14 132.203 115.367 128.323 108.438C131.661 107.436 135.577 107.544 138.933 106.985C141.495 106.534 143.968 106.299 146.53 106.299C148.208 106.29 148.542 106.074 148.885 107.635C149.092 108.654 149.092 109.99 148.885 110.883Z" fill="white"/>
<path d="M147.378 133.014C144.383 133.023 141.55 133.141 138.554 133.15C136.768 133.15 132.988 133.294 131.345 132.699C128.666 131.805 127.989 128.278 127.249 125.733C132.527 124.579 145.781 124.227 147.658 124.921C149.652 125.661 149.291 127.502 149.895 129.442C150.509 132.112 150.058 133.014 147.378 133.014Z" fill="#828282"/>
<path d="M127.249 120.14C126.717 122.287 125.237 126.627 124.272 129.306C123.307 131.986 119.581 131.634 119.211 131.634L93.4251 131.661C93.0552 131.661 89.329 132.031 88.3637 129.352C87.3802 126.672 85.8916 122.332 85.3683 120.194C84.8089 117.92 82.9864 114.032 93.9304 114.275C99.5873 114.402 103.665 114.393 106.291 114.357C108.916 114.393 113.003 114.393 118.651 114.257C129.622 113.987 127.8 117.866 127.249 120.14Z" fill="#B4B4B4"/>
<path opacity="0.2" d="M149.038 101.5C148.343 100.823 145.925 98.7483 145.104 98.2251C144.617 97.9183 144.518 97.9183 144.41 97.6206C144.328 97.4131 144.229 97.0341 143.986 96.2943C143.895 96.0417 143.67 95.5725 143.309 94.95C141.216 91.1516 135.09 81.6964 134.584 81.1821C133.98 80.5776 132.636 79.3957 130.741 79.0528C128.846 78.728 109.963 77.7446 106.309 77.7356V80.4332L133.61 81.6242C133.61 81.6242 143.462 96.962 142.713 96.962C142.001 96.962 117.397 95.5906 106.3 95.8342V136.479H106.318C106.318 136.479 128.233 136.154 141.117 135.974C146.232 135.893 149.94 135.848 150.274 135.848C151.465 135.848 152.205 135.694 152.512 135.099C152.8 134.503 152.584 133.755 152.656 133.087C152.71 132.627 153.477 124.759 153.973 118.94C154.199 116.387 154.379 114.23 154.424 113.274C154.569 110.143 153.901 109.025 153.829 107.464C153.748 105.894 150.085 102.538 149.038 101.5ZM138.933 106.995C141.495 106.544 143.968 106.309 146.53 106.309C148.208 106.3 148.542 106.083 148.885 107.644C149.101 108.655 149.101 109.999 148.885 110.892C148.208 114.14 144.076 114.14 141.396 114.14C136.479 114.149 132.203 115.376 128.323 108.447C131.661 107.446 135.586 107.545 138.933 106.995ZM147.378 133.015C145.258 133.024 143.21 133.087 141.126 133.123C140.278 133.15 139.429 133.159 138.563 133.15C136.777 133.15 132.997 133.294 131.355 132.699C128.675 131.806 127.998 128.278 127.258 125.734C127.439 125.689 127.637 125.653 127.845 125.617C128.116 125.562 128.404 125.517 128.702 125.463C128.9 125.436 129.108 125.4 129.306 125.373C129.37 125.364 129.433 125.355 129.505 125.346C129.776 125.31 130.064 125.274 130.353 125.238C130.371 125.238 130.407 125.229 130.425 125.229C130.714 125.201 131.003 125.165 131.3 125.129C132.031 125.048 132.798 124.985 133.601 124.922C133.818 124.913 134.043 124.886 134.269 124.877C135.487 124.786 136.75 124.714 137.977 124.678C138.302 124.66 138.617 124.642 138.942 124.624C139.177 124.615 139.402 124.615 139.628 124.615C139.908 124.606 140.178 124.606 140.44 124.597C140.674 124.588 140.891 124.579 141.108 124.588C144.301 124.534 146.9 124.651 147.658 124.931C149.652 125.671 149.291 127.511 149.895 129.451C150.509 132.113 150.058 133.015 147.378 133.015Z" fill="#D2D2D2"/>
<path d="M72.1328 136.046L72.1418 143.075C72.1418 143.562 71.7358 143.968 71.2576 143.968L60.0069 143.977C59.5197 143.977 59.1137 143.571 59.1137 143.084L59.0956 123.875C59.5197 128.468 59.9528 132.825 59.9979 133.168C60.07 133.836 59.8535 134.585 60.1422 135.18C60.449 135.776 61.1888 135.929 62.3797 135.929C62.7316 135.929 66.7014 135.983 72.1328 136.046Z" fill="#626262"/>
<path d="M154.154 119.445L154.172 142.993C154.181 143.49 153.784 143.887 153.288 143.887L142.037 143.905C141.55 143.905 141.144 143.499 141.144 143.011L141.135 135.974C146.25 135.893 149.958 135.848 150.292 135.848C151.483 135.848 152.223 135.694 152.53 135.099C152.818 134.504 152.602 133.755 152.674 133.087C152.728 132.627 153.495 124.76 153.991 118.94C154.1 119.076 154.154 119.265 154.154 119.445Z" fill="#323232"/>
<path d="M71.1222 128.927C71.1222 130.813 69.6065 132.338 67.7208 132.338C65.8442 132.338 64.3104 130.813 64.3104 128.927C64.3104 127.042 65.8352 125.517 67.7208 125.517C69.5884 125.526 71.1222 127.051 71.1222 128.927Z" fill="#FFDC00"/>
<path d="M151.817 97.2144C150.698 97.476 149.534 97.6294 148.416 97.8189C147.892 97.8911 147.125 98.1888 146.593 98.0805C146.142 97.9632 146.07 97.6023 145.7 97.449C145.321 97.3317 144.843 97.5121 144.419 97.6204C144.338 97.4129 144.238 97.0339 143.995 96.2941C143.904 96.0415 143.679 95.5723 143.318 94.9498C145.916 95.4189 145.231 92.189 146.963 91.1244C148.145 90.4026 149.868 90.971 151.131 91.1965C152.394 91.377 153.991 91.9003 154.109 93.4611C154.226 95.1302 153.603 96.7994 151.817 97.2144Z" fill="#D2D2D2"/>
<path d="M76.9866 128.928C76.9866 130.263 75.904 131.355 74.5597 131.355C73.2244 131.355 72.1237 130.272 72.1327 128.928C72.1327 127.583 73.2154 126.492 74.5597 126.492C75.895 126.492 76.9866 127.583 76.9866 128.928Z" fill="#FFDC00"/>
<path d="M148.118 128.855C148.118 130.732 146.602 132.266 144.707 132.266C142.831 132.275 141.297 130.75 141.297 128.864C141.297 126.988 142.822 125.454 144.698 125.454C146.593 125.445 148.118 126.97 148.118 128.855Z" fill="#FFDC00"/>
<path d="M139.953 128.865C139.962 130.209 138.87 131.291 137.526 131.301C136.19 131.301 135.099 130.218 135.099 128.874C135.099 127.529 136.181 126.438 137.526 126.438C138.87 126.429 139.962 127.52 139.953 128.865Z" fill="#FFDC00"/>
<path opacity="0.45" d="M142.425 96.9349C140.458 96.8537 134.251 96.5199 127.249 96.2402C124.083 96.1229 120.744 95.9966 117.56 95.9244C113.427 95.8161 109.557 95.762 106.634 95.8342C95.5544 95.6086 70.9056 97.0431 70.2019 97.0341C70.1478 97.0341 70.1568 96.9259 70.238 96.7184C73.892 93.7049 88.5802 91.4403 106.164 91.4223C110.36 91.4223 114.402 91.5396 118.155 91.7742C117.984 91.4494 117.83 91.1065 117.713 90.7547C117.352 90.7276 116.937 90.2223 116.739 89.5366C116.495 88.7517 116.621 88.0209 116.982 87.8946C117.117 87.8585 117.244 87.8946 117.379 87.9848C117.136 87.4615 116.991 86.7037 116.883 86.1082C116.775 85.5488 116.73 84.9082 116.811 84.3218C116.973 83.5549 117.397 83.3384 118.074 82.9955C119.671 82.2467 122.008 81.2182 123.758 82.0031C124.344 82.2828 124.371 83.0858 124.38 83.6993C124.94 83.5278 125.643 83.3474 126.131 83.6993C126.221 83.7714 126.329 83.8617 126.401 83.9699C126.654 84.2767 126.807 84.6827 126.898 85.0616C127.096 86.027 126.88 87.1458 126.464 88.048C126.582 87.9848 126.726 87.8766 126.843 87.8946C127.204 88.0119 127.322 88.7427 127.096 89.5276C126.889 90.2043 126.473 90.7095 126.131 90.7456C125.923 91.3501 125.652 91.9005 125.31 92.3696C134.151 93.3531 140.557 94.9951 142.425 96.9349Z" fill="#646464"/>
<path opacity="0.15" d="M95.7347 80.9021L80.0992 96.5376C75.2633 96.7632 71.465 96.9616 70.256 97.0067L85.9186 81.3442L95.7347 80.9021Z" fill="white"/>
<path opacity="0.15" d="M139.438 90.9168L133.818 96.5376C131.643 96.4384 129.234 96.3391 126.717 96.2399L136.606 86.3245C137.508 87.7861 138.518 89.383 139.438 90.9168Z" fill="white"/>
<path d="M157.627 143.525C157.564 143.796 157.329 143.985 157.05 143.985H125.544C125.273 143.985 125.03 143.796 124.967 143.525L120.365 123.297H162.219L157.627 143.525Z" fill="#505050"/>
<path d="M149.417 123.261H133.186V113.716C133.186 111.56 134.936 109.8 137.102 109.8H145.501C147.658 109.8 149.417 111.56 149.417 113.716V123.261ZM136.127 120.329H146.485V113.725C146.485 113.193 146.052 112.751 145.51 112.751H137.111C136.569 112.751 136.136 113.193 136.136 113.725V120.329H136.127Z" fill="#505050"/>
<path d="M159.441 116.892C159.35 116.676 159.134 116.54 158.899 116.54H123.695C123.46 116.54 123.244 116.676 123.153 116.892L120.365 123.307H162.219L159.441 116.892Z" fill="#505050"/>
<path d="M157.05 143.977C157.32 143.977 157.564 143.787 157.627 143.516L162.229 123.289L159.441 116.874C159.35 116.657 159.134 116.522 158.899 116.522H141.297V143.968H157.05V143.977Z" fill="#5A5A5A"/>
<path d="M163.383 124.155C163.383 124.479 163.113 124.741 162.797 124.741H119.815C119.49 124.741 119.229 124.479 119.229 124.155V122.44C119.229 122.116 119.49 121.854 119.815 121.854H162.797C163.122 121.854 163.383 122.116 163.383 122.44V124.155Z" fill="#008CAA"/>
<path d="M133.601 120.816H126.916V125.779H133.601V120.816Z" fill="#FFDC00"/>
<path d="M155.678 120.816H148.993V125.779H155.678V120.816Z" fill="#FFDC00"/>
<path d="M142.831 128.864H139.781V139.817H142.831V128.864Z" fill="#96C800"/>
<path d="M146.774 132.816H135.821V135.866H146.774V132.816Z" fill="#96C800"/>
<path d="M87.4885 50.7588C87.5156 50.6866 87.5426 50.6054 87.5697 50.5332C87.6599 50.2896 87.687 50.0821 87.7321 49.9378C87.7682 49.7934 87.7862 49.7032 87.7862 49.7032C87.7862 49.7032 87.7952 49.6129 87.8223 49.4686C87.8404 49.3242 87.8855 49.1167 87.8945 48.8551C87.8945 48.7739 87.8945 48.6927 87.9035 48.6205C88.1291 48.6025 88.3727 48.5664 88.6072 48.5393C89.5275 48.431 90.4568 48.2416 90.4568 48.2416C90.4568 48.2416 90.4478 48.025 90.4207 47.6912C90.4207 47.3574 90.3305 46.9153 90.2583 46.4732C90.0779 45.589 89.726 44.768 89.726 44.768C89.726 44.768 88.8148 44.9575 87.9216 45.2281C87.687 45.3003 87.4614 45.3725 87.2449 45.4356C87.2088 45.3635 87.1727 45.2823 87.1456 45.2191C87.0374 44.9845 86.9111 44.8131 86.8389 44.6778C86.7577 44.5515 86.7126 44.4793 86.7126 44.4793C86.7126 44.4793 86.6585 44.4162 86.5682 44.2989C86.469 44.1816 86.3607 43.9921 86.1803 43.8117C86.1352 43.7575 86.072 43.6944 86.0179 43.6402C86.1622 43.4598 86.3156 43.2794 86.46 43.0899C87.0374 42.3501 87.5517 41.5832 87.5517 41.5832C87.5517 41.5832 86.9201 40.9516 86.1622 40.4644C85.7743 40.2389 85.4044 39.9952 85.0886 39.8599C84.7909 39.7156 84.5833 39.6254 84.5833 39.6254C84.5833 39.6254 84.0691 40.4103 83.627 41.2403C83.5097 41.4478 83.4014 41.6553 83.2932 41.8629C83.221 41.8358 83.1398 41.8087 83.0676 41.7817C82.824 41.6914 82.6165 41.6644 82.4631 41.6193C82.3188 41.5832 82.2376 41.5651 82.2376 41.5651C82.2376 41.5651 82.1474 41.5561 82.003 41.529C81.8496 41.511 81.6421 41.4659 81.3895 41.4569C81.3173 41.4569 81.2361 41.4478 81.1549 41.4478C81.1369 41.2223 81.1098 40.9787 81.0737 40.7441C80.9654 39.8148 80.785 38.8945 80.785 38.8945C80.785 38.8945 80.5594 38.9036 80.2256 38.9216C79.8918 38.9306 79.4497 39.0118 79.0076 39.084C78.1325 39.2645 77.3024 39.6073 77.3024 39.6073C77.3024 39.6073 77.5009 40.5185 77.7625 41.4208C77.8347 41.6463 77.8979 41.8809 77.9701 42.0974C77.8979 42.1335 77.8257 42.1696 77.7535 42.1967C77.5189 42.3049 77.3475 42.4403 77.2212 42.5034C77.0949 42.5846 77.0227 42.6207 77.0227 42.6207C77.0227 42.6207 76.9596 42.6749 76.8333 42.7651C76.716 42.8643 76.5355 42.9726 76.346 43.153C76.2919 43.1981 76.2288 43.2613 76.1746 43.3154C76.0032 43.1711 75.8137 43.0267 75.6243 42.8733C74.8845 42.2959 74.1176 41.7817 74.1176 41.7817C74.1176 41.7817 73.495 42.4222 72.9988 43.1711C72.7733 43.55 72.5297 43.9289 72.4033 44.2357C72.259 44.5425 72.1688 44.7409 72.1688 44.7409C72.1688 44.7409 72.9537 45.2552 73.7747 45.6973C73.9912 45.8146 74.1988 45.9319 74.3972 46.0311C74.3702 46.1033 74.3431 46.1845 74.316 46.2567C74.2258 46.5003 74.1988 46.7078 74.1537 46.8521C74.1176 46.9965 74.0995 47.0777 74.0995 47.0777C74.0995 47.0777 74.0905 47.1679 74.0634 47.3123C74.0544 47.4566 74.0003 47.6732 73.9913 47.9258C73.9913 47.998 73.9822 48.0792 73.9822 48.1604C73.7567 48.1784 73.5221 48.2055 73.2785 48.2325C72.3582 48.3498 71.429 48.5303 71.429 48.5303C71.429 48.5303 71.438 48.7468 71.465 49.0806C71.474 49.4145 71.5553 49.8565 71.6274 50.2986C71.8169 51.1738 72.1598 52.0038 72.1598 52.0038C72.1598 52.0038 73.071 51.8144 73.9642 51.5437C74.1988 51.4805 74.4243 51.4084 74.6409 51.3362C74.677 51.4084 74.713 51.4806 74.7401 51.5527C74.8484 51.7873 74.9747 51.9587 75.0468 52.085C75.128 52.2114 75.1732 52.2835 75.1732 52.2835C75.1732 52.2835 75.2273 52.3467 75.3175 52.473C75.4078 52.5813 75.516 52.7707 75.6964 52.9602C75.7506 53.0143 75.8047 53.0775 75.8588 53.1316C75.7145 53.303 75.5611 53.4925 75.4168 53.682C74.8393 54.4218 74.3251 55.1887 74.3251 55.1887C74.3251 55.1887 74.9657 55.8112 75.7145 56.3074C76.0934 56.542 76.4814 56.7766 76.7881 56.9119C77.0859 57.0472 77.2934 57.1465 77.2934 57.1465C77.2934 57.1465 77.7986 56.3525 78.2498 55.5315C78.367 55.324 78.4843 55.1075 78.5836 54.909C78.6557 54.936 78.7369 54.9631 78.8091 54.9902C79.0527 55.0804 79.2602 55.1075 79.4136 55.1436C79.558 55.1797 79.6392 55.1977 79.6392 55.1977C79.6392 55.1977 79.7204 55.2067 79.8647 55.2248C80.0181 55.2428 80.2256 55.297 80.4782 55.297C80.5504 55.297 80.6316 55.2969 80.7128 55.306C80.7308 55.5315 80.7579 55.7661 80.794 56.0097C80.9023 56.939 81.0917 57.8593 81.0917 57.8593C81.0917 57.8593 81.3173 57.8412 81.6511 57.8232C81.994 57.8141 82.427 57.7329 82.8691 57.6608C83.7443 57.4803 84.5743 57.1284 84.5743 57.1375C84.5743 57.1375 84.3758 56.2262 84.1142 55.324C84.051 55.0985 83.9789 54.8639 83.9067 54.6474C83.9789 54.6203 84.06 54.5842 84.1232 54.5481C84.3578 54.4398 84.5292 54.3045 84.6645 54.2413C84.7908 54.1601 84.863 54.115 84.863 54.115C84.863 54.115 84.9352 54.0609 85.0525 53.9707C85.1698 53.8714 85.3502 53.7632 85.5307 53.5827C85.5848 53.5376 85.648 53.4744 85.7021 53.4203C85.8735 53.5647 86.063 53.709 86.2525 53.8624C86.9833 54.4398 87.7592 54.9631 87.7592 54.9631C87.7592 54.9631 88.3907 54.3225 88.8779 53.5737C89.1125 53.1858 89.3471 52.8158 89.4824 52.5001C89.6268 52.1933 89.717 51.9948 89.717 51.9948C89.717 51.9948 88.9321 51.4806 88.111 51.0385C87.9035 50.9753 87.687 50.867 87.4885 50.7588ZM83.5909 52.5993C83.4916 52.6534 83.3744 52.7527 83.2029 52.8158C82.8781 52.9963 82.418 53.1497 81.9488 53.267C81.4707 53.3572 80.9835 53.3752 80.6136 53.3572C80.4331 53.3572 80.2797 53.312 80.1715 53.303C80.0632 53.294 80.0091 53.285 80.0091 53.285C80.0091 53.285 79.9459 53.267 79.8467 53.2399C79.7384 53.2038 79.585 53.1948 79.4136 53.1316C79.0617 53.0143 78.6196 52.8249 78.2046 52.5632C77.8076 52.2835 77.4377 51.9677 77.2032 51.679C77.0769 51.5527 77.0047 51.4174 76.9325 51.3362C76.8693 51.246 76.8242 51.2009 76.8242 51.2009C76.8242 51.2009 76.7881 51.1467 76.734 51.0565C76.6889 50.9663 76.5806 50.84 76.5175 50.6685C76.337 50.3437 76.1837 49.8836 76.0664 49.4144C75.9761 48.9363 75.9581 48.4491 75.9761 48.0792C75.9761 47.8987 76.0212 47.7453 76.0303 47.6371C76.0483 47.5288 76.0483 47.4656 76.0483 47.4656C76.0483 47.4656 76.0664 47.4115 76.0934 47.3032C76.1295 47.204 76.1385 47.0506 76.2107 46.8792C76.319 46.5273 76.5175 46.0853 76.7791 45.6793C77.0588 45.2823 77.3746 44.9124 77.6633 44.6778C77.7896 44.5424 77.9249 44.4703 78.0061 44.4071C78.0873 44.3349 78.1415 44.2989 78.1415 44.2989C78.1415 44.2989 78.1956 44.2718 78.2858 44.2177C78.3851 44.1635 78.5024 44.0643 78.6648 43.9921C78.9896 43.8117 79.4497 43.6583 79.9279 43.55C80.406 43.4598 80.8933 43.4327 81.2632 43.4598C81.4436 43.4598 81.597 43.5049 81.7053 43.5139C81.8045 43.532 81.8676 43.532 81.8676 43.532C81.8676 43.532 81.9218 43.55 82.0301 43.5681C82.1293 43.6042 82.2827 43.6222 82.4541 43.6763C82.806 43.7936 83.2481 43.9921 83.6631 44.2537C84.0601 44.5334 84.43 44.8492 84.6645 45.1379C84.7999 45.2642 84.872 45.3996 84.9442 45.4808C85.0074 45.562 85.0435 45.6071 85.0435 45.6071C85.0435 45.6071 85.0796 45.6612 85.1247 45.7605C85.1788 45.8507 85.278 45.968 85.3412 46.1394C85.5216 46.4552 85.675 46.9243 85.7923 47.3935C85.8916 47.8717 85.9006 48.3589 85.8825 48.7197C85.8825 48.9092 85.8374 49.0536 85.8284 49.1618C85.8194 49.2701 85.8104 49.3242 85.8104 49.3242C85.8104 49.3242 85.7923 49.3784 85.7653 49.4866C85.7292 49.5949 85.7111 49.7483 85.648 49.9107C85.5307 50.2626 85.3412 50.7046 85.0705 51.1197C84.7909 51.5166 84.4751 51.8865 84.1864 52.1211C84.0601 52.2564 83.9247 52.3286 83.8435 52.4008C83.7533 52.464 83.7082 52.5001 83.7082 52.5001C83.7082 52.5001 83.6811 52.5452 83.5909 52.5993Z" fill="#DCDCDC"/>
<path d="M115.241 63.0381C115.06 62.9478 114.871 62.8666 114.708 62.7945C114.726 62.7313 114.745 62.6591 114.763 62.605C114.862 62.181 114.934 61.9013 114.934 61.9013C114.934 61.9013 114.979 61.6216 115.033 61.1885C115.042 61.1254 115.051 61.0532 115.051 60.99C115.241 60.981 115.439 60.972 115.638 60.963C116.396 60.9179 117.162 60.8366 117.162 60.8366C117.162 60.8366 117.171 60.6652 117.181 60.4126C117.181 60.2863 117.19 60.1329 117.19 59.9795C117.19 59.8171 117.171 59.6547 117.162 59.4833C117.135 59.1495 117.135 58.8066 117.081 58.554C117.036 58.3014 117.009 58.139 117.009 58.139C117.009 58.139 116.242 58.139 115.475 58.1751C115.277 58.1841 115.078 58.1931 114.898 58.2112C114.889 58.148 114.871 58.0758 114.862 58.0127C114.754 57.5886 114.672 57.3089 114.672 57.3089C114.672 57.3089 114.663 57.2368 114.618 57.1195C114.573 57.0022 114.51 56.8308 114.438 56.6233C114.42 56.5691 114.393 56.506 114.366 56.4338C114.519 56.3436 114.699 56.2353 114.871 56.1361C115.529 55.7391 116.161 55.315 116.161 55.315C116.161 55.315 116.089 55.1617 115.981 54.9361C115.872 54.7106 115.719 54.4038 115.538 54.1151C115.205 53.5287 114.781 52.9963 114.781 52.9963C114.781 52.9963 114.104 53.3572 113.445 53.7452C113.274 53.8444 113.102 53.9437 112.949 54.0429C112.904 53.9888 112.859 53.9346 112.823 53.8805C112.525 53.5557 112.336 53.3482 112.336 53.3482C112.336 53.3482 112.29 53.285 112.191 53.2038C112.101 53.1136 111.966 52.9963 111.803 52.852C111.758 52.8069 111.704 52.7617 111.659 52.7166C111.758 52.5542 111.866 52.3918 111.966 52.2204C112.372 51.5708 112.733 50.8942 112.733 50.8942C112.733 50.8942 112.597 50.7949 112.39 50.6415C112.29 50.5694 112.173 50.4791 112.038 50.3889C111.912 50.2987 111.758 50.2085 111.614 50.1273C111.045 49.7574 110.414 49.4867 110.414 49.4867C110.414 49.4867 109.981 50.1182 109.584 50.7678C109.476 50.9393 109.376 51.1107 109.277 51.2641C109.214 51.237 109.151 51.2099 109.097 51.1829C108.691 51.0385 108.411 50.9393 108.411 50.9393C108.411 50.9393 108.339 50.9122 108.221 50.8761C108.095 50.8491 107.924 50.8039 107.707 50.7498C107.644 50.7318 107.572 50.7137 107.509 50.7047C107.527 50.5243 107.536 50.3257 107.554 50.1182C107.581 49.7393 107.599 49.3514 107.608 49.0536C107.617 48.7649 107.617 48.5754 107.617 48.5754C107.617 48.5754 107.446 48.5484 107.202 48.5123C106.949 48.4852 106.624 48.413 106.282 48.404C105.939 48.386 105.605 48.3769 105.352 48.3679C105.1 48.3769 104.928 48.386 104.928 48.386C104.928 48.386 104.838 49.1529 104.784 49.9107C104.766 50.1092 104.757 50.3077 104.748 50.4881C104.685 50.4972 104.613 50.4972 104.549 50.5062C104.333 50.5152 104.152 50.5603 104.026 50.5784C103.9 50.5964 103.828 50.6145 103.828 50.6145C103.828 50.6145 103.755 50.6235 103.629 50.6415C103.503 50.6596 103.331 50.7047 103.115 50.7678C103.052 50.7859 102.989 50.8039 102.916 50.822C102.844 50.6505 102.763 50.4701 102.682 50.2897C102.366 49.5859 102.023 48.9003 102.023 48.9003C102.023 48.9003 101.987 48.9093 101.915 48.9363C101.843 48.9634 101.743 48.9995 101.626 49.0356C101.392 49.1258 101.067 49.2341 100.76 49.3784C100.462 49.5318 100.156 49.6761 99.921 49.7844C99.6954 49.9017 99.5601 50.001 99.5601 50.001C99.5601 50.001 99.8398 50.7227 100.147 51.4265C100.228 51.6069 100.309 51.7874 100.381 51.9588C100.327 51.9949 100.264 52.0309 100.21 52.067C100.02 52.1753 99.8849 52.3016 99.7766 52.3738C99.6774 52.446 99.6233 52.4911 99.6233 52.4911C99.6233 52.4911 99.5691 52.5362 99.4609 52.6174C99.3526 52.6806 99.2263 52.8159 99.0639 52.9603C99.0188 52.9963 98.9647 53.0505 98.9195 53.0956C98.7752 52.9783 98.6218 52.861 98.4684 52.7347C97.8639 52.2565 97.2414 51.8054 97.2414 51.8054C97.2414 51.8054 97.2053 51.8325 97.1602 51.8866C97.1061 51.9407 97.0429 52.0219 96.9527 52.1122C96.7903 52.3016 96.5467 52.5452 96.3392 52.8159C96.1407 53.0866 95.9332 53.3662 95.7888 53.5647C95.6445 53.7813 95.5633 53.9256 95.5633 53.9256C95.5633 53.9256 96.1407 54.4399 96.7362 54.9181C96.8895 55.0444 97.0429 55.1707 97.1963 55.2789C97.1602 55.3331 97.1241 55.3962 97.088 55.4504C96.9707 55.6308 96.9076 55.8113 96.8534 55.9195C96.7993 56.0368 96.7722 56.1 96.7722 56.1C96.7722 56.1 96.7362 56.1631 96.6911 56.2804C96.6279 56.3977 96.5647 56.5691 96.4926 56.7676C96.4745 56.8218 96.4474 56.8849 96.4294 56.9571C96.249 56.921 96.0505 56.8849 95.861 56.8488C95.1031 56.7045 94.3362 56.6052 94.3362 56.6052C94.3362 56.6052 94.2731 56.7676 94.2189 57.0112C94.1558 57.2548 94.0746 57.5886 94.0024 57.9134C93.9573 58.2473 93.9032 58.5811 93.8671 58.8337C93.831 59.0863 93.831 59.2487 93.831 59.2487C93.831 59.2487 94.5799 59.4292 95.3377 59.5826C95.5362 59.6187 95.7256 59.6547 95.9061 59.6908C95.9061 59.763 95.9061 59.8352 95.8971 59.8893C95.8881 60.1058 95.879 60.2863 95.8971 60.4126C95.9061 60.5389 95.9061 60.6111 95.9061 60.6111C95.9061 60.6111 95.9061 60.6833 95.9151 60.8096C95.9332 60.9359 95.9151 61.1163 95.9602 61.3329C95.9692 61.396 95.9783 61.4682 95.9963 61.5314C95.8159 61.5855 95.6264 61.6396 95.4369 61.7028C94.7061 61.9283 93.9754 62.19 93.9754 62.19C93.9754 62.19 94.0024 62.3524 94.0475 62.605C94.1107 62.8486 94.2009 63.1734 94.2821 63.5072C94.3723 63.832 94.5077 64.1478 94.5889 64.3824C94.634 64.4997 94.6701 64.5989 94.6971 64.6711C94.7242 64.7433 94.7422 64.7793 94.7422 64.7793C94.7422 64.7793 95.4911 64.5899 96.2309 64.3734C96.4204 64.3192 96.6098 64.2561 96.7903 64.2019C96.8173 64.2651 96.8444 64.3282 96.8805 64.3824C96.9798 64.5809 97.0519 64.7433 97.1241 64.8515C97.1873 64.9598 97.2324 65.023 97.2324 65.023C97.2324 65.023 97.2685 65.0861 97.3407 65.1944C97.4128 65.3027 97.485 65.465 97.6293 65.6365C97.6654 65.6816 97.7105 65.7447 97.7466 65.7989C97.6203 65.9252 97.476 66.0695 97.3316 66.2049C96.7903 66.7372 96.267 67.3146 96.267 67.3146C96.267 67.3146 96.3662 67.459 96.5286 67.6484C96.7001 67.8379 96.9256 68.0815 97.1602 68.3341C97.3948 68.5777 97.6564 68.7942 97.8369 68.9657C97.9271 69.0469 98.0083 69.1191 98.0624 69.1732C98.1166 69.2183 98.1526 69.2454 98.1526 69.2454C98.1526 69.2454 98.7301 68.7311 99.2804 68.1897C99.4248 68.0544 99.5601 67.9101 99.6954 67.7838C99.7496 67.8198 99.8037 67.865 99.8578 67.9011C100.029 68.0364 100.174 68.1446 100.291 68.1988C100.399 68.2619 100.462 68.307 100.462 68.307C100.462 68.307 100.525 68.3431 100.634 68.4063C100.742 68.4694 100.895 68.5777 101.094 68.6679C101.148 68.695 101.211 68.7221 101.274 68.7491C101.211 68.9296 101.157 69.1191 101.094 69.3085C100.868 70.0393 100.67 70.7791 100.67 70.7791C100.67 70.7791 100.823 70.8513 101.058 70.9596C101.292 71.0498 101.617 71.1581 101.933 71.2754C102.249 71.3926 102.583 71.4468 102.826 71.5189C103.079 71.5821 103.232 71.6182 103.232 71.6182C103.232 71.6182 103.295 71.4378 103.395 71.1671C103.494 70.8964 103.62 70.5265 103.737 70.1656C103.801 69.9761 103.864 69.7867 103.918 69.6062C103.981 69.6153 104.053 69.6243 104.116 69.6333C104.333 69.6604 104.513 69.6875 104.64 69.7055C104.766 69.7145 104.838 69.7145 104.838 69.7145C104.838 69.7145 105.127 69.7235 105.56 69.7416C105.623 69.7416 105.695 69.7416 105.758 69.7326C105.785 69.913 105.822 70.1115 105.858 70.301C105.993 71.0498 106.164 71.7986 106.164 71.7986C106.164 71.7986 106.841 71.7806 107.509 71.6453C107.671 71.6182 107.843 71.5911 107.996 71.5641C108.149 71.519 108.294 71.4829 108.411 71.4558C108.655 71.3927 108.817 71.3475 108.817 71.3475C108.817 71.3475 108.727 70.5897 108.591 69.8318C108.564 69.6333 108.528 69.4348 108.492 69.2544C108.555 69.2273 108.618 69.2093 108.682 69.1822C108.889 69.11 109.051 69.0469 109.178 69.0018C109.295 68.9657 109.358 68.9206 109.358 68.9206C109.358 68.9206 109.62 68.7943 110.008 68.6048C110.062 68.5777 110.125 68.5416 110.179 68.5055C110.288 68.6499 110.405 68.8123 110.531 68.9657C111 69.5702 111.496 70.1566 111.496 70.1566C111.496 70.1566 112.083 69.8228 112.615 69.3987C112.895 69.2003 113.139 68.9747 113.328 68.8033C113.517 68.6319 113.635 68.5146 113.635 68.5146C113.635 68.5146 113.202 67.883 112.742 67.2785C112.615 67.1161 112.498 66.9627 112.381 66.8184C112.426 66.7642 112.471 66.7191 112.516 66.665C112.66 66.5026 112.787 66.3673 112.868 66.277C112.949 66.1868 112.994 66.1146 112.994 66.1146C112.994 66.1146 113.166 65.8801 113.427 65.5372C113.463 65.4831 113.499 65.4199 113.536 65.3658C113.698 65.447 113.878 65.5282 114.068 65.6094C114.763 65.9252 115.475 66.2139 115.475 66.2139C115.475 66.2139 115.557 66.0695 115.692 65.853C115.836 65.6365 115.963 65.3297 116.107 65.023C116.179 64.8696 116.251 64.7162 116.314 64.5718C116.369 64.4185 116.423 64.2831 116.459 64.1658C116.54 63.9222 116.603 63.7689 116.603 63.7689C116.603 63.7689 115.935 63.3629 115.241 63.0381ZM111.614 65.1854C111.542 65.2666 111.442 65.3748 111.316 65.5101C111.253 65.5823 111.19 65.6545 111.118 65.7267C111.036 65.7989 110.955 65.871 110.874 65.9432C110.703 66.0966 110.531 66.268 110.333 66.4034C109.954 66.7101 109.539 66.9447 109.223 67.1251C108.898 67.2875 108.682 67.3958 108.682 67.3958C108.682 67.3958 108.627 67.4319 108.528 67.4589C108.429 67.495 108.285 67.5492 108.122 67.6123C108.041 67.6394 107.951 67.6845 107.852 67.7116C107.752 67.7386 107.644 67.7657 107.536 67.8018C107.319 67.865 107.085 67.9281 106.85 67.9462C106.381 68.0454 105.894 68.0544 105.533 68.0725C105.172 68.0544 104.928 68.0454 104.928 68.0454C104.928 68.0454 104.865 68.0454 104.766 68.0364C104.658 68.0183 104.513 68.0003 104.333 67.9732C104.152 67.9462 103.945 67.9281 103.728 67.865C103.512 67.8018 103.268 67.7747 103.043 67.6845C102.817 67.6033 102.583 67.5311 102.375 67.4409C102.168 67.3417 101.987 67.2514 101.825 67.1793C101.662 67.1071 101.536 67.0169 101.446 66.9627C101.356 66.9086 101.301 66.8725 101.301 66.8725C101.301 66.8725 101.247 66.8454 101.157 66.7913C101.067 66.7462 100.95 66.647 100.805 66.5387C100.507 66.3402 100.147 66.0154 99.7947 65.6816C99.6323 65.5011 99.4699 65.3207 99.3255 65.1583C99.1902 64.9778 99.0639 64.8064 98.9556 64.6621C98.8383 64.5267 98.7752 64.3824 98.721 64.3012C98.6669 64.2109 98.6308 64.1568 98.6308 64.1568C98.6308 64.1568 98.5947 64.1027 98.5406 64.0125C98.4774 63.9313 98.4233 63.7869 98.3421 63.6245C98.1707 63.3087 97.9993 62.8576 97.8459 62.3975C97.7918 62.1629 97.7196 61.9373 97.6654 61.7118C97.6293 61.4862 97.5933 61.2787 97.5662 61.1073C97.5301 60.9269 97.5391 60.7735 97.5301 60.6742C97.5211 60.566 97.5211 60.5119 97.5211 60.5119C97.5211 60.5119 97.5211 60.4487 97.512 60.3495C97.494 60.2412 97.503 60.0968 97.512 59.9164C97.5211 59.7359 97.512 59.5284 97.5391 59.3029C97.5752 59.0773 97.6113 58.8337 97.6384 58.5991C97.6925 58.3646 97.7557 58.13 97.8098 57.9134C97.8639 57.6969 97.9542 57.4984 98.0083 57.327C98.0624 57.1556 98.1165 57.0112 98.1707 56.921C98.2158 56.8218 98.2429 56.7676 98.2429 56.7676C98.2429 56.7676 98.2699 56.7135 98.315 56.6233C98.3692 56.5331 98.4143 56.3797 98.5045 56.2263C98.5947 56.0729 98.703 55.8925 98.8203 55.703C98.9466 55.5225 99.1 55.3331 99.2353 55.1346C99.5421 54.7647 99.8669 54.4128 100.147 54.1782C100.282 54.0609 100.381 53.9527 100.471 53.8895C100.553 53.8264 100.607 53.7903 100.607 53.7903C100.607 53.7903 100.652 53.7542 100.742 53.6911C100.832 53.6369 100.94 53.5287 101.094 53.4384C101.247 53.3482 101.428 53.2309 101.626 53.1136C101.825 53.0144 102.041 52.9061 102.258 52.8069C102.7 52.6264 103.151 52.455 103.512 52.3828C103.683 52.3377 103.828 52.2926 103.936 52.2836C104.044 52.2655 104.098 52.2565 104.098 52.2565C104.098 52.2565 104.161 52.2475 104.261 52.2295C104.369 52.2204 104.513 52.1753 104.694 52.1663C104.874 52.1573 105.082 52.1392 105.307 52.1212C105.533 52.1212 105.776 52.1392 106.02 52.1482C106.264 52.1482 106.498 52.2114 106.724 52.2295C106.949 52.2475 107.148 52.3016 107.328 52.3558C107.5 52.4009 107.653 52.4279 107.752 52.455C107.852 52.4821 107.906 52.5091 107.906 52.5091C107.906 52.5091 108.131 52.5903 108.474 52.7076C108.799 52.861 109.25 53.0414 109.647 53.3121C109.863 53.4294 110.053 53.5738 110.224 53.7091C110.315 53.7722 110.405 53.8444 110.486 53.8985C110.567 53.9617 110.63 54.0339 110.703 54.088C110.838 54.2053 110.946 54.3136 111.027 54.3767C111.109 54.4399 111.145 54.494 111.145 54.494C111.145 54.494 111.307 54.6745 111.551 54.9361C111.776 55.2248 112.083 55.5947 112.318 56.0188C112.453 56.2173 112.552 56.4338 112.651 56.6413C112.696 56.7496 112.751 56.8398 112.796 56.93C112.832 57.0293 112.868 57.1195 112.895 57.2007C112.958 57.3721 113.012 57.5075 113.048 57.6067C113.084 57.7059 113.093 57.7601 113.093 57.7601C113.093 57.7601 113.157 57.9947 113.247 58.3465C113.31 58.6984 113.409 59.1675 113.418 59.6547C113.418 59.772 113.436 59.8983 113.436 60.0156C113.427 60.1329 113.427 60.2502 113.418 60.3585C113.409 60.584 113.409 60.7915 113.373 60.972C113.328 61.3329 113.292 61.5674 113.292 61.5674C113.292 61.5674 113.238 61.802 113.148 62.1539C113.111 62.3343 113.039 62.5328 112.958 62.7403C112.922 62.8486 112.886 62.9569 112.841 63.0742C112.796 63.1824 112.742 63.2907 112.687 63.3989C112.498 63.841 112.236 64.247 112.047 64.5538C111.83 64.8425 111.686 65.041 111.686 65.041C111.686 65.041 111.686 65.1042 111.614 65.1854Z" fill="#FFDC00"/>
<path d="M44.9668 108.97C44.4616 108.221 44.0195 107.419 43.6315 106.525L44.4616 106.164C44.8225 107.003 45.2375 107.761 45.7157 108.465L44.9668 108.97ZM42.7113 103.918C42.4857 103.133 42.2872 102.285 42.0797 101.247L42.9639 101.067C43.1714 102.077 43.3699 102.907 43.5864 103.665L42.7113 103.918ZM41.5744 98.5857L41.4572 97.9813C41.3218 97.2866 41.2136 96.5919 41.1143 95.8971L42.0075 95.7708C42.0977 96.4475 42.215 97.1332 42.3413 97.8098L42.4586 98.4234L41.5744 98.5857ZM40.8346 93.1724C40.7715 92.2612 40.7264 91.3499 40.7264 90.4387L41.6286 90.4297C41.6376 91.3139 41.6737 92.2161 41.7369 93.1002L40.8346 93.1724ZM41.6827 87.7501L40.7805 87.7049C40.8256 86.8027 40.9068 85.8825 41.0151 84.9802L41.9083 85.0885C41.809 85.9727 41.7369 86.8659 41.6827 87.7501ZM42.3143 82.436L41.4301 82.2736C41.5925 81.3804 41.791 80.4782 42.0075 79.603L42.8827 79.8195C42.6661 80.6766 42.4767 81.5608 42.3143 82.436ZM43.6044 77.2392L42.7473 76.9685C43.027 76.1024 43.3338 75.2363 43.6586 74.3882L44.4977 74.713C44.1819 75.543 43.8751 76.3911 43.6044 77.2392ZM45.5532 72.2499L44.7322 71.871C45.1112 71.0499 45.5352 70.2289 45.9683 69.4259L46.7622 69.859C46.3382 70.6439 45.9322 71.4469 45.5532 72.2499ZM48.1246 67.5583L47.3667 67.0711C47.8539 66.3042 48.3772 65.5464 48.9185 64.8156L49.6403 65.3479C49.117 66.0697 48.6028 66.8095 48.1246 67.5583ZM51.3004 63.2638L50.6147 62.6773C51.2102 61.9826 51.8237 61.3059 52.4643 60.6563L53.1048 61.2879C52.4913 61.9194 51.8778 62.5781 51.3004 63.2638ZM55.0446 59.4474L54.4492 58.7707C55.1349 58.1662 55.8476 57.5888 56.5694 57.0384L57.1197 57.7512C56.407 58.2835 55.7123 58.8609 55.0446 59.4474ZM59.2941 56.2174L58.8069 55.4595C59.5648 54.9723 60.3497 54.4942 61.1527 54.0521L61.5858 54.846C60.8008 55.2791 60.0339 55.7392 59.2941 56.2174ZM63.9766 53.6551L63.6067 52.8341C64.4368 52.4551 65.2849 52.1123 66.142 51.7965L66.4487 52.6446C65.6187 52.9423 64.7886 53.2852 63.9766 53.6551ZM68.993 51.8146L68.7494 50.9484C69.6246 50.7048 70.5177 50.4793 71.4109 50.2988L71.5914 51.183C70.7162 51.3635 69.8411 51.58 68.993 51.8146Z" fill="#464646"/>
</svg>
